<?xml version="1.0" encoding="utf-8"?>
<!-- Generator: Adobe Illustrator 16.0.0, SVG Export Plug-In . SVG Version: 6.00 Build 0)  -->
<!DOCTYPE svg PUBLIC "-//W3C//DTD SVG 1.1//EN" "http://www.w3.org/Graphics/SVG/1.1/DTD/svg11.dtd">
<svg version="1.1" id="Layer_1" xmlns="http://www.w3.org/2000/svg" xmlns:xlink="http://www.w3.org/1999/xlink" x="0px" y="0px"
	 width="669.678px" height="83.5px" viewBox="0 0 669.678 83.5" enable-background="new 0 0 669.678 83.5" xml:space="preserve">
<g>
	<g>
		<path fill="#C1272D" stroke="#C1272D" stroke-miterlimit="10" d="M5.865,50.938c0.031,0.999-0.084,2.723,0.076,4.716
			c0.016,0.199,0.104,0.529,0.232,0.967c0.129,0.439,0.193,0.775,0.193,1.007c0,0.979-0.516,1.468-1.547,1.468
			c-0.645,0-1.103-0.311-1.356-0.928c-0.337-0.82-0.545-2.074-0.545-3.75c0-0.402,0-0.604,0-1.006c0-0.851-0.027-1.589-0.074-2.204
			c-0.083-1.076,0.44-1.623,1.549-1.623C5.294,49.584,5.837,50.083,5.865,50.938z M10.271,33.732
			c-0.388,0.538-1.129,2.83-2.319,6.688c-0.221,0.716-0.695,1.083-1.391,1.083c-1.057,0-1.585-0.49-1.585-1.469
			c0-0.154,0.031-0.313,0.077-0.464c0.386-1.268,0.717-2.623,1.083-3.905c0.431-1.517,1.001-2.747,1.663-3.673
			c0.311-0.434,0.709-0.657,1.199-0.657c1.056,0,1.586,0.502,1.586,1.507C10.581,33.153,10.474,33.45,10.271,33.732z M9.691,66.595
			c0.395,0.607,0.769,1.303,1.161,1.895c0.507,0.767,1.1,1.179,1.663,1.198c0.944,0.034,1.431,0.529,1.431,1.508
			c0,1.032-0.541,1.544-1.586,1.508c-1.684-0.059-3.71-1.566-5.528-4.368c-0.157-0.244-0.232-0.529-0.232-0.812
			c0-1.058,0.606-1.585,1.817-1.585C8.957,65.938,9.409,66.162,9.691,66.595z M20.749,17.572c-1.088,1.351-3.385,3.604-4.987,6.379
			c-0.281,0.488-0.684,0.851-1.276,0.851c-1.057,0-1.584-0.489-1.584-1.469c0-0.232,0.063-0.479,0.193-0.735
			c0.431-0.848,1.265-1.959,2.474-3.324c1.367-1.543,2.24-2.654,2.629-3.287c0.3-0.486,0.722-0.734,1.237-0.734
			c1.057,0,1.586,0.502,1.586,1.508C21.021,17.044,20.933,17.344,20.749,17.572z M22.296,74.481
			c1.126-0.498,2.205-0.775,3.209-0.775c1.417,0,3.04-0.21,4.833-0.577c0.127-0.026,0.257-0.039,0.387-0.039
			c0.953,0,1.43,0.514,1.43,1.547c0,0.773-0.401,1.252-1.198,1.431c-1.979,0.441-3.802,0.657-5.451,0.657
			c-0.128,0-0.44,0.103-0.929,0.309c-0.49,0.206-0.852,0.267-1.083,0.193c-1.496-0.478-2.281-1.018-2.281-1.662
			C21.213,75.152,21.585,74.796,22.296,74.481z M32.658,9.299c-1.802,0.557-4.2,1.786-7.036,3.749
			c-0.257,0.178-0.543,0.271-0.852,0.271c-1.005,0-1.507-0.516-1.507-1.546c0-0.489,0.22-0.896,0.658-1.199
			c1.83-1.268,3.116-2.072,3.75-2.436c1.181-0.677,2.6-1.257,4.137-1.74c0.153-0.048,0.323-0.078,0.503-0.078
			c0.954,0,1.43,0.528,1.43,1.585C33.74,8.603,33.374,9.078,32.658,9.299z M36.756,70.384c1.803-1.729,3.146-3.135,3.75-4.212
			c0.285-0.511,0.708-0.775,1.275-0.775c1.031,0,1.547,0.489,1.547,1.469c0,0.259-0.062,0.526-0.193,0.773
			c-0.719,1.351-2.218,3.039-4.33,4.987c-0.308,0.284-0.646,0.426-1.006,0.426c-1.031,0-1.546-0.527-1.546-1.586
			C36.255,71.08,36.422,70.705,36.756,70.384z M45.534,6.398c-2.084-0.79-3.638-0.73-4.639,0.078
			c-0.321,0.259-0.685,0.386-1.045,0.386c-0.903,0-1.352-0.477-1.352-1.431c0-0.799,0.489-1.425,1.43-1.97
			C40.492,3.135,41.126,3,41.823,3c0.696,0,1.043,0,1.739,0c0.902,0,1.92,0.179,3.054,0.617c0.67,0.258,1.004,0.689,1.004,1.333
			c0,1.057-0.489,1.575-1.469,1.575C45.946,6.525,45.739,6.477,45.534,6.398z M48.201,11.89c-1.24,1.519-1.855,2.835-1.855,3.866
			c0,0.799,0.335,1.472,1.005,2.011c0.385,0.31,0.58,0.684,0.58,1.122c0,1.057-0.503,1.584-1.508,1.584
			c-0.334,0-0.658-0.134-0.966-0.386c-1.392-1.137-2.127-2.577-2.127-4.331c0-1.752,0.867-3.675,2.552-5.76
			c0.309-0.383,0.682-0.58,1.121-0.58c1.056,0,1.584,0.502,1.584,1.507C48.588,11.258,48.453,11.58,48.201,11.89z M45.225,61.414
			c0.526-0.618,0.789-0.928,1.314-1.546c0.721-0.876,1.346-1.788,1.662-1.934c0.671-0.309,2.405,1.024,2.282,1.585
			c-0.098,0.449-1.343,1.462-2.088,2.358c-0.181,0.22-0.491,0.594-0.929,1.083C46.569,62.342,46.121,62.033,45.225,61.414z
			 M56.476,7.751c-0.693,0.051-1.462,0.047-2.204,0.078c-1.075,0.044-1.738,0.253-1.971,0.58c-0.348,0.488-0.76,0.734-1.199,0.734
			c-0.928,0-1.393-0.566-1.393-1.701c0-1.469,1.293-2.441,3.558-2.551c0.612-0.03,1.648,0.003,2.861-0.116
			c1.096-0.109,1.701,0.348,1.701,1.507C57.829,7.159,57.346,7.687,56.476,7.751z M54.388,13.745
			c-0.086,1.923-0.158,3.221-0.27,3.827c-0.277,1.499-0.936,2.636-1.857,3.249c-0.275,0.182-0.578,0.271-0.888,0.271
			c-1.005,0-1.508-0.528-1.508-1.585c0-0.49,0.225-0.889,0.676-1.199c0.451-0.31,0.769-1.895,0.871-4.678
			c0.034-0.944,0.515-1.431,1.469-1.431C53.937,12.198,54.434,12.719,54.388,13.745z"/>
		<path fill="#C1272D" stroke="#C1272D" stroke-miterlimit="10" d="M49.825,59.249c-0.179,0.26-0.228,1.434-0.502,2.514
			c-0.187,0.735-0.67,1.119-1.392,1.119c-1.057,0-1.585-0.475-1.585-1.429c0-0.155,0.041-0.318,0.077-0.464
			c0.174-0.701,0.277-1.567,0.445-2.379c0.167-0.811,0.655-1.445,1.413-1.913c0.282-0.175,0.554-0.271,0.811-0.271
			c1.006,0,1.509,0.529,1.509,1.585C50.6,58.554,50.004,58.988,49.825,59.249z M50.831,70.19c-0.004,0.017,0.851,0.696,0.851,1.236
			c0,1.032-0.542,1.547-1.625,1.547c-0.722,0-1.33-0.478-1.817-1.432c-0.672-1.312-1.005-2.642-1.005-3.981
			c0-1.984,0.645-2.978,1.934-2.978c1.031,0,1.545,0.451,1.545,1.354c0,0.31-0.103,0.618-0.309,0.929
			c-0.103,0.153-0.154,0.386-0.154,0.695c0,0.85,0.707,2.61,0.696,2.628C50.943,70.196,50.831,70.19,50.831,70.19z M50.561,53.063
			c0.86-1.402,2.338-2.881,4.369-4.33c0.283-0.202,0.58-0.31,0.889-0.31c1.006,0,1.51,0.529,1.51,1.585
			c0,0.489-0.221,0.892-0.659,1.199c-1.028,0.722-1.702,1.198-1.973,1.43c-0.565,0.489-1.081,1.182-1.547,1.972
			c-0.303,0.515-0.734,0.776-1.274,0.776c-1.057,0-1.585-0.505-1.585-1.508C50.291,53.618,50.388,53.346,50.561,53.063z
			 M55.007,74.443c0.665,0.345,2.513,0.541,2.513,0.541s0.466-0.076,2.166-0.232c1.107-0.102,1.663,0.4,1.663,1.508
			c0,0.902-0.473,1.417-1.391,1.508C58.201,77.942,57.52,78,57.52,78s-2.837-0.307-3.943-0.89c-0.538-0.284-0.812-0.709-0.812-1.275
			c0-1.058,0.49-1.585,1.469-1.585C54.491,74.25,54.754,74.312,55.007,74.443z M61,43.592c0.844-1.005,2.918-1.708,5.452-2.513
			c0.123-0.039,0.271-0.078,0.426-0.078c0.954,0,1.43,0.515,1.43,1.547c0,0.772-0.375,1.251-1.121,1.43
			c-1.081,0.26-2.772,0.719-3.906,1.586c-0.325,0.249-0.709,0.541-1.121,0.541c-1.031,0-1.547-0.503-1.547-1.506
			C60.613,44.236,60.743,43.899,61,43.592z M66.375,71.428c0.353-0.113,0.972-0.477,1.816-1.044c0.721-0.482,1.25-0.734,1.585-0.734
			c0.98,0,1.469,0.528,1.469,1.585c0,0.49-0.234,0.889-0.696,1.198c-1.906,1.279-3.17,1.934-3.789,1.934
			c-0.979,0-1.469-0.516-1.469-1.547C65.292,72.099,65.682,71.649,66.375,71.428z M73.412,47.148
			c-0.443,0.914-1.12,2.333-1.779,4.098c-0.247,0.664-0.696,1.044-1.393,1.044c-1.031,0-1.546-0.489-1.546-1.469
			c0-0.181,0.013-0.399,0.077-0.579c0.298-0.851,1.017-2.356,1.856-4.252c0.271-0.611,0.734-0.928,1.353-0.928
			c1.056,0,1.584,0.479,1.584,1.434C73.565,46.723,73.512,46.942,73.412,47.148z M72.097,56.427
			c0.273,0.771,0.724,1.335,1.315,1.665c0.512,0.283,0.773,0.696,0.773,1.236c0,1.058-0.49,1.585-1.469,1.585
			c-0.283,0-0.557-0.082-0.813-0.231c-1.21-0.705-2.083-1.847-2.628-3.249c-0.069-0.177-0.116-0.36-0.116-0.542
			c0-0.979,0.528-1.468,1.584-1.468C71.413,55.422,71.861,55.765,72.097,56.427z M74.108,39.996c1.157,0.156,2.412,0.578,3.75,1.275
			c1.674,0.873,2.513,1.779,2.513,2.707c0,1.006-0.529,1.508-1.586,1.508c-0.567,0-0.985-0.308-1.275-0.851
			c-0.095-0.178-0.534-0.478-1.276-0.85c-0.885-0.444-1.745-0.717-2.512-0.812c-0.869-0.108-1.315-0.592-1.315-1.467
			C72.406,40.344,72.975,39.844,74.108,39.996z M78.688,62.67c-0.425,0.271-0.882,0.843-1.371,1.722
			c-0.49,0.875-1.033,1.512-1.625,1.894c-0.281,0.183-0.567,0.271-0.851,0.271c-0.979,0-1.47-0.527-1.47-1.586
			c0-0.513,0.238-0.954,0.696-1.236c0.17-0.104,0.528-0.601,1.044-1.489c0.515-0.89,1.148-1.586,1.895-2.067
			c0.28-0.182,0.566-0.271,0.85-0.271c0.979,0,1.469,0.529,1.469,1.585C79.326,62.007,79.114,62.401,78.688,62.67z M82.227,48.656
			c0.077,1.961-0.186,3.934-0.851,5.838c-0.232,0.668-0.696,1.005-1.392,1.005c-1.031,0-1.546-0.477-1.546-1.431
			c0-0.181,0.022-0.367,0.078-0.541c0.482-1.517,0.799-3.148,0.734-4.755c-0.042-1.049,0.452-1.586,1.509-1.586
			C81.712,47.187,82.188,47.689,82.227,48.656z M80.719,63.038c1.001,0.099,1.624,0.154,1.856,0.154
			c1.005,0,1.508,0.503,1.508,1.506s-0.503,1.508-1.508,1.508c-0.31,0-1.033-0.083-2.126-0.193
			c-0.887-0.088-1.354-0.566-1.354-1.469C79.094,63.438,79.641,62.932,80.719,63.038z M86.094,62.188
			c-0.232-0.181-0.36-0.569-0.387-1.161c-0.025-0.566,0.038-0.965,0.193-1.16c0.697-0.87,1.385-1.786,1.701-1.932
			c0.671-0.309,2.347,0.875,2.282,1.585c-0.081,0.865-1.344,2.033-2.088,2.358C86.903,62.268,86.326,62.368,86.094,62.188z"/>
		<path fill="#C1272D" stroke="#C1272D" stroke-miterlimit="10" d="M87.795,60.912c-0.156,0.19-0.387,0.312-0.696,0.312
			c-0.438,0-0.845-0.187-1.219-0.561c-0.374-0.376-0.567-0.939-0.406-1.259c0.348-0.688,1.467-1.734,2.396-2.82
			c0.176-0.206,0.375-0.31,0.581-0.31c0.824,0,1.273,0.572,1.392,1.663c0.022,0.204-0.076,0.73-0.387,1.162
			C89.279,59.343,88.569,59.965,87.795,60.912z M92.28,52.213c0.153-1.106,1.384-2.558,3.673-4.253
			c0.279-0.207,0.592-0.31,0.927-0.31c1.006,0,1.509,0.514,1.509,1.547c0,0.464-0.21,0.893-0.619,1.198
			c-0.698,0.523-2.101,1.397-2.514,2.242c-0.265,0.542-0.619,1.274-1.469,1.274C92.628,53.914,92.124,53.345,92.28,52.213z
			 M104.614,73.206c-0.178,0.48-0.664,1.36-1.161,2.513c-0.262,0.609-0.696,0.928-1.314,0.928c-1.057,0-1.585-0.476-1.585-1.43
			c0-0.206,0.047-0.438,0.155-0.657c0.21-0.431,0.596-1.231,1.044-2.358c0.262-0.661,0.722-1.007,1.393-1.007
			c1.031,0,1.546,0.478,1.546,1.432C104.691,72.807,104.68,73.028,104.614,73.206z M101.172,44.442
			c1.318-1.836,3.338-2.784,6.072-2.784c0.979,0,1.469,0.503,1.469,1.508s-0.49,1.506-1.469,1.506c-1.701,0-2.921,0.506-3.635,1.508
			c-0.31,0.435-0.695,0.657-1.159,0.657c-1.057,0-1.584-0.505-1.584-1.508C100.864,45.021,100.969,44.726,101.172,44.442z
			 M108.172,65.551c-0.413,0.458-0.715,1.07-0.908,1.817c-0.193,0.748-0.665,1.121-1.411,1.121c-1.031,0-1.546-0.477-1.546-1.431
			c0-0.154,0.009-0.3,0.038-0.425c0.275-1.217,0.886-2.27,1.625-3.093c0.311-0.347,0.67-0.542,1.083-0.542
			c1.031,0,1.546,0.514,1.546,1.547C108.597,64.908,108.451,65.242,108.172,65.551z M112.309,55.77
			c-0.335,1.017-0.872,3.312-2.127,5.102c-0.227,0.323-0.684,0.505-1.122,0.505c-1.032,0-1.547-0.505-1.547-1.508
			c0-0.36,0.142-0.702,0.425-1.025c0.283-0.322,0.58-0.998,0.889-2.029c0.386-1.289,0.644-2.073,0.773-2.358
			c0.257-0.567,0.696-0.851,1.314-0.851c1.031,0,1.548,0.489,1.548,1.47C112.464,55.306,112.381,55.553,112.309,55.77z
			 M113.082,44.558c0.362,1.054,0.541,2.707,0.541,4.949c0,1.005-0.489,1.508-1.468,1.508c-1.006,0-1.509-0.505-1.509-1.508
			c0-1.882-0.123-3.211-0.386-3.943c-0.074-0.204-0.116-0.399-0.116-0.58c0-0.953,0.528-1.431,1.585-1.431
			C112.398,43.553,112.853,43.89,113.082,44.558z M113.739,54.339c0.542-0.591,1.414-1.521,2.59-2.783
			c0.31-0.333,0.67-0.503,1.083-0.503c1.031,0,1.547,0.514,1.547,1.547c0,0.36-0.143,0.7-0.426,1.005
			c-0.48,0.515-1.352,1.495-2.59,2.784c-0.323,0.335-0.696,0.502-1.083,0.502c-1.032,0-1.547-0.515-1.547-1.548
			C113.313,54.982,113.457,54.648,113.739,54.339z M121.356,46.916c0.897-0.594,2.196-1.468,3.866-2.552
			c0.28-0.181,0.58-0.271,0.889-0.271c0.979,0,1.471,0.514,1.471,1.547c0,0.514-0.226,0.951-0.659,1.236
			c-0.833,0.55-2.171,1.408-3.866,2.513c-0.279,0.182-0.58,0.271-0.889,0.271c-1.006,0-1.508-0.514-1.508-1.546
			C120.66,47.625,120.894,47.224,121.356,46.916z M130.752,71.195c0.489,1.47,1.218,2.204,2.184,2.204
			c0.966,0,1.452,0.503,1.452,1.508c0,1.004-0.504,1.508-1.51,1.508c-2.372,0-4.112-1.473-4.987-4.294
			c-0.054-0.176-0.078-0.347-0.078-0.503c0-0.979,0.516-1.468,1.547-1.468C130.056,70.151,130.52,70.5,130.752,71.195z
			 M132.801,62.574c-0.876,0.826-1.426,1.758-1.508,2.783c-0.073,0.924-0.568,1.393-1.469,1.393c-1.108,0-1.633-0.553-1.546-1.624
			c0.068-0.843,0.471-1.884,1.159-3.093c0.802-1.407,1.572-2.127,2.32-2.127c1.031,0,1.547,0.516,1.547,1.547
			C133.305,61.866,133.135,62.259,132.801,62.574z M130.675,42.006c0.603-0.923,1.481-1.392,2.59-1.392
			c1.16,0,2.09,0.29,2.784,0.812c0.276,0.208,0.908,0.876,1.857,2.01c0.257,0.308,0.386,0.643,0.386,1.006
			c0,1.005-0.516,1.508-1.547,1.508c-0.439,0-0.82-0.193-1.141-0.58c-0.322-0.387-0.632-0.85-0.946-1.199
			c-0.3-0.332-1.19-0.652-1.47-0.502c-0.26,0.138-0.709,0.695-1.199,0.695c-1.057,0-1.584-0.502-1.584-1.508
			C130.404,42.574,130.493,42.285,130.675,42.006z M136.088,55.035c-0.308,0.439-0.709,0.657-1.198,0.657
			c-1.032,0-1.548-0.503-1.548-1.508c0-0.31,0.088-0.616,0.271-0.89c0.433-0.639,0.903-1.637,1.237-2.938
			c0.189-0.733,0.644-1.121,1.392-1.121c1.031,0,1.546,0.49,1.546,1.469C137.789,51.969,137.223,53.418,136.088,55.035z
			 M137.422,71.892c0.451-0.335,1.176-0.885,2.146-1.508c0.246-0.158,0.515-0.232,0.773-0.232c1.006,0,1.509,0.517,1.509,1.547
			c0,0.544-0.298,0.942-0.735,1.237c-0.455,0.306-0.929,0.729-1.392,1.082c-0.61,0.466-1.109,0.696-1.469,0.696
			c-1.005,0-1.508-0.529-1.508-1.585C136.745,72.64,136.971,72.228,137.422,71.892z M142.971,67.445
			c0.302-0.784,0.969-1.767,2.049-2.706c0.298-0.259,0.644-0.387,1.005-0.387c1.031,0,1.546,0.517,1.546,1.547
			c0,0.412-0.182,0.775-0.542,1.082c-0.361,0.312-0.902,0.835-1.238,1.469c-0.296,0.561-0.721,1.006-1.391,1.006
			c-1.031,0-1.547-0.489-1.547-1.468C142.854,67.808,142.902,67.622,142.971,67.445z M149.041,62.188
			c-0.232-0.206-0.361-0.593-0.386-1.16c-0.026-0.567,0.037-0.965,0.193-1.159c0.696-0.871,1.385-1.788,1.701-1.934
			c0.671-0.309,2.347,0.875,2.282,1.585c-0.081,0.865-1.344,2.023-2.088,2.358C149.842,62.286,149.272,62.395,149.041,62.188z"/>
		<path fill="#C1272D" stroke="#C1272D" stroke-miterlimit="10" d="M151.748,60.912c-0.156,0.19-0.386,0.312-0.696,0.312
			c-0.438,0-0.844-0.187-1.218-0.561c-0.375-0.376-0.567-0.939-0.406-1.259c0.348-0.688,1.467-1.734,2.396-2.82
			c0.176-0.206,0.374-0.31,0.58-0.31c0.824,0,1.273,0.572,1.393,1.663c0.022,0.204-0.076,0.73-0.387,1.162
			C153.23,59.343,152.522,59.965,151.748,60.912z M156.233,52.213c0.153-1.106,1.383-2.558,3.672-4.253
			c0.28-0.207,0.592-0.31,0.928-0.31c1.005,0,1.508,0.514,1.508,1.547c0,0.464-0.211,0.893-0.619,1.198
			c-0.698,0.523-2.101,1.397-2.514,2.242c-0.265,0.542-0.618,1.274-1.468,1.274C156.581,53.914,156.077,53.345,156.233,52.213z
			 M168.567,73.206c-0.178,0.48-0.664,1.36-1.16,2.513c-0.262,0.609-0.696,0.928-1.314,0.928c-1.057,0-1.584-0.476-1.584-1.43
			c0-0.206,0.046-0.438,0.154-0.657c0.21-0.431,0.597-1.231,1.043-2.358c0.262-0.661,0.722-1.007,1.393-1.007
			c1.031,0,1.546,0.478,1.546,1.432C168.645,72.807,168.632,73.028,168.567,73.206z M165.125,44.442
			c1.318-1.836,3.338-2.784,6.071-2.784c0.979,0,1.468,0.503,1.468,1.508s-0.491,1.506-1.47,1.506c-1.701,0-2.919,0.506-3.633,1.508
			c-0.31,0.435-0.696,0.657-1.16,0.657c-1.057,0-1.585-0.505-1.585-1.508C164.817,45.021,164.922,44.726,165.125,44.442z
			 M172.125,65.551c-0.414,0.458-0.716,1.07-0.909,1.817c-0.193,0.748-0.665,1.121-1.411,1.121c-1.031,0-1.545-0.477-1.545-1.431
			c0-0.154,0.009-0.3,0.038-0.425c0.275-1.217,0.886-2.27,1.624-3.093c0.31-0.347,0.67-0.542,1.083-0.542
			c1.031,0,1.547,0.514,1.547,1.547C172.55,64.908,172.403,65.242,172.125,65.551z M176.262,55.77
			c-0.335,1.017-0.872,3.312-2.127,5.102c-0.228,0.323-0.684,0.505-1.121,0.505c-1.032,0-1.546-0.505-1.546-1.508
			c0-0.36,0.141-0.702,0.424-1.025c0.283-0.322,0.581-0.998,0.89-2.029c0.386-1.289,0.644-2.073,0.773-2.358
			c0.258-0.567,0.696-0.851,1.314-0.851c1.031,0,1.547,0.489,1.547,1.47C176.416,55.306,176.333,55.553,176.262,55.77z
			 M177.034,44.558c0.362,1.054,0.541,2.707,0.541,4.949c0,1.005-0.489,1.508-1.468,1.508c-1.005,0-1.507-0.505-1.507-1.508
			c0-1.882-0.123-3.211-0.387-3.943c-0.073-0.204-0.116-0.399-0.116-0.58c0-0.953,0.528-1.431,1.585-1.431
			C176.351,43.553,176.804,43.89,177.034,44.558z M177.691,54.339c0.542-0.591,1.414-1.521,2.59-2.783
			c0.31-0.333,0.671-0.503,1.084-0.503c1.031,0,1.546,0.514,1.546,1.547c0,0.36-0.142,0.7-0.425,1.005
			c-0.48,0.515-1.353,1.495-2.591,2.784c-0.323,0.335-0.695,0.502-1.083,0.502c-1.032,0-1.546-0.513-1.546-1.546
			C177.266,54.984,177.409,54.648,177.691,54.339z M185.308,46.916c0.897-0.594,2.197-1.468,3.867-2.552
			c0.279-0.181,0.58-0.271,0.889-0.271c0.979,0,1.469,0.514,1.469,1.547c0,0.514-0.224,0.951-0.657,1.236
			c-0.833,0.55-2.173,1.408-3.868,2.513c-0.278,0.182-0.579,0.271-0.888,0.271c-1.005,0-1.508-0.514-1.508-1.546
			C184.613,47.625,184.845,47.224,185.308,46.916z M194.705,71.195c0.489,1.47,1.218,2.204,2.184,2.204
			c0.966,0,1.45,0.503,1.45,1.508c0,1.004-0.502,1.508-1.507,1.508c-2.373,0-4.114-1.473-4.989-4.294
			c-0.055-0.176-0.078-0.347-0.078-0.503c0-0.979,0.515-1.468,1.546-1.468C194.008,70.151,194.473,70.5,194.705,71.195z
			 M196.753,62.574c-0.876,0.826-1.427,1.758-1.508,2.783c-0.072,0.924-0.567,1.393-1.469,1.393c-1.108,0-1.633-0.553-1.546-1.624
			c0.068-0.843,0.472-1.884,1.16-3.093c0.801-1.407,1.572-2.127,2.32-2.127c1.031,0,1.547,0.516,1.547,1.547
			C197.256,61.866,197.088,62.259,196.753,62.574z M194.627,42.006c0.603-0.923,1.482-1.392,2.59-1.392
			c1.16,0,2.09,0.29,2.784,0.812c0.275,0.208,0.908,0.876,1.856,2.01c0.258,0.308,0.388,0.643,0.388,1.006
			c0,1.005-0.518,1.508-1.548,1.508c-0.438,0-0.819-0.193-1.14-0.58c-0.322-0.387-0.633-0.85-0.947-1.199
			c-0.3-0.332-1.188-0.652-1.469-0.502c-0.26,0.138-0.709,0.695-1.198,0.695c-1.057,0-1.586-0.502-1.586-1.508
			C194.356,42.574,194.445,42.285,194.627,42.006z M200.04,55.035c-0.308,0.439-0.708,0.657-1.198,0.657
			c-1.031,0-1.547-0.503-1.547-1.508c0-0.31,0.087-0.616,0.271-0.89c0.433-0.639,0.903-1.637,1.237-2.938
			c0.189-0.733,0.644-1.121,1.391-1.121c1.031,0,1.547,0.49,1.547,1.469C201.741,51.969,201.175,53.418,200.04,55.035z
			 M201.375,71.892c0.45-0.335,1.177-0.885,2.146-1.508c0.246-0.158,0.515-0.232,0.773-0.232c1.006,0,1.507,0.517,1.507,1.547
			c0,0.544-0.297,0.942-0.734,1.237c-0.455,0.306-0.93,0.729-1.393,1.082c-0.61,0.466-1.108,0.696-1.469,0.696
			c-1.005,0-1.508-0.529-1.508-1.585C200.697,72.64,200.922,72.228,201.375,71.892z M206.922,67.445
			c0.302-0.784,0.97-1.767,2.049-2.706c0.298-0.259,0.644-0.387,1.004-0.387c1.031,0,1.548,0.517,1.548,1.547
			c0,0.412-0.182,0.775-0.542,1.082c-0.361,0.312-0.902,0.835-1.238,1.469c-0.296,0.561-0.722,1.006-1.392,1.006
			c-1.032,0-1.546-0.489-1.546-1.468C206.807,67.808,206.854,67.622,206.922,67.445z M212.993,62.188
			c-0.232-0.206-0.362-0.593-0.387-1.16c-0.025-0.567,0.037-0.965,0.194-1.159c0.696-0.871,1.386-1.788,1.702-1.934
			c0.671-0.309,2.348,0.875,2.282,1.585c-0.081,0.865-1.345,2.023-2.089,2.358C213.793,62.286,213.225,62.395,212.993,62.188z"/>
		<path fill="#C1272D" stroke="#C1272D" stroke-miterlimit="10" d="M217.633,56.697c-0.465,0.59-0.771,1.194-0.813,1.778
			c-0.065,0.911-0.542,1.393-1.469,1.393c-1.083,0-1.581-0.546-1.507-1.624c0.082-1.206,0.559-2.359,1.43-3.443
			c0.309-0.383,0.683-0.577,1.122-0.577c1.056,0,1.586,0.502,1.586,1.508C217.982,56.066,217.867,56.4,217.633,56.697z
			 M217.247,65.474c0.128,0.282,0.464,0.696,0.464,1.083c0,0.954-0.542,1.43-1.625,1.43c-1.186,0-1.856-0.951-1.894-2.744
			c-0.008-0.404,0.004-1.064-0.038-1.897c-0.053-1.035,0.425-1.585,1.507-1.585c0.928,0,1.517,0.561,1.508,1.433
			C217.164,63.664,216.964,64.846,217.247,65.474z M218.947,72.78c0.559,1.055,1.154,1.661,1.741,1.779
			c0.81,0.163,1.237,0.631,1.237,1.43c0,1.237-0.614,1.746-1.817,1.508c-1.515-0.299-2.745-1.566-3.791-3.324
			c-0.135-0.228-0.231-0.477-0.231-0.735c0-0.979,0.528-1.469,1.585-1.469C218.238,71.969,218.662,72.243,218.947,72.78z
			 M217.942,58.128c0.335,0,0.792-0.083,1.371-0.25c0.58-0.169,1.013-0.25,1.296-0.25c0.979,0,1.47,0.514,1.47,1.544
			c0,0.775-0.391,1.248-1.161,1.433c-1.491,0.354-2.489,0.544-2.978,0.544c-1.006,0-1.508-0.505-1.508-1.508
			C216.433,58.632,216.938,58.128,217.942,58.128z M222.891,49.197c-0.051,0.045-0.759,0.655-2.049,1.817
			c-0.309,0.28-0.645,0.425-1.005,0.425c-1.005,0-1.508-0.528-1.508-1.585c0-0.413,0.171-0.773,0.502-1.082
			c0.489-0.457,1.257-1.204,2.281-2.011c0.265-0.209,0.581-0.31,0.89-0.31c1.006,0,1.508,0.529,1.508,1.585
			C223.51,48.501,223.253,48.884,222.891,49.197z M225.753,55.731c0.638-0.407,1.845-0.988,3.131-1.856
			c0.28-0.188,0.579-0.309,0.889-0.309c1.005,0,1.507,0.527,1.507,1.585c0,0.49-0.242,0.93-0.695,1.198
			c-0.639,0.377-1.79,0.938-3.016,1.778c-0.306,0.21-0.618,0.348-0.928,0.348c-1.005,0-1.508-0.528-1.508-1.585
			C225.133,56.427,225.35,55.987,225.753,55.731z M230.062,42.973c-0.787,0.181-1.451,0.514-1.953,1.005
			c-0.31,0.302-0.656,0.465-1.042,0.465c-1.032,0-1.546-0.516-1.546-1.547c0-0.387,0.153-0.737,0.463-1.044
			c1.25-1.236,2.539-1.854,3.827-1.854c0.953,0,1.431,0.516,1.431,1.548C231.242,42.315,230.849,42.793,230.062,42.973z
			 M227.415,74.637c1.8-0.749,2.822-1.236,3.015-1.468c0.285-0.342,0.643-0.543,1.082-0.543c1.056,0,1.586,0.478,1.586,1.432
			c0,0.644-0.432,1.229-1.295,1.758c-0.864,0.529-1.956,1.103-3.229,1.606c-0.2,0.079-0.412,0.116-0.618,0.116
			c-0.979,0-1.469-0.527-1.469-1.586C226.487,75.332,226.796,74.894,227.415,74.637z M233.058,51.092
			c0.542-0.903,1.083-1.671,1.624-2.204c0.314-0.309,0.696-0.464,1.083-0.464c1.031,0,1.545,0.516,1.545,1.547
			c0,0.387-0.181,0.734-0.503,1.044c-0.386,0.371-0.791,0.929-1.198,1.623c-0.284,0.486-0.697,0.735-1.238,0.735
			c-1.031,0-1.545-0.49-1.545-1.47C232.826,51.619,232.903,51.35,233.058,51.092z M235.764,43.63c0-0.8-0.135-1.394-0.387-1.778
			c-0.181-0.281-0.271-0.567-0.271-0.851c0-1.005,0.527-1.508,1.584-1.508c0.489,0,0.889,0.234,1.199,0.696
			c0.587,0.876,0.89,2.025,0.89,3.441c0,1.007-0.504,1.508-1.509,1.508S235.764,44.635,235.764,43.63z M237.851,66.672
			c0.277-0.181,0.567-0.271,0.851-0.271c1.005,0,1.507,0.528,1.507,1.585c0,0.49-0.239,0.895-0.715,1.216
			c-0.478,0.323-1.036,0.912-1.643,1.762c-0.311,0.433-0.708,0.657-1.197,0.657c-1.031,0-1.547-0.503-1.547-1.508
			C235.107,69.056,236.03,67.867,237.851,66.672z M240.674,62.768c0.332-0.207,0.562-0.378,0.656-0.503
			c0.314-0.43,0.708-0.695,1.198-0.695c1.056,0,1.585,0.502,1.585,1.505c0,0.312-0.126,0.597-0.31,0.85
			c-0.343,0.476-0.864,0.997-1.585,1.432c-0.258,0.154-0.516,0.231-0.774,0.231c-1.005,0-1.507-0.527-1.507-1.585
			C239.938,63.489,240.185,63.072,240.674,62.768z M243.571,59.868c0.683-0.872,1.348-1.788,1.664-1.934
			c0.67-0.309,2.342,0.871,2.28,1.585c-0.101,1.139-1.529,2.399-2.086,2.358c-0.455-0.032-0.913-0.379-1.353-1.005
			C243.677,60.31,243.493,59.967,243.571,59.868z"/>
		<path fill="#C1272D" stroke="#C1272D" stroke-miterlimit="10" d="M247.978,65.977c0,1.237,0.203,2.251,0.619,3.016
			c0.126,0.231,0.193,0.479,0.193,0.734c0,0.979-0.528,1.469-1.584,1.469c-0.569,0-0.992-0.273-1.276-0.812
			c-0.638-1.207-0.966-2.68-0.966-4.405c0-1.006,0.502-1.508,1.506-1.508C247.477,64.47,247.978,64.971,247.978,65.977z
			 M249.022,55.847c-0.282,0.387-0.425,1.103-0.425,2.146c0,1.043-0.502,1.565-1.507,1.565s-1.508-0.503-1.508-1.508
			c0-1.726,0.345-3.054,1.006-3.979c0.31-0.435,0.708-0.657,1.199-0.657c1.032,0,1.545,0.514,1.545,1.546
			C249.331,55.268,249.229,55.565,249.022,55.847z M251.496,73.824c0.153,0.15,0.285,0.268,0.384,0.31
			c0.613,0.257,1.007,0.696,1.007,1.392c0,1.007-0.49,1.508-1.469,1.508c-0.617,0-1.289-0.369-2.009-1.044
			c-0.275-0.257-0.532-0.437-0.735-0.541c-0.539-0.276-0.81-0.708-0.81-1.275c0-1.057,0.502-1.585,1.507-1.585
			C249.911,72.588,250.645,72.999,251.496,73.824z M254.395,47.729c-0.049,0.02-0.67,0.771-1.857,2.165
			c-0.329,0.383-0.708,0.577-1.12,0.577c-1.057,0-1.586-0.513-1.586-1.547c0-0.334,0.147-0.658,0.387-0.967
			c0.441-0.562,0.89-1.185,1.354-1.777s1.082-1.012,1.815-1.276c0.204-0.073,0.399-0.115,0.58-0.115
			c0.978,0,1.467,0.527,1.467,1.585C255.438,47.045,255.022,47.466,254.395,47.729z M256.714,42.663
			c0.954-0.819,1.868-1.236,2.744-1.236c1.006,0,1.508,0.502,1.508,1.507s-0.502,1.506-1.507,1.506
			c-0.129,0-0.367,0.148-0.714,0.445c-0.347,0.297-0.691,0.444-1.025,0.444c-1.031,0-1.546-0.514-1.546-1.546
			C256.173,43.347,256.354,42.973,256.714,42.663z M259.342,73.438c0.329-0.068,0.823-0.368,1.467-0.872
			c0.644-0.502,1.186-0.751,1.624-0.751c0.979,0,1.468,0.515,1.468,1.546c0,0.619-0.405,1.043-0.927,1.354
			c-0.198,0.117-0.504,0.375-0.889,0.657c-0.952,0.696-1.778,1.044-2.474,1.044c-1.007,0-1.507-0.505-1.507-1.508
			C258.106,74.081,258.537,73.606,259.342,73.438z M266.582,45.061v0.077c0,0.019-0.683-0.341-1.108-0.638
			c-0.423-0.296-0.697-0.677-0.697-1.141c0-1.057,0.474-1.585,1.478-1.585c0.31,0,0.592,0.116,0.873,0.31
			c0.419,0.287,0.898,0.546,1.27,0.812c0.405,0.29,0.73,0.796,0.847,1.314c0.032,0.144,0.036,0.297,0.036,0.425
			c0,0.979-0.395,1.47-1.427,1.47C267.131,46.104,266.582,45.061,266.582,45.061z M266.416,68.258
			c0.674-0.874,1.701-1.706,2.9-2.514c0.256-0.173,0.541-0.271,0.851-0.271c1.004,0,1.505,0.514,1.505,1.547
			c0,0.513-0.232,0.933-0.695,1.236c-0.943,0.621-1.689,1.25-2.203,1.895c-0.31,0.386-0.697,0.579-1.161,0.579
			c-1.031,0-1.546-0.502-1.546-1.507C266.068,68.889,266.183,68.559,266.416,68.258z M271.634,51.092
			c0,1.005-0.501,1.508-1.506,1.508c-1.004,0-1.507-0.505-1.507-1.508c0-0.489,0.236-1.337,0.657-2.513
			c0.236-0.661,0.682-1.007,1.354-1.007c1.056,0,1.584,0.489,1.584,1.467c0,0.232-0.096,0.569-0.29,1.007
			C271.732,50.485,271.634,50.834,271.634,51.092z M275.346,43.939c-0.229,0.181-0.458,0.417-0.62,0.695
			c-0.293,0.508-0.721,0.812-1.313,0.812c-1.005,0-1.508-0.479-1.508-1.433c0-0.773,0.538-1.585,1.585-2.434
			c0.283-0.231,0.593-0.348,0.93-0.348c1.005,0,1.506,0.515,1.506,1.546C275.925,43.243,275.731,43.635,275.346,43.939z
			 M274.418,59.868c0.026-0.333,0.252-0.683,0.655-1.044c0.336-0.301,0.732-0.781,1.007-0.89c0.748-0.292,2.343,0.871,2.28,1.585
			c-0.101,1.139-1.544,2.384-2.086,2.358c-0.444-0.018-1.007,0.045-1.391-0.038C274.515,61.763,274.322,61.02,274.418,59.868z"/>
		<path fill="#C1272D" stroke="#C1272D" stroke-miterlimit="10" d="M277.162,60.912c-0.156,0.19-0.387,0.312-0.696,0.312
			c-0.44,0-0.844-0.188-1.218-0.561c-0.375-0.376-0.568-0.939-0.407-1.259c0.348-0.688,1.468-1.734,2.397-2.82
			c0.175-0.206,0.374-0.31,0.581-0.31c0.824,0,1.271,0.572,1.39,1.663c0.021,0.204-0.077,0.73-0.386,1.162
			C278.645,59.343,277.936,59.965,277.162,60.912z M281.955,63.618c-0.121,0.182-0.318,1.27-0.502,3.209
			c-0.085,0.896-0.567,1.353-1.469,1.353c-1.107,0-1.576-0.582-1.508-1.662c0.049-0.748,0.073-1.547,0.138-2.319
			c0.064-0.773,0.342-1.512,0.792-2.204c0.311-0.479,0.721-0.734,1.236-0.734c1.055,0,1.584,0.503,1.584,1.508
			C282.225,63.051,282.138,63.348,281.955,63.618z M279.675,54.107c0.412-0.63,1.208-1.654,2.088-3.016
			c0.312-0.481,0.72-0.734,1.237-0.734c1.056,0,1.586,0.487,1.586,1.467c0,0.283-0.074,0.58-0.233,0.811
			c-0.421,0.608-1.229,1.589-2.01,2.86c-0.316,0.515-0.748,0.812-1.314,0.812c-1.031,0-1.545-0.489-1.545-1.468
			C279.481,54.584,279.54,54.314,279.675,54.107z M282.264,38.63c-1.005,0-1.505-0.38-1.505-1.386c0-1.005,0.502-1.447,1.505-1.447
			c2.191,0,3.45,0.099,3.75,0.186c0.904,0.26,1.43,0.608,1.43,1.097c0,0.413-0.288,0.826-0.87,1.226
			c-0.58,0.4-1.087,0.455-1.487,0.443c-0.125-0.004-0.388-0.118-0.776-0.118C283.493,38.63,283.083,38.63,282.264,38.63z
			 M283.733,72.896c0.572,0.983,1.265,1.655,2.087,1.931c0.692,0.236,1.044,0.698,1.044,1.395c0,1.03-0.491,1.546-1.47,1.546
			c-0.153,0-0.345-0.02-0.541-0.078c-1.505-0.441-2.788-1.666-3.75-3.326c-0.148-0.254-0.231-0.513-0.231-0.773
			c0-0.979,0.528-1.469,1.585-1.469C282.999,72.123,283.435,72.385,283.733,72.896z M289.377,43.63
			c-0.526,0.905-0.971,2.089-1.47,3.093c-0.709,1.431-1.43,2.163-2.048,2.163c-1.031,0-1.546-0.505-1.546-1.508
			c0-0.232,0.052-0.465,0.155-0.696c0.461-1.029,1.252-2.611,2.396-4.637c0.274-0.487,0.681-0.737,1.198-0.737
			c1.056,0,1.586,0.504,1.586,1.507C289.648,43.102,289.522,43.381,289.377,43.63z M293.86,34.158
			c-0.46,0.737-1.092,2.098-2.01,3.634c-0.29,0.486-0.721,0.735-1.237,0.735c-1.057,0-1.584-0.503-1.584-1.508
			c0-0.283,0.119-0.574,0.272-0.85c0.437-0.793,1.101-2.228,2.125-3.789c0.285-0.433,0.697-0.657,1.161-0.657
			c1.056,0,1.584,0.503,1.584,1.508C294.17,33.565,294.033,33.881,293.86,34.158z M292.198,73.516
			c0.717-0.132,1.666-0.591,2.784-1.199c0.244-0.133,0.514-0.193,0.773-0.193c0.979,0,1.469,0.517,1.469,1.547
			c0,0.567-0.267,0.989-0.774,1.275c-1.409,0.799-2.67,1.318-3.711,1.508c-1.174,0.215-1.778-0.272-1.778-1.508
			C290.961,74.146,291.376,73.665,292.198,73.516z M294.942,35.705c0.206,0,0.465-0.013,0.774-0.039
			c0.309-0.025,0.58-0.039,0.812-0.039c0.977,0,1.467,0.503,1.467,1.508c0,1.004-0.489,1.507-1.467,1.507
			c-0.232,0-0.504,0.014-0.812,0.039c-0.309,0.026-0.568,0.039-0.774,0.039c-1.006,0-1.506-0.502-1.506-1.507
			S293.937,35.705,294.942,35.705z M298.73,24.57c-0.28,0.215-0.664,0.78-1.138,1.643c-0.479,0.864-0.9,1.489-1.256,1.759
			c-0.28,0.211-0.619,0.31-0.929,0.31c-1.032,0-1.545-0.516-1.545-1.546c0-0.335,0.338-0.743,0.618-1.16
			c0.407-0.608,1.196-2.312,2.475-3.441c0.24-0.213,0.616-0.31,0.927-0.31c1.004,0,1.506,0.528,1.506,1.585
			C299.388,23.874,299.143,24.257,298.73,24.57z M302.982,15.601c-0.477,0.608-0.939,1.407-1.43,2.126
			c-0.667,0.979-1.25,1.469-1.739,1.469c-1.056,0-1.586-0.489-1.586-1.469c0-0.232,0.05-0.466,0.155-0.696
			c0.527-1.154,1.34-2.327,2.397-3.48c0.307-0.335,0.67-0.503,1.081-0.503c1.032,0,1.546,0.516,1.546,1.547
			C303.408,14.957,303.221,15.295,302.982,15.601z M303.369,35.781c0.858,0.131,1.393,0.58,1.393,1.508
			c0,1.006-0.503,1.507-1.507,1.507c-0.105,0-0.292-0.054-0.504-0.078c-0.137-0.015-0.347,0.014-0.579,0.039
			c-0.232,0.026-0.424,0.039-0.579,0.039c-1.005,0-1.505-0.502-1.505-1.507s0.502-1.508,1.505-1.508
			c0.155,0,0.347-0.013,0.579-0.039c0.232-0.025,0.425-0.039,0.579-0.039C302.931,35.705,303.149,35.748,303.369,35.781z
			 M300.237,68.876c0.098-0.538,0.942-1.585,2.514-3.132c0.051-0.051,0.115-0.104,0.154-0.154c0.296-0.377,0.708-0.696,1.275-0.696
			c1.004,0,1.506,0.439,1.506,1.314c0,0.594-0.342,1.333-1.004,1.895c-0.312,0.263-1.19,0.758-1.469,1.276
			c-0.282,0.526-0.631,1.275-1.43,1.275C300.548,70.654,300.024,70.051,300.237,68.876z M307.852,62.188
			c-0.232-0.181-0.359-0.567-0.386-1.16c-0.025-0.565,0.037-0.965,0.193-1.159c0.696-0.871,1.385-1.788,1.7-1.934
			c0.67-0.309,2.346,0.875,2.28,1.585c-0.082,0.865-1.344,2.033-2.087,2.358C308.663,62.268,308.084,62.368,307.852,62.188z"/>
		<path fill="#C1272D" stroke="#C1272D" stroke-miterlimit="10" d="M356.866,60.912c-0.156,0.19-0.388,0.312-0.696,0.312
			c-0.441,0-0.845-0.188-1.218-0.561c-0.377-0.376-0.569-0.939-0.408-1.259c0.348-0.688,1.468-1.734,2.396-2.82
			c0.177-0.206,0.375-0.31,0.58-0.31c0.824,0,1.271,0.572,1.392,1.663c0.021,0.204-0.076,0.73-0.385,1.162
			C358.35,59.343,357.641,59.965,356.866,60.912z M361.658,63.618c-0.121,0.182-0.318,1.27-0.503,3.209
			c-0.085,0.896-0.569,1.353-1.469,1.353c-1.109,0-1.574-0.582-1.506-1.662c0.05-0.748,0.071-1.547,0.136-2.319
			c0.062-0.773,0.343-1.512,0.793-2.204c0.312-0.479,0.72-0.734,1.236-0.734c1.057,0,1.584,0.503,1.584,1.508
			C361.929,63.051,361.841,63.348,361.658,63.618z M359.379,54.107c0.412-0.63,1.204-1.654,2.086-3.016
			c0.311-0.481,0.722-0.734,1.237-0.734c1.056,0,1.586,0.487,1.586,1.467c0,0.283-0.074,0.58-0.232,0.811
			c-0.42,0.608-1.23,1.589-2.011,2.86c-0.316,0.515-0.748,0.812-1.314,0.812c-1.034,0-1.545-0.489-1.545-1.468
			C359.186,54.584,359.244,54.314,359.379,54.107z M361.967,38.63c-1.005,0-1.504-0.38-1.504-1.386c0-1.005,0.502-1.447,1.504-1.447
			c2.192,0,3.451,0.099,3.751,0.186c0.904,0.26,1.428,0.608,1.428,1.097c0,0.413-0.288,0.826-0.868,1.226
			c-0.58,0.4-1.087,0.455-1.487,0.443c-0.125-0.004-0.387-0.118-0.775-0.118C363.197,38.63,362.787,38.63,361.967,38.63z
			 M363.438,72.896c0.572,0.983,1.265,1.655,2.087,1.931c0.691,0.236,1.043,0.698,1.043,1.395c0,1.03-0.49,1.546-1.47,1.546
			c-0.154,0-0.344-0.02-0.539-0.078c-1.505-0.441-2.788-1.666-3.751-3.326c-0.148-0.254-0.232-0.513-0.232-0.773
			c0-0.979,0.528-1.469,1.585-1.469C362.702,72.123,363.14,72.385,363.438,72.896z M369.081,43.63
			c-0.526,0.905-0.974,2.089-1.471,3.093c-0.709,1.431-1.429,2.163-2.047,2.163c-1.031,0-1.546-0.505-1.546-1.508
			c0-0.232,0.051-0.465,0.154-0.696c0.462-1.029,1.252-2.611,2.396-4.637c0.274-0.487,0.681-0.737,1.199-0.737
			c1.056,0,1.583,0.504,1.583,1.507C369.35,43.102,369.226,43.381,369.081,43.63z M373.564,34.158
			c-0.46,0.737-1.093,2.098-2.01,3.634c-0.29,0.486-0.723,0.735-1.238,0.735c-1.057,0-1.585-0.503-1.585-1.508
			c0-0.283,0.118-0.574,0.271-0.85c0.44-0.793,1.105-2.228,2.129-3.789c0.284-0.433,0.696-0.657,1.16-0.657
			c1.056,0,1.585,0.503,1.585,1.508C373.874,33.565,373.737,33.881,373.564,34.158z M371.902,73.516
			c0.718-0.132,1.667-0.591,2.786-1.199c0.243-0.133,0.511-0.193,0.771-0.193c0.979,0,1.47,0.517,1.47,1.547
			c0,0.567-0.268,0.989-0.775,1.275c-1.411,0.799-2.67,1.318-3.711,1.508c-1.175,0.215-1.778-0.272-1.778-1.508
			C370.664,74.146,371.08,73.665,371.902,73.516z M374.646,35.705c0.206,0,0.464-0.013,0.772-0.039
			c0.31-0.025,0.58-0.039,0.812-0.039c0.977,0,1.468,0.503,1.468,1.508c0,1.004-0.49,1.507-1.468,1.507
			c-0.232,0-0.505,0.014-0.812,0.039c-0.309,0.026-0.566,0.039-0.772,0.039c-1.007,0-1.506-0.502-1.506-1.507
			S373.641,35.705,374.646,35.705z M378.435,24.57c-0.28,0.215-0.663,0.78-1.138,1.643c-0.479,0.864-0.903,1.489-1.259,1.759
			c-0.28,0.211-0.616,0.31-0.926,0.31c-1.034,0-1.546-0.516-1.546-1.546c0-0.335,0.338-0.743,0.617-1.16
			c0.406-0.608,1.195-2.312,2.471-3.441c0.243-0.213,0.619-0.31,0.931-0.31c1.005,0,1.506,0.528,1.506,1.585
			C379.092,23.874,378.846,24.257,378.435,24.57z M382.686,15.6c-0.477,0.608-0.94,1.408-1.43,2.127
			c-0.668,0.979-1.249,1.468-1.738,1.468c-1.058,0-1.586-0.489-1.586-1.468c0-0.232,0.05-0.466,0.154-0.696
			c0.527-1.154,1.337-2.327,2.394-3.48c0.31-0.335,0.674-0.503,1.085-0.503c1.032,0,1.544,0.516,1.544,1.547
			C383.11,14.957,382.925,15.295,382.686,15.6z M383.073,35.781c0.858,0.131,1.391,0.58,1.391,1.508
			c0,1.006-0.501,1.507-1.507,1.507c-0.104,0-0.29-0.054-0.502-0.078c-0.138-0.015-0.347,0.014-0.579,0.039
			c-0.231,0.026-0.425,0.039-0.579,0.039c-1.006,0-1.507-0.502-1.507-1.507s0.504-1.508,1.507-1.508
			c0.154,0,0.348-0.013,0.579-0.039c0.232-0.025,0.427-0.039,0.579-0.039C382.635,35.705,382.854,35.748,383.073,35.781z
			 M379.942,68.876c0.099-0.538,0.94-1.585,2.511-3.132c0.051-0.051,0.116-0.104,0.156-0.154c0.296-0.377,0.707-0.696,1.274-0.696
			c1.005,0,1.505,0.439,1.505,1.314c0,0.594-0.342,1.333-1.005,1.895c-0.313,0.263-1.189,0.758-1.469,1.276
			c-0.281,0.526-0.631,1.275-1.43,1.275C380.25,70.654,379.729,70.051,379.942,68.876z M387.558,62.188
			c-0.232-0.181-0.36-0.567-0.387-1.16c-0.025-0.565,0.035-0.965,0.191-1.159c0.696-0.871,1.384-1.788,1.699-1.934
			c0.673-0.309,2.351,0.875,2.284,1.585c-0.083,0.865-1.343,2.033-2.088,2.358C388.367,62.268,387.789,62.368,387.558,62.188z"/>
		<path fill="#C1272D" stroke="#C1272D" stroke-miterlimit="10" d="M384.966,75.062c0.606-1.334,0.975-2.239,1.084-2.667
			c0.188-0.737,0.682-1.122,1.431-1.122c1.031,0,1.546,0.479,1.546,1.434c0,0.487-0.429,1.732-1.313,3.634
			c-0.277,0.589-0.72,0.89-1.313,0.89c-1.056,0-1.586-0.49-1.586-1.469C384.812,75.525,384.862,75.291,384.966,75.062z
			 M390.184,60.912c-0.156,0.19-0.384,0.312-0.695,0.312c-0.438,0-0.844-0.188-1.218-0.561c-0.376-0.376-0.567-0.938-0.406-1.259
			c0.335-0.667,1.44-1.706,2.396-2.82c0.176-0.206,0.373-0.31,0.577-0.31c0.824,0,1.272,0.572,1.393,1.663
			c0.021,0.204-0.078,0.73-0.387,1.162C391.667,59.343,390.959,59.965,390.184,60.912z M390.647,62.497
			c0.308-0.438,0.709-0.657,1.199-0.657c1.03,0,1.546,0.49,1.546,1.469c0,0.31-0.089,0.614-0.271,0.89
			c-1.084,1.639-1.794,2.887-1.972,3.711c-0.182,0.826-0.671,1.237-1.469,1.237c-1.032,0-1.545-0.489-1.545-1.469
			C388.137,66.621,388.971,64.886,390.647,62.497z M393.393,56.582c0.499-0.923,1.294-2.719,2.59-4.446
			c0.267-0.355,0.672-0.541,1.082-0.541c1.057,0,1.586,0.515,1.586,1.546c0,0.361-0.169,0.684-0.425,0.967
			c-0.363,0.4-0.76,1.179-1.199,2.203c-0.508,1.184-0.896,1.972-1.141,2.358c-0.245,0.387-0.598,0.58-1.062,0.58
			c-1.135,0-1.7-0.592-1.7-1.778C393.122,57.161,393.244,56.856,393.393,56.582z M397.76,47.573
			c0.478-0.984,1.633-2.777,2.242-4.832c0.204-0.688,0.632-1.16,1.434-1.16c1.031,0,1.545,0.477,1.545,1.431
			c0,0.618-0.35,1.577-1.006,2.86c-0.935,1.832-1.416,2.798-1.431,2.82c-0.308,0.463-0.698,0.969-1.314,0.969
			c-1.058,0-1.584-0.49-1.584-1.469C397.646,47.986,397.672,47.753,397.76,47.573z M399.229,53.604
			c0.505-0.516,1.383-1.379,2.243-2.552c0.312-0.43,0.708-0.695,1.198-0.695c1.056,0,1.583,0.487,1.583,1.467
			c0,0.283-0.091,0.57-0.271,0.851c-0.331,0.513-1.171,1.571-2.51,2.978c-0.32,0.335-0.71,0.502-1.122,0.502
			c-1.034,0-1.545-0.502-1.545-1.506C398.806,54.262,398.945,53.894,399.229,53.604z M402.98,36.787
			c0.562-0.875,1.125-2.116,1.738-3.557c0.26-0.61,0.733-0.928,1.352-0.928c1.057,0,1.586,0.49,1.586,1.469
			c0,0.207-0.064,0.417-0.155,0.619c-0.708,1.579-1.337,3.039-2.011,4.06c-0.304,0.463-0.719,0.696-1.236,0.696
			c-1.031,0-1.546-0.503-1.546-1.507C402.708,37.354,402.799,37.069,402.98,36.787z M405.222,41.62
			c0.673-0.658,1.973-2.013,3.634-2.861c0.176-0.089,0.4-0.116,0.579-0.116c0.979,0,1.469,0.516,1.469,1.546
			c0,0.671-0.844,1.128-1.006,1.354c-0.006,0.009-0.905,0.834-2.707,2.359c-0.306,0.258-0.63,0.386-0.965,0.386
			c-1.032,0-1.548-0.515-1.548-1.546C404.679,42.303,404.904,41.93,405.222,41.62z M407.191,46.414
			c1.932-1.457,3.551-2.461,4.563-3.055c0.227-0.133,0.476-0.232,0.734-0.232c0.977,0,1.468,0.529,1.468,1.586
			c0,0.567-0.274,0.991-0.809,1.275c-0.951,0.506-2.35,1.55-4.138,2.822c-0.294,0.21-0.619,0.31-0.929,0.31
			c-1.006,0-1.507-0.516-1.507-1.547C406.575,47.109,406.781,46.723,407.191,46.414z M407.965,26.31
			c0.444-0.908,1.475-2.456,2.475-4.446c0.287-0.576,0.732-0.889,1.349-0.889c1.033,0,1.549,0.49,1.549,1.469
			c0,0.206-0.045,0.453-0.154,0.657c-0.477,0.87-1.526,2.382-2.395,4.292c-0.274,0.602-0.709,0.966-1.354,0.966
			c-1.057,0-1.586-0.489-1.586-1.469C407.849,26.709,407.878,26.488,407.965,26.31z M415.541,30.911
			c0.283-0.567,0.723-0.851,1.315-0.851c1.03,0,1.546,0.503,1.546,1.508c0,0.232-0.049,0.474-0.154,0.696
			c-0.329,0.685-0.938,1.352-1.698,1.972c-0.876,0.71-1.432,1.275-1.666,1.624c-0.293,0.436-0.707,0.657-1.197,0.657
			c-1.057,0-1.584-0.503-1.584-1.508c0-0.541,0.489-1.239,1.468-2.087C414.701,31.941,415.36,31.271,415.541,30.911z
			 M416.507,68.876c-0.154,0.484-0.231,0.761-0.231,0.812c0,0.593,0.247,1.237,0.696,1.931c0.182,0.281,0.273,0.568,0.273,0.851
			c0,1.006-0.529,1.506-1.586,1.506c-0.49,0-0.891-0.232-1.2-0.696c-0.801-1.204-1.199-2.409-1.199-3.595
			c0-1.804,0.684-2.707,2.05-2.707c0.876,0,1.313,0.413,1.313,1.237C416.623,68.425,416.582,68.646,416.507,68.876z M413.492,14.905
			c0.565-1.894,1.609-3.706,3.055-5.296c0.327-0.36,0.707-0.542,1.12-0.542c1.03,0,1.546,0.515,1.546,1.546
			c0,0.361-0.129,0.707-0.387,1.005c-1.139,1.312-1.998,2.74-2.473,4.214c-0.222,0.691-0.696,1.043-1.393,1.043
			c-1.033,0-1.546-0.489-1.546-1.469C413.415,15.253,413.438,15.083,413.492,14.905z M420.49,56.582
			c-0.328,0.386-0.764,1.485-1.2,3.247c-0.188,0.761-0.645,1.16-1.392,1.16c-1.057,0-1.583-0.487-1.583-1.468
			c0-0.127,0.034-0.276,0.077-0.424c0.206-0.729,0.387-1.554,0.618-2.34c0.232-0.785,0.638-1.501,1.197-2.145
			c0.31-0.357,0.685-0.543,1.123-0.543c1.03,0,1.544,0.502,1.544,1.506C420.875,55.937,420.748,56.278,420.49,56.582z
			 M419.366,41.387c2.514,1.137,3.984,2.796,3.984,5.142c0,0.464-0.05,0.962-0.156,1.469c-0.168,0.791-0.657,1.199-1.431,1.199
			c-1.033,0-1.545-0.49-1.545-1.468c0-0.128,0.018-0.321,0.059-0.58c0.038-0.255,0.056-0.448,0.056-0.578
			c0-1.03-0.724-1.823-2.127-2.396c-0.616-0.251-0.929-0.709-0.929-1.353c0-1.057,0.491-1.585,1.469-1.585
			C418.956,41.233,419.164,41.296,419.366,41.387z M419.059,26.464c0.67-0.925,1.47-1.91,2.32-2.938
			c0.312-0.375,0.682-0.579,1.12-0.579c1.03,0,1.547,0.503,1.547,1.508c0,0.36-0.144,0.684-0.387,0.966
			c-0.828,0.959-1.534,1.938-2.127,2.784c-0.31,0.438-0.71,0.657-1.199,0.657c-1.058,0-1.585-0.503-1.585-1.508
			C418.751,27.044,418.853,26.748,419.059,26.464z M421.416,73.902c0.799-0.643,1.276-1.021,1.433-1.122
			c0.51-0.335,1.106-0.531,1.738-0.618c1.143-0.156,1.74,0.322,1.74,1.508c0,0.851-0.458,1.364-1.316,1.469
			c-0.249,0.031-0.828,0.437-1.698,1.121c-0.297,0.234-0.632,0.347-0.97,0.347c-1.005,0-1.505-0.528-1.505-1.585
			C420.836,74.585,421.031,74.211,421.416,73.902z M423.659,3.693c0.587-0.145,1.158-0.232,1.699-0.232
			c1.547,0,2.82,0.483,3.827,1.45c1.005,0.966,1.506,2.197,1.506,3.692c0,0.773-0.146,1.561-0.424,2.358
			c-0.235,0.667-0.697,1.006-1.394,1.006c-1.031,0-1.547-0.49-1.547-1.469c0-0.181,0.06-0.471,0.178-0.871
			c0.115-0.399,0.173-0.728,0.173-0.986c0-1.443-0.759-2.165-2.278-2.165c-0.155,0-0.396,0.033-0.717,0.097
			c-0.322,0.065-0.561,0.096-0.713,0.096c-0.98,0-1.469-0.515-1.469-1.546C422.499,4.35,422.898,3.881,423.659,3.693z M428.76,15.91
			c-0.215,0.797-0.91,2.308-1.275,4.06c-0.166,0.795-0.619,1.275-1.468,1.275c-1.186,0-1.786-0.743-1.506-1.739
			c0.225-0.806,0.916-2.3,1.274-4.021c0.169-0.814,0.618-1.314,1.469-1.314C428.414,14.169,429.023,14.926,428.76,15.91z
			 M428.799,67.832c0.344-0.406,1.052-0.962,1.469-1.585c0.304-0.452,0.734-0.812,1.351-0.812c1.007,0,1.506,0.465,1.506,1.393
			c0,0.644-0.396,1.347-1.195,2.09c-0.974,0.903-1.601,1.354-1.856,1.354c-1.059,0-1.586-0.503-1.586-1.506
			C428.489,68.45,428.586,68.084,428.799,67.832z M435.563,62.188c-0.232-0.181-0.36-0.567-0.387-1.16
			c-0.023-0.565,0.037-0.965,0.193-1.159c0.695-0.871,1.385-1.788,1.701-1.934c0.671-0.309,2.347,0.875,2.28,1.585
			c-0.083,0.865-1.345,2.033-2.088,2.358C436.373,62.268,435.795,62.367,435.563,62.188z"/>
		<path fill="#C1272D" stroke="#C1272D" stroke-miterlimit="10" d="M440.087,56.697c-0.464,0.59-0.77,1.194-0.81,1.778
			c-0.064,0.911-0.544,1.393-1.47,1.393c-1.082,0-1.579-0.546-1.506-1.624c0.083-1.206,0.558-2.359,1.431-3.443
			c0.31-0.383,0.68-0.577,1.121-0.577c1.056,0,1.586,0.502,1.586,1.508C440.436,56.066,440.32,56.4,440.087,56.697z M439.699,65.474
			c0.128,0.281,0.465,0.696,0.465,1.083c0,0.954-0.542,1.43-1.625,1.43c-1.186,0-1.855-0.952-1.894-2.744
			c-0.009-0.404,0.004-1.064-0.038-1.897c-0.054-1.035,0.425-1.585,1.505-1.585c0.928,0,1.518,0.561,1.509,1.433
			C439.619,63.664,439.416,64.848,439.699,65.474z M441.398,72.78c0.56,1.055,1.154,1.661,1.74,1.779
			c0.809,0.163,1.237,0.631,1.237,1.43c0,1.237-0.612,1.746-1.817,1.508c-1.514-0.299-2.743-1.566-3.788-3.324
			c-0.136-0.228-0.232-0.478-0.232-0.735c0-0.979,0.527-1.469,1.584-1.469C440.689,71.969,441.113,72.243,441.398,72.78z
			 M440.396,58.128c0.336,0,0.794-0.083,1.371-0.25c0.58-0.169,1.011-0.25,1.294-0.25c0.979,0,1.469,0.514,1.469,1.544
			c0,0.775-0.391,1.248-1.16,1.433c-1.492,0.354-2.488,0.544-2.979,0.544c-1.005,0-1.505-0.505-1.505-1.508
			C438.887,58.632,439.392,58.128,440.396,58.128z M445.343,49.197c-0.049,0.045-0.755,0.655-2.048,1.817
			c-0.309,0.28-0.643,0.425-1.005,0.425c-1.007,0-1.507-0.528-1.507-1.585c0-0.413,0.17-0.773,0.501-1.082
			c0.489-0.457,1.257-1.204,2.282-2.011c0.265-0.209,0.579-0.31,0.891-0.31c1.006,0,1.504,0.528,1.504,1.585
			C445.961,48.501,445.705,48.884,445.343,49.197z M448.205,55.731c0.64-0.407,1.845-0.988,3.131-1.856
			c0.281-0.188,0.582-0.309,0.892-0.309c1.007,0,1.505,0.528,1.505,1.585c0,0.488-0.243,0.93-0.694,1.198
			c-0.641,0.377-1.794,0.938-3.019,1.778c-0.306,0.21-0.619,0.348-0.928,0.348c-1.006,0-1.508-0.528-1.508-1.585
			C447.584,56.427,447.803,55.987,448.205,55.731z M452.516,42.973c-0.786,0.181-1.45,0.514-1.953,1.005
			c-0.312,0.302-0.657,0.465-1.043,0.465c-1.032,0-1.547-0.516-1.547-1.547c0-0.387,0.154-0.737,0.464-1.044
			c1.25-1.236,2.538-1.854,3.827-1.854c0.953,0,1.433,0.516,1.433,1.548C453.693,42.315,453.302,42.793,452.516,42.973z
			 M449.867,74.637c1.799-0.746,2.82-1.236,3.015-1.468c0.285-0.342,0.643-0.543,1.083-0.543c1.056,0,1.585,0.478,1.585,1.432
			c0,0.644-0.431,1.229-1.294,1.758c-0.866,0.528-1.958,1.103-3.229,1.606c-0.201,0.079-0.415,0.116-0.621,0.116
			c-0.979,0-1.468-0.529-1.468-1.586C448.939,75.332,449.248,74.894,449.867,74.637z M455.511,51.092
			c0.541-0.903,1.083-1.671,1.624-2.204c0.312-0.309,0.696-0.464,1.083-0.464c1.031,0,1.549,0.516,1.549,1.547
			c0,0.387-0.184,0.734-0.508,1.044c-0.385,0.371-0.79,0.929-1.196,1.623c-0.284,0.486-0.698,0.735-1.237,0.735
			c-1.034,0-1.546-0.49-1.546-1.47C455.279,51.619,455.356,51.35,455.511,51.092z M458.218,43.63c0-0.8-0.134-1.394-0.385-1.778
			c-0.181-0.281-0.271-0.567-0.271-0.851c0-1.005,0.525-1.508,1.582-1.508c0.49,0,0.892,0.234,1.201,0.696
			c0.588,0.876,0.888,2.025,0.888,3.441c0,1.007-0.503,1.508-1.509,1.508C458.721,45.138,458.218,44.635,458.218,43.63z
			 M460.304,66.672c0.277-0.181,0.568-0.271,0.853-0.271c1.005,0,1.506,0.529,1.506,1.585c0,0.489-0.239,0.895-0.713,1.216
			c-0.479,0.323-1.039,0.912-1.646,1.762c-0.312,0.433-0.708,0.657-1.196,0.657c-1.033,0-1.547-0.503-1.547-1.508
			C457.561,69.057,458.482,67.867,460.304,66.672z M463.128,62.768c0.332-0.207,0.562-0.378,0.653-0.503
			c0.314-0.43,0.711-0.695,1.203-0.695c1.057,0,1.585,0.502,1.585,1.505c0,0.312-0.126,0.597-0.31,0.85
			c-0.345,0.476-0.865,0.997-1.585,1.432c-0.256,0.154-0.518,0.231-0.775,0.231c-1.006,0-1.508-0.527-1.508-1.585
			C462.392,63.489,462.639,63.072,463.128,62.768z M466.028,59.868c0.684-0.872,1.346-1.788,1.665-1.934
			c0.671-0.309,2.344,0.871,2.28,1.585c-0.101,1.139-1.53,2.399-2.087,2.358c-0.455-0.032-0.913-0.379-1.354-1.005
			C466.134,60.31,465.95,59.967,466.028,59.868z"/>
		<path fill="#C1272D" stroke="#C1272D" stroke-miterlimit="10" d="M510.881,65.513c0.045-0.407,0.217-1.1,0.502-2.05
			c0.255-0.849,0.387-1.52,0.387-2.01c0-1.006,0.502-1.508,1.508-1.508c1.004,0,1.505,0.502,1.505,1.508
			c0,0.567-0.118,1.317-0.384,2.203c-0.292,0.971-0.468,1.7-0.505,2.127c-0.076,0.878-0.593,1.353-1.468,1.353
			C511.293,67.136,510.764,66.577,510.881,65.513z M513.741,72.085c0.364,0.515,1.046,1.431,1.855,1.855
			c0.564,0.299,1.121,0.684,1.121,1.354c0,1.031-0.541,1.546-1.624,1.546c-0.802,0-1.656-0.451-2.513-1.353
			c-1.034-1.084-1.547-1.934-1.547-2.475c0-1.03,0.514-1.547,1.547-1.547C513.045,71.466,513.452,71.675,513.741,72.085z
			 M517.145,53.798c0.302-0.462,0.824-1.018,1.547-1.662c0.722-0.645,1.186-1.121,1.392-1.433c0.31-0.464,0.706-0.696,1.196-0.696
			c1.057,0,1.588,0.503,1.588,1.506c0,0.312-0.102,0.595-0.271,0.851c-0.262,0.396-0.747,0.934-1.468,1.567
			c-0.722,0.631-1.214,1.138-1.471,1.526c-0.31,0.464-0.708,0.696-1.197,0.696c-1.057,0-1.587-0.503-1.587-1.507
			C516.873,54.365,516.963,54.077,517.145,53.798z M521.512,73.786c0.35-0.108,0.832-0.258,1.412-0.464s1.049-0.395,1.374-0.503
			c0.17-0.058,0.347-0.08,0.501-0.08c0.979,0,1.469,0.529,1.469,1.586c0,0.695-0.365,1.168-1.081,1.392
			c-0.333,0.105-0.794,0.258-1.373,0.464c-0.58,0.208-1.062,0.355-1.411,0.466c-0.15,0.048-0.322,0.078-0.503,0.078
			c-0.954,0-1.433-0.517-1.433-1.547C520.468,74.481,520.825,73.998,521.512,73.786z M527.275,45.602
			c0.598-0.462,1.937-1.152,2.976-2.165c0.312-0.302,0.685-0.541,1.123-0.541c1.03,0,1.546,0.516,1.546,1.547
			c0,0.335-0.13,0.734-0.387,0.966c-0.553,0.507-1.945,1.277-3.21,2.397c-0.308,0.271-0.646,0.464-1.005,0.464
			c-1.034,0-1.546-0.528-1.546-1.585C526.772,46.298,526.947,45.855,527.275,45.602z M529.517,70.654
			c0.464-0.371,0.696-0.557,1.159-0.928c0.206-0.182,0.406-0.317,0.6-0.41s0.408-0.134,0.641-0.134c0.977,0,1.467,0.529,1.467,1.585
			c0,0.568-0.698,1.034-0.85,1.276c-0.007,0.011-0.014,0.05-0.039,0.077c-0.184,0.142-0.278,0.211-0.464,0.348
			c-0.247,0.201-0.371,0.302-0.618,0.503c-0.31,0.258-0.632,0.385-0.967,0.385c-1.031,0-1.547-0.527-1.547-1.586
			C528.897,71.338,529.104,70.964,529.517,70.654z M534.735,66.247c0.349-0.842,1.173-2.331,1.936-4.253
			c0.244-0.615,0.668-0.967,1.311-0.967c1.057,0,1.589,0.489,1.589,1.47c0,0.205-0.033,0.425-0.115,0.616
			c-0.356,0.828-1.028,2.325-1.896,4.291c-0.272,0.613-0.737,0.931-1.354,0.931c-1.06,0-1.587-0.479-1.587-1.433
			C534.62,66.698,534.649,66.457,534.735,66.247z M539.184,73.593c0.488,0.566,0.962,0.87,1.392,0.928
			c0.841,0.113,1.276,0.618,1.276,1.469c0,1.185-0.58,1.688-1.739,1.506c-1.16-0.182-2.218-0.833-3.173-1.896
			c-0.28-0.31-0.426-0.643-0.426-1.006c0-1.03,0.518-1.546,1.549-1.546C538.501,73.052,538.874,73.233,539.184,73.593z
			 M537.561,41.774c0.72-0.584,2.011-1.006,3.826-1.275c1.153-0.171,1.738,0.322,1.738,1.507c0,0.851-0.477,1.389-1.312,1.47
			c-0.54,0.051-1.526,0.173-2.322,0.618c-0.292,0.164-0.632,0.347-0.967,0.347c-1.031,0-1.548-0.515-1.548-1.547
			C536.979,42.457,537.179,42.084,537.561,41.774z M539.995,54.842c0.495-0.764,1.392-2.081,1.971-3.673
			c0.246-0.669,0.682-1.121,1.432-1.121c1.03,0,1.546,0.478,1.546,1.431c0,0.154-0.008,0.319-0.04,0.464
			c-0.138,0.617-1.015,2.13-2.319,4.407c-0.287,0.503-0.698,0.773-1.239,0.773c-1.058,0-1.583-0.503-1.583-1.506
			C539.765,55.357,539.838,55.085,539.995,54.842z M546.645,73.09c0.46-0.244,1.241-0.662,2.243-1.237
			c0.255-0.146,0.515-0.231,0.772-0.231c0.979,0,1.471,0.528,1.471,1.585c0,0.566-0.315,0.98-0.812,1.275
			c-0.379,0.225-1.193,0.791-2.32,1.314c-0.238,0.111-0.503,0.152-0.734,0.152c-0.979,0-1.469-0.527-1.469-1.585
			C545.795,73.799,546.096,73.379,546.645,73.09z M546.143,42.586c0.42-0.729,1.265-1.991,1.896-3.557
			c0.258-0.639,0.682-1.043,1.352-1.043c1.057,0,1.587,0.49,1.587,1.469c0,0.181-0.049,0.367-0.115,0.542
			c-0.17,0.458-0.862,1.847-2.089,4.06c-0.285,0.512-0.698,0.773-1.237,0.773c-1.057,0-1.585-0.489-1.585-1.468
			C545.949,43.102,546.007,42.821,546.143,42.586z M551.713,31.336c0.313-1.666,1.185-3.235,2.626-4.678
			c0.312-0.31,0.657-0.464,1.044-0.464c1.03,0,1.545,0.515,1.545,1.546c0,0.386-0.154,0.734-0.464,1.043
			c-1.007,1.005-1.615,2.04-1.815,3.093c-0.157,0.822-0.633,1.237-1.434,1.237C551.982,33.114,551.488,32.516,551.713,31.336z
			 M557.008,67.562c-0.294,0.363-0.927,1.217-1.855,1.855c-0.197,0.137-0.479,0.193-0.735,0.193c-1.007,0-1.508-0.515-1.508-1.546
			c0-0.567,0.441-0.968,0.812-1.276c0.278-0.231,0.667-0.837,1.158-1.354c0.294-0.309,0.66-0.464,1.044-0.464
			c1.033,0,1.547,0.517,1.547,1.547C557.472,66.904,557.254,67.257,557.008,67.562z M558.399,61.414
			c0.173-0.311,0.71-0.854,1.276-1.546c0.717-0.876,1.346-1.788,1.662-1.934c0.674-0.309,2.404,1.024,2.283,1.585
			c-0.098,0.449-1.531,1.499-2.09,2.358c-0.145,0.223-0.449,0.802-0.89,1.083c-0.649,0.421-1.456,0.543-1.737,0.543
			c-0.49,0-0.736-0.296-0.736-0.889C558.168,62.304,558.201,61.774,558.399,61.414z M558.438,18.964
			c0.423-0.799,1.308-2.154,2.24-3.943c0.287-0.552,0.721-0.851,1.314-0.851c1.056,0,1.585,0.49,1.585,1.469
			c0,0.232-0.056,0.503-0.193,0.735c-0.452,0.778-1.372,2.101-2.163,3.789c-0.272,0.582-0.71,0.928-1.353,0.928
			c-1.058,0-1.586-0.489-1.586-1.469C558.283,19.415,558.327,19.173,558.438,18.964z"/>
		<path fill="#C1272D" stroke="#C1272D" stroke-miterlimit="10" d="M563.118,59.249c-0.179,0.26-0.229,1.434-0.505,2.514
			c-0.187,0.735-0.67,1.121-1.392,1.121c-1.057,0-1.585-0.477-1.585-1.431c0-0.155,0.041-0.318,0.077-0.464
			c0.174-0.701,0.281-1.567,0.447-2.379c0.167-0.811,0.651-1.445,1.406-1.913c0.281-0.175,0.554-0.271,0.812-0.271
			c1.007,0,1.51,0.527,1.51,1.585C563.891,58.554,563.297,58.988,563.118,59.249z M564.121,70.19
			c-0.004,0.017,0.851,0.696,0.851,1.236c0,1.03-0.543,1.547-1.626,1.547c-0.722,0-1.329-0.478-1.816-1.432
			c-0.672-1.312-1.006-2.642-1.006-3.981c0-1.984,0.643-2.978,1.931-2.978c1.033,0,1.547,0.451,1.547,1.354
			c0,0.31-0.104,0.618-0.31,0.929c-0.104,0.153-0.154,0.386-0.154,0.695c0,0.85,0.709,2.611,0.695,2.628
			C564.233,70.196,564.121,70.19,564.121,70.19z M563.851,53.063c0.86-1.402,2.336-2.881,4.368-4.33
			c0.282-0.202,0.583-0.31,0.893-0.31c1.007,0,1.506,0.528,1.506,1.585c0,0.49-0.218,0.892-0.655,1.199
			c-1.028,0.722-1.704,1.198-1.974,1.43c-0.566,0.489-1.08,1.182-1.547,1.972c-0.304,0.515-0.731,0.776-1.271,0.776
			c-1.059,0-1.589-0.505-1.589-1.508C563.582,53.618,563.678,53.346,563.851,53.063z M568.297,74.443
			c0.666,0.344,2.518,0.541,2.518,0.541s0.466-0.076,2.163-0.232c1.106-0.102,1.664,0.4,1.664,1.508
			c0,0.902-0.476,1.417-1.393,1.508c-1.757,0.175-2.435,0.232-2.435,0.232s-2.84-0.307-3.945-0.89
			c-0.538-0.284-0.811-0.709-0.811-1.275c0-1.057,0.488-1.585,1.468-1.585C567.782,74.25,568.045,74.312,568.297,74.443z
			 M574.291,43.592c0.845-1.005,2.922-1.706,5.453-2.513c0.122-0.039,0.272-0.078,0.425-0.078c0.953,0,1.435,0.515,1.435,1.547
			c0,0.772-0.379,1.251-1.123,1.43c-1.081,0.26-2.772,0.719-3.908,1.586c-0.326,0.249-0.709,0.541-1.121,0.541
			c-1.032,0-1.546-0.503-1.546-1.506C573.905,44.236,574.033,43.899,574.291,43.592z M579.665,71.428
			c0.353-0.113,0.972-0.477,1.817-1.044c0.721-0.482,1.25-0.734,1.586-0.734c0.979,0,1.469,0.528,1.469,1.585
			c0,0.49-0.236,0.889-0.698,1.198c-1.903,1.279-3.172,1.934-3.788,1.934c-0.979,0-1.469-0.516-1.469-1.547
			C578.582,72.099,578.972,71.649,579.665,71.428z M586.703,47.148c-0.443,0.912-1.119,2.333-1.778,4.098
			c-0.246,0.664-0.697,1.044-1.393,1.044c-1.032,0-1.546-0.489-1.546-1.469c0-0.181,0.015-0.397,0.079-0.578
			c0.298-0.851,1.014-2.357,1.855-4.253c0.271-0.611,0.736-0.928,1.354-0.928c1.057,0,1.585,0.479,1.585,1.434
			C586.858,46.723,586.804,46.944,586.703,47.148z M585.389,56.427c0.276,0.771,0.724,1.335,1.314,1.665
			c0.513,0.283,0.775,0.696,0.775,1.236c0,1.058-0.491,1.585-1.47,1.585c-0.282,0-0.557-0.082-0.811-0.231
			c-1.21-0.705-2.085-1.847-2.628-3.249c-0.069-0.177-0.115-0.36-0.115-0.542c0-0.979,0.527-1.468,1.585-1.468
			C584.704,55.422,585.153,55.765,585.389,56.427z M587.398,39.996c1.158,0.156,2.413,0.579,3.75,1.275
			c1.674,0.872,2.514,1.778,2.514,2.706c0,1.006-0.529,1.508-1.585,1.508c-0.568,0-0.985-0.309-1.276-0.851
			c-0.093-0.178-0.532-0.478-1.272-0.85c-0.886-0.444-1.746-0.717-2.514-0.812c-0.872-0.108-1.313-0.592-1.313-1.467
			C585.698,40.344,586.266,39.844,587.398,39.996z M591.98,62.67c-0.426,0.271-0.883,0.843-1.37,1.722
			c-0.49,0.875-1.036,1.512-1.626,1.894c-0.28,0.183-0.568,0.271-0.849,0.271c-0.979,0-1.469-0.527-1.469-1.586
			c0-0.513,0.237-0.954,0.695-1.236c0.17-0.104,0.528-0.601,1.044-1.489c0.513-0.89,1.148-1.586,1.895-2.067
			c0.28-0.182,0.568-0.271,0.851-0.271c0.979,0,1.469,0.529,1.469,1.585C592.618,62.007,592.405,62.401,591.98,62.67z
			 M595.518,48.656c0.08,1.961-0.184,3.934-0.848,5.838c-0.233,0.668-0.696,1.005-1.395,1.005c-1.031,0-1.544-0.477-1.544-1.431
			c0-0.181,0.019-0.367,0.077-0.541c0.482-1.517,0.799-3.148,0.734-4.755c-0.042-1.049,0.451-1.586,1.508-1.586
			C595.002,47.187,595.479,47.688,595.518,48.656z M594.012,63.038c1.001,0.099,1.622,0.154,1.854,0.154
			c1.006,0,1.508,0.503,1.508,1.506s-0.505,1.508-1.508,1.508c-0.309,0-1.033-0.083-2.126-0.193
			c-0.888-0.088-1.354-0.566-1.354-1.469C592.386,63.438,592.934,62.932,594.012,63.038z M599.385,62.188
			c-0.232-0.181-0.36-0.567-0.387-1.16c-0.025-0.565,0.037-0.965,0.193-1.159c0.696-0.871,1.387-1.788,1.7-1.934
			c0.674-0.309,2.349,0.875,2.282,1.585c-0.082,0.865-1.345,2.033-2.091,2.358C600.194,62.268,599.616,62.368,599.385,62.188z"/>
		<path fill="#C1272D" stroke="#C1272D" stroke-miterlimit="10" d="M601.086,60.912c-0.154,0.19-0.385,0.312-0.696,0.312
			c-0.438,0-0.842-0.188-1.218-0.561c-0.374-0.376-0.567-0.939-0.406-1.259c0.347-0.688,1.468-1.734,2.398-2.82
			c0.177-0.206,0.374-0.31,0.578-0.31c0.824,0,1.272,0.572,1.391,1.663c0.022,0.204-0.076,0.73-0.385,1.162
			C602.568,59.343,601.859,59.965,601.086,60.912z M605.881,63.618c-0.121,0.182-0.317,1.27-0.506,3.209
			c-0.082,0.896-0.567,1.353-1.467,1.353c-1.109,0-1.577-0.582-1.509-1.662c0.047-0.748,0.07-1.547,0.136-2.319
			c0.063-0.773,0.345-1.512,0.793-2.204c0.313-0.479,0.722-0.734,1.237-0.734c1.056,0,1.585,0.503,1.585,1.508
			C606.151,63.051,606.062,63.348,605.881,63.618z M603.6,54.107c0.413-0.63,1.207-1.654,2.09-3.016
			c0.311-0.481,0.722-0.734,1.236-0.734c1.057,0,1.585,0.487,1.585,1.467c0,0.283-0.071,0.58-0.231,0.811
			c-0.42,0.608-1.229,1.589-2.011,2.86c-0.313,0.515-0.745,0.812-1.312,0.812c-1.033,0-1.546-0.489-1.546-1.468
			C603.406,54.584,603.465,54.314,603.6,54.107z M606.189,38.63c-1.007,0-1.508-0.38-1.508-1.386c0-1.005,0.503-1.447,1.508-1.447
			c2.19,0,3.45,0.099,3.75,0.186c0.905,0.26,1.431,0.608,1.431,1.097c0,0.413-0.288,0.826-0.868,1.226
			c-0.58,0.4-1.09,0.455-1.49,0.443c-0.125-0.004-0.387-0.119-0.774-0.119C607.419,38.63,607.01,38.63,606.189,38.63z
			 M607.659,72.896c0.574,0.983,1.267,1.655,2.09,1.931c0.692,0.236,1.041,0.698,1.041,1.395c0,1.03-0.487,1.546-1.467,1.546
			c-0.155,0-0.348-0.02-0.544-0.078c-1.503-0.441-2.786-1.666-3.748-3.326c-0.149-0.254-0.231-0.513-0.231-0.773
			c0-0.979,0.527-1.469,1.585-1.469C606.924,72.123,607.361,72.385,607.659,72.896z M613.305,43.63
			c-0.526,0.905-0.973,2.089-1.469,3.093c-0.709,1.431-1.432,2.163-2.051,2.163c-1.031,0-1.547-0.505-1.547-1.508
			c0-0.232,0.052-0.465,0.155-0.696c0.462-1.029,1.253-2.611,2.395-4.637c0.276-0.487,0.685-0.737,1.202-0.737
			c1.057,0,1.585,0.504,1.585,1.507C613.575,43.102,613.449,43.381,613.305,43.63z M617.788,34.158
			c-0.459,0.737-1.094,2.098-2.01,3.634c-0.29,0.486-0.722,0.735-1.237,0.735c-1.057,0-1.584-0.503-1.584-1.508
			c0-0.283,0.118-0.574,0.271-0.85c0.438-0.793,1.104-2.228,2.128-3.789c0.282-0.433,0.697-0.657,1.161-0.657
			c1.057,0,1.585,0.503,1.585,1.508C618.1,33.565,617.961,33.881,617.788,34.158z M616.127,73.516
			c0.717-0.132,1.667-0.591,2.786-1.199c0.244-0.133,0.513-0.193,0.773-0.193c0.979,0,1.468,0.517,1.468,1.547
			c0,0.567-0.268,0.989-0.773,1.275c-1.411,0.799-2.671,1.318-3.712,1.508c-1.174,0.215-1.778-0.272-1.778-1.508
			C614.89,74.146,615.305,73.665,616.127,73.516z M618.872,35.705c0.208,0,0.464-0.013,0.775-0.039
			c0.31-0.025,0.578-0.039,0.81-0.039c0.979,0,1.47,0.503,1.47,1.508c0,1.004-0.49,1.507-1.47,1.507
			c-0.231,0-0.502,0.014-0.81,0.039c-0.312,0.026-0.567,0.039-0.775,0.039c-1.005,0-1.505-0.502-1.505-1.507
			S617.867,35.705,618.872,35.705z M622.661,24.57c-0.28,0.215-0.664,0.78-1.139,1.643c-0.479,0.864-0.903,1.489-1.256,1.759
			c-0.281,0.211-0.619,0.31-0.931,0.31c-1.031,0-1.545-0.516-1.545-1.546c0-0.335,0.341-0.743,0.618-1.16
			c0.409-0.608,1.196-2.312,2.474-3.441c0.243-0.213,0.618-0.31,0.928-0.31c1.007,0,1.508,0.528,1.508,1.585
			C623.318,23.874,623.072,24.257,622.661,24.57z M626.914,15.6c-0.476,0.608-0.939,1.408-1.431,2.127
			c-0.668,0.979-1.25,1.469-1.74,1.469c-1.057,0-1.585-0.489-1.585-1.469c0-0.232,0.049-0.466,0.155-0.696
			c0.527-1.154,1.337-2.327,2.395-3.48c0.31-0.335,0.672-0.503,1.082-0.503c1.031,0,1.547,0.516,1.547,1.546
			C627.339,14.957,627.153,15.295,626.914,15.6z M627.301,35.781c0.858,0.131,1.393,0.58,1.393,1.508
			c0,1.006-0.503,1.507-1.508,1.507c-0.104,0-0.293-0.054-0.503-0.078c-0.137-0.015-0.349,0.014-0.581,0.039
			c-0.231,0.026-0.423,0.039-0.577,0.039c-1.006,0-1.508-0.502-1.508-1.507s0.505-1.508,1.508-1.508
			c0.154,0,0.347-0.013,0.577-0.039c0.234-0.025,0.427-0.039,0.581-0.039C626.862,35.705,627.082,35.748,627.301,35.781z
			 M624.169,68.876c0.098-0.538,0.94-1.585,2.514-3.132c0.051-0.051,0.116-0.104,0.154-0.154c0.296-0.377,0.708-0.696,1.273-0.696
			c1.007,0,1.508,0.439,1.508,1.314c0,0.594-0.343,1.333-1.006,1.895c-0.312,0.263-1.189,0.758-1.468,1.276
			c-0.281,0.526-0.633,1.275-1.432,1.275C624.479,70.654,623.955,70.051,624.169,68.876z M631.786,62.188
			c-0.232-0.181-0.36-0.567-0.387-1.16c-0.025-0.565,0.038-0.965,0.194-1.159c0.697-0.871,1.384-1.788,1.699-1.934
			c0.674-0.309,2.351,0.875,2.284,1.585c-0.083,0.865-1.345,2.033-2.091,2.358C632.596,62.268,632.018,62.368,631.786,62.188z"/>
		<path fill="#C1272D" stroke="#C1272D" stroke-miterlimit="10" d="M632.211,68.142c0.186,0.379,0.661,0.851,1.354,1.353
			c0.43,0.312,0.656,0.709,0.656,1.199c0,1.031-0.505,1.546-1.508,1.546c-0.31,0-0.605-0.108-0.888-0.31
			c-1.089-0.775-1.867-1.594-2.283-2.436c-0.125-0.257-0.192-0.502-0.192-0.736c0-0.979,0.528-1.469,1.585-1.469
			C631.527,67.291,631.944,67.6,632.211,68.142z M634.416,60.912c-0.156,0.19-0.387,0.312-0.698,0.312
			c-0.438,0-0.843-0.188-1.218-0.561c-0.375-0.376-0.568-0.939-0.407-1.259c0.348-0.688,1.469-1.734,2.397-2.82
			c0.177-0.206,0.374-0.31,0.578-0.31c0.824,0,1.273,0.572,1.395,1.663c0.02,0.204-0.078,0.73-0.387,1.162
			C635.898,59.343,635.189,59.965,634.416,60.912z M638.9,73.67c0.742,0.132,1.162,0.657,1.162,1.431
			c0,1.033-0.479,1.546-1.433,1.546c-0.077,0-0.926-0.252-2.513-0.772c-0.694-0.228-1.044-0.696-1.044-1.393
			c0-1.058,0.489-1.585,1.469-1.585c0.258,0,0.662,0.121,1.216,0.366S638.706,73.635,638.9,73.67z M638.437,52.87
			c0.528-0.591,1.534-1.535,2.747-2.822c0.31-0.329,0.669-0.503,1.079-0.503c1.033,0,1.547,0.516,1.547,1.547
			c0,0.36-0.141,0.736-0.424,1.005c-0.517,0.493-1.592,1.318-2.475,2.436c-0.315,0.402-0.71,0.696-1.199,0.696
			c-1.057,0-1.585-0.503-1.585-1.508C638.127,53.411,638.229,53.103,638.437,52.87z M647.986,76.067
			c-1.285,0.682-2.502,1.043-3.636,1.043c-1.007,0-1.508-0.505-1.508-1.508c0-0.979,0.503-1.469,1.508-1.469
			c0.616,0,1.381-0.225,2.202-0.696c0.255-0.146,0.518-0.231,0.775-0.231c0.979,0,1.468,0.528,1.468,1.585
			C648.799,75.358,648.522,75.782,647.986,76.067z M645.011,46.143c0.441-0.843,1.179-1.566,2.048-2.165
			c0.28-0.194,0.578-0.309,0.89-0.309c0.977,0,1.468,0.527,1.468,1.585c0,0.488-0.224,0.903-0.658,1.198
			c-0.5,0.339-0.887,0.727-1.12,1.16c-0.277,0.514-0.709,0.773-1.274,0.773c-1.034,0-1.549-0.487-1.549-1.468
			C644.814,46.659,644.88,46.396,645.011,46.143z M653.4,69.92c-0.357,0.707-0.951,1.669-1.547,2.822
			c-0.288,0.556-0.709,0.851-1.275,0.851c-1.058,0-1.586-0.503-1.586-1.508c0-0.232,0.063-0.469,0.194-0.696
			c0.323-0.563,0.849-1.49,1.469-2.745c0.284-0.581,0.721-0.889,1.314-0.889c1.056,0,1.585,0.488,1.585,1.469
			C653.555,69.456,653.509,69.705,653.4,69.92z M650.655,40.46c0.774-1.089,1.444-1.915,2.01-2.358
			c0.299-0.233,0.631-0.348,0.967-0.348c1.005,0,1.508,0.515,1.508,1.546c0,0.464-0.188,0.837-0.561,1.121
			c-0.377,0.284-0.871,0.887-1.488,1.778c-0.308,0.438-0.71,0.657-1.201,0.657c-1.031,0-1.546-0.502-1.546-1.507
			C650.346,41.04,650.453,40.743,650.655,40.46z M654.173,48.501c-0.064,2.128,0.069,3.62,0.464,4.369
			c0.121,0.23,0.193,0.464,0.193,0.698c0,0.979-0.528,1.469-1.585,1.469c-0.593,0-1.034-0.285-1.314-0.851
			c-0.596-1.205-0.844-3.135-0.773-5.76c0.027-0.977,0.528-1.467,1.508-1.467C653.696,46.955,654.204,47.477,654.173,48.501z
			 M655.604,60.563c-0.097,1.875-0.154,3.106-0.154,3.673c0,0.979-0.503,1.47-1.508,1.47s-1.506-0.49-1.506-1.47
			c0-0.618,0.049-1.895,0.152-3.827c0.051-0.953,0.544-1.431,1.469-1.431C655.14,58.979,655.658,59.512,655.604,60.563z
			 M654.348,70.75c0.296-0.295,0.801-0.761,1.295-1.371c0.312-0.391,0.695-0.657,1.159-0.657c1.057,0,1.586,0.502,1.586,1.508
			c0,0.309-0.101,0.635-0.309,0.889c-0.295,0.357-0.867,0.904-1.509,1.624c-0.311,0.348-0.684,0.541-1.121,0.541
			c-1.031,0-1.547-0.513-1.547-1.546C653.902,71.377,654.05,71.047,654.348,70.75z M659.954,66.111
			c0.296-0.347,0.79-0.972,1.448-1.488c0.238-0.188,0.569-0.271,0.852-0.271c1.006,0,1.507,0.527,1.507,1.585
			c0,0.49-0.231,0.89-0.695,1.198c-0.079,0.052-0.371,0.376-0.853,0.967c-0.31,0.382-0.682,0.58-1.119,0.58
			c-1.058,0-1.588-0.515-1.588-1.547C659.508,66.802,659.657,66.459,659.954,66.111z M665.889,62.188
			c-0.233-0.205-0.359-0.593-0.386-1.16s0.036-0.965,0.192-1.159c0.696-0.871,1.385-1.788,1.699-1.934
			c0.674-0.309,2.348,0.875,2.281,1.585c-0.08,0.865-1.345,2.038-2.088,2.358C666.68,62.271,666.095,62.368,665.889,62.188z"/>
	</g>
</g>
</svg>
