<?xml version="1.0" encoding="utf-8"?>
<!-- Generator: Adobe Illustrator 16.0.0, SVG Export Plug-In . SVG Version: 6.00 Build 0)  -->
<!DOCTYPE svg PUBLIC "-//W3C//DTD SVG 1.1//EN" "http://www.w3.org/Graphics/SVG/1.1/DTD/svg11.dtd">
<svg version="1.1" id="Layer_1" xmlns="http://www.w3.org/2000/svg" xmlns:xlink="http://www.w3.org/1999/xlink" x="0px" y="0px"
	 width="668.845px" height="82.5px" viewBox="0 0 668.845 82.5" enable-background="new 0 0 668.845 82.5" xml:space="preserve">
<g>
	<g>
		<path d="M5.03,50.053c0.031,0.999-0.084,2.723,0.076,4.716c0.016,0.199,0.104,0.529,0.233,0.967
			c0.129,0.439,0.193,0.774,0.193,1.006c0,0.979-0.516,1.469-1.547,1.469c-0.645,0-1.103-0.311-1.356-0.928
			c-0.337-0.82-0.545-2.074-0.545-3.75c0-0.402,0-0.604,0-1.006c0-0.851-0.027-1.589-0.074-2.204
			c-0.083-1.076,0.441-1.623,1.549-1.623C4.46,48.699,5.003,49.198,5.03,50.053z M9.437,32.848c-0.387,0.538-1.128,2.83-2.319,6.688
			c-0.221,0.716-0.695,1.083-1.391,1.083c-1.057,0-1.585-0.49-1.585-1.469c0-0.154,0.032-0.313,0.077-0.464
			c0.386-1.268,0.718-2.623,1.083-3.905c0.431-1.517,1.001-2.747,1.663-3.673c0.311-0.434,0.709-0.657,1.199-0.657
			c1.056,0,1.586,0.502,1.586,1.507C9.747,32.268,9.64,32.565,9.437,32.848z M8.857,65.71c0.395,0.607,0.769,1.303,1.161,1.895
			c0.508,0.767,1.1,1.179,1.663,1.198c0.944,0.034,1.431,0.529,1.431,1.508c0,1.032-0.541,1.544-1.586,1.508
			c-1.684-0.059-3.71-1.566-5.528-4.368c-0.158-0.244-0.232-0.529-0.232-0.812c0-1.058,0.606-1.585,1.817-1.585
			C8.122,65.053,8.575,65.277,8.857,65.71z M19.915,16.687c-1.089,1.351-3.386,3.604-4.987,6.379
			c-0.281,0.488-0.684,0.851-1.276,0.851c-1.057,0-1.584-0.489-1.584-1.469c0-0.232,0.063-0.479,0.193-0.735
			c0.431-0.848,1.265-1.959,2.474-3.324c1.367-1.543,2.24-2.654,2.629-3.287c0.301-0.486,0.722-0.734,1.238-0.734
			c1.056,0,1.585,0.502,1.585,1.508C20.187,16.159,20.099,16.459,19.915,16.687z M21.462,73.597
			c1.126-0.498,2.205-0.773,3.209-0.773c1.417,0,3.039-0.211,4.832-0.579c0.128-0.026,0.258-0.039,0.387-0.039
			c0.954,0,1.431,0.516,1.431,1.547c0,0.773-0.401,1.252-1.199,1.431c-1.979,0.441-3.801,0.657-5.451,0.657
			c-0.129,0-0.44,0.103-0.93,0.309c-0.49,0.206-0.852,0.267-1.083,0.193c-1.495-0.478-2.281-1.018-2.281-1.662
			C20.379,74.268,20.751,73.911,21.462,73.597z M31.824,8.415c-1.802,0.557-4.201,1.786-7.036,3.749
			c-0.257,0.178-0.542,0.271-0.852,0.271c-1.005,0-1.508-0.516-1.508-1.546c0-0.489,0.22-0.896,0.658-1.199
			c1.83-1.268,3.116-2.072,3.75-2.436c1.18-0.677,2.599-1.257,4.137-1.74c0.153-0.048,0.323-0.078,0.504-0.078
			c0.953,0,1.43,0.528,1.43,1.585C32.906,7.718,32.539,8.193,31.824,8.415z M35.922,69.499c1.803-1.729,3.146-3.135,3.75-4.214
			c0.285-0.509,0.709-0.773,1.275-0.773c1.031,0,1.547,0.489,1.547,1.469c0,0.259-0.062,0.526-0.193,0.773
			c-0.719,1.351-2.218,3.039-4.33,4.987c-0.308,0.284-0.645,0.426-1.006,0.426c-1.031,0-1.545-0.527-1.545-1.586
			C35.42,70.195,35.587,69.82,35.922,69.499z M44.7,5.514c-2.084-0.79-3.638-0.73-4.639,0.078c-0.321,0.259-0.685,0.386-1.045,0.386
			c-0.903,0-1.353-0.477-1.353-1.431c0-0.799,0.489-1.425,1.43-1.97c0.563-0.326,1.198-0.461,1.895-0.461s1.043,0,1.74,0
			c0.902,0,1.92,0.179,3.054,0.617c0.67,0.258,1.005,0.689,1.005,1.333c0,1.057-0.49,1.575-1.469,1.575
			C45.112,5.641,44.904,5.592,44.7,5.514z M47.367,11.005c-1.24,1.519-1.855,2.835-1.855,3.866c0,0.799,0.335,1.472,1.006,2.011
			c0.385,0.31,0.58,0.684,0.58,1.122c0,1.057-0.503,1.584-1.508,1.584c-0.335,0-0.658-0.134-0.967-0.386
			c-1.392-1.137-2.126-2.577-2.126-4.331c0-1.752,0.867-3.675,2.552-5.76c0.31-0.383,0.683-0.58,1.121-0.58
			c1.056,0,1.584,0.502,1.584,1.507C47.753,10.373,47.619,10.695,47.367,11.005z M44.391,60.529
			c0.526-0.618,0.789-0.928,1.314-1.546c0.722-0.876,1.346-1.788,1.662-1.934c0.672-0.309,2.406,1.024,2.282,1.585
			c-0.098,0.449-1.343,1.462-2.088,2.358c-0.182,0.22-0.491,0.594-0.929,1.083C45.735,61.457,45.287,61.148,44.391,60.529z
			 M55.641,6.867c-0.693,0.051-1.462,0.047-2.204,0.078c-1.075,0.044-1.738,0.253-1.971,0.58c-0.349,0.488-0.76,0.734-1.199,0.734
			c-0.928,0-1.393-0.566-1.393-1.701c0-1.469,1.294-2.441,3.558-2.551c0.612-0.03,1.648,0.003,2.861-0.116
			c1.097-0.109,1.702,0.348,1.702,1.507C56.995,6.274,56.511,6.802,55.641,6.867z M53.554,12.86
			c-0.086,1.923-0.158,3.221-0.27,3.827c-0.277,1.499-0.936,2.636-1.858,3.249c-0.274,0.182-0.578,0.271-0.887,0.271
			c-1.006,0-1.508-0.528-1.508-1.585c0-0.49,0.225-0.889,0.676-1.199c0.45-0.31,0.769-1.895,0.87-4.678
			c0.034-0.944,0.516-1.431,1.469-1.431C53.103,11.313,53.6,11.834,53.554,12.86z"/>
		<path d="M48.991,58.364c-0.179,0.26-0.229,1.434-0.502,2.514c-0.187,0.735-0.67,1.119-1.392,1.119
			c-1.057,0-1.585-0.475-1.585-1.429c0-0.155,0.041-0.318,0.078-0.464c0.174-0.701,0.277-1.566,0.445-2.379
			c0.167-0.811,0.655-1.445,1.413-1.913c0.282-0.175,0.554-0.271,0.811-0.271c1.005,0,1.508,0.529,1.508,1.585
			C49.766,57.669,49.169,58.104,48.991,58.364z M49.997,69.306c-0.004,0.017,0.851,0.696,0.851,1.236
			c0,1.032-0.542,1.547-1.625,1.547c-0.722,0-1.331-0.478-1.817-1.432c-0.671-1.312-1.005-2.642-1.005-3.981
			c0-1.984,0.645-2.978,1.934-2.978c1.031,0,1.546,0.451,1.546,1.354c0,0.31-0.103,0.618-0.309,0.929
			c-0.103,0.153-0.154,0.386-0.154,0.695c0,0.85,0.707,2.61,0.696,2.628C50.109,69.312,49.997,69.306,49.997,69.306z M49.727,52.179
			c0.86-1.403,2.338-2.881,4.369-4.33c0.282-0.202,0.579-0.31,0.889-0.31c1.005,0,1.51,0.529,1.51,1.585
			c0,0.489-0.221,0.892-0.659,1.199c-1.028,0.722-1.702,1.198-1.973,1.43c-0.565,0.489-1.081,1.182-1.547,1.972
			c-0.303,0.515-0.734,0.774-1.275,0.774c-1.057,0-1.585-0.503-1.585-1.508C49.457,52.733,49.554,52.461,49.727,52.179z
			 M54.172,73.559c0.665,0.345,2.513,0.541,2.513,0.541s0.466-0.076,2.165-0.232c1.107-0.102,1.663,0.4,1.663,1.508
			c0,0.902-0.473,1.417-1.391,1.508c-1.755,0.175-2.437,0.232-2.437,0.232s-2.837-0.305-3.943-0.89
			c-0.538-0.284-0.812-0.709-0.812-1.275c0-1.058,0.49-1.585,1.47-1.585C53.657,73.365,53.92,73.427,54.172,73.559z M60.166,42.707
			c0.844-1.005,2.918-1.708,5.451-2.513c0.123-0.039,0.271-0.078,0.427-0.078c0.953,0,1.43,0.515,1.43,1.547
			c0,0.772-0.375,1.251-1.122,1.43c-1.081,0.26-2.772,0.719-3.906,1.586c-0.325,0.249-0.708,0.541-1.121,0.541
			c-1.03,0-1.547-0.503-1.547-1.507C59.779,43.352,59.908,43.015,60.166,42.707z M65.541,70.543
			c0.353-0.113,0.971-0.477,1.816-1.044c0.721-0.484,1.25-0.734,1.585-0.734c0.979,0,1.469,0.528,1.469,1.585
			c0,0.49-0.234,0.889-0.696,1.198c-1.906,1.279-3.17,1.934-3.789,1.934c-0.979,0-1.469-0.516-1.469-1.547
			C64.458,71.214,64.848,70.765,65.541,70.543z M72.578,46.264c-0.443,0.914-1.121,2.333-1.779,4.098
			c-0.247,0.664-0.696,1.044-1.392,1.044c-1.031,0-1.546-0.489-1.546-1.469c0-0.181,0.013-0.399,0.078-0.581
			c0.297-0.851,1.017-2.354,1.856-4.251c0.271-0.613,0.735-0.928,1.353-0.928c1.057,0,1.584,0.477,1.584,1.431
			C72.731,45.838,72.677,46.058,72.578,46.264z M71.262,55.542c0.274,0.77,0.724,1.333,1.315,1.663
			c0.511,0.285,0.773,0.696,0.773,1.236c0,1.059-0.49,1.586-1.469,1.586c-0.283,0-0.557-0.083-0.813-0.232
			c-1.209-0.704-2.082-1.847-2.628-3.247c-0.068-0.177-0.116-0.36-0.116-0.542c0-0.979,0.528-1.469,1.584-1.469
			C70.579,54.537,71.026,54.88,71.262,55.542z M73.273,39.111c1.158,0.156,2.413,0.578,3.75,1.275
			c1.674,0.873,2.513,1.779,2.513,2.707c0,1.006-0.529,1.508-1.586,1.508c-0.567,0-0.984-0.308-1.275-0.851
			c-0.095-0.178-0.534-0.478-1.276-0.85c-0.885-0.444-1.744-0.717-2.512-0.812c-0.868-0.108-1.315-0.592-1.315-1.468
			C71.572,39.459,72.14,38.959,73.273,39.111z M77.854,61.785c-0.425,0.271-0.882,0.845-1.372,1.722
			c-0.49,0.875-1.033,1.512-1.625,1.894c-0.281,0.183-0.567,0.271-0.851,0.271c-0.979,0-1.469-0.527-1.469-1.586
			c0-0.514,0.238-0.954,0.696-1.236c0.17-0.104,0.528-0.601,1.044-1.489c0.516-0.89,1.148-1.586,1.895-2.067
			c0.28-0.182,0.567-0.271,0.85-0.271c0.979,0,1.469,0.529,1.469,1.585C78.492,61.122,78.28,61.517,77.854,61.785z M81.392,47.771
			c0.077,1.961-0.186,3.934-0.85,5.838c-0.233,0.668-0.696,1.005-1.392,1.005c-1.031,0-1.546-0.477-1.546-1.431
			c0-0.181,0.022-0.367,0.078-0.541c0.482-1.517,0.799-3.147,0.734-4.755c-0.042-1.049,0.452-1.586,1.509-1.586
			C80.878,46.302,81.354,46.805,81.392,47.771z M79.885,62.153c1.001,0.099,1.624,0.154,1.856,0.154
			c1.005,0,1.508,0.503,1.508,1.507c0,1.005-0.503,1.508-1.508,1.508c-0.31,0-1.033-0.082-2.126-0.192
			c-0.888-0.09-1.354-0.567-1.354-1.469C78.26,62.553,78.806,62.047,79.885,62.153z M85.259,61.303
			c-0.232-0.181-0.36-0.569-0.386-1.161c-0.025-0.566,0.037-0.965,0.193-1.16c0.697-0.87,1.385-1.786,1.701-1.932
			c0.671-0.309,2.348,0.875,2.282,1.585c-0.081,0.865-1.344,2.033-2.088,2.358C86.068,61.383,85.491,61.483,85.259,61.303z"/>
		<path d="M86.961,60.027c-0.156,0.19-0.386,0.31-0.696,0.31c-0.438,0-0.845-0.187-1.218-0.561s-0.567-0.938-0.406-1.257
			c0.348-0.689,1.467-1.735,2.397-2.822c0.176-0.205,0.375-0.309,0.58-0.309c0.824,0,1.273,0.572,1.392,1.662
			c0.022,0.203-0.076,0.729-0.387,1.16C88.444,58.458,87.735,59.08,86.961,60.027z M91.445,51.328
			c0.153-1.106,1.384-2.558,3.673-4.253c0.279-0.207,0.592-0.31,0.927-0.31c1.005,0,1.508,0.516,1.508,1.547
			c0,0.464-0.21,0.893-0.619,1.198c-0.698,0.523-2.1,1.397-2.514,2.242c-0.264,0.542-0.619,1.275-1.469,1.275
			C91.794,53.029,91.29,52.46,91.445,51.328z M103.78,72.321c-0.178,0.48-0.664,1.36-1.16,2.513
			c-0.262,0.609-0.696,0.928-1.315,0.928c-1.057,0-1.585-0.476-1.585-1.43c0-0.206,0.047-0.438,0.155-0.657
			c0.21-0.431,0.596-1.231,1.043-2.358c0.262-0.661,0.722-1.006,1.393-1.006c1.031,0,1.546,0.477,1.546,1.431
			C103.857,71.922,103.846,72.144,103.78,72.321z M100.338,43.558c1.318-1.836,3.338-2.784,6.072-2.784
			c0.979,0,1.469,0.503,1.469,1.508s-0.49,1.507-1.469,1.507c-1.701,0-2.921,0.505-3.635,1.508c-0.31,0.436-0.695,0.657-1.159,0.657
			c-1.057,0-1.584-0.503-1.584-1.508C100.03,44.137,100.135,43.841,100.338,43.558z M107.337,64.666
			c-0.413,0.458-0.715,1.07-0.908,1.817c-0.193,0.748-0.665,1.121-1.412,1.121c-1.031,0-1.546-0.477-1.546-1.431
			c0-0.154,0.009-0.3,0.038-0.425c0.275-1.217,0.887-2.27,1.625-3.093c0.311-0.347,0.67-0.542,1.083-0.542
			c1.031,0,1.546,0.516,1.546,1.547C107.763,64.023,107.616,64.357,107.337,64.666z M111.475,54.885
			c-0.335,1.017-0.872,3.312-2.126,5.103c-0.228,0.324-0.685,0.504-1.122,0.504c-1.032,0-1.546-0.504-1.546-1.508
			c0-0.36,0.142-0.702,0.425-1.025c0.283-0.322,0.58-0.998,0.889-2.029c0.386-1.289,0.644-2.073,0.773-2.358
			c0.258-0.567,0.696-0.851,1.315-0.851c1.031,0,1.548,0.489,1.548,1.47C111.63,54.421,111.547,54.668,111.475,54.885z
			 M112.248,43.673c0.362,1.054,0.541,2.707,0.541,4.949c0,1.005-0.489,1.508-1.468,1.508c-1.005,0-1.509-0.504-1.509-1.508
			c0-1.882-0.123-3.211-0.387-3.943c-0.073-0.204-0.116-0.399-0.116-0.58c0-0.953,0.528-1.431,1.585-1.431
			C111.564,42.668,112.019,43.005,112.248,43.673z M112.905,53.454c0.542-0.591,1.414-1.521,2.59-2.783
			c0.31-0.333,0.67-0.503,1.083-0.503c1.031,0,1.547,0.516,1.547,1.547c0,0.36-0.143,0.7-0.426,1.005
			c-0.48,0.515-1.352,1.495-2.59,2.784c-0.322,0.335-0.696,0.502-1.083,0.502c-1.031,0-1.547-0.517-1.547-1.548
			C112.479,54.098,112.623,53.764,112.905,53.454z M120.522,46.031c0.897-0.594,2.195-1.468,3.866-2.552
			c0.279-0.181,0.58-0.271,0.889-0.271c0.979,0,1.471,0.516,1.471,1.547c0,0.515-0.226,0.951-0.659,1.236
			c-0.833,0.55-2.171,1.408-3.866,2.513c-0.279,0.182-0.58,0.271-0.889,0.271c-1.005,0-1.508-0.515-1.508-1.546
			C119.826,46.74,120.059,46.339,120.522,46.031z M129.918,70.311c0.489,1.47,1.217,2.204,2.184,2.204
			c0.966,0,1.451,0.503,1.451,1.508c0,1.004-0.504,1.508-1.509,1.508c-2.372,0-4.112-1.473-4.987-4.292
			c-0.055-0.176-0.078-0.348-0.078-0.503c0-0.979,0.516-1.469,1.547-1.469C129.222,69.267,129.686,69.615,129.918,70.311z
			 M131.967,61.689c-0.876,0.826-1.426,1.758-1.508,2.783c-0.073,0.924-0.567,1.393-1.469,1.393c-1.108,0-1.633-0.553-1.546-1.624
			c0.068-0.843,0.471-1.884,1.159-3.093c0.801-1.407,1.571-2.127,2.32-2.127c1.031,0,1.548,0.516,1.548,1.547
			C132.47,60.981,132.301,61.374,131.967,61.689z M129.841,41.121c0.603-0.924,1.481-1.392,2.59-1.392c1.16,0,2.09,0.29,2.784,0.812
			c0.275,0.208,0.907,0.876,1.856,2.01c0.257,0.308,0.387,0.645,0.387,1.006c0,1.005-0.516,1.508-1.547,1.508
			c-0.439,0-0.819-0.193-1.141-0.58c-0.323-0.387-0.632-0.85-0.947-1.199c-0.3-0.332-1.19-0.652-1.47-0.502
			c-0.259,0.138-0.709,0.695-1.198,0.695c-1.057,0-1.584-0.502-1.584-1.508C129.57,41.689,129.659,41.4,129.841,41.121z
			 M135.253,54.15c-0.307,0.439-0.708,0.657-1.198,0.657c-1.031,0-1.547-0.503-1.547-1.508c0-0.31,0.088-0.618,0.271-0.89
			c0.433-0.639,0.902-1.638,1.237-2.938c0.189-0.733,0.644-1.121,1.392-1.121c1.031,0,1.546,0.49,1.546,1.469
			C136.955,51.084,136.389,52.533,135.253,54.15z M136.588,71.007c0.45-0.335,1.175-0.885,2.146-1.508
			c0.246-0.158,0.515-0.232,0.773-0.232c1.005,0,1.509,0.517,1.509,1.547c0,0.542-0.298,0.942-0.734,1.237
			c-0.455,0.306-0.929,0.729-1.392,1.082c-0.609,0.466-1.109,0.696-1.469,0.696c-1.005,0-1.508-0.529-1.508-1.585
			C135.911,71.755,136.137,71.343,136.588,71.007z M142.136,66.561c0.302-0.784,0.969-1.769,2.05-2.706
			c0.297-0.259,0.644-0.387,1.005-0.387c1.031,0,1.546,0.517,1.546,1.547c0,0.412-0.181,0.773-0.542,1.082
			c-0.361,0.311-0.901,0.835-1.238,1.469c-0.295,0.561-0.721,1.006-1.391,1.006c-1.032,0-1.547-0.489-1.547-1.469
			C142.02,66.923,142.068,66.737,142.136,66.561z M148.206,61.303c-0.232-0.206-0.361-0.593-0.386-1.16
			c-0.026-0.567,0.037-0.965,0.193-1.159c0.696-0.871,1.385-1.788,1.701-1.934c0.671-0.309,2.348,0.875,2.282,1.585
			c-0.081,0.865-1.344,2.023-2.087,2.358C149.008,61.401,148.438,61.51,148.206,61.303z"/>
		<path d="M150.913,60.027c-0.156,0.19-0.386,0.31-0.696,0.31c-0.438,0-0.844-0.187-1.218-0.561s-0.567-0.938-0.406-1.257
			c0.347-0.69,1.467-1.735,2.396-2.822c0.176-0.205,0.374-0.309,0.58-0.309c0.824,0,1.273,0.572,1.392,1.662
			c0.022,0.203-0.076,0.729-0.387,1.16C152.396,58.458,151.688,59.08,150.913,60.027z M155.399,51.328
			c0.153-1.106,1.383-2.558,3.672-4.253c0.279-0.207,0.592-0.31,0.928-0.31c1.006,0,1.508,0.516,1.508,1.547
			c0,0.464-0.21,0.893-0.619,1.198c-0.698,0.523-2.101,1.397-2.514,2.242c-0.265,0.542-0.618,1.275-1.468,1.275
			C155.746,53.029,155.243,52.46,155.399,51.328z M167.732,72.321c-0.178,0.48-0.664,1.36-1.16,2.513
			c-0.262,0.609-0.696,0.928-1.314,0.928c-1.057,0-1.584-0.476-1.584-1.43c0-0.206,0.047-0.438,0.154-0.657
			c0.21-0.431,0.597-1.231,1.043-2.358c0.262-0.661,0.722-1.006,1.393-1.006c1.031,0,1.546,0.477,1.546,1.431
			C167.81,71.922,167.797,72.144,167.732,72.321z M164.292,43.558c1.318-1.836,3.338-2.784,6.071-2.784
			c0.979,0,1.467,0.503,1.467,1.508s-0.49,1.507-1.469,1.507c-1.701,0-2.919,0.505-3.633,1.508c-0.31,0.436-0.696,0.657-1.16,0.657
			c-1.057,0-1.585-0.503-1.585-1.508C163.983,44.137,164.088,43.841,164.292,43.558z M171.29,64.666
			c-0.413,0.458-0.716,1.07-0.909,1.817c-0.193,0.748-0.665,1.121-1.411,1.121c-1.032,0-1.546-0.477-1.546-1.431
			c0-0.154,0.01-0.3,0.038-0.425c0.275-1.217,0.886-2.27,1.624-3.093c0.311-0.347,0.67-0.542,1.083-0.542
			c1.031,0,1.547,0.516,1.547,1.547C171.715,64.023,171.569,64.357,171.29,64.666z M175.427,54.885
			c-0.335,1.017-0.872,3.312-2.127,5.103c-0.227,0.324-0.683,0.504-1.121,0.504c-1.032,0-1.546-0.504-1.546-1.508
			c0-0.36,0.141-0.702,0.424-1.025c0.283-0.322,0.581-0.998,0.89-2.029c0.386-1.289,0.644-2.073,0.773-2.358
			c0.257-0.567,0.695-0.851,1.313-0.851c1.031,0,1.547,0.489,1.547,1.47C175.582,54.421,175.499,54.668,175.427,54.885z
			 M176.2,43.673c0.362,1.054,0.541,2.707,0.541,4.949c0,1.005-0.489,1.508-1.468,1.508c-1.005,0-1.507-0.504-1.507-1.508
			c0-1.882-0.123-3.211-0.387-3.943c-0.073-0.204-0.115-0.399-0.115-0.58c0-0.953,0.528-1.431,1.585-1.431
			C175.517,42.668,175.97,43.005,176.2,43.673z M176.857,53.454c0.542-0.591,1.414-1.521,2.59-2.783
			c0.31-0.333,0.671-0.503,1.084-0.503c1.031,0,1.547,0.516,1.547,1.547c0,0.36-0.142,0.7-0.425,1.005
			c-0.481,0.515-1.353,1.495-2.592,2.784c-0.322,0.335-0.695,0.502-1.083,0.502c-1.031,0-1.546-0.515-1.546-1.546
			C176.432,54.1,176.574,53.764,176.857,53.454z M184.474,46.031c0.897-0.594,2.196-1.468,3.867-2.552
			c0.28-0.181,0.58-0.271,0.889-0.271c0.979,0,1.469,0.516,1.469,1.547c0,0.515-0.224,0.951-0.657,1.236
			c-0.833,0.55-2.173,1.408-3.867,2.513c-0.279,0.182-0.579,0.271-0.889,0.271c-1.005,0-1.508-0.515-1.508-1.546
			C183.779,46.74,184.011,46.339,184.474,46.031z M193.87,70.311c0.489,1.47,1.218,2.204,2.185,2.204s1.45,0.503,1.45,1.508
			c0,1.004-0.502,1.508-1.507,1.508c-2.372,0-4.114-1.473-4.988-4.292c-0.055-0.176-0.078-0.348-0.078-0.503
			c0-0.979,0.515-1.469,1.547-1.469C193.174,69.267,193.638,69.615,193.87,70.311z M195.919,61.689
			c-0.876,0.826-1.427,1.758-1.508,2.783c-0.073,0.924-0.567,1.393-1.47,1.393c-1.108,0-1.633-0.553-1.546-1.624
			c0.068-0.843,0.472-1.884,1.16-3.093c0.801-1.407,1.573-2.127,2.32-2.127c1.031,0,1.547,0.516,1.547,1.547
			C196.422,60.981,196.253,61.374,195.919,61.689z M193.793,41.121c0.602-0.924,1.481-1.392,2.59-1.392
			c1.16,0,2.09,0.29,2.784,0.812c0.275,0.208,0.907,0.876,1.856,2.01c0.257,0.308,0.387,0.645,0.387,1.006
			c0,1.005-0.517,1.508-1.548,1.508c-0.439,0-0.819-0.193-1.14-0.58c-0.322-0.387-0.634-0.85-0.947-1.199
			c-0.3-0.332-1.188-0.652-1.469-0.502c-0.259,0.138-0.708,0.695-1.198,0.695c-1.057,0-1.586-0.502-1.586-1.508
			C193.522,41.689,193.611,41.4,193.793,41.121z M199.205,54.15c-0.307,0.439-0.708,0.657-1.198,0.657
			c-1.032,0-1.547-0.503-1.547-1.508c0-0.31,0.087-0.618,0.271-0.89c0.433-0.639,0.903-1.638,1.237-2.938
			c0.189-0.733,0.644-1.121,1.391-1.121c1.031,0,1.547,0.49,1.547,1.469C200.907,51.084,200.341,52.533,199.205,54.15z
			 M200.54,71.007c0.451-0.335,1.177-0.885,2.146-1.508c0.246-0.158,0.515-0.232,0.774-0.232c1.005,0,1.507,0.517,1.507,1.547
			c0,0.542-0.298,0.942-0.735,1.237c-0.455,0.306-0.93,0.729-1.393,1.082c-0.61,0.466-1.108,0.696-1.469,0.696
			c-1.006,0-1.508-0.529-1.508-1.585C199.863,71.755,200.088,71.343,200.54,71.007z M206.088,66.561
			c0.302-0.784,0.97-1.769,2.05-2.706c0.297-0.259,0.644-0.387,1.004-0.387c1.031,0,1.548,0.517,1.548,1.547
			c0,0.412-0.182,0.773-0.542,1.082c-0.361,0.311-0.901,0.835-1.237,1.469c-0.296,0.561-0.722,1.006-1.392,1.006
			c-1.031,0-1.546-0.489-1.546-1.469C205.973,66.923,206.02,66.737,206.088,66.561z M212.159,61.303
			c-0.232-0.206-0.362-0.593-0.387-1.16s0.037-0.965,0.194-1.159c0.696-0.871,1.386-1.788,1.702-1.934
			c0.671-0.309,2.347,0.875,2.282,1.585c-0.081,0.865-1.346,2.023-2.089,2.358C212.959,61.401,212.391,61.51,212.159,61.303z"/>
		<path d="M216.799,55.812c-0.465,0.59-0.771,1.194-0.812,1.778c-0.065,0.913-0.542,1.393-1.47,1.393
			c-1.082,0-1.581-0.546-1.506-1.624c0.082-1.206,0.559-2.359,1.43-3.441c0.31-0.385,0.683-0.579,1.122-0.579
			c1.056,0,1.587,0.502,1.587,1.508C217.148,55.182,217.032,55.516,216.799,55.812z M216.412,64.589
			c0.128,0.284,0.464,0.696,0.464,1.083c0,0.954-0.542,1.43-1.625,1.43c-1.186,0-1.856-0.951-1.894-2.744
			c-0.008-0.404,0.005-1.064-0.038-1.896c-0.054-1.035,0.425-1.585,1.507-1.585c0.928,0,1.516,0.561,1.507,1.431
			C216.33,62.779,216.129,63.961,216.412,64.589z M218.113,71.896c0.559,1.055,1.155,1.661,1.741,1.779
			c0.81,0.163,1.237,0.631,1.237,1.43c0,1.237-0.614,1.746-1.817,1.508c-1.515-0.299-2.745-1.566-3.791-3.324
			c-0.135-0.228-0.231-0.477-0.231-0.735c0-0.979,0.528-1.469,1.585-1.469C217.403,71.084,217.828,71.358,218.113,71.896z
			 M217.108,57.243c0.335,0,0.792-0.083,1.372-0.25c0.58-0.169,1.013-0.252,1.296-0.252c0.979,0,1.469,0.516,1.469,1.546
			c0,0.774-0.391,1.248-1.161,1.432c-1.491,0.353-2.488,0.542-2.978,0.542c-1.005,0-1.508-0.504-1.508-1.508
			C215.598,57.747,216.104,57.243,217.108,57.243z M222.057,48.312c-0.051,0.045-0.758,0.655-2.049,1.817
			c-0.309,0.279-0.645,0.425-1.006,0.425c-1.005,0-1.508-0.528-1.508-1.585c0-0.413,0.171-0.773,0.501-1.082
			c0.49-0.457,1.257-1.204,2.282-2.011c0.264-0.209,0.58-0.31,0.89-0.31c1.005,0,1.508,0.529,1.508,1.585
			C222.675,47.616,222.418,47.999,222.057,48.312z M224.918,54.847c0.638-0.407,1.845-0.988,3.131-1.856
			c0.28-0.188,0.58-0.309,0.889-0.309c1.006,0,1.507,0.527,1.507,1.585c0,0.49-0.242,0.93-0.695,1.198
			c-0.638,0.377-1.79,0.938-3.015,1.778c-0.306,0.21-0.619,0.348-0.928,0.348c-1.006,0-1.508-0.528-1.508-1.585
			C224.299,55.542,224.516,55.103,224.918,54.847z M229.228,42.088c-0.786,0.181-1.451,0.515-1.952,1.005
			c-0.31,0.302-0.656,0.465-1.042,0.465c-1.032,0-1.546-0.516-1.546-1.547c0-0.387,0.153-0.737,0.463-1.044
			c1.25-1.236,2.539-1.855,3.827-1.855c0.954,0,1.431,0.516,1.431,1.546C230.407,41.431,230.015,41.908,229.228,42.088z
			 M226.581,73.752c1.8-0.749,2.822-1.237,3.015-1.469c0.286-0.341,0.643-0.542,1.082-0.542c1.056,0,1.586,0.478,1.586,1.432
			c0,0.644-0.433,1.229-1.295,1.757c-0.864,0.529-1.956,1.102-3.228,1.606c-0.2,0.08-0.412,0.115-0.618,0.115
			c-0.979,0-1.469-0.527-1.469-1.585C225.653,74.447,225.962,74.009,226.581,73.752z M232.224,50.207
			c0.541-0.903,1.082-1.671,1.624-2.204c0.314-0.309,0.696-0.464,1.083-0.464c1.031,0,1.545,0.516,1.545,1.547
			c0,0.387-0.181,0.734-0.502,1.044c-0.386,0.371-0.791,0.929-1.198,1.623c-0.284,0.486-0.697,0.735-1.237,0.735
			c-1.032,0-1.545-0.49-1.545-1.47C231.992,50.734,232.069,50.465,232.224,50.207z M234.93,42.745c0-0.8-0.135-1.394-0.386-1.778
			c-0.182-0.279-0.271-0.567-0.271-0.851c0-1.005,0.527-1.508,1.584-1.508c0.489,0,0.889,0.234,1.199,0.696
			c0.587,0.876,0.89,2.025,0.89,3.441c0,1.006-0.504,1.508-1.509,1.508C235.433,44.253,234.93,43.75,234.93,42.745z M237.017,65.787
			c0.277-0.181,0.567-0.271,0.851-0.271c1.006,0,1.507,0.528,1.507,1.585c0,0.49-0.239,0.895-0.715,1.216
			c-0.477,0.323-1.036,0.912-1.643,1.762c-0.31,0.433-0.708,0.657-1.197,0.657c-1.031,0-1.546-0.503-1.546-1.508
			C234.273,68.171,235.196,66.982,237.017,65.787z M239.839,61.883c0.332-0.207,0.562-0.376,0.657-0.503
			c0.314-0.43,0.708-0.695,1.198-0.695c1.056,0,1.585,0.502,1.585,1.507c0,0.31-0.126,0.596-0.31,0.851
			c-0.343,0.475-0.864,0.996-1.585,1.431c-0.257,0.154-0.515,0.231-0.773,0.231c-1.006,0-1.507-0.528-1.507-1.585
			C239.104,62.604,239.351,62.188,239.839,61.883z M242.737,58.983c0.683-0.872,1.347-1.788,1.664-1.934
			c0.67-0.309,2.342,0.871,2.279,1.585c-0.101,1.139-1.528,2.399-2.086,2.358c-0.456-0.032-0.913-0.379-1.353-1.005
			C242.843,59.425,242.658,59.082,242.737,58.983z"/>
		<path d="M247.144,65.092c0,1.237,0.203,2.251,0.619,3.016c0.126,0.231,0.193,0.478,0.193,0.734c0,0.979-0.528,1.469-1.584,1.469
			c-0.568,0-0.992-0.273-1.275-0.812c-0.638-1.209-0.966-2.68-0.966-4.406c0-1.007,0.501-1.508,1.507-1.508
			C246.643,63.585,247.144,64.086,247.144,65.092z M248.188,54.962c-0.282,0.387-0.424,1.103-0.424,2.146
			c0,1.043-0.502,1.565-1.508,1.565c-1.004,0-1.508-0.503-1.508-1.508c0-1.726,0.344-3.055,1.006-3.981
			c0.31-0.434,0.708-0.657,1.199-0.657c1.031,0,1.545,0.516,1.545,1.547C248.497,54.383,248.394,54.681,248.188,54.962z
			 M250.662,72.939c0.154,0.15,0.285,0.268,0.385,0.31c0.613,0.257,1.006,0.696,1.006,1.392c0,1.006-0.49,1.508-1.469,1.508
			c-0.618,0-1.289-0.369-2.01-1.044c-0.275-0.257-0.532-0.437-0.734-0.541c-0.539-0.276-0.811-0.708-0.811-1.275
			c0-1.057,0.502-1.585,1.507-1.585C249.077,71.703,249.811,72.114,250.662,72.939z M253.561,46.844
			c-0.05,0.02-0.67,0.771-1.857,2.165c-0.329,0.385-0.708,0.579-1.12,0.579c-1.057,0-1.586-0.515-1.586-1.547
			c0-0.335,0.146-0.659,0.387-0.967c0.441-0.562,0.89-1.185,1.354-1.778c0.464-0.592,1.082-1.011,1.815-1.275
			c0.204-0.073,0.399-0.115,0.58-0.115c0.978,0,1.468,0.527,1.468,1.585C254.604,46.16,254.188,46.581,253.561,46.844z
			 M255.88,41.778c0.953-0.819,1.868-1.236,2.744-1.236c1.005,0,1.508,0.502,1.508,1.507s-0.502,1.508-1.507,1.508
			c-0.129,0-0.366,0.148-0.714,0.445c-0.347,0.297-0.69,0.444-1.025,0.444c-1.031,0-1.545-0.516-1.545-1.547
			C255.338,42.462,255.52,42.088,255.88,41.778z M258.508,72.553c0.329-0.068,0.824-0.368,1.468-0.872
			c0.645-0.502,1.186-0.751,1.624-0.751c0.979,0,1.468,0.515,1.468,1.546c0,0.619-0.404,1.043-0.927,1.354
			c-0.198,0.117-0.503,0.375-0.889,0.657c-0.952,0.696-1.778,1.044-2.474,1.044c-1.006,0-1.507-0.504-1.507-1.508
			C257.271,73.196,257.703,72.722,258.508,72.553z M265.748,44.176v0.077c0,0.019-0.683-0.341-1.108-0.638
			c-0.424-0.296-0.698-0.677-0.698-1.141c0-1.057,0.474-1.585,1.478-1.585c0.309,0,0.591,0.116,0.872,0.31
			c0.419,0.287,0.898,0.546,1.269,0.812c0.405,0.29,0.729,0.796,0.847,1.314c0.032,0.144,0.036,0.297,0.036,0.425
			c0,0.979-0.395,1.47-1.427,1.47C266.296,45.22,265.748,44.176,265.748,44.176z M265.582,67.373c0.674-0.874,1.7-1.706,2.899-2.514
			c0.256-0.173,0.542-0.271,0.852-0.271c1.004,0,1.506,0.515,1.506,1.547c0,0.515-0.232,0.933-0.695,1.236
			c-0.943,0.621-1.689,1.25-2.203,1.895c-0.31,0.386-0.697,0.579-1.161,0.579c-1.031,0-1.546-0.502-1.546-1.507
			C265.233,68.004,265.349,67.674,265.582,67.373z M270.8,50.207c0,1.005-0.501,1.508-1.506,1.508c-1.004,0-1.508-0.504-1.508-1.508
			c0-0.489,0.236-1.336,0.657-2.513c0.236-0.661,0.683-1.007,1.354-1.007c1.056,0,1.583,0.49,1.583,1.469
			c0,0.232-0.096,0.567-0.289,1.006S270.8,49.949,270.8,50.207z M274.511,43.055c-0.229,0.181-0.458,0.417-0.619,0.695
			c-0.294,0.508-0.722,0.812-1.314,0.812c-1.005,0-1.508-0.478-1.508-1.432c0-0.773,0.538-1.584,1.585-2.435
			c0.283-0.23,0.593-0.348,0.929-0.348c1.005,0,1.506,0.515,1.506,1.546C275.09,42.358,274.897,42.75,274.511,43.055z
			 M273.583,58.983c0.027-0.333,0.253-0.683,0.656-1.044c0.335-0.301,0.731-0.781,1.006-0.89c0.748-0.292,2.343,0.871,2.279,1.585
			c-0.101,1.139-1.544,2.384-2.086,2.358c-0.443-0.02-1.006,0.044-1.391-0.038C273.681,60.878,273.488,60.135,273.583,58.983z"/>
		<path d="M276.328,60.027c-0.156,0.19-0.387,0.31-0.696,0.31c-0.439,0-0.844-0.188-1.218-0.561
			c-0.375-0.374-0.568-0.938-0.407-1.257c0.348-0.69,1.468-1.735,2.397-2.822c0.175-0.205,0.374-0.309,0.581-0.309
			c0.824,0,1.271,0.572,1.39,1.662c0.022,0.203-0.076,0.729-0.386,1.16C277.811,58.458,277.102,59.08,276.328,60.027z
			 M281.121,62.733c-0.122,0.18-0.318,1.268-0.503,3.209c-0.085,0.894-0.567,1.353-1.469,1.353c-1.108,0-1.576-0.583-1.508-1.662
			c0.048-0.748,0.072-1.547,0.137-2.319c0.064-0.773,0.342-1.512,0.792-2.204c0.311-0.479,0.722-0.734,1.237-0.734
			c1.055,0,1.584,0.503,1.584,1.508C281.391,62.166,281.303,62.463,281.121,62.733z M278.841,53.223
			c0.411-0.63,1.208-1.654,2.087-3.016c0.312-0.481,0.72-0.734,1.236-0.734c1.057,0,1.586,0.488,1.586,1.468
			c0,0.284-0.073,0.581-0.232,0.812c-0.421,0.607-1.228,1.588-2.01,2.86c-0.316,0.515-0.748,0.812-1.314,0.812
			c-1.031,0-1.546-0.489-1.546-1.47C278.647,53.699,278.706,53.43,278.841,53.223z M281.43,37.746c-1.005,0-1.506-0.38-1.506-1.386
			c0-1.005,0.502-1.447,1.506-1.447c2.19,0,3.45,0.099,3.75,0.186c0.904,0.26,1.43,0.608,1.43,1.097c0,0.413-0.289,0.826-0.87,1.226
			c-0.58,0.4-1.087,0.455-1.487,0.443c-0.125-0.004-0.387-0.118-0.775-0.118C282.659,37.746,282.249,37.746,281.43,37.746z
			 M282.898,72.012c0.572,0.983,1.265,1.655,2.088,1.933c0.692,0.234,1.044,0.696,1.044,1.393c0,1.03-0.491,1.546-1.47,1.546
			c-0.154,0-0.345-0.02-0.54-0.077c-1.505-0.438-2.787-1.665-3.75-3.325c-0.148-0.256-0.231-0.515-0.231-0.773
			c0-0.979,0.528-1.469,1.585-1.469C282.165,71.238,282.601,71.5,282.898,72.012z M288.543,42.745
			c-0.526,0.905-0.971,2.089-1.47,3.093c-0.709,1.431-1.43,2.164-2.048,2.164c-1.031,0-1.546-0.503-1.546-1.507
			c0-0.232,0.052-0.465,0.155-0.696c0.462-1.03,1.252-2.611,2.396-4.639c0.274-0.487,0.682-0.735,1.199-0.735
			c1.055,0,1.586,0.503,1.586,1.508C288.814,42.217,288.688,42.496,288.543,42.745z M293.026,33.273
			c-0.461,0.737-1.093,2.098-2.01,3.634c-0.29,0.486-0.722,0.735-1.237,0.735c-1.056,0-1.584-0.503-1.584-1.508
			c0-0.283,0.119-0.574,0.271-0.85c0.437-0.793,1.1-2.228,2.125-3.789c0.284-0.433,0.697-0.657,1.161-0.657
			c1.056,0,1.584,0.503,1.584,1.508C293.335,32.681,293.199,32.997,293.026,33.273z M291.364,72.631
			c0.718-0.132,1.667-0.591,2.784-1.199c0.244-0.133,0.514-0.193,0.773-0.193c0.979,0,1.469,0.517,1.469,1.547
			c0,0.567-0.267,0.989-0.773,1.275c-1.41,0.799-2.671,1.318-3.711,1.508c-1.175,0.215-1.778-0.271-1.778-1.508
			C290.127,73.262,290.542,72.78,291.364,72.631z M294.108,34.82c0.206,0,0.465-0.013,0.774-0.039
			c0.309-0.025,0.58-0.039,0.812-0.039c0.978,0,1.468,0.503,1.468,1.508c0,1.004-0.49,1.507-1.468,1.507
			c-0.232,0-0.503,0.014-0.812,0.039c-0.31,0.026-0.568,0.039-0.774,0.039c-1.005,0-1.506-0.502-1.506-1.507
			S293.103,34.82,294.108,34.82z M297.896,23.685c-0.281,0.215-0.663,0.78-1.139,1.643c-0.478,0.864-0.9,1.489-1.256,1.759
			c-0.279,0.211-0.619,0.31-0.929,0.31c-1.031,0-1.546-0.516-1.546-1.546c0-0.335,0.338-0.743,0.618-1.16
			c0.407-0.608,1.196-2.312,2.475-3.441c0.24-0.213,0.617-0.31,0.927-0.31c1.004,0,1.507,0.528,1.507,1.585
			C298.554,22.989,298.308,23.373,297.896,23.685z M302.148,14.716c-0.476,0.608-0.939,1.407-1.43,2.126
			c-0.667,0.979-1.25,1.469-1.739,1.469c-1.056,0-1.586-0.489-1.586-1.469c0-0.232,0.05-0.466,0.155-0.696
			c0.527-1.154,1.34-2.327,2.397-3.48c0.307-0.335,0.669-0.503,1.082-0.503c1.031,0,1.546,0.516,1.546,1.547
			C302.573,14.072,302.387,14.411,302.148,14.716z M302.535,34.896c0.858,0.131,1.393,0.58,1.393,1.508
			c0,1.006-0.503,1.507-1.508,1.507c-0.104,0-0.292-0.054-0.503-0.078c-0.137-0.015-0.347,0.014-0.579,0.039
			c-0.232,0.026-0.424,0.039-0.579,0.039c-1.005,0-1.506-0.502-1.506-1.507s0.502-1.508,1.506-1.508
			c0.155,0,0.347-0.013,0.579-0.039c0.232-0.025,0.425-0.039,0.579-0.039C302.096,34.82,302.315,34.863,302.535,34.896z
			 M299.403,67.991c0.098-0.538,0.941-1.585,2.514-3.132c0.051-0.051,0.114-0.104,0.154-0.154c0.296-0.377,0.708-0.696,1.276-0.696
			c1.004,0,1.506,0.439,1.506,1.314c0,0.594-0.342,1.333-1.004,1.895c-0.311,0.263-1.19,0.758-1.469,1.276
			c-0.282,0.526-0.631,1.275-1.43,1.275C299.714,69.77,299.19,69.166,299.403,67.991z M307.018,61.303
			c-0.232-0.181-0.36-0.567-0.386-1.16c-0.025-0.565,0.037-0.965,0.193-1.159c0.696-0.871,1.385-1.788,1.701-1.934
			c0.67-0.309,2.346,0.875,2.28,1.585c-0.082,0.865-1.344,2.033-2.087,2.358C307.828,61.383,307.25,61.483,307.018,61.303z"/>
		<path d="M356.032,60.027c-0.156,0.19-0.387,0.31-0.696,0.31c-0.439,0-0.845-0.188-1.218-0.561
			c-0.375-0.374-0.567-0.938-0.407-1.257c0.349-0.69,1.468-1.735,2.396-2.822c0.177-0.205,0.375-0.309,0.582-0.309
			c0.824,0,1.271,0.572,1.39,1.662c0.021,0.203-0.075,0.729-0.385,1.16C357.515,58.458,356.807,59.08,356.032,60.027z
			 M360.824,62.733c-0.121,0.18-0.317,1.268-0.503,3.209c-0.085,0.894-0.568,1.353-1.469,1.353c-1.108,0-1.573-0.583-1.506-1.662
			c0.048-0.748,0.07-1.547,0.135-2.319c0.063-0.773,0.343-1.512,0.793-2.204c0.312-0.479,0.721-0.734,1.237-0.734
			c1.056,0,1.583,0.503,1.583,1.508C361.094,62.166,361.006,62.463,360.824,62.733z M358.545,53.223
			c0.411-0.63,1.205-1.654,2.085-3.016c0.311-0.481,0.722-0.734,1.237-0.734c1.056,0,1.586,0.488,1.586,1.468
			c0,0.284-0.073,0.581-0.232,0.812c-0.42,0.607-1.229,1.588-2.011,2.86c-0.316,0.515-0.748,0.812-1.314,0.812
			c-1.032,0-1.544-0.489-1.544-1.47C358.352,53.699,358.41,53.43,358.545,53.223z M361.133,37.746c-1.006,0-1.506-0.38-1.506-1.386
			c0-1.005,0.501-1.447,1.506-1.447c2.19,0,3.45,0.099,3.751,0.186c0.903,0.26,1.427,0.608,1.427,1.097
			c0,0.413-0.288,0.826-0.868,1.226c-0.58,0.4-1.087,0.455-1.486,0.443c-0.126-0.004-0.387-0.118-0.774-0.118
			C362.363,37.746,361.953,37.746,361.133,37.746z M362.603,72.012c0.572,0.983,1.265,1.655,2.088,1.933
			c0.691,0.234,1.042,0.696,1.042,1.393c0,1.03-0.49,1.546-1.469,1.546c-0.155,0-0.345-0.02-0.54-0.077
			c-1.505-0.438-2.788-1.664-3.751-3.325c-0.148-0.256-0.231-0.515-0.231-0.773c0-0.979,0.527-1.469,1.585-1.469
			C361.868,71.238,362.305,71.5,362.603,72.012z M368.247,42.745c-0.526,0.905-0.974,2.089-1.471,3.093
			c-0.709,1.431-1.428,2.164-2.047,2.164c-1.031,0-1.546-0.503-1.546-1.507c0-0.232,0.051-0.465,0.154-0.696
			c0.462-1.03,1.252-2.611,2.396-4.639c0.274-0.487,0.683-0.735,1.199-0.735c1.057,0,1.584,0.503,1.584,1.508
			C368.516,42.217,368.391,42.496,368.247,42.745z M372.731,33.273c-0.46,0.737-1.094,2.098-2.011,3.634
			c-0.29,0.486-0.723,0.735-1.238,0.735c-1.057,0-1.585-0.503-1.585-1.508c0-0.283,0.118-0.574,0.271-0.85
			c0.438-0.793,1.104-2.228,2.128-3.789c0.285-0.433,0.696-0.657,1.16-0.657c1.057,0,1.585,0.503,1.585,1.508
			C373.04,32.681,372.903,32.997,372.731,33.273z M371.068,72.631c0.718-0.132,1.667-0.591,2.785-1.199
			c0.243-0.133,0.512-0.193,0.771-0.193c0.979,0,1.469,0.517,1.469,1.547c0,0.567-0.268,0.989-0.773,1.275
			c-1.41,0.799-2.67,1.318-3.711,1.508c-1.175,0.215-1.777-0.271-1.777-1.508C369.831,73.262,370.247,72.78,371.068,72.631z
			 M373.812,34.82c0.205,0,0.463-0.013,0.772-0.039c0.309-0.025,0.579-0.039,0.812-0.039c0.979,0,1.469,0.503,1.469,1.508
			c0,1.004-0.49,1.507-1.469,1.507c-0.232,0-0.503,0.014-0.812,0.039c-0.31,0.026-0.567,0.039-0.772,0.039
			c-1.006,0-1.507-0.502-1.507-1.507S372.806,34.82,373.812,34.82z M377.6,23.685c-0.28,0.215-0.663,0.78-1.139,1.643
			c-0.478,0.864-0.903,1.489-1.258,1.759c-0.279,0.211-0.617,0.31-0.927,0.31c-1.032,0-1.546-0.516-1.546-1.546
			c0-0.335,0.339-0.743,0.617-1.16c0.407-0.608,1.195-2.312,2.473-3.441c0.241-0.213,0.619-0.31,0.929-0.31
			c1.006,0,1.508,0.528,1.508,1.585C378.257,22.989,378.012,23.373,377.6,23.685z M381.851,14.715
			c-0.477,0.608-0.94,1.408-1.43,2.127c-0.668,0.979-1.249,1.468-1.738,1.468c-1.058,0-1.586-0.489-1.586-1.468
			c0-0.232,0.05-0.466,0.154-0.696c0.527-1.154,1.339-2.327,2.396-3.48c0.308-0.335,0.672-0.503,1.084-0.503
			c1.032,0,1.544,0.516,1.544,1.547C382.276,14.072,382.09,14.41,381.851,14.715z M382.239,34.896
			c0.858,0.131,1.391,0.58,1.391,1.508c0,1.006-0.501,1.507-1.507,1.507c-0.104,0-0.291-0.054-0.502-0.078
			c-0.137-0.015-0.348,0.014-0.58,0.039c-0.232,0.026-0.425,0.039-0.58,0.039c-1.005,0-1.506-0.502-1.506-1.507
			s0.502-1.508,1.506-1.508c0.155,0,0.348-0.013,0.58-0.039c0.232-0.025,0.426-0.039,0.58-0.039
			C381.8,34.82,382.02,34.863,382.239,34.896z M379.108,67.991c0.099-0.538,0.939-1.585,2.511-3.132
			c0.051-0.051,0.116-0.104,0.156-0.154c0.296-0.377,0.707-0.696,1.274-0.696c1.005,0,1.507,0.439,1.507,1.314
			c0,0.594-0.342,1.333-1.005,1.895c-0.312,0.263-1.19,0.758-1.469,1.276c-0.282,0.526-0.632,1.275-1.43,1.275
			C379.416,69.77,378.894,69.166,379.108,67.991z M386.723,61.303c-0.232-0.181-0.36-0.567-0.387-1.16
			c-0.025-0.565,0.035-0.965,0.191-1.159c0.696-0.871,1.384-1.788,1.699-1.934c0.672-0.309,2.349,0.875,2.282,1.585
			c-0.082,0.865-1.342,2.033-2.086,2.358C387.533,61.383,386.955,61.483,386.723,61.303z"/>
		<path d="M384.132,74.177c0.604-1.334,0.974-2.239,1.083-2.667c0.188-0.737,0.682-1.122,1.43-1.122c1.03,0,1.547,0.479,1.547,1.432
			c0,0.489-0.429,1.731-1.315,3.634c-0.274,0.59-0.72,0.89-1.312,0.89c-1.057,0-1.586-0.49-1.586-1.469
			C383.977,74.641,384.028,74.406,384.132,74.177z M389.35,60.027c-0.156,0.19-0.385,0.31-0.694,0.31
			c-0.438,0-0.846-0.188-1.219-0.561c-0.375-0.374-0.566-0.936-0.405-1.257c0.335-0.667,1.44-1.708,2.396-2.822
			c0.177-0.205,0.374-0.309,0.58-0.309c0.824,0,1.271,0.572,1.391,1.662c0.021,0.203-0.076,0.729-0.387,1.16
			C390.833,58.458,390.125,59.08,389.35,60.027z M389.814,61.612c0.308-0.438,0.708-0.657,1.198-0.657
			c1.03,0,1.546,0.49,1.546,1.469c0,0.31-0.089,0.614-0.271,0.89c-1.084,1.639-1.792,2.887-1.972,3.711
			c-0.182,0.826-0.67,1.237-1.469,1.237c-1.031,0-1.546-0.489-1.546-1.469C387.301,65.736,388.136,64.001,389.814,61.612z
			 M392.558,55.697c0.499-0.923,1.294-2.719,2.59-4.446c0.267-0.355,0.671-0.541,1.083-0.541c1.056,0,1.586,0.515,1.586,1.546
			c0,0.361-0.17,0.684-0.426,0.967c-0.363,0.4-0.759,1.179-1.199,2.203c-0.508,1.184-0.896,1.972-1.141,2.358
			c-0.245,0.387-0.598,0.58-1.062,0.58c-1.135,0-1.701-0.592-1.701-1.778C392.288,56.276,392.41,55.972,392.558,55.697z
			 M396.925,46.688c0.476-0.984,1.633-2.777,2.243-4.832c0.204-0.688,0.632-1.16,1.432-1.16c1.03,0,1.546,0.477,1.546,1.431
			c0,0.618-0.351,1.577-1.006,2.86c-0.935,1.834-1.415,2.798-1.431,2.822c-0.307,0.463-0.697,0.967-1.314,0.967
			c-1.058,0-1.584-0.49-1.584-1.469C396.811,47.102,396.837,46.868,396.925,46.688z M398.395,52.72
			c0.506-0.516,1.383-1.379,2.243-2.552c0.313-0.43,0.708-0.695,1.198-0.695c1.057,0,1.584,0.488,1.584,1.468
			c0,0.284-0.092,0.57-0.272,0.851c-0.331,0.515-1.169,1.572-2.51,2.978c-0.32,0.334-0.71,0.502-1.122,0.502
			c-1.032,0-1.545-0.502-1.545-1.507C397.971,53.377,398.111,53.009,398.395,52.72z M402.146,35.902
			c0.562-0.875,1.125-2.116,1.738-3.557c0.261-0.61,0.733-0.928,1.353-0.928c1.056,0,1.585,0.49,1.585,1.469
			c0,0.207-0.064,0.417-0.155,0.619c-0.708,1.579-1.338,3.039-2.01,4.06c-0.305,0.463-0.721,0.696-1.236,0.696
			c-1.032,0-1.547-0.503-1.547-1.507C401.874,36.469,401.964,36.184,402.146,35.902z M404.387,40.735
			c0.671-0.656,1.973-2.013,3.635-2.861c0.174-0.089,0.398-0.116,0.579-0.116c0.979,0,1.467,0.516,1.467,1.546
			c0,0.671-0.843,1.128-1.003,1.354c-0.007,0.009-0.905,0.834-2.707,2.359c-0.306,0.258-0.631,0.386-0.966,0.386
			c-1.031,0-1.548-0.515-1.548-1.546C403.844,41.418,404.07,41.045,404.387,40.735z M406.358,45.529
			c1.931-1.457,3.55-2.461,4.562-3.055c0.227-0.133,0.475-0.232,0.734-0.232c0.977,0,1.467,0.529,1.467,1.586
			c0,0.567-0.273,0.991-0.811,1.275c-0.949,0.506-2.346,1.55-4.135,2.822c-0.294,0.21-0.619,0.31-0.929,0.31
			c-1.005,0-1.506-0.516-1.506-1.547C405.741,46.225,405.947,45.838,406.358,45.529z M407.13,25.425
			c0.446-0.908,1.477-2.456,2.475-4.446c0.288-0.576,0.733-0.889,1.35-0.889c1.031,0,1.549,0.49,1.549,1.469
			c0,0.206-0.045,0.453-0.156,0.657c-0.475,0.87-1.523,2.382-2.394,4.292c-0.274,0.602-0.709,0.966-1.353,0.966
			c-1.058,0-1.586-0.489-1.586-1.469C407.015,25.824,407.043,25.604,407.13,25.425z M414.707,30.026
			c0.283-0.567,0.723-0.851,1.314-0.851c1.031,0,1.547,0.503,1.547,1.508c0,0.232-0.049,0.474-0.154,0.696
			c-0.33,0.685-0.938,1.352-1.701,1.972c-0.875,0.71-1.43,1.275-1.664,1.624c-0.293,0.436-0.707,0.657-1.195,0.657
			c-1.059,0-1.586-0.503-1.586-1.508c0-0.541,0.49-1.239,1.469-2.087C413.867,31.056,414.525,30.387,414.707,30.026z
			 M415.672,67.991c-0.156,0.484-0.23,0.761-0.23,0.812c0,0.593,0.246,1.239,0.695,1.933c0.182,0.279,0.273,0.567,0.273,0.851
			c0,1.005-0.531,1.507-1.586,1.507c-0.49,0-0.891-0.231-1.199-0.695c-0.801-1.207-1.199-2.41-1.199-3.596
			c0-1.804,0.684-2.707,2.049-2.707c0.877,0,1.314,0.413,1.314,1.237C415.789,67.54,415.748,67.761,415.672,67.991z M412.658,14.02
			c0.564-1.894,1.609-3.706,3.055-5.296c0.326-0.36,0.707-0.542,1.119-0.542c1.031,0,1.547,0.515,1.547,1.546
			c0,0.361-0.129,0.707-0.387,1.005c-1.137,1.312-1.998,2.74-2.473,4.214c-0.223,0.691-0.697,1.043-1.393,1.043
			c-1.033,0-1.547-0.489-1.547-1.469C412.58,14.368,412.604,14.198,412.658,14.02z M419.656,55.697
			c-0.328,0.386-0.764,1.485-1.199,3.247c-0.189,0.761-0.646,1.16-1.393,1.16c-1.057,0-1.584-0.489-1.584-1.469
			c0-0.128,0.035-0.276,0.078-0.425c0.207-0.728,0.387-1.553,0.619-2.34c0.23-0.785,0.637-1.5,1.195-2.145
			c0.311-0.357,0.686-0.542,1.123-0.542c1.031,0,1.545,0.503,1.545,1.507C420.041,55.052,419.914,55.394,419.656,55.697z
			 M418.531,40.502c2.514,1.137,3.984,2.796,3.984,5.142c0,0.464-0.049,0.962-0.156,1.469c-0.168,0.791-0.656,1.199-1.43,1.199
			c-1.031,0-1.545-0.49-1.545-1.469c0-0.129,0.02-0.322,0.059-0.58c0.039-0.257,0.057-0.45,0.057-0.58
			c0-1.03-0.723-1.823-2.127-2.396c-0.617-0.251-0.928-0.709-0.928-1.353c0-1.057,0.49-1.585,1.469-1.585
			C418.123,40.348,418.33,40.412,418.531,40.502z M418.225,25.58c0.67-0.925,1.471-1.91,2.32-2.938
			c0.311-0.375,0.682-0.579,1.119-0.579c1.031,0,1.547,0.503,1.547,1.508c0,0.36-0.143,0.684-0.387,0.966
			c-0.828,0.959-1.533,1.938-2.127,2.784c-0.307,0.438-0.707,0.657-1.197,0.657c-1.057,0-1.584-0.503-1.584-1.508
			C417.916,26.16,418.018,25.863,418.225,25.58z M420.582,73.018c0.799-0.643,1.275-1.021,1.432-1.122
			c0.51-0.335,1.107-0.531,1.738-0.618c1.143-0.156,1.74,0.322,1.74,1.508c0,0.851-0.457,1.364-1.316,1.469
			c-0.25,0.031-0.828,0.437-1.699,1.121c-0.297,0.234-0.631,0.348-0.967,0.348c-1.006,0-1.508-0.528-1.508-1.585
			C420.002,73.7,420.197,73.326,420.582,73.018z M422.824,2.808c0.588-0.145,1.158-0.232,1.701-0.232c1.545,0,2.82,0.483,3.826,1.45
			c1.006,0.966,1.506,2.197,1.506,3.692c0,0.773-0.145,1.561-0.424,2.358c-0.234,0.667-0.697,1.006-1.393,1.006
			c-1.031,0-1.547-0.49-1.547-1.469c0-0.181,0.061-0.471,0.178-0.871c0.115-0.399,0.172-0.728,0.172-0.986
			c0-1.443-0.76-2.165-2.279-2.165c-0.154,0-0.395,0.033-0.717,0.097c-0.322,0.065-0.561,0.096-0.715,0.096
			c-0.979,0-1.467-0.515-1.467-1.546C421.664,3.465,422.064,2.996,422.824,2.808z M427.926,15.025
			c-0.215,0.797-0.91,2.308-1.275,4.06c-0.166,0.795-0.619,1.275-1.469,1.275c-1.188,0-1.785-0.743-1.508-1.739
			c0.227-0.806,0.918-2.3,1.275-4.021c0.17-0.814,0.619-1.314,1.471-1.314C427.58,13.285,428.189,14.041,427.926,15.025z
			 M427.965,66.947c0.344-0.406,1.051-0.962,1.469-1.585c0.303-0.452,0.734-0.812,1.352-0.812c1.006,0,1.506,0.465,1.506,1.393
			c0,0.644-0.396,1.347-1.195,2.088c-0.973,0.902-1.6,1.354-1.855,1.354c-1.057,0-1.586-0.503-1.586-1.507
			C427.656,67.565,427.752,67.199,427.965,66.947z M434.729,61.303c-0.232-0.181-0.359-0.567-0.387-1.16
			c-0.023-0.565,0.037-0.965,0.193-1.159c0.697-0.871,1.385-1.788,1.701-1.934c0.672-0.309,2.348,0.875,2.281,1.585
			c-0.082,0.865-1.344,2.033-2.088,2.358C435.539,61.383,434.961,61.482,434.729,61.303z"/>
		<path d="M439.254,55.812c-0.465,0.59-0.771,1.194-0.812,1.778c-0.064,0.913-0.543,1.393-1.469,1.393
			c-1.084,0-1.58-0.546-1.508-1.624c0.084-1.206,0.559-2.359,1.43-3.441c0.311-0.385,0.682-0.579,1.121-0.579
			c1.057,0,1.586,0.502,1.586,1.508C439.602,55.182,439.486,55.516,439.254,55.812z M438.865,64.589
			c0.129,0.283,0.465,0.696,0.465,1.083c0,0.954-0.543,1.43-1.625,1.43c-1.186,0-1.855-0.952-1.895-2.744
			c-0.008-0.404,0.004-1.064-0.037-1.896c-0.055-1.035,0.424-1.585,1.506-1.585c0.928,0,1.518,0.561,1.51,1.431
			C438.785,62.779,438.582,63.963,438.865,64.589z M440.564,71.896c0.559,1.055,1.154,1.661,1.74,1.779
			c0.811,0.163,1.236,0.631,1.236,1.43c0,1.237-0.613,1.746-1.816,1.508c-1.514-0.299-2.744-1.566-3.789-3.324
			c-0.135-0.228-0.23-0.478-0.23-0.735c0-0.979,0.525-1.469,1.582-1.469C439.855,71.084,440.279,71.358,440.564,71.896z
			 M439.562,57.243c0.334,0,0.793-0.083,1.371-0.25c0.58-0.169,1.012-0.252,1.295-0.252c0.979,0,1.469,0.516,1.469,1.546
			c0,0.774-0.391,1.248-1.16,1.432c-1.492,0.353-2.488,0.542-2.977,0.542c-1.006,0-1.508-0.504-1.508-1.508
			C438.053,57.747,438.557,57.243,439.562,57.243z M444.508,48.312c-0.049,0.045-0.756,0.655-2.047,1.817
			c-0.309,0.279-0.645,0.425-1.006,0.425c-1.006,0-1.506-0.528-1.506-1.585c0-0.413,0.17-0.773,0.5-1.082
			c0.49-0.457,1.258-1.204,2.281-2.011c0.266-0.209,0.582-0.31,0.891-0.31c1.006,0,1.506,0.528,1.506,1.585
			C445.127,47.616,444.871,47.999,444.508,48.312z M447.371,54.847c0.639-0.407,1.844-0.988,3.131-1.856
			c0.281-0.188,0.582-0.309,0.891-0.309c1.008,0,1.506,0.528,1.506,1.585c0,0.488-0.242,0.93-0.695,1.198
			c-0.639,0.377-1.791,0.938-3.018,1.778c-0.307,0.21-0.619,0.348-0.928,0.348c-1.006,0-1.508-0.528-1.508-1.585
			C446.75,55.542,446.969,55.103,447.371,54.847z M451.682,42.088c-0.785,0.181-1.451,0.515-1.953,1.005
			c-0.311,0.302-0.656,0.465-1.043,0.465c-1.031,0-1.547-0.516-1.547-1.547c0-0.387,0.154-0.737,0.463-1.044
			c1.252-1.236,2.539-1.855,3.828-1.855c0.953,0,1.43,0.516,1.43,1.546C452.859,41.431,452.467,41.908,451.682,42.088z
			 M449.033,73.752c1.801-0.747,2.82-1.237,3.014-1.469c0.285-0.341,0.645-0.542,1.084-0.542c1.055,0,1.584,0.478,1.584,1.432
			c0,0.644-0.43,1.229-1.293,1.757c-0.865,0.528-1.957,1.102-3.229,1.606c-0.201,0.08-0.416,0.115-0.621,0.115
			c-0.979,0-1.469-0.529-1.469-1.585C448.105,74.447,448.414,74.009,449.033,73.752z M454.676,50.207
			c0.543-0.903,1.084-1.671,1.625-2.204c0.314-0.309,0.695-0.464,1.082-0.464c1.031,0,1.549,0.516,1.549,1.547
			c0,0.387-0.182,0.734-0.506,1.044c-0.385,0.371-0.789,0.929-1.195,1.623c-0.285,0.486-0.699,0.735-1.24,0.735
			c-1.031,0-1.545-0.49-1.545-1.47C454.445,50.734,454.521,50.465,454.676,50.207z M457.383,42.745c0-0.8-0.133-1.394-0.385-1.778
			c-0.18-0.279-0.27-0.567-0.27-0.851c0-1.005,0.525-1.508,1.582-1.508c0.49,0,0.891,0.234,1.201,0.696
			c0.588,0.876,0.887,2.025,0.887,3.441c0,1.006-0.502,1.508-1.508,1.508C457.887,44.253,457.383,43.75,457.383,42.745z
			 M459.471,65.787c0.275-0.181,0.568-0.271,0.852-0.271c1.004,0,1.506,0.529,1.506,1.585c0,0.489-0.238,0.895-0.713,1.216
			c-0.479,0.323-1.037,0.912-1.645,1.762c-0.312,0.433-0.709,0.657-1.197,0.657c-1.031,0-1.547-0.503-1.547-1.508
			C456.727,68.172,457.648,66.982,459.471,65.787z M462.293,61.883c0.332-0.207,0.562-0.376,0.656-0.503
			c0.314-0.43,0.711-0.695,1.201-0.695c1.057,0,1.584,0.502,1.584,1.507c0,0.31-0.125,0.596-0.309,0.851
			c-0.344,0.475-0.863,0.996-1.584,1.431c-0.258,0.154-0.52,0.231-0.777,0.231c-1.004,0-1.508-0.528-1.508-1.585
			C461.557,62.604,461.805,62.188,462.293,61.883z M465.193,58.983c0.684-0.872,1.348-1.788,1.664-1.934
			c0.672-0.309,2.344,0.871,2.281,1.585c-0.102,1.139-1.531,2.399-2.088,2.358c-0.455-0.032-0.912-0.379-1.354-1.005
			C465.301,59.425,465.115,59.082,465.193,58.983z"/>
		<path d="M510.047,64.628c0.045-0.407,0.217-1.1,0.502-2.05c0.254-0.849,0.387-1.52,0.387-2.01c0-1.006,0.502-1.508,1.508-1.508
			c1.004,0,1.506,0.502,1.506,1.508c0,0.567-0.119,1.317-0.385,2.203c-0.291,0.971-0.467,1.701-0.504,2.127
			c-0.076,0.878-0.594,1.353-1.469,1.353C510.459,66.251,509.93,65.692,510.047,64.628z M512.906,71.2
			c0.365,0.515,1.049,1.431,1.855,1.855c0.564,0.299,1.121,0.684,1.121,1.354c0,1.031-0.541,1.546-1.623,1.546
			c-0.801,0-1.656-0.451-2.514-1.353c-1.031-1.084-1.547-1.934-1.547-2.475c0-1.03,0.516-1.547,1.547-1.547
			C512.211,70.581,512.617,70.79,512.906,71.2z M516.311,52.913c0.301-0.462,0.824-1.018,1.547-1.662
			c0.721-0.645,1.186-1.121,1.391-1.432c0.311-0.464,0.707-0.695,1.197-0.695c1.057,0,1.588,0.502,1.588,1.507
			c0,0.31-0.102,0.595-0.271,0.851c-0.262,0.396-0.746,0.934-1.467,1.566c-0.723,0.632-1.215,1.14-1.473,1.527
			c-0.309,0.464-0.707,0.695-1.197,0.695c-1.057,0-1.586-0.502-1.586-1.507C516.039,53.48,516.129,53.192,516.311,52.913z
			 M520.678,72.901c0.35-0.108,0.832-0.258,1.412-0.464s1.049-0.395,1.373-0.503c0.172-0.058,0.348-0.078,0.502-0.078
			c0.979,0,1.471,0.529,1.471,1.585c0,0.696-0.365,1.167-1.084,1.392c-0.332,0.104-0.793,0.259-1.373,0.465s-1.061,0.355-1.41,0.464
			c-0.152,0.048-0.322,0.078-0.504,0.078c-0.953,0-1.432-0.517-1.432-1.547C519.633,73.597,519.99,73.113,520.678,72.901z
			 M526.441,44.717c0.598-0.462,1.936-1.152,2.975-2.165c0.312-0.302,0.686-0.541,1.123-0.541c1.031,0,1.547,0.516,1.547,1.547
			c0,0.335-0.129,0.734-0.387,0.966c-0.555,0.505-1.945,1.277-3.211,2.397c-0.307,0.271-0.645,0.464-1.004,0.464
			c-1.033,0-1.547-0.528-1.547-1.585C525.938,45.413,526.113,44.971,526.441,44.717z M528.682,69.77
			c0.465-0.371,0.697-0.557,1.16-0.928c0.205-0.181,0.406-0.317,0.6-0.408c0.193-0.092,0.406-0.134,0.639-0.134
			c0.979,0,1.469,0.528,1.469,1.585c0,0.566-0.699,1.032-0.852,1.275c-0.006,0.012-0.012,0.053-0.039,0.078
			c-0.184,0.14-0.277,0.209-0.463,0.348c-0.246,0.201-0.371,0.302-0.619,0.503c-0.309,0.258-0.631,0.386-0.967,0.386
			c-1.031,0-1.545-0.527-1.545-1.585C528.064,70.453,528.27,70.079,528.682,69.77z M533.902,65.362
			c0.348-0.842,1.172-2.331,1.934-4.253c0.246-0.615,0.67-0.967,1.312-0.967c1.057,0,1.588,0.489,1.588,1.47
			c0,0.205-0.033,0.425-0.115,0.617c-0.355,0.828-1.029,2.324-1.896,4.292c-0.271,0.613-0.736,0.929-1.354,0.929
			c-1.059,0-1.586-0.478-1.586-1.432C533.785,65.813,533.814,65.572,533.902,65.362z M538.35,72.708
			c0.488,0.566,0.961,0.87,1.391,0.928c0.84,0.113,1.277,0.618,1.277,1.469c0,1.185-0.58,1.688-1.74,1.508
			c-1.16-0.183-2.217-0.833-3.172-1.896c-0.279-0.31-0.426-0.644-0.426-1.005c0-1.031,0.518-1.547,1.549-1.547
			C537.666,72.167,538.039,72.349,538.35,72.708z M536.727,40.89c0.719-0.584,2.01-1.007,3.826-1.275
			c1.152-0.171,1.738,0.322,1.738,1.507c0,0.851-0.475,1.389-1.312,1.47c-0.537,0.051-1.523,0.173-2.32,0.618
			c-0.293,0.164-0.631,0.348-0.967,0.348c-1.031,0-1.547-0.516-1.547-1.547C536.145,41.572,536.344,41.199,536.727,40.89z
			 M539.16,53.957c0.496-0.764,1.393-2.081,1.973-3.673c0.244-0.669,0.682-1.121,1.43-1.121c1.031,0,1.547,0.478,1.547,1.431
			c0,0.154-0.006,0.319-0.039,0.464c-0.137,0.617-1.014,2.13-2.318,4.407c-0.289,0.503-0.699,0.773-1.24,0.773
			c-1.057,0-1.582-0.503-1.582-1.507C538.93,54.473,539.004,54.2,539.16,53.957z M545.811,72.205
			c0.459-0.242,1.242-0.662,2.242-1.237c0.256-0.146,0.516-0.231,0.773-0.231c0.979,0,1.471,0.528,1.471,1.585
			c0,0.566-0.314,0.98-0.812,1.275c-0.379,0.225-1.193,0.791-2.32,1.314c-0.238,0.111-0.502,0.154-0.734,0.154
			c-0.98,0-1.469-0.528-1.469-1.585C544.961,72.914,545.262,72.494,545.811,72.205z M545.309,41.701
			c0.42-0.729,1.264-1.991,1.896-3.557c0.256-0.639,0.68-1.043,1.352-1.043c1.055,0,1.586,0.49,1.586,1.469
			c0,0.181-0.051,0.367-0.115,0.542c-0.17,0.458-0.863,1.847-2.09,4.06c-0.283,0.513-0.695,0.773-1.236,0.773
			c-1.057,0-1.586-0.489-1.586-1.468C545.115,42.217,545.172,41.937,545.309,41.701z M550.879,30.451
			c0.314-1.666,1.184-3.235,2.627-4.678c0.311-0.31,0.658-0.464,1.043-0.464c1.031,0,1.547,0.515,1.547,1.546
			c0,0.386-0.154,0.734-0.465,1.043c-1.006,1.005-1.615,2.04-1.816,3.093c-0.156,0.822-0.631,1.237-1.43,1.237
			C551.148,32.229,550.654,31.631,550.879,30.451z M556.174,66.677c-0.295,0.363-0.928,1.217-1.855,1.855
			c-0.197,0.137-0.479,0.193-0.736,0.193c-1.006,0-1.508-0.515-1.508-1.546c0-0.567,0.441-0.968,0.812-1.276
			c0.277-0.231,0.668-0.837,1.158-1.354c0.293-0.309,0.66-0.464,1.045-0.464c1.031,0,1.547,0.517,1.547,1.547
			C556.637,66.02,556.42,66.372,556.174,66.677z M557.564,60.529c0.172-0.31,0.711-0.854,1.277-1.546
			c0.717-0.876,1.346-1.788,1.662-1.934c0.672-0.309,2.404,1.024,2.281,1.585c-0.098,0.449-1.529,1.499-2.088,2.358
			c-0.145,0.223-0.451,0.801-0.889,1.083c-0.652,0.421-1.457,0.542-1.74,0.542c-0.49,0-0.734-0.296-0.734-0.89
			C557.334,61.419,557.367,60.89,557.564,60.529z M557.604,18.079c0.426-0.799,1.311-2.154,2.242-3.943
			c0.287-0.552,0.721-0.851,1.314-0.851c1.057,0,1.586,0.49,1.586,1.469c0,0.232-0.059,0.503-0.193,0.735
			c-0.455,0.778-1.375,2.101-2.166,3.789c-0.271,0.582-0.709,0.928-1.352,0.928c-1.059,0-1.586-0.489-1.586-1.469
			C557.449,18.53,557.492,18.288,557.604,18.079z"/>
		<path d="M562.283,58.364c-0.178,0.26-0.229,1.434-0.504,2.514c-0.188,0.735-0.67,1.121-1.393,1.121
			c-1.057,0-1.584-0.477-1.584-1.431c0-0.155,0.041-0.318,0.076-0.464c0.176-0.701,0.281-1.566,0.447-2.379
			c0.168-0.811,0.652-1.445,1.408-1.913c0.281-0.175,0.555-0.271,0.812-0.271c1.006,0,1.51,0.527,1.51,1.585
			C563.057,57.669,562.463,58.104,562.283,58.364z M563.287,69.306c-0.004,0.017,0.852,0.696,0.852,1.236
			c0,1.03-0.543,1.547-1.625,1.547c-0.723,0-1.33-0.478-1.818-1.432c-0.67-1.312-1.004-2.642-1.004-3.981
			c0-1.984,0.643-2.978,1.932-2.978c1.031,0,1.547,0.451,1.547,1.354c0,0.31-0.104,0.618-0.309,0.929
			c-0.105,0.153-0.156,0.386-0.156,0.695c0,0.85,0.709,2.611,0.697,2.628C563.398,69.312,563.287,69.306,563.287,69.306z
			 M563.018,52.179c0.859-1.402,2.336-2.881,4.367-4.33c0.281-0.202,0.582-0.31,0.893-0.31c1.006,0,1.506,0.528,1.506,1.585
			c0,0.49-0.219,0.892-0.656,1.199c-1.027,0.722-1.703,1.198-1.973,1.43c-0.566,0.489-1.08,1.182-1.547,1.972
			c-0.303,0.515-0.732,0.774-1.271,0.774c-1.059,0-1.588-0.503-1.588-1.508C562.748,52.733,562.844,52.461,563.018,52.179z
			 M567.463,73.559c0.664,0.344,2.516,0.541,2.516,0.541s0.465-0.076,2.164-0.232c1.107-0.102,1.662,0.4,1.662,1.508
			c0,0.902-0.473,1.417-1.391,1.508c-1.756,0.175-2.436,0.232-2.436,0.232s-2.84-0.305-3.945-0.89
			c-0.537-0.284-0.811-0.709-0.811-1.275c0-1.057,0.488-1.585,1.469-1.585C566.947,73.365,567.211,73.427,567.463,73.559z
			 M573.457,42.707c0.844-1.005,2.922-1.706,5.453-2.513c0.121-0.039,0.271-0.078,0.424-0.078c0.955,0,1.434,0.515,1.434,1.547
			c0,0.772-0.377,1.251-1.123,1.43c-1.08,0.26-2.771,0.719-3.906,1.586c-0.326,0.249-0.709,0.541-1.121,0.541
			c-1.031,0-1.547-0.503-1.547-1.507C573.07,43.352,573.199,43.015,573.457,42.707z M578.83,70.543
			c0.354-0.113,0.973-0.477,1.818-1.044c0.721-0.484,1.25-0.734,1.586-0.734c0.979,0,1.469,0.528,1.469,1.585
			c0,0.49-0.236,0.889-0.697,1.198c-1.904,1.279-3.172,1.934-3.789,1.934c-0.98,0-1.469-0.516-1.469-1.547
			C577.748,71.214,578.139,70.765,578.83,70.543z M585.869,46.264c-0.443,0.912-1.119,2.333-1.777,4.098
			c-0.248,0.664-0.699,1.044-1.395,1.044c-1.031,0-1.545-0.489-1.545-1.469c0-0.181,0.014-0.397,0.076-0.579
			c0.299-0.851,1.018-2.356,1.857-4.253c0.27-0.613,0.734-0.928,1.354-0.928c1.057,0,1.586,0.477,1.586,1.431
			C586.023,45.838,585.969,46.06,585.869,46.264z M584.555,55.542c0.275,0.77,0.723,1.333,1.314,1.663
			c0.512,0.285,0.773,0.696,0.773,1.236c0,1.059-0.49,1.586-1.471,1.586c-0.281,0-0.555-0.083-0.811-0.232
			c-1.209-0.704-2.084-1.847-2.629-3.247c-0.068-0.177-0.115-0.36-0.115-0.542c0-0.979,0.527-1.469,1.584-1.469
			C583.869,54.537,584.318,54.88,584.555,55.542z M586.564,39.111c1.158,0.156,2.412,0.579,3.75,1.275
			c1.674,0.872,2.514,1.778,2.514,2.706c0,1.006-0.529,1.508-1.586,1.508c-0.566,0-0.984-0.309-1.275-0.851
			c-0.094-0.178-0.533-0.478-1.273-0.85c-0.887-0.444-1.746-0.717-2.516-0.812c-0.869-0.108-1.312-0.592-1.312-1.468
			C584.863,39.459,585.432,38.959,586.564,39.111z M591.146,61.785c-0.426,0.271-0.883,0.845-1.373,1.722
			c-0.49,0.875-1.033,1.512-1.623,1.894c-0.281,0.183-0.568,0.271-0.85,0.271c-0.98,0-1.469-0.527-1.469-1.586
			c0-0.514,0.236-0.954,0.695-1.236c0.17-0.104,0.527-0.601,1.043-1.489c0.514-0.89,1.148-1.586,1.895-2.067
			c0.281-0.182,0.566-0.271,0.85-0.271c0.98,0,1.471,0.529,1.471,1.585C591.783,61.122,591.57,61.517,591.146,61.785z
			 M594.684,47.771c0.078,1.961-0.186,3.934-0.85,5.838c-0.232,0.668-0.695,1.005-1.393,1.005c-1.031,0-1.547-0.477-1.547-1.431
			c0-0.181,0.021-0.367,0.078-0.541c0.482-1.517,0.799-3.147,0.734-4.755c-0.041-1.049,0.451-1.586,1.508-1.586
			C594.168,46.302,594.645,46.803,594.684,47.771z M593.178,62.153c1,0.099,1.621,0.154,1.854,0.154
			c1.006,0,1.508,0.503,1.508,1.507c0,1.005-0.504,1.508-1.508,1.508c-0.309,0-1.033-0.082-2.127-0.192
			c-0.887-0.09-1.352-0.567-1.352-1.469C591.553,62.553,592.1,62.047,593.178,62.153z M598.551,61.303
			c-0.232-0.181-0.361-0.567-0.387-1.16c-0.025-0.565,0.037-0.965,0.193-1.159c0.695-0.871,1.387-1.788,1.701-1.934
			c0.672-0.309,2.348,0.875,2.281,1.585c-0.082,0.865-1.344,2.033-2.09,2.358C599.359,61.383,598.783,61.483,598.551,61.303z"/>
		<path d="M600.252,60.027c-0.156,0.19-0.387,0.31-0.697,0.31c-0.438,0-0.844-0.188-1.217-0.561
			c-0.375-0.374-0.568-0.938-0.406-1.257c0.348-0.69,1.469-1.735,2.398-2.822c0.176-0.205,0.373-0.309,0.58-0.309
			c0.824,0,1.271,0.572,1.391,1.662c0.021,0.203-0.076,0.729-0.387,1.16C601.734,58.458,601.025,59.08,600.252,60.027z
			 M605.047,62.733c-0.121,0.18-0.318,1.268-0.504,3.209c-0.084,0.894-0.568,1.353-1.469,1.353c-1.109,0-1.576-0.583-1.508-1.662
			c0.047-0.748,0.07-1.547,0.135-2.319c0.064-0.773,0.344-1.512,0.793-2.204c0.312-0.479,0.723-0.734,1.238-0.734
			c1.055,0,1.584,0.503,1.584,1.508C605.316,62.166,605.229,62.463,605.047,62.733z M602.766,53.223
			c0.412-0.63,1.207-1.654,2.088-3.016c0.311-0.481,0.721-0.734,1.236-0.734c1.057,0,1.586,0.488,1.586,1.468
			c0,0.284-0.072,0.581-0.232,0.812c-0.42,0.607-1.229,1.588-2.01,2.86c-0.316,0.515-0.748,0.812-1.314,0.812
			c-1.033,0-1.547-0.489-1.547-1.47C602.572,53.699,602.631,53.43,602.766,53.223z M605.355,37.746c-1.006,0-1.508-0.38-1.508-1.386
			c0-1.005,0.502-1.447,1.508-1.447c2.191,0,3.449,0.099,3.75,0.186c0.904,0.26,1.43,0.608,1.43,1.097
			c0,0.413-0.287,0.826-0.867,1.226c-0.58,0.4-1.09,0.455-1.49,0.443c-0.125-0.004-0.387-0.119-0.773-0.119
			C606.584,37.746,606.176,37.746,605.355,37.746z M606.824,72.012c0.574,0.983,1.266,1.655,2.09,1.933
			c0.691,0.234,1.043,0.696,1.043,1.393c0,1.03-0.49,1.546-1.469,1.546c-0.154,0-0.348-0.02-0.543-0.077
			c-1.504-0.438-2.785-1.665-3.748-3.325c-0.15-0.256-0.232-0.515-0.232-0.773c0-0.979,0.527-1.469,1.584-1.469
			C606.09,71.238,606.527,71.5,606.824,72.012z M612.471,42.745c-0.527,0.905-0.971,2.089-1.469,3.093
			c-0.711,1.431-1.432,2.164-2.051,2.164c-1.031,0-1.547-0.503-1.547-1.507c0-0.232,0.051-0.465,0.154-0.696
			c0.463-1.03,1.254-2.611,2.396-4.639c0.275-0.487,0.686-0.735,1.201-0.735c1.057,0,1.584,0.503,1.584,1.508
			C612.74,42.217,612.615,42.496,612.471,42.745z M616.953,33.273c-0.459,0.737-1.092,2.098-2.01,3.634
			c-0.289,0.486-0.721,0.735-1.236,0.735c-1.057,0-1.584-0.503-1.584-1.508c0-0.283,0.117-0.574,0.27-0.85
			c0.438-0.793,1.104-2.228,2.127-3.789c0.283-0.433,0.697-0.657,1.162-0.657c1.057,0,1.584,0.503,1.584,1.508
			C617.266,32.681,617.127,32.997,616.953,33.273z M615.293,72.631c0.717-0.132,1.668-0.591,2.785-1.199
			c0.244-0.133,0.514-0.193,0.773-0.193c0.979,0,1.467,0.517,1.467,1.547c0,0.567-0.268,0.989-0.773,1.275
			c-1.41,0.799-2.67,1.318-3.711,1.508c-1.174,0.215-1.777-0.271-1.777-1.508C614.055,73.262,614.471,72.78,615.293,72.631z
			 M618.037,34.82c0.207,0,0.465-0.013,0.775-0.039c0.309-0.025,0.578-0.039,0.811-0.039c0.979,0,1.469,0.503,1.469,1.508
			c0,1.004-0.49,1.507-1.469,1.507c-0.232,0-0.502,0.014-0.811,0.039c-0.311,0.026-0.568,0.039-0.775,0.039
			c-1.004,0-1.506-0.502-1.506-1.507S617.033,34.82,618.037,34.82z M621.826,23.685c-0.279,0.215-0.664,0.78-1.139,1.643
			c-0.479,0.864-0.902,1.489-1.258,1.759c-0.277,0.211-0.617,0.31-0.928,0.31c-1.031,0-1.547-0.516-1.547-1.546
			c0-0.335,0.342-0.743,0.619-1.16c0.408-0.608,1.195-2.312,2.475-3.441c0.242-0.213,0.617-0.31,0.928-0.31
			c1.006,0,1.508,0.528,1.508,1.585C622.484,22.989,622.238,23.373,621.826,23.685z M626.08,14.715
			c-0.477,0.608-0.939,1.408-1.432,2.127c-0.668,0.979-1.25,1.469-1.738,1.469c-1.059,0-1.586-0.489-1.586-1.469
			c0-0.232,0.049-0.466,0.154-0.696c0.527-1.154,1.338-2.327,2.396-3.48c0.309-0.335,0.67-0.503,1.082-0.503
			c1.031,0,1.547,0.516,1.547,1.546C626.504,14.072,626.318,14.41,626.08,14.715z M626.467,34.896
			c0.859,0.131,1.393,0.58,1.393,1.508c0,1.006-0.504,1.507-1.508,1.507c-0.104,0-0.293-0.054-0.504-0.078
			c-0.137-0.015-0.348,0.014-0.58,0.039c-0.232,0.026-0.424,0.039-0.578,0.039c-1.008,0-1.508-0.502-1.508-1.507
			s0.502-1.508,1.508-1.508c0.154,0,0.346-0.013,0.578-0.039c0.232-0.025,0.426-0.039,0.58-0.039
			C626.029,34.82,626.248,34.863,626.467,34.896z M623.334,67.991c0.1-0.538,0.941-1.585,2.514-3.132
			c0.051-0.051,0.115-0.104,0.156-0.154c0.295-0.377,0.707-0.696,1.273-0.696c1.006,0,1.508,0.439,1.508,1.314
			c0,0.594-0.342,1.333-1.006,1.895c-0.311,0.263-1.189,0.758-1.469,1.276c-0.281,0.526-0.631,1.275-1.43,1.275
			C623.645,69.77,623.121,69.166,623.334,67.991z M630.951,61.303c-0.232-0.181-0.359-0.567-0.387-1.16
			c-0.025-0.565,0.039-0.965,0.195-1.159c0.697-0.871,1.383-1.788,1.699-1.934c0.672-0.309,2.35,0.875,2.283,1.585
			c-0.082,0.865-1.346,2.033-2.09,2.358C631.762,61.383,631.184,61.483,630.951,61.303z"/>
		<path d="M631.377,67.257c0.188,0.38,0.66,0.851,1.355,1.353c0.428,0.312,0.654,0.709,0.654,1.199c0,1.031-0.502,1.546-1.508,1.546
			c-0.309,0-0.605-0.108-0.887-0.31c-1.09-0.775-1.867-1.593-2.283-2.436c-0.125-0.257-0.193-0.502-0.193-0.735
			c0-0.979,0.529-1.468,1.586-1.468C630.693,66.406,631.109,66.715,631.377,67.257z M633.582,60.027
			c-0.156,0.19-0.387,0.31-0.697,0.31c-0.438,0-0.844-0.188-1.219-0.561c-0.375-0.374-0.568-0.938-0.406-1.257
			c0.348-0.69,1.469-1.735,2.398-2.822c0.176-0.205,0.373-0.309,0.578-0.309c0.824,0,1.273,0.572,1.393,1.662
			c0.021,0.203-0.076,0.729-0.387,1.16C635.064,58.458,634.355,59.08,633.582,60.027z M638.066,72.785
			c0.74,0.132,1.16,0.657,1.16,1.431c0,1.032-0.479,1.546-1.432,1.546c-0.076,0-0.926-0.252-2.512-0.772
			c-0.693-0.228-1.045-0.696-1.045-1.393c0-1.058,0.49-1.585,1.469-1.585c0.258,0,0.662,0.121,1.217,0.366
			S637.871,72.75,638.066,72.785z M637.602,51.985c0.529-0.591,1.533-1.535,2.746-2.822c0.309-0.329,0.67-0.503,1.082-0.503
			c1.031,0,1.545,0.516,1.545,1.547c0,0.36-0.141,0.736-0.424,1.005c-0.518,0.493-1.592,1.318-2.475,2.436
			c-0.316,0.402-0.709,0.696-1.197,0.696c-1.059,0-1.586-0.503-1.586-1.508C637.293,52.526,637.395,52.218,637.602,51.985z
			 M647.152,75.183c-1.285,0.682-2.502,1.043-3.637,1.043c-1.006,0-1.506-0.503-1.506-1.508c0-0.979,0.502-1.469,1.506-1.469
			c0.619,0,1.381-0.225,2.203-0.696c0.256-0.146,0.52-0.231,0.777-0.231c0.979,0,1.467,0.528,1.467,1.585
			C647.965,74.474,647.688,74.897,647.152,75.183z M644.178,45.258c0.439-0.843,1.18-1.565,2.047-2.165
			c0.279-0.194,0.578-0.309,0.889-0.309c0.979,0,1.471,0.527,1.471,1.585c0,0.488-0.225,0.903-0.66,1.198
			c-0.498,0.339-0.885,0.727-1.119,1.16c-0.277,0.514-0.709,0.773-1.275,0.773c-1.033,0-1.549-0.489-1.549-1.469
			C643.98,45.774,644.045,45.511,644.178,45.258z M652.566,69.035c-0.357,0.705-0.951,1.669-1.547,2.822
			c-0.287,0.556-0.709,0.851-1.275,0.851c-1.059,0-1.586-0.503-1.586-1.508c0-0.232,0.064-0.469,0.193-0.696
			c0.324-0.563,0.85-1.49,1.469-2.745c0.287-0.581,0.723-0.889,1.314-0.889c1.057,0,1.586,0.488,1.586,1.469
			C652.721,68.571,652.674,68.82,652.566,69.035z M649.82,39.575c0.775-1.089,1.445-1.915,2.012-2.358
			c0.297-0.233,0.631-0.348,0.965-0.348c1.006,0,1.508,0.515,1.508,1.546c0,0.464-0.186,0.837-0.561,1.121s-0.869,0.887-1.488,1.778
			c-0.305,0.438-0.709,0.657-1.199,0.657c-1.031,0-1.547-0.502-1.547-1.507C649.512,40.155,649.619,39.858,649.82,39.575z
			 M653.34,47.616c-0.066,2.128,0.068,3.62,0.463,4.369c0.121,0.23,0.193,0.464,0.193,0.696c0,0.98-0.529,1.469-1.586,1.469
			c-0.592,0-1.033-0.284-1.314-0.851c-0.594-1.204-0.844-3.135-0.771-5.76c0.025-0.978,0.527-1.469,1.508-1.469
			C652.861,46.07,653.369,46.592,653.34,47.616z M654.77,59.679c-0.098,1.875-0.154,3.106-0.154,3.673
			c0,0.979-0.504,1.47-1.508,1.47c-1.006,0-1.508-0.49-1.508-1.47c0-0.618,0.051-1.895,0.154-3.827
			c0.051-0.953,0.541-1.431,1.469-1.431C654.305,58.094,654.824,58.627,654.77,59.679z M653.514,69.865
			c0.295-0.295,0.801-0.761,1.295-1.371c0.314-0.391,0.695-0.657,1.16-0.657c1.055,0,1.586,0.502,1.586,1.508
			c0,0.309-0.102,0.635-0.311,0.889c-0.295,0.357-0.867,0.904-1.508,1.624c-0.311,0.348-0.684,0.541-1.121,0.541
			c-1.031,0-1.547-0.514-1.547-1.546C653.068,70.492,653.217,70.162,653.514,69.865z M659.119,65.227
			c0.297-0.347,0.791-0.972,1.449-1.488c0.238-0.188,0.568-0.271,0.852-0.271c1.006,0,1.508,0.527,1.508,1.585
			c0,0.49-0.23,0.89-0.695,1.198c-0.078,0.052-0.371,0.376-0.852,0.967c-0.311,0.382-0.682,0.58-1.119,0.58
			c-1.059,0-1.59-0.515-1.59-1.547C658.674,65.917,658.822,65.574,659.119,65.227z M665.055,61.303
			c-0.232-0.205-0.359-0.593-0.385-1.16c-0.027-0.567,0.035-0.965,0.191-1.159c0.695-0.871,1.385-1.788,1.701-1.934
			c0.672-0.309,2.348,0.875,2.281,1.585c-0.082,0.865-1.348,2.038-2.088,2.358C665.846,61.387,665.26,61.483,665.055,61.303z"/>
	</g>
</g>
</svg>
