<?xml version="1.0" encoding="utf-8"?>
<!-- Generator: Adobe Illustrator 16.0.0, SVG Export Plug-In . SVG Version: 6.00 Build 0)  -->
<!DOCTYPE svg PUBLIC "-//W3C//DTD SVG 1.1//EN" "http://www.w3.org/Graphics/SVG/1.1/DTD/svg11.dtd">
<svg version="1.1" id="Layer_1" xmlns="http://www.w3.org/2000/svg" xmlns:xlink="http://www.w3.org/1999/xlink" x="0px" y="0px"
	 width="845px" height="104px" viewBox="0 0 845 104" enable-background="new 0 0 845 104" xml:space="preserve">
<g>
	<g>
		<path d="M5.722,64.543c0.039,1.262-0.106,3.439,0.096,5.957c0.02,0.251,0.131,0.668,0.294,1.221
			c0.163,0.554,0.244,0.977,0.244,1.27c0,1.237-0.652,1.855-1.954,1.855c-0.814,0-1.393-0.393-1.713-1.172
			C2.263,72.639,2,71.054,2,68.938c0-0.508,0-0.762,0-1.27c0-1.074-0.034-2.007-0.094-2.784c-0.105-1.358,0.557-2.05,1.957-2.05
			C5.002,62.834,5.688,63.464,5.722,64.543z M11.287,42.814c-0.489,0.679-1.425,3.574-2.929,8.447
			c-0.279,0.904-0.878,1.367-1.757,1.367c-1.335,0-2.002-0.618-2.002-1.855c0-0.195,0.04-0.395,0.098-0.586
			c0.487-1.601,0.906-3.312,1.367-4.932c0.544-1.916,1.264-3.469,2.1-4.639c0.392-0.548,0.896-0.83,1.514-0.83
			c1.334,0,2.003,0.634,2.003,1.904C11.679,42.082,11.544,42.457,11.287,42.814z M10.555,84.318
			c0.499,0.767,0.971,1.645,1.466,2.393c0.641,0.968,1.389,1.488,2.1,1.514c1.193,0.043,1.807,0.667,1.807,1.904
			c0,1.303-0.683,1.95-2.003,1.904c-2.127-0.074-4.686-1.979-6.982-5.518c-0.199-0.307-0.293-0.667-0.293-1.025
			c0-1.335,0.765-2.002,2.295-2.002C9.627,83.488,10.199,83.771,10.555,84.318z M24.521,22.404
			c-1.375,1.706-4.276,4.552-6.299,8.057c-0.355,0.616-0.863,1.074-1.611,1.074c-1.335,0-2.001-0.618-2.001-1.855
			c0-0.293,0.08-0.605,0.244-0.928c0.544-1.071,1.597-2.474,3.125-4.199c1.726-1.949,2.829-3.352,3.321-4.15
			c0.379-0.615,0.912-0.928,1.563-0.928c1.334,0,2.002,0.635,2.002,1.905C24.864,21.737,24.753,22.116,24.521,22.404z
			 M26.475,94.279c1.423-0.629,2.785-0.977,4.054-0.977c1.79,0,3.838-0.266,6.103-0.732c0.161-0.033,0.325-0.049,0.488-0.049
			c1.204,0,1.807,0.651,1.807,1.953c0,0.977-0.507,1.582-1.514,1.807c-2.5,0.558-4.801,0.83-6.884,0.83
			c-0.163,0-0.556,0.13-1.174,0.391c-0.619,0.26-1.076,0.337-1.367,0.244c-1.889-0.603-2.881-1.285-2.881-2.1
			C25.107,95.126,25.577,94.676,26.475,94.279z M39.562,11.956c-2.276,0.703-5.305,2.256-8.886,4.735
			c-0.325,0.225-0.686,0.342-1.076,0.342c-1.27,0-1.904-0.651-1.904-1.953c0-0.618,0.278-1.131,0.831-1.514
			c2.311-1.601,3.935-2.617,4.736-3.076c1.491-0.855,3.283-1.588,5.225-2.197c0.193-0.061,0.408-0.098,0.636-0.098
			c1.204,0,1.806,0.667,1.806,2.002C40.928,11.076,40.465,11.677,39.562,11.956z M44.738,89.104c2.277-2.184,3.973-3.96,4.736-5.322
			c0.36-0.643,0.895-0.977,1.611-0.977c1.302,0,1.954,0.618,1.954,1.855c0,0.326-0.078,0.664-0.244,0.977
			c-0.908,1.705-2.801,3.838-5.469,6.299c-0.389,0.358-0.815,0.537-1.271,0.537c-1.302,0-1.952-0.667-1.952-2.002
			C44.104,89.982,44.315,89.509,44.738,89.104z M55.823,8.292c-2.632-0.997-4.594-0.922-5.858,0.098
			c-0.406,0.328-0.865,0.488-1.32,0.488c-1.14,0-1.708-0.602-1.708-1.807c0-1.009,0.618-1.8,1.806-2.488
			C49.455,4.171,50.257,4,51.136,4s1.318,0,2.197,0c1.139,0,2.425,0.226,3.857,0.779c0.846,0.326,1.269,0.87,1.269,1.684
			c0,1.335-0.618,1.989-1.855,1.989C56.344,8.452,56.082,8.391,55.823,8.292z M59.192,15.227c-1.566,1.919-2.343,3.581-2.343,4.883
			c0,1.009,0.423,1.859,1.27,2.539c0.486,0.391,0.732,0.863,0.732,1.417c0,1.335-0.635,2.001-1.904,2.001
			c-0.423,0-0.831-0.17-1.221-0.488c-1.758-1.436-2.686-3.255-2.686-5.469c0-2.213,1.095-4.641,3.223-7.275
			c0.391-0.484,0.862-0.732,1.416-0.732c1.334,0,2.001,0.635,2.001,1.904C59.68,14.429,59.51,14.836,59.192,15.227z M55.433,77.775
			c0.664-0.781,0.996-1.172,1.66-1.953c0.911-1.106,1.7-2.258,2.099-2.441c0.848-0.39,3.038,1.293,2.882,2.002
			c-0.124,0.566-1.696,1.845-2.637,2.979c-0.229,0.276-0.62,0.749-1.173,1.367C57.131,78.947,56.565,78.557,55.433,77.775z
			 M69.642,10.001c-0.875,0.065-1.846,0.06-2.783,0.098c-1.358,0.056-2.195,0.32-2.49,0.732c-0.44,0.616-0.96,0.928-1.514,0.928
			c-1.172,0-1.759-0.716-1.759-2.148c0-1.855,1.634-3.083,4.494-3.223c0.773-0.038,2.082,0.004,3.613-0.146
			c1.385-0.137,2.149,0.439,2.149,1.904C71.352,9.253,70.741,9.919,69.642,10.001z M67.006,17.57
			c-0.109,2.429-0.2,4.068-0.341,4.833c-0.35,1.893-1.182,3.329-2.346,4.103c-0.347,0.23-0.73,0.342-1.121,0.342
			c-1.27,0-1.904-0.667-1.904-2.002c0-0.618,0.284-1.123,0.854-1.514c0.569-0.391,0.971-2.393,1.099-5.908
			c0.043-1.192,0.651-1.807,1.855-1.807C66.436,15.617,67.064,16.275,67.006,17.57z"/>
		<path d="M61.243,75.041c-0.226,0.328-0.288,1.81-0.634,3.174c-0.236,0.93-0.847,1.414-1.758,1.414c-1.335,0-2.002-0.6-2.002-1.805
			c0-0.195,0.052-0.402,0.098-0.586c0.22-0.885,0.35-1.978,0.562-3.003c0.211-1.025,0.827-1.826,1.784-2.417
			c0.356-0.22,0.699-0.342,1.024-0.342c1.27,0,1.905,0.668,1.905,2.002C62.221,74.162,61.469,74.711,61.243,75.041z M62.513,88.859
			c-0.005,0.021,1.075,0.879,1.075,1.562c0,1.303-0.685,1.953-2.052,1.953c-0.912,0-1.68-0.603-2.295-1.807
			c-0.848-1.657-1.269-3.336-1.269-5.029c0-2.507,0.814-3.76,2.442-3.76c1.302,0,1.952,0.569,1.952,1.709
			c0,0.391-0.129,0.781-0.39,1.172c-0.13,0.195-0.195,0.488-0.195,0.879c0,1.074,0.893,3.297,0.879,3.32
			C62.655,88.867,62.513,88.859,62.513,88.859z M62.172,67.229c1.086-1.773,2.953-3.639,5.518-5.469
			c0.357-0.255,0.732-0.391,1.123-0.391c1.27,0,1.907,0.668,1.907,2.002c0,0.618-0.279,1.125-0.832,1.514
			c-1.298,0.912-2.149,1.513-2.491,1.807c-0.714,0.616-1.365,1.492-1.954,2.49c-0.383,0.649-0.927,0.977-1.61,0.977
			c-1.335,0-2.002-0.635-2.002-1.904C61.831,67.929,61.954,67.585,62.172,67.229z M67.787,94.23c0.84,0.436,3.174,0.684,3.174,0.684
			s0.589-0.096,2.735-0.293c1.398-0.129,2.1,0.505,2.1,1.904c0,1.14-0.598,1.79-1.757,1.905c-2.217,0.22-3.078,0.292-3.078,0.292
			s-3.583-0.384-4.98-1.123c-0.679-0.359-1.025-0.895-1.025-1.611c0-1.335,0.619-2.002,1.856-2.002
			C67.136,93.986,67.469,94.065,67.787,94.23z M75.356,55.266c1.066-1.269,3.686-2.156,6.885-3.174
			c0.155-0.049,0.343-0.098,0.539-0.098c1.204,0,1.806,0.651,1.806,1.953c0,0.977-0.473,1.581-1.416,1.807
			c-1.365,0.327-3.501,0.907-4.933,2.002c-0.411,0.314-0.895,0.684-1.415,0.684c-1.302,0-1.955-0.635-1.955-1.904
			C74.868,56.08,75.031,55.654,75.356,55.266z M82.145,90.422c0.446-0.143,1.227-0.601,2.294-1.318
			c0.91-0.612,1.579-0.928,2.002-0.928c1.237,0,1.855,0.667,1.855,2.002c0,0.619-0.296,1.122-0.879,1.514
			c-2.407,1.615-4.004,2.441-4.785,2.441c-1.237,0-1.855-0.65-1.855-1.953C80.777,91.269,81.27,90.702,82.145,90.422z
			 M91.032,59.758c-0.56,1.154-1.415,2.947-2.247,5.176c-0.312,0.837-0.879,1.318-1.758,1.318c-1.302,0-1.953-0.618-1.953-1.855
			c0-0.228,0.017-0.504,0.098-0.734c0.376-1.074,1.284-2.974,2.344-5.369c0.343-0.775,0.928-1.172,1.709-1.172
			c1.334,0,2.001,0.603,2.001,1.807C91.226,59.221,91.158,59.498,91.032,59.758z M89.371,71.477c0.346,0.971,0.914,1.683,1.661,2.1
			c0.646,0.36,0.977,0.879,0.977,1.562c0,1.335-0.619,2.002-1.855,2.002c-0.358,0-0.704-0.105-1.027-0.293
			c-1.528-0.889-2.63-2.332-3.319-4.102c-0.087-0.223-0.147-0.455-0.147-0.684c0-1.237,0.667-1.855,2.001-1.855
			C88.508,70.207,89.073,70.641,89.371,71.477z M91.911,50.725c1.462,0.197,3.047,0.73,4.736,1.61
			c2.114,1.102,3.174,2.246,3.174,3.418c0,1.27-0.668,1.905-2.003,1.905c-0.716,0-1.244-0.389-1.611-1.074
			c-0.12-0.225-0.674-0.604-1.612-1.074c-1.118-0.561-2.203-0.904-3.172-1.025c-1.097-0.138-1.661-0.749-1.661-1.855
			C89.762,51.164,90.48,50.532,91.911,50.725z M97.697,79.362c-0.537,0.342-1.114,1.066-1.732,2.173
			c-0.619,1.106-1.305,1.911-2.052,2.393c-0.355,0.229-0.716,0.342-1.074,0.342c-1.237,0-1.856-0.667-1.856-2.002
			c0-0.65,0.3-1.205,0.879-1.562c0.215-0.133,0.667-0.759,1.319-1.882c0.651-1.123,1.45-2.002,2.393-2.61
			c0.354-0.229,0.716-0.342,1.074-0.342c1.237,0,1.855,0.668,1.855,2.002C98.502,78.524,98.234,79.021,97.697,79.362z
			 M102.165,61.662c0.097,2.477-0.235,4.968-1.074,7.373c-0.294,0.844-0.879,1.27-1.758,1.27c-1.302,0-1.953-0.603-1.953-1.807
			c0-0.228,0.028-0.464,0.098-0.684c0.609-1.915,1.009-3.974,0.927-6.006c-0.053-1.323,0.571-2.002,1.906-2.002
			C101.515,59.807,102.117,60.441,102.165,61.662z M100.261,79.826c1.265,0.125,2.051,0.195,2.344,0.195
			c1.27,0,1.905,0.635,1.905,1.904s-0.636,1.904-1.905,1.904c-0.391,0-1.304-0.104-2.685-0.244c-1.121-0.113-1.71-0.716-1.71-1.855
			C98.209,80.331,98.899,79.691,100.261,79.826z M107.049,78.752c-0.293-0.228-0.455-0.719-0.488-1.467
			c-0.032-0.715,0.047-1.219,0.244-1.465c0.88-1.1,1.749-2.256,2.148-2.439c0.848-0.39,2.965,1.106,2.882,2.002
			c-0.102,1.092-1.698,2.567-2.637,2.979C108.071,78.854,107.342,78.98,107.049,78.752z"/>
		<path d="M109.198,77.141c-0.197,0.241-0.488,0.391-0.879,0.391c-0.554,0-1.067-0.235-1.539-0.708
			c-0.472-0.472-0.716-1.184-0.513-1.587c0.439-0.871,1.853-2.192,3.027-3.564c0.222-0.26,0.473-0.391,0.733-0.391
			c1.041,0,1.608,0.723,1.758,2.1c0.028,0.257-0.096,0.921-0.488,1.465C111.072,75.159,110.176,75.945,109.198,77.141z
			 M114.862,66.154c0.193-1.397,1.748-3.23,4.639-5.371c0.353-0.261,0.748-0.391,1.171-0.391c1.27,0,1.905,0.651,1.905,1.953
			c0,0.586-0.265,1.127-0.781,1.514c-0.882,0.661-2.653,1.765-3.175,2.832c-0.334,0.684-0.781,1.611-1.855,1.611
			C115.302,68.303,114.665,67.584,114.862,66.154z M130.44,92.668c-0.225,0.608-0.839,1.718-1.466,3.174
			c-0.331,0.769-0.879,1.172-1.66,1.172c-1.335,0-2.002-0.602-2.002-1.807c0-0.26,0.06-0.552,0.196-0.83
			c0.265-0.544,0.753-1.555,1.318-2.979c0.331-0.834,0.912-1.27,1.759-1.27c1.302,0,1.952,0.603,1.952,1.807
			C130.537,92.164,130.523,92.444,130.44,92.668z M126.093,56.34c1.665-2.318,4.216-3.516,7.668-3.516
			c1.236,0,1.855,0.635,1.855,1.904s-0.619,1.904-1.855,1.904c-2.148,0-3.689,0.637-4.591,1.904c-0.391,0.55-0.878,0.83-1.464,0.83
			c-1.335,0-2.001-0.635-2.001-1.904C125.704,57.072,125.836,56.698,126.093,56.34z M134.933,83
			c-0.522,0.578-0.903,1.351-1.147,2.295s-0.839,1.416-1.782,1.416c-1.303,0-1.953-0.602-1.953-1.807
			c0-0.195,0.011-0.378,0.047-0.537c0.348-1.536,1.12-2.866,2.052-3.906c0.392-0.437,0.846-0.684,1.367-0.684
			c1.302,0,1.953,0.651,1.953,1.953C135.47,82.187,135.285,82.609,134.933,83z M140.158,70.646
			c-0.423,1.284-1.101,4.184-2.686,6.445c-0.287,0.409-0.864,0.635-1.417,0.635c-1.303,0-1.953-0.635-1.953-1.904
			c0-0.455,0.179-0.887,0.537-1.294c0.357-0.407,0.732-1.261,1.123-2.563c0.488-1.628,0.813-2.62,0.977-2.979
			c0.325-0.716,0.879-1.074,1.66-1.074c1.302,0,1.955,0.618,1.955,1.855C140.354,70.061,140.249,70.372,140.158,70.646z
			 M141.135,56.486c0.457,1.331,0.683,3.418,0.683,6.25c0,1.27-0.618,1.904-1.854,1.904c-1.27,0-1.906-0.635-1.906-1.904
			c0-2.376-0.155-4.054-0.488-4.98c-0.093-0.258-0.146-0.504-0.146-0.732c0-1.204,0.667-1.807,2.002-1.807
			C140.271,55.217,140.845,55.642,141.135,56.486z M141.965,68.84c0.684-0.747,1.785-1.921,3.271-3.516
			c0.391-0.42,0.846-0.635,1.367-0.635c1.302,0,1.954,0.651,1.954,1.953c0,0.456-0.18,0.886-0.538,1.27
			c-0.607,0.651-1.707,1.889-3.271,3.516c-0.407,0.423-0.879,0.635-1.367,0.635c-1.303,0-1.954-0.653-1.954-1.955
			C141.427,69.652,141.608,69.23,141.965,68.84z M151.585,59.465c1.133-0.75,2.773-1.854,4.883-3.223
			c0.353-0.229,0.732-0.342,1.123-0.342c1.236,0,1.857,0.651,1.857,1.953c0,0.651-0.285,1.201-0.832,1.562
			c-1.052,0.695-2.742,1.779-4.882,3.174c-0.352,0.229-0.732,0.342-1.123,0.342c-1.27,0-1.905-0.65-1.905-1.953
			C150.705,60.36,151,59.853,151.585,59.465z M163.451,90.129c0.618,1.855,1.538,2.783,2.758,2.783s1.833,0.635,1.833,1.904
			s-0.636,1.904-1.906,1.904c-2.996,0-5.194-1.858-6.299-5.42c-0.069-0.222-0.098-0.439-0.098-0.635
			c0-1.237,0.651-1.855,1.954-1.855C162.572,88.811,163.158,89.25,163.451,90.129z M166.039,79.24
			c-1.107,1.044-1.801,2.22-1.904,3.516c-0.092,1.167-0.717,1.758-1.855,1.758c-1.4,0-2.062-0.698-1.953-2.051
			c0.086-1.064,0.595-2.379,1.464-3.906c1.012-1.778,1.985-2.686,2.93-2.686c1.302,0,1.955,0.651,1.955,1.953
			C166.675,78.346,166.461,78.842,166.039,79.24z M163.354,53.264c0.761-1.168,1.871-1.758,3.271-1.758
			c1.465,0,2.64,0.366,3.516,1.025c0.348,0.262,1.146,1.107,2.345,2.539c0.325,0.389,0.488,0.814,0.488,1.27
			c0,1.27-0.652,1.904-1.954,1.904c-0.554,0-1.035-0.244-1.441-0.732c-0.407-0.488-0.798-1.073-1.195-1.514
			c-0.379-0.42-1.503-0.824-1.857-0.635c-0.328,0.175-0.896,0.879-1.514,0.879c-1.335,0-2.001-0.635-2.001-1.904
			C163.012,53.98,163.124,53.616,163.354,53.264z M170.19,69.719c-0.388,0.554-0.895,0.83-1.513,0.83
			c-1.303,0-1.955-0.635-1.955-1.904c0-0.391,0.111-0.781,0.343-1.123c0.547-0.807,1.14-2.07,1.562-3.711
			c0.239-0.926,0.813-1.416,1.758-1.416c1.302,0,1.953,0.619,1.953,1.855C172.339,65.845,171.624,67.677,170.19,69.719z
			 M171.875,91.008c0.569-0.423,1.485-1.118,2.71-1.904c0.31-0.199,0.65-0.293,0.976-0.293c1.27,0,1.906,0.651,1.906,1.953
			c0,0.684-0.376,1.19-0.928,1.562c-0.574,0.387-1.173,0.921-1.758,1.367c-0.77,0.588-1.4,0.879-1.855,0.879
			c-1.27,0-1.905-0.667-1.905-2.002C171.02,91.952,171.305,91.432,171.875,91.008z M178.883,85.393
			c0.381-0.99,1.224-2.234,2.588-3.418c0.376-0.326,0.813-0.488,1.27-0.488c1.302,0,1.953,0.651,1.953,1.953
			c0,0.521-0.229,0.977-0.684,1.367c-0.456,0.391-1.139,1.054-1.563,1.855c-0.374,0.707-0.911,1.27-1.757,1.27
			c-1.303,0-1.954-0.618-1.954-1.855C178.736,85.849,178.797,85.616,178.883,85.393z M186.549,78.752
			c-0.293-0.26-0.456-0.748-0.488-1.465c-0.033-0.716,0.047-1.219,0.244-1.465c0.879-1.1,1.749-2.258,2.148-2.441
			c0.848-0.39,2.965,1.106,2.882,2.002c-0.102,1.092-1.698,2.554-2.637,2.979C187.561,78.876,186.842,79.013,186.549,78.752z"/>
		<path d="M189.968,77.141c-0.197,0.241-0.488,0.391-0.879,0.391c-0.554,0-1.066-0.235-1.538-0.708
			c-0.473-0.472-0.716-1.183-0.513-1.587c0.439-0.872,1.853-2.192,3.027-3.564c0.222-0.26,0.472-0.391,0.732-0.391
			c1.041,0,1.608,0.723,1.758,2.1c0.028,0.257-0.096,0.921-0.488,1.465C191.841,75.159,190.946,75.945,189.968,77.141z
			 M195.633,66.154c0.193-1.397,1.747-3.23,4.638-5.371c0.353-0.261,0.748-0.391,1.172-0.391c1.27,0,1.904,0.651,1.904,1.953
			c0,0.586-0.266,1.127-0.781,1.514c-0.882,0.661-2.653,1.765-3.175,2.832c-0.334,0.684-0.78,1.611-1.854,1.611
			C196.072,68.303,195.436,67.584,195.633,66.154z M211.21,92.668c-0.225,0.608-0.838,1.718-1.465,3.174
			c-0.331,0.769-0.879,1.172-1.66,1.172c-1.335,0-2.001-0.602-2.001-1.807c0-0.26,0.059-0.552,0.195-0.83
			c0.265-0.544,0.753-1.555,1.317-2.979c0.331-0.834,0.912-1.27,1.759-1.27c1.302,0,1.953,0.603,1.953,1.807
			C211.308,92.164,211.292,92.444,211.21,92.668z M206.864,56.34c1.665-2.318,4.216-3.516,7.667-3.516
			c1.236,0,1.854,0.635,1.854,1.904s-0.62,1.904-1.856,1.904c-2.148,0-3.687,0.637-4.589,1.904c-0.391,0.55-0.879,0.83-1.465,0.83
			c-1.335,0-2.002-0.635-2.002-1.904C206.474,57.072,206.607,56.698,206.864,56.34z M215.703,83
			c-0.522,0.578-0.904,1.351-1.148,2.295s-0.839,1.416-1.782,1.416c-1.303,0-1.952-0.602-1.952-1.807
			c0-0.195,0.012-0.378,0.048-0.537c0.348-1.536,1.119-2.866,2.051-3.906c0.392-0.437,0.846-0.684,1.367-0.684
			c1.302,0,1.954,0.651,1.954,1.953C216.24,82.187,216.055,82.609,215.703,83z M220.928,70.646
			c-0.423,1.284-1.101,4.184-2.686,6.445c-0.287,0.409-0.863,0.635-1.416,0.635c-1.303,0-1.953-0.635-1.953-1.904
			c0-0.455,0.178-0.887,0.536-1.294c0.357-0.407,0.733-1.261,1.124-2.563c0.488-1.628,0.813-2.62,0.977-2.979
			c0.325-0.716,0.878-1.074,1.659-1.074c1.302,0,1.954,0.618,1.954,1.855C221.123,70.061,221.018,70.372,220.928,70.646z
			 M221.904,56.486c0.457,1.331,0.683,3.418,0.683,6.25c0,1.27-0.618,1.904-1.854,1.904c-1.27,0-1.904-0.635-1.904-1.904
			c0-2.376-0.155-4.054-0.488-4.98c-0.093-0.258-0.146-0.504-0.146-0.732c0-1.204,0.667-1.807,2.002-1.807
			C221.041,55.217,221.614,55.642,221.904,56.486z M222.734,68.84c0.684-0.747,1.786-1.921,3.271-3.516
			c0.391-0.42,0.847-0.635,1.369-0.635c1.302,0,1.953,0.651,1.953,1.953c0,0.456-0.179,0.886-0.537,1.27
			c-0.607,0.651-1.708,1.889-3.273,3.516c-0.407,0.423-0.878,0.635-1.367,0.635c-1.303,0-1.953-0.651-1.953-1.953
			C222.197,69.654,222.377,69.23,222.734,68.84z M232.354,59.465c1.133-0.75,2.774-1.854,4.884-3.223
			c0.353-0.229,0.732-0.342,1.123-0.342c1.236,0,1.855,0.651,1.855,1.953c0,0.651-0.283,1.201-0.83,1.562
			c-1.052,0.695-2.744,1.779-4.884,3.174c-0.352,0.229-0.731,0.342-1.122,0.342c-1.27,0-1.905-0.65-1.905-1.953
			C231.476,60.36,231.769,59.853,232.354,59.465z M244.221,90.129c0.618,1.855,1.539,2.783,2.759,2.783s1.831,0.635,1.831,1.904
			s-0.634,1.904-1.904,1.904c-2.996,0-5.195-1.858-6.3-5.42c-0.069-0.222-0.098-0.439-0.098-0.635c0-1.237,0.65-1.855,1.953-1.855
			C243.342,88.811,243.928,89.25,244.221,90.129z M246.809,79.24c-1.107,1.044-1.802,2.22-1.904,3.516
			c-0.092,1.167-0.717,1.758-1.856,1.758c-1.4,0-2.063-0.698-1.953-2.051c0.086-1.064,0.596-2.379,1.465-3.906
			c1.012-1.778,1.986-2.686,2.93-2.686c1.302,0,1.954,0.651,1.954,1.953C247.444,78.346,247.231,78.842,246.809,79.24z
			 M244.124,53.264c0.761-1.168,1.871-1.758,3.271-1.758c1.465,0,2.64,0.366,3.516,1.025c0.348,0.262,1.146,1.107,2.345,2.539
			c0.325,0.389,0.489,0.814,0.489,1.27c0,1.27-0.653,1.904-1.955,1.904c-0.554,0-1.034-0.244-1.44-0.732
			c-0.407-0.488-0.8-1.073-1.196-1.514c-0.379-0.42-1.501-0.824-1.855-0.635c-0.328,0.175-0.895,0.879-1.513,0.879
			c-1.335,0-2.003-0.635-2.003-1.904C243.781,53.98,243.894,53.616,244.124,53.264z M250.959,69.719
			c-0.388,0.554-0.895,0.83-1.513,0.83c-1.303,0-1.954-0.635-1.954-1.904c0-0.391,0.11-0.781,0.342-1.123
			c0.547-0.807,1.14-2.07,1.562-3.711c0.239-0.926,0.813-1.416,1.757-1.416c1.302,0,1.954,0.619,1.954,1.855
			C253.108,65.845,252.393,67.677,250.959,69.719z M252.645,91.008c0.569-0.423,1.487-1.118,2.711-1.904
			c0.31-0.199,0.65-0.293,0.977-0.293c1.27,0,1.904,0.651,1.904,1.953c0,0.684-0.376,1.19-0.928,1.562
			c-0.574,0.387-1.174,0.921-1.759,1.367c-0.77,0.588-1.4,0.879-1.855,0.879c-1.27,0-1.905-0.667-1.905-2.002
			C251.79,91.952,252.074,91.432,252.645,91.008z M259.652,85.393c0.381-0.99,1.225-2.234,2.588-3.418
			c0.376-0.326,0.813-0.488,1.269-0.488c1.302,0,1.955,0.651,1.955,1.953c0,0.521-0.23,0.977-0.685,1.367
			c-0.456,0.391-1.139,1.054-1.563,1.855c-0.374,0.707-0.912,1.27-1.758,1.27c-1.303,0-1.953-0.618-1.953-1.855
			C259.506,85.849,259.566,85.616,259.652,85.393z M267.319,78.752c-0.293-0.26-0.457-0.749-0.489-1.465s0.047-1.219,0.245-1.465
			c0.879-1.1,1.75-2.258,2.149-2.441c0.848-0.39,2.965,1.106,2.882,2.002c-0.102,1.092-1.699,2.554-2.638,2.979
			C268.33,78.876,267.612,79.013,267.319,78.752z"/>
		<path d="M273.179,71.818c-0.587,0.745-0.974,1.508-1.026,2.246c-0.082,1.153-0.684,1.758-1.856,1.758
			c-1.367,0-1.996-0.688-1.903-2.051c0.103-1.523,0.706-2.979,1.806-4.346c0.391-0.485,0.863-0.732,1.417-0.732
			c1.334,0,2.004,0.635,2.004,1.904C273.62,71.021,273.474,71.443,273.179,71.818z M272.691,82.902
			c0.162,0.359,0.586,0.879,0.586,1.367c0,1.205-0.685,1.807-2.052,1.807c-1.498,0-2.344-1.202-2.392-3.467
			c-0.011-0.51,0.006-1.343-0.048-2.393c-0.067-1.308,0.537-2.002,1.904-2.002c1.172,0,1.915,0.708,1.904,1.807
			C272.587,80.617,272.334,82.11,272.691,82.902z M274.839,92.131c0.706,1.332,1.458,2.097,2.199,2.246
			c1.023,0.207,1.562,0.798,1.562,1.807c0,1.562-0.776,2.204-2.295,1.904c-1.913-0.378-3.466-1.979-4.787-4.199
			c-0.171-0.287-0.292-0.602-0.292-0.928c0-1.237,0.667-1.855,2.002-1.855C273.943,91.105,274.479,91.452,274.839,92.131z
			 M273.57,73.625c0.423,0,1-0.105,1.732-0.317s1.279-0.317,1.637-0.317c1.236,0,1.856,0.651,1.856,1.953
			c0,0.977-0.494,1.576-1.466,1.807c-1.883,0.446-3.143,0.684-3.761,0.684c-1.27,0-1.905-0.635-1.905-1.904
			S272.301,73.625,273.57,73.625z M279.82,62.346c-0.065,0.057-0.958,0.828-2.588,2.295c-0.39,0.352-0.814,0.537-1.27,0.537
			c-1.27,0-1.905-0.667-1.905-2.002c0-0.521,0.216-0.977,0.634-1.367c0.618-0.577,1.588-1.521,2.881-2.539
			c0.334-0.264,0.733-0.391,1.124-0.391c1.27,0,1.904,0.668,1.904,2.002C280.601,61.467,280.277,61.949,279.82,62.346z
			 M283.434,70.598c0.806-0.514,2.33-1.249,3.954-2.344c0.354-0.238,0.732-0.391,1.123-0.391c1.27,0,1.903,0.667,1.903,2.002
			c0,0.619-0.305,1.175-0.878,1.514c-0.806,0.476-2.26,1.183-3.808,2.246c-0.386,0.265-0.781,0.439-1.172,0.439
			c-1.27,0-1.904-0.667-1.904-2.002C282.652,71.477,282.926,70.922,283.434,70.598z M288.877,54.484
			c-0.993,0.228-1.832,0.651-2.466,1.27c-0.391,0.381-0.828,0.586-1.316,0.586c-1.303,0-1.953-0.651-1.953-1.953
			c0-0.488,0.194-0.932,0.585-1.318c1.578-1.562,3.206-2.344,4.833-2.344c1.204,0,1.807,0.651,1.807,1.953
			C290.366,53.654,289.87,54.257,288.877,54.484z M285.533,94.475c2.274-0.946,3.564-1.563,3.808-1.855
			c0.36-0.431,0.812-0.684,1.366-0.684c1.334,0,2.003,0.603,2.003,1.807c0,0.814-0.546,1.553-1.636,2.22
			c-1.091,0.668-2.47,1.39-4.077,2.028c-0.253,0.101-0.52,0.146-0.78,0.146c-1.237,0-1.855-0.667-1.855-2.002
			C284.362,95.354,284.752,94.8,285.533,94.475z M292.66,64.738c0.684-1.14,1.367-2.11,2.051-2.783
			c0.397-0.391,0.879-0.586,1.367-0.586c1.302,0,1.952,0.651,1.952,1.953c0,0.488-0.228,0.928-0.635,1.318
			c-0.488,0.469-0.999,1.174-1.513,2.051c-0.359,0.614-0.88,0.928-1.563,0.928c-1.303,0-1.952-0.618-1.952-1.855
			C292.367,65.405,292.465,65.064,292.66,64.738z M296.078,55.314c0-1.009-0.171-1.759-0.488-2.246
			c-0.229-0.352-0.342-0.716-0.342-1.074c0-1.27,0.666-1.904,2.001-1.904c0.618,0,1.123,0.296,1.514,0.879
			c0.742,1.106,1.124,2.556,1.124,4.346c0,1.27-0.636,1.904-1.905,1.904S296.078,56.584,296.078,55.314z M298.714,84.416
			c0.35-0.229,0.716-0.342,1.074-0.342c1.27,0,1.904,0.667,1.904,2.002c0,0.619-0.302,1.129-0.903,1.536
			c-0.603,0.407-1.308,1.151-2.075,2.224c-0.392,0.547-0.894,0.83-1.512,0.83c-1.302,0-1.953-0.635-1.953-1.904
			C295.249,87.427,296.414,85.926,298.714,84.416z M302.279,79.484c0.419-0.261,0.71-0.474,0.829-0.635
			c0.397-0.543,0.894-0.879,1.513-0.879c1.333,0,2.002,0.635,2.002,1.904c0,0.391-0.159,0.753-0.391,1.074
			c-0.433,0.6-1.092,1.258-2.002,1.807c-0.325,0.195-0.651,0.293-0.977,0.293c-1.27,0-1.904-0.667-1.904-2.002
			C301.35,80.396,301.661,79.869,302.279,79.484z M305.938,75.822c0.863-1.101,1.702-2.258,2.101-2.441
			c0.847-0.39,2.958,1.099,2.879,2.002c-0.127,1.438-1.931,3.03-2.635,2.979c-0.575-0.042-1.153-0.479-1.709-1.27
			C306.072,76.38,305.839,75.947,305.938,75.822z"/>
		<path d="M311.504,83.537c0,1.562,0.256,2.843,0.781,3.809c0.159,0.292,0.244,0.603,0.244,0.928c0,1.237-0.667,1.855-2.001,1.855
			c-0.717,0-1.253-0.346-1.611-1.025c-0.806-1.527-1.22-3.385-1.22-5.566c0-1.27,0.634-1.904,1.904-1.904
			S311.504,82.268,311.504,83.537z M312.822,70.744c-0.356,0.488-0.536,1.392-0.536,2.71s-0.635,1.978-1.904,1.978
			s-1.904-0.635-1.904-1.904c0-2.181,0.434-3.859,1.27-5.029c0.392-0.548,0.895-0.83,1.514-0.83c1.302,0,1.952,0.651,1.952,1.953
			C313.213,70.012,313.083,70.388,312.822,70.744z M315.947,93.449c0.195,0.189,0.361,0.338,0.487,0.391
			c0.773,0.324,1.27,0.879,1.27,1.758c0,1.27-0.619,1.904-1.855,1.904c-0.781,0-1.628-0.467-2.538-1.318
			c-0.348-0.325-0.672-0.552-0.928-0.684c-0.681-0.349-1.025-0.895-1.025-1.611c0-1.335,0.635-2.002,1.905-2.002
			C313.945,91.887,314.872,92.406,315.947,93.449z M319.608,60.49c-0.062,0.026-0.845,0.975-2.344,2.734
			c-0.416,0.487-0.894,0.732-1.414,0.732c-1.335,0-2.003-0.65-2.003-1.953c0-0.423,0.184-0.832,0.488-1.221
			c0.558-0.71,1.124-1.497,1.71-2.246c0.586-0.748,1.366-1.277,2.293-1.611c0.257-0.093,0.504-0.146,0.732-0.146
			c1.236,0,1.854,0.667,1.854,2.002C320.926,59.628,320.4,60.159,319.608,60.49z M322.537,54.094
			c1.204-1.036,2.359-1.562,3.466-1.562c1.269,0,1.904,0.635,1.904,1.904s-0.634,1.904-1.903,1.904
			c-0.163,0-0.463,0.188-0.902,0.562c-0.439,0.375-0.872,0.562-1.295,0.562c-1.302,0-1.952-0.651-1.952-1.953
			C321.854,54.957,322.083,54.484,322.537,54.094z M325.856,92.961c0.416-0.087,1.041-0.466,1.855-1.101
			c0.813-0.635,1.497-0.95,2.051-0.95c1.236,0,1.854,0.651,1.854,1.953c0,0.781-0.511,1.316-1.171,1.709
			c-0.25,0.148-0.635,0.474-1.123,0.83c-1.202,0.879-2.246,1.318-3.125,1.318c-1.27,0-1.903-0.635-1.903-1.904
			C324.295,93.774,324.84,93.174,325.856,92.961z M335,57.121v0.098c0,0.023-0.862-0.431-1.399-0.806
			c-0.537-0.374-0.881-0.854-0.881-1.44c0-1.334,0.597-2.002,1.866-2.002c0.391,0,0.747,0.146,1.102,0.391
			c0.529,0.363,1.133,0.69,1.602,1.025c0.512,0.366,0.922,1.006,1.069,1.66c0.041,0.182,0.046,0.375,0.046,0.537
			c0,1.237-0.499,1.855-1.801,1.855C335.693,58.439,335,57.121,335,57.121z M334.79,86.418c0.852-1.103,2.147-2.155,3.662-3.174
			c0.323-0.218,0.684-0.342,1.075-0.342c1.269,0,1.903,0.651,1.903,1.953c0,0.651-0.293,1.178-0.878,1.562
			c-1.192,0.784-2.133,1.579-2.783,2.393c-0.391,0.488-0.879,0.732-1.465,0.732c-1.303,0-1.953-0.635-1.953-1.904
			C334.351,87.216,334.496,86.799,334.79,86.418z M341.381,64.738c0,1.27-0.633,1.904-1.902,1.904s-1.905-0.635-1.905-1.904
			c0-0.618,0.298-1.687,0.83-3.174c0.298-0.834,0.863-1.27,1.71-1.27c1.333,0,2,0.618,2,1.855c0,0.293-0.121,0.716-0.365,1.27
			S341.381,64.413,341.381,64.738z M346.068,55.705c-0.29,0.229-0.579,0.527-0.782,0.879c-0.371,0.641-0.911,1.025-1.659,1.025
			c-1.27,0-1.904-0.602-1.904-1.807c0-0.977,0.678-2.001,2.002-3.076c0.357-0.29,0.749-0.439,1.173-0.439
			c1.27,0,1.903,0.651,1.903,1.953C346.8,54.826,346.556,55.32,346.068,55.705z M344.896,75.822c0.035-0.42,0.321-0.861,0.83-1.318
			c0.422-0.38,0.922-0.987,1.27-1.123c0.944-0.369,2.959,1.099,2.879,2.002c-0.127,1.438-1.95,3.01-2.635,2.979
			c-0.559-0.025-1.27,0.054-1.757-0.049C345.02,78.215,344.775,77.278,344.896,75.822z"/>
		<path d="M348.362,77.141c-0.197,0.241-0.488,0.391-0.879,0.391c-0.554,0-1.066-0.236-1.538-0.708
			c-0.473-0.472-0.716-1.183-0.513-1.587c0.439-0.872,1.854-2.192,3.027-3.564c0.222-0.26,0.473-0.391,0.733-0.391
			c1.041,0,1.606,0.723,1.756,2.1c0.028,0.257-0.096,0.921-0.488,1.465C350.235,75.159,349.34,75.945,348.362,77.141z
			 M354.416,80.559c-0.153,0.227-0.401,1.601-0.635,4.053c-0.107,1.128-0.717,1.709-1.855,1.709c-1.4,0-1.99-0.738-1.904-2.1
			c0.06-0.945,0.09-1.953,0.172-2.93c0.081-0.977,0.432-1.908,1-2.783c0.393-0.605,0.911-0.928,1.562-0.928
			c1.333,0,2.001,0.635,2.001,1.904C354.757,79.843,354.646,80.217,354.416,80.559z M351.536,68.547
			c0.52-0.795,1.526-2.089,2.637-3.809c0.393-0.608,0.909-0.928,1.561-0.928c1.334,0,2.003,0.618,2.003,1.855
			c0,0.358-0.092,0.733-0.294,1.025c-0.531,0.767-1.55,2.006-2.538,3.613c-0.399,0.649-0.944,1.025-1.66,1.025
			c-1.302,0-1.952-0.618-1.952-1.855C351.292,69.149,351.365,68.808,351.536,68.547z M354.806,49c-1.27,0-1.903-0.48-1.903-1.75
			s0.634-1.827,1.903-1.827c2.766,0,4.357,0.125,4.736,0.234c1.142,0.328,1.806,0.768,1.806,1.386c0,0.521-0.366,1.043-1.099,1.548
			c-0.732,0.505-1.373,0.574-1.878,0.559c-0.158-0.005-0.489-0.149-0.978-0.149C356.358,49,355.841,49,354.806,49z M356.661,92.277
			c0.723,1.242,1.598,2.09,2.637,2.441c0.874,0.296,1.318,0.879,1.318,1.758c0,1.302-0.62,1.954-1.856,1.954
			c-0.195,0-0.436-0.025-0.683-0.098c-1.9-0.554-3.519-2.103-4.736-4.2c-0.188-0.323-0.292-0.65-0.292-0.977
			c0-1.236,0.667-1.855,2.002-1.855C355.734,91.301,356.285,91.631,356.661,92.277z M363.79,55.314
			c-0.665,1.143-1.227,2.638-1.856,3.906c-0.896,1.808-1.806,2.734-2.587,2.734c-1.302,0-1.953-0.635-1.953-1.904
			c0-0.293,0.065-0.587,0.196-0.879c0.583-1.301,1.581-3.298,3.025-5.859c0.347-0.615,0.862-0.928,1.514-0.928
			c1.333,0,2.003,0.635,2.003,1.904C364.132,54.647,363.973,55,363.79,55.314z M369.452,43.352c-0.582,0.931-1.38,2.65-2.539,4.59
			c-0.366,0.613-0.911,0.928-1.562,0.928c-1.334,0-2.001-0.635-2.001-1.904c0-0.358,0.15-0.726,0.342-1.074
			c0.552-1.002,1.39-2.814,2.684-4.785c0.359-0.547,0.88-0.83,1.466-0.83c1.334,0,2.001,0.635,2.001,1.904
			C369.843,42.603,369.67,43.002,369.452,43.352z M367.353,93.059c0.906-0.166,2.104-0.746,3.515-1.514
			c0.308-0.168,0.65-0.244,0.977-0.244c1.236,0,1.855,0.651,1.855,1.953c0,0.717-0.337,1.25-0.976,1.611
			c-1.781,1.009-3.373,1.664-4.688,1.904c-1.483,0.271-2.246-0.342-2.246-1.904C365.79,93.856,366.314,93.248,367.353,93.059z
			 M370.818,45.305c0.26,0,0.587-0.016,0.978-0.049c0.391-0.032,0.732-0.049,1.025-0.049c1.236,0,1.854,0.635,1.854,1.904
			s-0.618,1.904-1.854,1.904c-0.293,0-0.635,0.017-1.025,0.049c-0.391,0.033-0.718,0.049-0.978,0.049
			c-1.269,0-1.902-0.635-1.902-1.904S369.549,45.305,370.818,45.305z M375.603,31.242c-0.355,0.271-0.838,0.985-1.439,2.075
			c-0.603,1.091-1.137,1.881-1.586,2.222c-0.352,0.267-0.782,0.391-1.173,0.391c-1.302,0-1.952-0.651-1.952-1.953
			c0-0.423,0.427-0.938,0.78-1.465c0.514-0.768,1.511-2.919,3.126-4.346c0.304-0.269,0.78-0.391,1.171-0.391
			c1.269,0,1.904,0.667,1.904,2.002C376.434,30.363,376.123,30.847,375.603,31.242z M380.973,19.914
			c-0.602,0.768-1.187,1.777-1.806,2.686c-0.842,1.236-1.578,1.855-2.196,1.855c-1.334,0-2.003-0.618-2.003-1.855
			c0-0.293,0.063-0.589,0.195-0.879c0.666-1.458,1.692-2.939,3.027-4.395c0.388-0.423,0.846-0.636,1.367-0.636
			c1.301,0,1.952,0.652,1.952,1.954C381.51,19.101,381.274,19.529,380.973,19.914z M381.461,45.402
			c1.084,0.165,1.759,0.732,1.759,1.904c0,1.27-0.636,1.904-1.905,1.904c-0.131,0-0.369-0.068-0.635-0.098
			c-0.173-0.019-0.439,0.017-0.732,0.049c-0.293,0.033-0.536,0.049-0.731,0.049c-1.27,0-1.903-0.635-1.903-1.904
			s0.634-1.904,1.903-1.904c0.195,0,0.438-0.016,0.731-0.049c0.293-0.032,0.537-0.049,0.732-0.049
			C380.907,45.305,381.184,45.36,381.461,45.402z M377.506,87.199c0.124-0.68,1.189-2.002,3.175-3.955
			c0.064-0.064,0.144-0.131,0.194-0.195c0.374-0.476,0.895-0.879,1.611-0.879c1.269,0,1.903,0.554,1.903,1.66
			c0,0.749-0.432,1.684-1.269,2.393c-0.392,0.332-1.503,0.956-1.855,1.611c-0.357,0.665-0.797,1.611-1.806,1.611
			C377.898,89.445,377.236,88.684,377.506,87.199z M387.123,78.752c-0.293-0.228-0.454-0.717-0.487-1.465
			c-0.032-0.715,0.047-1.219,0.244-1.465c0.879-1.1,1.749-2.258,2.147-2.441c0.847-0.39,2.963,1.106,2.88,2.002
			c-0.102,1.092-1.697,2.567-2.636,2.979C388.146,78.854,387.416,78.98,387.123,78.752z"/>
		<path d="M449.026,77.141c-0.197,0.241-0.489,0.391-0.88,0.391c-0.554,0-1.066-0.236-1.538-0.708
			c-0.473-0.472-0.716-1.183-0.513-1.587c0.439-0.872,1.853-2.192,3.026-3.564c0.223-0.26,0.474-0.391,0.734-0.391
			c1.041,0,1.606,0.723,1.756,2.1c0.028,0.257-0.094,0.921-0.486,1.465C450.899,75.159,450.005,75.945,449.026,77.141z
			 M455.078,80.559c-0.152,0.227-0.401,1.601-0.635,4.053c-0.107,1.128-0.717,1.709-1.855,1.709c-1.4,0-1.987-0.738-1.901-2.1
			c0.06-0.945,0.087-1.953,0.169-2.93c0.081-0.977,0.433-1.908,1.001-2.783c0.394-0.605,0.912-0.928,1.563-0.928
			c1.334,0,2,0.635,2,1.904C455.42,79.843,455.309,80.217,455.078,80.559z M452.2,68.547c0.52-0.795,1.523-2.089,2.634-3.809
			c0.393-0.608,0.911-0.928,1.562-0.928c1.334,0,2.003,0.618,2.003,1.855c0,0.358-0.091,0.733-0.293,1.025
			c-0.53,0.767-1.552,2.006-2.54,3.613c-0.399,0.649-0.944,1.025-1.66,1.025c-1.303,0-1.95-0.618-1.95-1.855
			C451.956,69.149,452.029,68.808,452.2,68.547z M455.469,49c-1.27,0-1.902-0.48-1.902-1.75s0.633-1.827,1.902-1.827
			c2.766,0,4.358,0.125,4.737,0.234c1.142,0.328,1.803,0.768,1.803,1.386c0,0.521-0.364,1.043-1.097,1.548
			c-0.732,0.505-1.373,0.574-1.878,0.559c-0.158-0.005-0.488-0.149-0.977-0.149C457.022,49,456.504,49,455.469,49z M457.325,92.277
			c0.723,1.242,1.598,2.09,2.637,2.441c0.873,0.296,1.316,0.879,1.316,1.758c0,1.302-0.619,1.954-1.855,1.954
			c-0.195,0-0.435-0.025-0.682-0.098c-1.9-0.554-3.521-2.102-4.737-4.2c-0.188-0.323-0.293-0.65-0.293-0.977
			c0-1.236,0.667-1.855,2.002-1.855C456.396,91.301,456.949,91.631,457.325,92.277z M464.453,55.314
			c-0.665,1.143-1.229,2.638-1.857,3.906c-0.896,1.808-1.804,2.734-2.585,2.734c-1.303,0-1.953-0.635-1.953-1.904
			c0-0.293,0.064-0.587,0.195-0.879c0.583-1.301,1.581-3.298,3.025-5.859c0.347-0.615,0.863-0.928,1.515-0.928
			c1.334,0,2,0.635,2,1.904C464.793,54.647,464.636,55,464.453,55.314z M470.116,43.352c-0.581,0.931-1.381,2.65-2.539,4.59
			c-0.366,0.613-0.913,0.928-1.563,0.928c-1.335,0-2.002-0.635-2.002-1.904c0-0.358,0.149-0.726,0.342-1.074
			c0.553-1.002,1.393-2.814,2.687-4.785c0.359-0.547,0.879-0.83,1.465-0.83c1.334,0,2.002,0.635,2.002,1.904
			C470.507,42.603,470.334,43.002,470.116,43.352z M468.017,93.059c0.906-0.166,2.105-0.746,3.516-1.514
			c0.308-0.168,0.647-0.244,0.974-0.244c1.236,0,1.855,0.651,1.855,1.953c0,0.716-0.338,1.25-0.977,1.611
			c-1.781,1.009-3.372,1.664-4.687,1.904c-1.483,0.271-2.245-0.342-2.245-1.904C466.453,93.856,466.979,93.248,468.017,93.059z
			 M471.481,45.305c0.26,0,0.585-0.016,0.976-0.049c0.391-0.032,0.732-0.049,1.025-0.049c1.236,0,1.855,0.635,1.855,1.904
			s-0.619,1.904-1.855,1.904c-0.293,0-0.635,0.017-1.025,0.049c-0.391,0.033-0.716,0.049-0.976,0.049
			c-1.27,0-1.902-0.635-1.902-1.904S470.212,45.305,471.481,45.305z M476.267,31.242c-0.355,0.271-0.838,0.985-1.439,2.075
			c-0.603,1.091-1.14,1.881-1.589,2.222c-0.352,0.267-0.779,0.391-1.17,0.391c-1.303,0-1.952-0.651-1.952-1.953
			c0-0.423,0.427-0.938,0.779-1.465c0.514-0.768,1.51-2.919,3.124-4.346c0.304-0.269,0.781-0.391,1.172-0.391
			c1.27,0,1.905,0.667,1.905,2.002C477.097,30.363,476.786,30.847,476.267,31.242z M481.635,19.913
			c-0.602,0.768-1.188,1.778-1.806,2.687c-0.843,1.236-1.577,1.854-2.195,1.854c-1.335,0-2.003-0.617-2.003-1.854
			c0-0.293,0.063-0.589,0.195-0.879c0.666-1.458,1.691-2.939,3.026-4.395c0.388-0.423,0.848-0.636,1.369-0.636
			c1.302,0,1.95,0.652,1.95,1.954C482.172,19.101,481.937,19.528,481.635,19.913z M482.125,45.402
			c1.084,0.165,1.756,0.732,1.756,1.904c0,1.27-0.633,1.904-1.902,1.904c-0.131,0-0.369-0.068-0.635-0.098
			c-0.173-0.019-0.44,0.017-0.733,0.049c-0.293,0.033-0.537,0.049-0.732,0.049c-1.27,0-1.902-0.635-1.902-1.904
			s0.633-1.904,1.902-1.904c0.195,0,0.439-0.016,0.732-0.049c0.293-0.032,0.538-0.049,0.733-0.049
			C481.571,45.305,481.849,45.36,482.125,45.402z M478.171,87.199c0.124-0.68,1.185-2.002,3.171-3.955
			c0.064-0.064,0.146-0.131,0.197-0.195c0.374-0.476,0.893-0.879,1.609-0.879c1.27,0,1.904,0.554,1.904,1.66
			c0,0.749-0.433,1.684-1.27,2.393c-0.393,0.332-1.503,0.956-1.855,1.611c-0.357,0.665-0.797,1.611-1.806,1.611
			C478.56,89.445,477.9,88.684,478.171,87.199z M487.788,78.752c-0.293-0.228-0.455-0.717-0.488-1.465
			c-0.032-0.715,0.045-1.219,0.242-1.465c0.879-1.1,1.747-2.258,2.146-2.441c0.848-0.39,2.966,1.106,2.882,2.002
			c-0.103,1.092-1.695,2.567-2.634,2.979C488.811,78.854,488.081,78.98,487.788,78.752z"/>
		<path d="M484.516,95.012c0.763-1.686,1.23-2.829,1.368-3.369c0.237-0.931,0.861-1.416,1.805-1.416
			c1.302,0,1.955,0.603,1.955,1.807c0,0.618-0.542,2.186-1.662,4.59c-0.347,0.744-0.909,1.123-1.658,1.123
			c-1.334,0-2.003-0.619-2.003-1.855C484.32,95.598,484.385,95.302,484.516,95.012z M491.105,77.141
			c-0.197,0.241-0.485,0.391-0.876,0.391c-0.554,0-1.068-0.236-1.54-0.708c-0.473-0.472-0.714-1.182-0.511-1.587
			c0.423-0.843,1.819-2.157,3.026-3.564c0.223-0.26,0.472-0.391,0.732-0.391c1.041,0,1.606,0.723,1.756,2.1
			c0.028,0.257-0.096,0.921-0.488,1.465C492.979,75.159,492.084,75.945,491.105,77.141z M491.691,79.143
			c0.389-0.554,0.895-0.83,1.514-0.83c1.302,0,1.953,0.618,1.953,1.855c0,0.391-0.112,0.775-0.342,1.123
			c-1.369,2.071-2.263,3.646-2.49,4.688c-0.229,1.042-0.847,1.562-1.855,1.562c-1.303,0-1.952-0.618-1.952-1.855
			C488.519,84.352,489.573,82.159,491.691,79.143z M495.158,71.672c0.63-1.165,1.634-3.434,3.271-5.615
			c0.337-0.449,0.846-0.684,1.367-0.684c1.334,0,2.003,0.651,2.003,1.953c0,0.456-0.214,0.864-0.537,1.221
			c-0.459,0.506-0.959,1.489-1.515,2.783c-0.642,1.494-1.132,2.49-1.44,2.979c-0.31,0.488-0.755,0.732-1.341,0.732
			c-1.433,0-2.149-0.748-2.149-2.246C494.816,72.404,494.971,72.019,495.158,71.672z M500.674,60.295
			c0.6-1.243,2.061-3.508,2.832-6.104c0.258-0.867,0.798-1.465,1.808-1.465c1.302,0,1.953,0.603,1.953,1.807
			c0,0.781-0.443,1.992-1.27,3.613c-1.181,2.316-1.788,3.534-1.808,3.564c-0.386,0.585-0.879,1.221-1.66,1.221
			c-1.335,0-2-0.618-2-1.855C500.529,60.816,500.563,60.522,500.674,60.295z M502.529,67.912c0.639-0.651,1.747-1.742,2.833-3.223
			c0.397-0.542,0.895-0.879,1.514-0.879c1.334,0,2,0.618,2,1.855c0,0.358-0.115,0.72-0.344,1.074c-0.418,0.65-1.476,1.986-3.17,3.76
			c-0.404,0.423-0.896,0.635-1.417,0.635c-1.303,0-1.951-0.635-1.951-1.904C501.994,68.742,502.171,68.277,502.529,67.912z
			 M507.267,46.672c0.71-1.105,1.42-2.672,2.196-4.492c0.328-0.77,0.926-1.172,1.707-1.172c1.334,0,2.002,0.619,2.002,1.855
			c0,0.261-0.081,0.527-0.195,0.781c-0.895,1.994-1.691,3.838-2.539,5.127c-0.385,0.585-0.911,0.879-1.562,0.879
			c-1.303,0-1.953-0.635-1.953-1.904C506.923,47.388,507.038,47.028,507.267,46.672z M510.098,52.775
			c0.847-0.828,2.491-2.542,4.589-3.613c0.22-0.112,0.504-0.146,0.732-0.146c1.236,0,1.854,0.651,1.854,1.953
			c0,0.847-1.065,1.424-1.268,1.709c-0.008,0.011-1.144,1.054-3.419,2.979c-0.386,0.326-0.796,0.488-1.219,0.488
			c-1.303,0-1.955-0.651-1.955-1.953C509.412,53.638,509.696,53.167,510.098,52.775z M512.586,58.83
			c2.439-1.84,4.484-3.107,5.763-3.857c0.286-0.168,0.599-0.293,0.925-0.293c1.236,0,1.855,0.667,1.855,2.002
			c0,0.716-0.347,1.251-1.023,1.611c-1.201,0.639-2.965,1.957-5.224,3.564c-0.371,0.265-0.782,0.391-1.173,0.391
			c-1.27,0-1.902-0.65-1.902-1.953C511.807,59.709,512.067,59.221,512.586,58.83z M513.562,33.439
			c0.564-1.146,1.865-3.101,3.126-5.615c0.364-0.727,0.924-1.123,1.705-1.123c1.302,0,1.956,0.619,1.956,1.855
			c0,0.261-0.057,0.572-0.197,0.83c-0.6,1.099-1.925,3.008-3.024,5.42c-0.347,0.761-0.896,1.221-1.709,1.221
			c-1.335,0-2.003-0.618-2.003-1.855C513.416,33.944,513.452,33.665,513.562,33.439z M523.131,39.25
			c0.357-0.716,0.912-1.074,1.661-1.074c1.302,0,1.953,0.635,1.953,1.904c0,0.293-0.061,0.599-0.195,0.879
			c-0.416,0.865-1.185,1.708-2.148,2.49c-1.105,0.897-1.805,1.611-2.101,2.051c-0.37,0.55-0.894,0.83-1.512,0.83
			c-1.335,0-2.001-0.635-2.001-1.904c0-0.684,0.618-1.565,1.854-2.637C522.07,40.552,522.902,39.706,523.131,39.25z M524.351,87.199
			c-0.198,0.612-0.293,0.961-0.293,1.025c0,0.749,0.31,1.565,0.879,2.441c0.229,0.352,0.344,0.717,0.344,1.074
			c0,1.27-0.669,1.904-2.003,1.904c-0.619,0-1.125-0.293-1.514-0.879c-1.011-1.524-1.514-3.043-1.514-4.541
			c0-2.278,0.862-3.418,2.588-3.418c1.106,0,1.659,0.521,1.659,1.562C524.497,86.63,524.445,86.908,524.351,87.199z M520.543,19.035
			c0.714-2.391,2.033-4.68,3.858-6.689c0.413-0.455,0.893-0.684,1.414-0.684c1.302,0,1.955,0.651,1.955,1.953
			c0,0.456-0.164,0.893-0.49,1.27c-1.436,1.656-2.524,3.46-3.123,5.322c-0.28,0.873-0.88,1.318-1.759,1.318
			c-1.303,0-1.953-0.618-1.953-1.855C520.445,19.475,520.476,19.26,520.543,19.035z M529.381,71.672
			c-0.414,0.487-0.964,1.877-1.515,4.102c-0.237,0.961-0.814,1.465-1.758,1.465c-1.335,0-2-0.618-2-1.855
			c0-0.162,0.044-0.349,0.098-0.537c0.261-0.919,0.488-1.961,0.781-2.954s0.805-1.896,1.512-2.71
			c0.391-0.45,0.864-0.684,1.418-0.684c1.302,0,1.95,0.635,1.95,1.904C529.867,70.858,529.707,71.289,529.381,71.672z
			 M527.962,52.482c3.175,1.436,5.032,3.532,5.032,6.494c0,0.586-0.061,1.215-0.197,1.855c-0.213,0.999-0.83,1.514-1.807,1.514
			c-1.303,0-1.951-0.618-1.951-1.855c0-0.162,0.024-0.406,0.073-0.732c0.049-0.325,0.073-0.569,0.073-0.732
			c0-1.302-0.914-2.304-2.687-3.027c-0.778-0.317-1.172-0.895-1.172-1.709c0-1.334,0.62-2.002,1.857-2.002
			C527.444,52.287,527.706,52.367,527.962,52.482z M527.573,33.635c0.847-1.168,1.859-2.412,2.931-3.711
			c0.392-0.475,0.86-0.732,1.414-0.732c1.302,0,1.954,0.635,1.954,1.904c0,0.456-0.181,0.864-0.488,1.221
			c-1.046,1.212-1.938,2.447-2.687,3.516c-0.388,0.553-0.894,0.83-1.512,0.83c-1.335,0-2.001-0.635-2.001-1.904
			C527.185,34.367,527.313,33.993,527.573,33.635z M530.551,93.547c1.009-0.81,1.611-1.288,1.807-1.416
			c0.644-0.424,1.4-0.672,2.198-0.781c1.442-0.198,2.197,0.407,2.197,1.904c0,1.074-0.578,1.722-1.662,1.855
			c-0.317,0.039-1.046,0.551-2.147,1.416c-0.375,0.295-0.798,0.439-1.221,0.439c-1.27,0-1.904-0.667-1.904-2.002
			C529.818,94.41,530.064,93.938,530.551,93.547z M533.384,4.875c0.741-0.183,1.463-0.293,2.146-0.293
			c1.953,0,3.563,0.61,4.833,1.831s1.904,2.775,1.904,4.663c0,0.977-0.185,1.972-0.537,2.979c-0.295,0.842-0.879,1.27-1.758,1.27
			c-1.303,0-1.953-0.618-1.953-1.855c0-0.228,0.075-0.594,0.222-1.099c0.146-0.504,0.218-0.919,0.218-1.245
			c0-1.823-0.958-2.734-2.878-2.734c-0.195,0-0.499,0.041-0.905,0.122c-0.407,0.082-0.708,0.122-0.903,0.122
			c-1.237,0-1.854-0.651-1.854-1.953C531.918,5.705,532.423,5.113,533.384,4.875z M539.826,20.305
			c-0.27,1.007-1.149,2.915-1.611,5.127c-0.21,1.005-0.782,1.611-1.856,1.611c-1.498,0-2.254-0.938-1.902-2.197
			c0.284-1.017,1.157-2.905,1.609-5.078c0.214-1.029,0.784-1.66,1.858-1.66C539.389,18.107,540.159,19.062,539.826,20.305z
			 M539.875,85.881c0.435-0.514,1.328-1.215,1.855-2.002c0.383-0.571,0.927-1.025,1.708-1.025c1.27,0,1.902,0.586,1.902,1.758
			c0,0.813-0.501,1.7-1.51,2.637c-1.228,1.14-2.02,1.709-2.345,1.709c-1.335,0-2.002-0.635-2.002-1.904
			C539.484,86.662,539.606,86.199,539.875,85.881z M548.418,78.752c-0.293-0.228-0.455-0.717-0.488-1.465
			c-0.032-0.715,0.047-1.219,0.244-1.465c0.879-1.1,1.749-2.258,2.148-2.441c0.848-0.39,2.964,1.106,2.88,2.002
			c-0.103,1.092-1.697,2.567-2.636,2.979C549.44,78.854,548.711,78.979,548.418,78.752z"/>
		<path d="M554.132,71.818c-0.587,0.745-0.973,1.508-1.025,2.246c-0.082,1.153-0.685,1.758-1.856,1.758
			c-1.367,0-1.994-0.688-1.902-2.051c0.104-1.523,0.705-2.979,1.805-4.346c0.391-0.485,0.861-0.732,1.415-0.732
			c1.334,0,2.004,0.635,2.004,1.904C554.571,71.021,554.427,71.443,554.132,71.818z M553.642,82.902
			c0.162,0.358,0.586,0.879,0.586,1.367c0,1.205-0.684,1.807-2.051,1.807c-1.498,0-2.344-1.203-2.392-3.467
			c-0.011-0.51,0.005-1.343-0.049-2.393c-0.067-1.308,0.537-2.002,1.904-2.002c1.172,0,1.916,0.708,1.905,1.807
			C553.54,80.617,553.284,82.111,553.642,82.902z M555.788,92.131c0.706,1.332,1.458,2.097,2.198,2.246
			c1.023,0.207,1.562,0.798,1.562,1.807c0,1.562-0.776,2.204-2.295,1.904c-1.912-0.378-3.465-1.979-4.784-4.199
			c-0.171-0.287-0.293-0.603-0.293-0.928c0-1.236,0.665-1.855,2-1.855C554.893,91.105,555.428,91.452,555.788,92.131z
			 M554.522,73.625c0.423,0,1.001-0.105,1.733-0.317s1.276-0.317,1.635-0.317c1.236,0,1.854,0.651,1.854,1.953
			c0,0.977-0.493,1.576-1.465,1.807c-1.883,0.446-3.141,0.684-3.759,0.684c-1.27,0-1.904-0.635-1.904-1.904
			S553.253,73.625,554.522,73.625z M560.77,62.346c-0.064,0.057-0.956,0.828-2.586,2.295c-0.391,0.352-0.814,0.537-1.27,0.537
			c-1.27,0-1.903-0.667-1.903-2.002c0-0.521,0.215-0.977,0.633-1.367c0.618-0.577,1.587-1.521,2.88-2.539
			c0.334-0.264,0.734-0.391,1.125-0.391c1.27,0,1.902,0.667,1.902,2.002C561.551,61.467,561.227,61.949,560.77,62.346z
			 M564.384,70.598c0.806-0.514,2.33-1.249,3.955-2.344c0.354-0.238,0.735-0.391,1.126-0.391c1.27,0,1.9,0.668,1.9,2.002
			c0,0.618-0.304,1.175-0.877,1.514c-0.807,0.476-2.263,1.183-3.812,2.246c-0.386,0.265-0.781,0.439-1.172,0.439
			c-1.27,0-1.904-0.667-1.904-2.002C563.601,71.477,563.876,70.922,564.384,70.598z M569.829,54.484
			c-0.993,0.228-1.832,0.651-2.467,1.27c-0.391,0.381-0.83,0.586-1.318,0.586c-1.303,0-1.953-0.651-1.953-1.953
			c0-0.488,0.195-0.932,0.586-1.318c1.579-1.562,3.205-2.344,4.833-2.344c1.204,0,1.807,0.651,1.807,1.953
			C571.316,53.654,570.821,54.257,569.829,54.484z M566.483,94.475c2.275-0.944,3.563-1.563,3.808-1.855
			c0.36-0.431,0.813-0.684,1.367-0.684c1.334,0,2.002,0.603,2.002,1.807c0,0.813-0.544,1.553-1.634,2.22
			c-1.091,0.667-2.47,1.39-4.078,2.028c-0.254,0.101-0.523,0.146-0.783,0.146c-1.237,0-1.854-0.668-1.854-2.002
			C565.312,95.354,565.702,94.799,566.483,94.475z M573.611,64.738c0.684-1.14,1.367-2.11,2.051-2.783
			c0.397-0.391,0.88-0.586,1.368-0.586c1.302,0,1.956,0.651,1.956,1.953c0,0.488-0.231,0.928-0.639,1.318
			c-0.488,0.469-0.997,1.174-1.511,2.051c-0.359,0.614-0.882,0.928-1.565,0.928c-1.303,0-1.953-0.618-1.953-1.855
			C573.318,65.405,573.416,65.064,573.611,64.738z M577.03,55.314c0-1.009-0.169-1.759-0.486-2.246
			c-0.229-0.352-0.342-0.716-0.342-1.074c0-1.27,0.664-1.904,1.999-1.904c0.618,0,1.125,0.296,1.517,0.879
			c0.742,1.106,1.121,2.556,1.121,4.346c0,1.27-0.636,1.904-1.905,1.904S577.03,56.584,577.03,55.314z M579.665,84.416
			c0.35-0.229,0.718-0.342,1.076-0.342c1.27,0,1.904,0.668,1.904,2.002c0,0.618-0.302,1.13-0.903,1.536
			c-0.603,0.407-1.309,1.151-2.077,2.224c-0.392,0.547-0.893,0.83-1.511,0.83c-1.303,0-1.954-0.635-1.954-1.904
			C576.2,87.428,577.364,85.926,579.665,84.416z M583.231,79.484c0.419-0.261,0.71-0.474,0.828-0.635
			c0.397-0.543,0.897-0.879,1.517-0.879c1.334,0,2.002,0.635,2.002,1.904c0,0.391-0.159,0.753-0.391,1.074
			c-0.433,0.6-1.091,1.258-2.001,1.807c-0.324,0.195-0.655,0.293-0.98,0.293c-1.27,0-1.904-0.667-1.904-2.002
			C582.302,80.396,582.613,79.869,583.231,79.484z M586.895,75.822c0.863-1.101,1.7-2.258,2.1-2.441
			c0.848-0.39,2.961,1.099,2.881,2.002c-0.127,1.438-1.933,3.03-2.637,2.979c-0.574-0.042-1.152-0.479-1.709-1.27
			C587.028,76.38,586.796,75.947,586.895,75.822z"/>
		<path d="M643.542,82.951c0.057-0.514,0.273-1.389,0.634-2.588c0.322-1.072,0.488-1.92,0.488-2.539c0-1.27,0.635-1.904,1.904-1.904
			s1.904,0.635,1.904,1.904c0,0.717-0.152,1.664-0.488,2.783c-0.368,1.226-0.588,2.149-0.635,2.686
			c-0.096,1.11-0.749,1.709-1.855,1.709C644.062,85.002,643.394,84.296,643.542,82.951z M647.154,91.252
			c0.461,0.651,1.324,1.806,2.344,2.344c0.713,0.377,1.416,0.863,1.416,1.709c0,1.302-0.684,1.953-2.051,1.953
			c-1.01,0-2.091-0.57-3.174-1.709c-1.303-1.37-1.954-2.441-1.954-3.125c0-1.302,0.652-1.953,1.954-1.953
			C646.275,90.471,646.789,90.735,647.154,91.252z M651.453,68.156c0.381-0.584,1.041-1.285,1.953-2.1
			c0.911-0.813,1.497-1.416,1.758-1.807c0.391-0.586,0.892-0.879,1.511-0.879c1.334,0,2.006,0.635,2.006,1.904
			c0,0.391-0.128,0.752-0.342,1.074c-0.331,0.499-0.944,1.18-1.855,1.978c-0.912,0.798-1.533,1.44-1.858,1.929
			c-0.391,0.586-0.894,0.879-1.512,0.879c-1.335,0-2.004-0.635-2.004-1.904C651.109,68.872,651.224,68.509,651.453,68.156z
			 M656.968,93.4c0.442-0.137,1.052-0.325,1.784-0.586c0.732-0.26,1.324-0.497,1.735-0.635c0.215-0.071,0.438-0.098,0.633-0.098
			c1.236,0,1.857,0.668,1.857,2.002c0,0.879-0.461,1.473-1.368,1.758c-0.42,0.132-1.002,0.326-1.734,0.586
			c-0.732,0.261-1.34,0.449-1.782,0.586c-0.192,0.06-0.407,0.098-0.635,0.098c-1.205,0-1.809-0.651-1.809-1.953
			C655.649,94.279,656.102,93.668,656.968,93.4z M664.247,57.805c0.756-0.584,2.446-1.456,3.759-2.734
			c0.392-0.381,0.864-0.684,1.418-0.684c1.302,0,1.953,0.651,1.953,1.953c0,0.423-0.164,0.927-0.488,1.221
			c-0.702,0.637-2.457,1.613-4.055,3.027c-0.389,0.344-0.814,0.586-1.27,0.586c-1.303,0-1.952-0.667-1.952-2.002
			C663.612,58.684,663.833,58.125,664.247,57.805z M667.078,89.445c0.586-0.469,0.879-0.703,1.465-1.172
			c0.26-0.228,0.513-0.4,0.757-0.515s0.513-0.169,0.806-0.169c1.236,0,1.855,0.668,1.855,2.002c0,0.716-0.883,1.303-1.074,1.611
			c-0.008,0.014-0.017,0.065-0.049,0.098c-0.234,0.176-0.352,0.264-0.586,0.439c-0.312,0.254-0.469,0.381-0.781,0.635
			c-0.391,0.326-0.798,0.488-1.221,0.488c-1.303,0-1.953-0.667-1.953-2.002C666.297,90.309,666.557,89.836,667.078,89.445z
			 M673.67,83.879c0.439-1.062,1.481-2.944,2.444-5.371c0.309-0.778,0.844-1.221,1.658-1.221c1.334,0,2.004,0.618,2.004,1.855
			c0,0.261-0.042,0.538-0.146,0.781c-0.449,1.046-1.299,2.935-2.395,5.42c-0.342,0.774-0.929,1.172-1.71,1.172
			c-1.335,0-2.002-0.602-2.002-1.807C673.523,84.449,673.561,84.145,673.67,83.879z M679.288,93.156
			c0.616,0.716,1.214,1.099,1.757,1.172c1.059,0.143,1.612,0.781,1.612,1.855c0,1.497-0.732,2.132-2.197,1.904
			c-1.465-0.229-2.801-1.052-4.007-2.393c-0.351-0.391-0.537-0.813-0.537-1.27c0-1.302,0.653-1.953,1.956-1.953
			C678.425,92.473,678.897,92.702,679.288,93.156z M677.237,52.971c0.91-0.738,2.54-1.272,4.833-1.611
			c1.456-0.216,2.197,0.407,2.197,1.904c0,1.074-0.602,1.754-1.659,1.855c-0.679,0.065-1.924,0.219-2.93,0.781
			c-0.369,0.207-0.798,0.439-1.221,0.439c-1.303,0-1.955-0.651-1.955-1.953C676.503,53.833,676.755,53.362,677.237,52.971z
			 M680.313,69.475c0.625-0.965,1.756-2.629,2.49-4.639c0.309-0.845,0.861-1.416,1.806-1.416c1.302,0,1.953,0.603,1.953,1.807
			c0,0.195-0.008,0.403-0.049,0.586c-0.173,0.78-1.282,2.69-2.929,5.566c-0.363,0.634-0.882,0.977-1.565,0.977
			c-1.335,0-1.999-0.635-1.999-1.904C680.021,70.126,680.114,69.782,680.313,69.475z M688.711,92.521
			c0.58-0.306,1.567-0.836,2.832-1.562c0.322-0.186,0.65-0.293,0.977-0.293c1.236,0,1.857,0.668,1.857,2.002
			c0,0.716-0.398,1.238-1.027,1.611c-0.479,0.283-1.507,0.999-2.93,1.66c-0.301,0.14-0.635,0.195-0.928,0.195
			c-1.237,0-1.855-0.667-1.855-2.002C687.637,93.417,688.018,92.887,688.711,92.521z M688.076,53.996
			c0.53-0.921,1.598-2.515,2.395-4.492c0.325-0.807,0.86-1.318,1.707-1.318c1.334,0,2.004,0.619,2.004,1.855
			c0,0.228-0.064,0.463-0.146,0.684c-0.215,0.578-1.089,2.331-2.639,5.127c-0.359,0.648-0.879,0.977-1.562,0.977
			c-1.335,0-2.002-0.618-2.002-1.855C687.832,54.647,687.905,54.293,688.076,53.996z M695.111,39.787
			c0.399-2.103,1.496-4.085,3.319-5.908c0.391-0.391,0.83-0.586,1.318-0.586c1.302,0,1.952,0.651,1.952,1.953
			c0,0.488-0.195,0.928-0.586,1.318c-1.27,1.27-2.04,2.576-2.294,3.906c-0.198,1.038-0.798,1.562-1.807,1.562
			C695.452,42.033,694.828,41.278,695.111,39.787z M701.799,85.539c-0.371,0.459-1.171,1.537-2.343,2.344
			c-0.25,0.172-0.604,0.244-0.93,0.244c-1.27,0-1.904-0.65-1.904-1.953c0-0.716,0.558-1.222,1.025-1.611
			c0.352-0.293,0.843-1.058,1.463-1.709c0.371-0.391,0.833-0.586,1.321-0.586c1.302,0,1.953,0.651,1.953,1.953
			C702.385,84.709,702.109,85.154,701.799,85.539z M703.557,77.775c0.215-0.39,0.895-1.078,1.611-1.953
			c0.906-1.106,1.7-2.258,2.1-2.441c0.848-0.39,3.036,1.293,2.881,2.002c-0.124,0.566-1.932,1.893-2.637,2.979
			c-0.183,0.281-0.57,1.01-1.123,1.367c-0.823,0.531-1.84,0.684-2.197,0.684c-0.619,0-0.928-0.374-0.928-1.123
			C703.264,78.898,703.306,78.231,703.557,77.775z M703.605,24.162c0.537-1.009,1.654-2.72,2.832-4.98
			c0.363-0.697,0.911-1.074,1.66-1.074c1.334,0,2.002,0.619,2.002,1.855c0,0.293-0.073,0.635-0.244,0.928
			c-0.574,0.982-1.735,2.653-2.734,4.785c-0.344,0.734-0.896,1.172-1.709,1.172c-1.335,0-2.002-0.618-2.002-1.855
			C703.41,24.732,703.465,24.426,703.605,24.162z"/>
		<path d="M709.516,75.041c-0.226,0.328-0.29,1.811-0.637,3.174c-0.236,0.93-0.847,1.416-1.758,1.416
			c-1.335,0-2.002-0.602-2.002-1.807c0-0.195,0.052-0.402,0.098-0.586c0.22-0.885,0.353-1.978,0.564-3.003
			c0.211-1.025,0.823-1.826,1.779-2.417c0.355-0.22,0.699-0.342,1.025-0.342c1.27,0,1.906,0.667,1.906,2.002
			C710.492,74.162,709.742,74.711,709.516,75.041z M710.783,88.859c-0.005,0.021,1.074,0.879,1.074,1.562
			c0,1.302-0.684,1.953-2.051,1.953c-0.912,0-1.679-0.603-2.295-1.807c-0.848-1.657-1.27-3.337-1.27-5.029
			c0-2.506,0.813-3.76,2.441-3.76c1.302,0,1.953,0.57,1.953,1.709c0,0.391-0.131,0.781-0.391,1.172
			c-0.131,0.195-0.195,0.488-0.195,0.879c0,1.074,0.893,3.298,0.879,3.32C710.925,88.867,710.783,88.859,710.783,88.859z
			 M710.441,67.229c1.087-1.772,2.953-3.639,5.517-5.469c0.356-0.255,0.736-0.391,1.127-0.391c1.27,0,1.902,0.667,1.902,2.002
			c0,0.619-0.275,1.125-0.828,1.514c-1.298,0.912-2.151,1.513-2.492,1.807c-0.715,0.617-1.364,1.492-1.953,2.49
			c-0.384,0.649-0.925,0.977-1.608,0.977c-1.335,0-2.004-0.635-2.004-1.904C710.102,67.929,710.223,67.585,710.441,67.229z
			 M716.057,94.23c0.839,0.435,3.177,0.684,3.177,0.684s0.588-0.096,2.734-0.293c1.398-0.129,2.099,0.505,2.099,1.904
			c0,1.139-0.598,1.79-1.757,1.905c-2.217,0.22-3.076,0.292-3.076,0.292s-3.586-0.384-4.982-1.123
			c-0.68-0.359-1.025-0.895-1.025-1.611c0-1.334,0.618-2.002,1.855-2.002C715.406,93.986,715.738,94.065,716.057,94.23z
			 M723.627,55.266c1.066-1.269,3.69-2.155,6.887-3.174c0.154-0.049,0.342-0.098,0.537-0.098c1.204,0,1.809,0.651,1.809,1.953
			c0,0.977-0.476,1.581-1.418,1.807c-1.365,0.327-3.502,0.907-4.934,2.002c-0.411,0.314-0.896,0.684-1.416,0.684
			c-1.303,0-1.952-0.635-1.952-1.904C723.14,56.08,723.301,55.654,723.627,55.266z M730.414,90.422
			c0.445-0.143,1.228-0.601,2.295-1.318c0.91-0.612,1.579-0.928,2.003-0.928c1.236,0,1.855,0.668,1.855,2.002
			c0,0.619-0.296,1.122-0.879,1.514c-2.407,1.615-4.006,2.441-4.787,2.441c-1.237,0-1.854-0.65-1.854-1.953
			C729.047,91.269,729.539,90.702,730.414,90.422z M739.304,59.758c-0.561,1.152-1.414,2.947-2.246,5.176
			c-0.312,0.837-0.881,1.318-1.76,1.318c-1.303,0-1.952-0.618-1.952-1.855c0-0.228,0.016-0.502,0.097-0.732
			c0.377-1.074,1.284-2.975,2.344-5.371c0.343-0.775,0.93-1.172,1.711-1.172c1.334,0,2.002,0.603,2.002,1.807
			C739.499,59.221,739.43,59.5,739.304,59.758z M737.644,71.477c0.346,0.971,0.913,1.683,1.66,2.1
			c0.646,0.36,0.976,0.879,0.976,1.562c0,1.335-0.62,2.002-1.856,2.002c-0.358,0-0.702-0.105-1.025-0.293
			c-1.528-0.889-2.631-2.332-3.32-4.102c-0.087-0.223-0.146-0.455-0.146-0.684c0-1.237,0.667-1.855,2.002-1.855
			C736.778,70.207,737.346,70.64,737.644,71.477z M740.182,50.725c1.463,0.197,3.047,0.731,4.736,1.611
			c2.113,1.102,3.174,2.246,3.174,3.418c0,1.27-0.668,1.904-2.002,1.904c-0.717,0-1.244-0.39-1.611-1.074
			c-0.12-0.225-0.673-0.604-1.61-1.074c-1.118-0.561-2.205-0.904-3.175-1.025c-1.098-0.138-1.659-0.749-1.659-1.855
			C738.034,51.164,738.751,50.532,740.182,50.725z M745.968,79.362c-0.537,0.342-1.115,1.066-1.733,2.173
			c-0.619,1.106-1.305,1.911-2.051,2.393c-0.355,0.229-0.717,0.342-1.074,0.342c-1.237,0-1.854-0.667-1.854-2.002
			c0-0.65,0.3-1.205,0.878-1.562c0.215-0.133,0.667-0.759,1.318-1.882c0.65-1.123,1.45-2.002,2.393-2.61
			c0.354-0.229,0.716-0.342,1.074-0.342c1.236,0,1.855,0.668,1.855,2.002C746.773,78.524,746.505,79.021,745.968,79.362z
			 M750.436,61.662c0.098,2.477-0.235,4.968-1.074,7.373c-0.294,0.844-0.879,1.27-1.758,1.27c-1.303,0-1.953-0.602-1.953-1.807
			c0-0.228,0.027-0.464,0.098-0.684c0.609-1.915,1.01-3.974,0.928-6.006c-0.053-1.323,0.569-2.002,1.904-2.002
			C749.784,59.807,750.388,60.44,750.436,61.662z M748.533,79.826c1.265,0.125,2.049,0.195,2.342,0.195
			c1.27,0,1.904,0.635,1.904,1.904s-0.635,1.904-1.904,1.904c-0.391,0-1.305-0.104-2.686-0.244
			c-1.121-0.113-1.709-0.716-1.709-1.855C746.48,80.331,747.172,79.691,748.533,79.826z M755.319,78.752
			c-0.293-0.228-0.455-0.717-0.488-1.465c-0.032-0.715,0.047-1.219,0.244-1.465c0.88-1.1,1.751-2.258,2.15-2.441
			c0.848-0.39,2.964,1.106,2.88,2.002c-0.103,1.092-1.698,2.567-2.638,2.979C756.342,78.854,755.612,78.98,755.319,78.752z"/>
		<path d="M757.468,77.141c-0.197,0.241-0.488,0.391-0.879,0.391c-0.554,0-1.066-0.236-1.538-0.708
			c-0.473-0.472-0.717-1.183-0.513-1.587c0.439-0.872,1.855-2.192,3.029-3.564c0.223-0.26,0.472-0.391,0.732-0.391
			c1.041,0,1.607,0.723,1.757,2.1c0.028,0.257-0.097,0.921-0.489,1.465C759.341,75.159,758.445,75.945,757.468,77.141z
			 M763.523,80.559c-0.152,0.227-0.4,1.601-0.635,4.053c-0.107,1.128-0.717,1.709-1.855,1.709c-1.4,0-1.991-0.738-1.905-2.1
			c0.06-0.945,0.089-1.953,0.171-2.93c0.081-0.977,0.434-1.908,1.002-2.783c0.394-0.605,0.911-0.928,1.562-0.928
			c1.334,0,2.002,0.635,2.002,1.904C763.865,79.843,763.754,80.217,763.523,80.559z M760.643,68.547
			c0.52-0.795,1.525-2.089,2.637-3.809c0.393-0.608,0.911-0.928,1.562-0.928c1.334,0,2.002,0.618,2.002,1.855
			c0,0.358-0.091,0.733-0.293,1.025c-0.531,0.767-1.551,2.006-2.539,3.613c-0.399,0.649-0.944,1.025-1.66,1.025
			c-1.303,0-1.953-0.618-1.953-1.855C760.398,69.149,760.473,68.808,760.643,68.547z M763.914,49c-1.27,0-1.904-0.48-1.904-1.75
			s0.635-1.827,1.904-1.827c2.767,0,4.357,0.125,4.736,0.234c1.143,0.328,1.807,0.768,1.807,1.386c0,0.521-0.364,1.043-1.097,1.548
			c-0.732,0.505-1.377,0.574-1.882,0.559C767.32,49.145,766.99,49,766.502,49C765.467,49,764.949,49,763.914,49z M765.77,92.277
			c0.723,1.242,1.598,2.09,2.637,2.441c0.874,0.296,1.318,0.879,1.318,1.758c0,1.302-0.619,1.954-1.855,1.954
			c-0.195,0-0.437-0.025-0.684-0.098c-1.901-0.554-3.519-2.103-4.736-4.2c-0.188-0.323-0.293-0.65-0.293-0.977
			c0-1.236,0.667-1.855,2.002-1.855C764.842,91.301,765.394,91.631,765.77,92.277z M772.9,55.314
			c-0.665,1.143-1.226,2.638-1.855,3.906c-0.897,1.808-1.809,2.734-2.59,2.734c-1.303,0-1.953-0.635-1.953-1.904
			c0-0.293,0.064-0.587,0.195-0.879c0.583-1.301,1.582-3.298,3.027-5.859c0.347-0.615,0.864-0.928,1.516-0.928
			c1.334,0,2.001,0.635,2.001,1.904C773.241,54.647,773.083,55,772.9,55.314z M778.563,43.352c-0.581,0.931-1.38,2.65-2.539,4.59
			c-0.366,0.613-0.912,0.928-1.562,0.928c-1.335,0-2.001-0.635-2.001-1.904c0-0.358,0.149-0.726,0.342-1.074
			c0.553-1.002,1.391-2.814,2.685-4.785c0.359-0.547,0.881-0.83,1.467-0.83c1.334,0,2.002,0.635,2.002,1.904
			C778.956,42.603,778.781,43.002,778.563,43.352z M776.464,93.059c0.906-0.166,2.106-0.746,3.517-1.514
			c0.309-0.168,0.65-0.244,0.977-0.244c1.236,0,1.855,0.651,1.855,1.953c0,0.717-0.338,1.25-0.977,1.611
			c-1.782,1.009-3.373,1.664-4.688,1.904c-1.483,0.271-2.246-0.342-2.246-1.904C774.901,93.856,775.426,93.248,776.464,93.059z
			 M779.932,45.305c0.26,0,0.586-0.016,0.977-0.049c0.391-0.032,0.732-0.049,1.025-0.049c1.236,0,1.855,0.635,1.855,1.904
			s-0.619,1.904-1.855,1.904c-0.293,0-0.635,0.017-1.025,0.049c-0.391,0.033-0.717,0.049-0.977,0.049
			c-1.27,0-1.903-0.635-1.903-1.904S778.662,45.305,779.932,45.305z M784.717,31.242c-0.355,0.271-0.839,0.985-1.44,2.075
			c-0.603,1.091-1.138,1.881-1.587,2.222c-0.352,0.267-0.781,0.391-1.172,0.391c-1.303,0-1.954-0.651-1.954-1.953
			c0-0.423,0.431-0.938,0.783-1.465c0.514-0.768,1.509-2.919,3.124-4.346c0.305-0.269,0.781-0.391,1.172-0.391
			c1.27,0,1.904,0.667,1.904,2.002C785.547,30.363,785.236,30.847,784.717,31.242z M790.089,19.913
			c-0.602,0.768-1.188,1.778-1.808,2.687c-0.843,1.236-1.579,1.855-2.197,1.855c-1.335,0-2.002-0.618-2.002-1.855
			c0-0.293,0.063-0.589,0.195-0.879c0.666-1.458,1.691-2.939,3.027-4.395c0.388-0.423,0.846-0.635,1.367-0.635
			c1.302,0,1.953,0.651,1.953,1.953C790.625,19.101,790.391,19.528,790.089,19.913z M790.577,45.402
			c1.084,0.165,1.759,0.732,1.759,1.904c0,1.27-0.636,1.904-1.905,1.904c-0.131,0-0.369-0.068-0.635-0.098
			c-0.173-0.019-0.44,0.017-0.733,0.049c-0.293,0.033-0.537,0.049-0.732,0.049c-1.27,0-1.904-0.635-1.904-1.904
			s0.635-1.904,1.904-1.904c0.195,0,0.439-0.016,0.732-0.049c0.293-0.032,0.538-0.049,0.733-0.049
			C790.023,45.305,790.301,45.36,790.577,45.402z M786.621,87.199c0.124-0.68,1.188-2.002,3.175-3.955
			c0.064-0.064,0.145-0.131,0.195-0.195c0.374-0.476,0.894-0.879,1.61-0.879c1.27,0,1.905,0.554,1.905,1.66
			c0,0.749-0.434,1.684-1.271,2.393c-0.393,0.332-1.502,0.956-1.854,1.611c-0.357,0.665-0.799,1.611-1.808,1.611
			C787.012,89.445,786.351,88.684,786.621,87.199z M796.241,78.752c-0.293-0.228-0.455-0.717-0.488-1.465
			c-0.032-0.715,0.049-1.219,0.246-1.465c0.88-1.1,1.747-2.258,2.146-2.441c0.848-0.39,2.966,1.106,2.882,2.002
			c-0.102,1.092-1.698,2.567-2.638,2.979C797.264,78.854,796.534,78.98,796.241,78.752z"/>
		<path d="M796.778,86.271c0.237,0.48,0.835,1.075,1.711,1.709c0.542,0.393,0.828,0.896,0.828,1.514
			c0,1.303-0.635,1.953-1.904,1.953c-0.391,0-0.765-0.137-1.121-0.391c-1.375-0.98-2.358-2.011-2.883-3.076
			c-0.159-0.324-0.244-0.635-0.244-0.928c0-1.237,0.668-1.855,2.002-1.855C795.915,85.197,796.441,85.588,796.778,86.271z
			 M799.562,77.141c-0.197,0.241-0.487,0.391-0.878,0.391c-0.554,0-1.068-0.236-1.54-0.708c-0.473-0.472-0.717-1.183-0.513-1.587
			c0.439-0.872,1.854-2.192,3.028-3.564c0.223-0.26,0.472-0.391,0.732-0.391c1.041,0,1.608,0.723,1.758,2.1
			c0.028,0.257-0.096,0.921-0.488,1.465C801.436,75.159,800.54,75.945,799.562,77.141z M805.227,93.254
			c0.935,0.167,1.465,0.83,1.465,1.807c0,1.303-0.603,1.953-1.807,1.953c-0.098,0-1.169-0.318-3.174-0.977
			c-0.876-0.287-1.318-0.879-1.318-1.758c0-1.335,0.618-2.002,1.855-2.002c0.325,0,0.836,0.152,1.536,0.462
			C804.483,93.049,804.981,93.21,805.227,93.254z M804.641,66.984c0.667-0.746,1.935-1.938,3.467-3.564
			c0.391-0.415,0.845-0.635,1.366-0.635c1.302,0,1.953,0.651,1.953,1.953c0,0.456-0.178,0.93-0.535,1.27
			c-0.655,0.623-2.011,1.665-3.126,3.076c-0.401,0.508-0.896,0.879-1.514,0.879c-1.335,0-2.002-0.635-2.002-1.904
			C804.25,67.668,804.378,67.278,804.641,66.984z M816.702,96.281c-1.623,0.862-3.16,1.318-4.592,1.318
			c-1.27,0-1.904-0.635-1.904-1.904c0-1.237,0.635-1.855,1.904-1.855c0.781,0,1.743-0.283,2.783-0.879
			c0.322-0.185,0.654-0.293,0.98-0.293c1.236,0,1.854,0.667,1.854,2.002C817.728,95.387,817.379,95.922,816.702,96.281z
			 M812.944,58.488c0.557-1.065,1.491-1.977,2.586-2.734c0.354-0.246,0.732-0.391,1.123-0.391c1.236,0,1.857,0.667,1.857,2.002
			c0,0.618-0.282,1.142-0.832,1.514c-0.631,0.428-1.119,0.918-1.414,1.465c-0.351,0.649-0.897,0.977-1.613,0.977
			c-1.303,0-1.955-0.618-1.955-1.855C812.696,59.14,812.778,58.806,812.944,58.488z M823.539,88.518
			c-0.45,0.89-1.201,2.108-1.953,3.564c-0.363,0.702-0.896,1.074-1.611,1.074c-1.335,0-2.003-0.635-2.003-1.904
			c0-0.293,0.081-0.592,0.246-0.879c0.408-0.712,1.072-1.882,1.854-3.467c0.362-0.734,0.911-1.123,1.66-1.123
			c1.334,0,2.002,0.618,2.002,1.855C823.734,87.932,823.677,88.246,823.539,88.518z M820.072,51.311
			c0.98-1.376,1.825-2.419,2.539-2.979c0.377-0.295,0.797-0.439,1.221-0.439c1.27,0,1.904,0.651,1.904,1.953
			c0,0.586-0.236,1.058-0.708,1.416c-0.473,0.358-1.097,1.12-1.88,2.246c-0.385,0.553-0.896,0.83-1.514,0.83
			c-1.303,0-1.953-0.635-1.953-1.904C819.682,52.043,819.817,51.668,820.072,51.311z M824.516,61.467
			c-0.082,2.688,0.088,4.571,0.586,5.518c0.152,0.29,0.244,0.586,0.244,0.879c0,1.237-0.668,1.855-2.002,1.855
			c-0.749,0-1.307-0.359-1.66-1.074c-0.752-1.521-1.068-3.96-0.977-7.275c0.034-1.234,0.667-1.855,1.904-1.855
			C823.913,59.514,824.555,60.173,824.516,61.467z M826.322,76.701c-0.122,2.368-0.195,3.923-0.195,4.639
			c0,1.237-0.635,1.855-1.904,1.855s-1.904-0.618-1.904-1.855c0-0.781,0.064-2.393,0.195-4.834c0.064-1.204,0.684-1.807,1.855-1.807
			C825.736,74.699,826.391,75.372,826.322,76.701z M824.735,89.567c0.374-0.374,1.013-0.961,1.636-1.733
			c0.398-0.493,0.879-0.83,1.465-0.83c1.334,0,2.003,0.635,2.003,1.904c0,0.391-0.127,0.802-0.391,1.123
			c-0.372,0.452-1.095,1.142-1.905,2.051c-0.392,0.439-0.863,0.684-1.416,0.684c-1.303,0-1.953-0.65-1.953-1.953
			C824.174,90.357,824.36,89.941,824.735,89.567z M831.816,83.708c0.374-0.439,0.998-1.227,1.83-1.88
			c0.3-0.236,0.719-0.342,1.077-0.342c1.27,0,1.904,0.667,1.904,2.002c0,0.619-0.293,1.123-0.879,1.514
			c-0.098,0.065-0.469,0.474-1.076,1.221c-0.392,0.481-0.861,0.732-1.414,0.732c-1.335,0-2.006-0.65-2.006-1.953
			C831.253,84.579,831.441,84.147,831.816,83.708z M839.313,78.752c-0.293-0.259-0.456-0.749-0.488-1.465
			c-0.033-0.716,0.045-1.219,0.242-1.465c0.88-1.1,1.75-2.258,2.149-2.441c0.848-0.39,2.965,1.106,2.881,2.002
			c-0.102,1.092-1.7,2.573-2.637,2.979C840.311,78.858,839.572,78.98,839.313,78.752z"/>
	</g>
</g>
</svg>
