<?xml version="1.0" encoding="utf-8"?>
<!-- Generator: Adobe Illustrator 16.0.0, SVG Export Plug-In . SVG Version: 6.00 Build 0)  -->
<!DOCTYPE svg PUBLIC "-//W3C//DTD SVG 1.1//EN" "http://www.w3.org/Graphics/SVG/1.1/DTD/svg11.dtd">
<svg version="1.1" id="Layer_1" xmlns="http://www.w3.org/2000/svg" xmlns:xlink="http://www.w3.org/1999/xlink" x="0px" y="0px"
	 width="332.055px" height="43.25px" viewBox="0 0 332.055 43.25" enable-background="new 0 0 332.055 43.25" xml:space="preserve">
<g>
	<g>
		<path stroke="#000000" stroke-width="0.5" stroke-miterlimit="10" d="M3.553,25.722c0.016,0.493-0.042,1.348,0.037,2.334
			c0.008,0.1,0.051,0.261,0.116,0.479c0.063,0.216,0.096,0.382,0.096,0.496c0,0.486-0.255,0.729-0.765,0.729
			c-0.319,0-0.546-0.155-0.672-0.461c-0.166-0.404-0.269-1.026-0.269-1.856c0-0.197,0-0.297,0-0.496
			c0-0.421-0.014-0.788-0.038-1.092c-0.04-0.532,0.218-0.803,0.767-0.803C3.271,25.052,3.54,25.299,3.553,25.722z M5.733,17.208
			c-0.191,0.267-0.557,1.4-1.148,3.31c-0.109,0.354-0.344,0.535-0.688,0.535c-0.521,0-0.784-0.241-0.784-0.727
			c0-0.078,0.016-0.156,0.038-0.231c0.19-0.626,0.354-1.296,0.535-1.932c0.213-0.75,0.497-1.358,0.823-1.817
			c0.155-0.216,0.352-0.327,0.593-0.327c0.523,0,0.786,0.249,0.786,0.746C5.888,16.921,5.833,17.068,5.733,17.208z M5.446,33.47
			c0.197,0.3,0.381,0.645,0.575,0.938c0.251,0.38,0.545,0.583,0.823,0.595c0.468,0.017,0.708,0.259,0.708,0.743
			c0,0.513-0.268,0.766-0.786,0.749c-0.832-0.029-1.835-0.776-2.734-2.163c-0.078-0.121-0.116-0.262-0.116-0.401
			c0-0.524,0.301-0.784,0.899-0.784C5.083,33.147,5.307,33.256,5.446,33.47z M10.919,9.21c-0.538,0.668-1.676,1.785-2.468,3.158
			c-0.139,0.241-0.337,0.42-0.632,0.42c-0.524,0-0.784-0.241-0.784-0.726c0-0.115,0.032-0.237,0.096-0.364
			c0.213-0.419,0.626-0.969,1.225-1.646c0.677-0.764,1.108-1.314,1.302-1.626c0.149-0.24,0.357-0.364,0.612-0.364
			c0.523,0,0.786,0.25,0.786,0.747C11.053,8.948,11.01,9.097,10.919,9.21z M11.685,37.372c0.557-0.245,1.091-0.382,1.588-0.382
			c0.703,0,1.502-0.103,2.391-0.287c0.064-0.013,0.127-0.019,0.191-0.019c0.472,0,0.707,0.255,0.707,0.766
			c0,0.384-0.197,0.62-0.592,0.707c-0.98,0.218-1.882,0.326-2.698,0.326c-0.063,0-0.217,0.052-0.46,0.153
			c-0.242,0.103-0.422,0.133-0.535,0.096c-0.74-0.235-1.129-0.503-1.129-0.82C11.148,37.705,11.333,37.528,11.685,37.372z
			 M16.813,5.117c-0.892,0.276-2.079,0.884-3.482,1.855c-0.127,0.089-0.269,0.135-0.421,0.135c-0.497,0-0.747-0.256-0.747-0.766
			c0-0.241,0.11-0.443,0.327-0.593c0.905-0.628,1.542-1.025,1.855-1.205c0.584-0.336,1.287-0.624,2.047-0.862
			c0.076-0.023,0.16-0.039,0.248-0.039c0.472,0,0.708,0.261,0.708,0.785C17.347,4.772,17.166,5.007,16.813,5.117z M18.84,35.346
			c0.893-0.856,1.556-1.551,1.856-2.084c0.141-0.253,0.351-0.386,0.631-0.386c0.511,0,0.766,0.245,0.766,0.729
			c0,0.128-0.03,0.26-0.095,0.384c-0.357,0.67-1.098,1.503-2.143,2.466c-0.153,0.142-0.319,0.212-0.499,0.212
			c-0.511,0-0.765-0.26-0.765-0.783C18.591,35.689,18.674,35.504,18.84,35.346z M23.184,3.682c-1.031-0.392-1.8-0.361-2.295,0.038
			c-0.159,0.129-0.339,0.191-0.517,0.191c-0.447,0-0.67-0.236-0.67-0.707c0-0.396,0.242-0.705,0.708-0.976
			C20.686,2.067,21.001,2,21.346,2s0.516,0,0.862,0c0.446,0,0.949,0.088,1.511,0.306c0.332,0.127,0.498,0.34,0.498,0.66
			c0,0.523-0.241,0.78-0.727,0.78C23.388,3.743,23.287,3.72,23.184,3.682z M24.504,6.398c-0.613,0.752-0.918,1.403-0.918,1.913
			c0,0.395,0.166,0.728,0.499,0.995c0.189,0.154,0.288,0.337,0.288,0.556c0,0.522-0.25,0.784-0.747,0.784
			c-0.167,0-0.327-0.066-0.479-0.191c-0.689-0.563-1.053-1.276-1.053-2.143c0-0.867,0.428-1.819,1.262-2.85
			c0.153-0.19,0.337-0.287,0.555-0.287c0.524,0,0.785,0.249,0.785,0.746C24.696,6.085,24.629,6.245,24.504,6.398z M23.032,30.908
			c0.26-0.308,0.391-0.46,0.65-0.767c0.357-0.434,0.667-0.886,0.823-0.957c0.333-0.153,1.19,0.506,1.128,0.784
			c-0.048,0.222-0.664,0.725-1.033,1.167c-0.089,0.108-0.242,0.294-0.458,0.535C23.697,31.365,23.474,31.213,23.032,30.908z
			 M28.599,4.351c-0.343,0.025-0.723,0.022-1.09,0.038c-0.532,0.021-0.86,0.125-0.976,0.287c-0.173,0.241-0.376,0.364-0.594,0.364
			c-0.459,0-0.689-0.28-0.689-0.842c0-0.727,0.64-1.208,1.761-1.263c0.303-0.015,0.815,0.001,1.417-0.057
			c0.542-0.054,0.842,0.172,0.842,0.747C29.269,4.058,29.03,4.319,28.599,4.351z M27.565,7.316
			c-0.042,0.952-0.079,1.594-0.133,1.894c-0.137,0.742-0.464,1.305-0.918,1.608c-0.137,0.09-0.287,0.135-0.439,0.135
			c-0.498,0-0.748-0.261-0.748-0.784c0-0.242,0.112-0.439,0.335-0.593c0.223-0.154,0.38-0.938,0.431-2.315
			c0.018-0.467,0.256-0.708,0.727-0.708C27.343,6.551,27.589,6.809,27.565,7.316z"/>
		<path stroke="#000000" stroke-width="0.5" stroke-miterlimit="10" d="M25.308,29.835c-0.088,0.128-0.113,0.709-0.248,1.245
			c-0.093,0.362-0.332,0.554-0.688,0.554c-0.524,0-0.785-0.236-0.785-0.707c0-0.078,0.02-0.158,0.039-0.23
			c0.085-0.347,0.137-0.773,0.22-1.177c0.083-0.4,0.324-0.715,0.7-0.945c0.139-0.087,0.274-0.134,0.401-0.134
			c0.497,0,0.747,0.26,0.747,0.782C25.691,29.492,25.396,29.705,25.308,29.835z M25.806,35.249c-0.002,0.009,0.421,0.344,0.421,0.61
			c0,0.513-0.27,0.767-0.805,0.767c-0.357,0-0.658-0.237-0.9-0.708c-0.332-0.648-0.496-1.309-0.496-1.971
			c0-0.981,0.318-1.473,0.957-1.473c0.51,0,0.764,0.223,0.764,0.669c0,0.154-0.051,0.306-0.153,0.458
			c-0.051,0.078-0.076,0.193-0.076,0.346c0,0.421,0.35,1.292,0.345,1.301C25.861,35.253,25.806,35.249,25.806,35.249z
			 M25.672,26.773c0.426-0.694,1.157-1.426,2.162-2.142c0.14-0.101,0.288-0.153,0.439-0.153c0.499,0,0.747,0.261,0.747,0.784
			c0,0.242-0.109,0.441-0.327,0.593c-0.508,0.358-0.842,0.593-0.975,0.708c-0.281,0.242-0.535,0.586-0.767,0.975
			c-0.15,0.256-0.363,0.385-0.631,0.385c-0.522,0-0.785-0.251-0.785-0.746C25.538,27.049,25.586,26.914,25.672,26.773z
			 M27.872,37.354c0.33,0.173,1.244,0.267,1.244,0.267s0.231-0.035,1.072-0.112c0.549-0.053,0.823,0.197,0.823,0.746
			c0,0.446-0.234,0.699-0.688,0.745c-0.868,0.087-1.207,0.116-1.207,0.116s-1.404-0.152-1.952-0.44
			c-0.266-0.142-0.402-0.352-0.402-0.632c0-0.523,0.243-0.784,0.728-0.784C27.616,37.259,27.747,37.289,27.872,37.354z
			 M30.837,22.086c0.417-0.497,1.445-0.845,2.698-1.242c0.061-0.019,0.135-0.039,0.211-0.039c0.473,0,0.708,0.256,0.708,0.766
			c0,0.383-0.186,0.619-0.556,0.708c-0.534,0.127-1.371,0.354-1.933,0.785c-0.161,0.123-0.35,0.266-0.554,0.266
			c-0.511,0-0.766-0.248-0.766-0.744C30.646,22.405,30.709,22.239,30.837,22.086z M33.498,35.861
			c0.174-0.055,0.481-0.235,0.899-0.516c0.355-0.239,0.619-0.364,0.784-0.364c0.485,0,0.727,0.261,0.727,0.784
			c0,0.243-0.116,0.44-0.344,0.593c-0.943,0.634-1.57,0.958-1.875,0.958c-0.484,0-0.726-0.256-0.726-0.767
			C32.962,36.194,33.155,35.972,33.498,35.861z M36.98,23.847c-0.22,0.451-0.554,1.154-0.88,2.028
			c-0.122,0.328-0.345,0.516-0.688,0.516c-0.511,0-0.765-0.243-0.765-0.728c0-0.087,0.006-0.196,0.038-0.287
			c0.147-0.421,0.502-1.164,0.917-2.104c0.134-0.304,0.364-0.46,0.669-0.46c0.523,0,0.785,0.237,0.785,0.709
			C37.056,23.636,37.029,23.744,36.98,23.847z M36.329,28.438c0.136,0.379,0.358,0.661,0.65,0.823
			c0.253,0.141,0.383,0.344,0.383,0.61c0,0.525-0.242,0.784-0.727,0.784c-0.141,0-0.275-0.04-0.402-0.115
			c-0.599-0.348-1.031-0.913-1.301-1.606c-0.035-0.086-0.057-0.177-0.057-0.266c0-0.486,0.262-0.728,0.784-0.728
			C35.991,27.941,36.213,28.11,36.329,28.438z M37.324,20.308c0.572,0.077,1.194,0.286,1.856,0.631
			c0.827,0.432,1.244,0.88,1.244,1.34c0,0.499-0.261,0.747-0.786,0.747c-0.279,0-0.487-0.153-0.631-0.42
			c-0.047-0.09-0.264-0.236-0.631-0.422c-0.439-0.22-0.863-0.354-1.243-0.402c-0.43-0.052-0.65-0.293-0.65-0.727
			C36.482,20.479,36.764,20.231,37.324,20.308z M39.592,31.527c-0.212,0.136-0.438,0.418-0.68,0.853
			c-0.242,0.432-0.511,0.748-0.804,0.938c-0.138,0.089-0.279,0.133-0.42,0.133c-0.485,0-0.727-0.26-0.727-0.783
			c0-0.256,0.119-0.473,0.345-0.613c0.084-0.051,0.262-0.296,0.516-0.736c0.254-0.44,0.568-0.784,0.938-1.022
			c0.137-0.09,0.28-0.134,0.421-0.134c0.484,0,0.727,0.261,0.727,0.784C39.907,31.2,39.802,31.395,39.592,31.527z M41.342,24.594
			c0.039,0.97-0.092,1.946-0.421,2.887c-0.116,0.332-0.344,0.498-0.689,0.498c-0.51,0-0.765-0.235-0.765-0.707
			c0-0.089,0.013-0.181,0.039-0.268c0.239-0.75,0.396-1.556,0.364-2.354c-0.021-0.519,0.224-0.783,0.746-0.783
			C41.088,23.866,41.324,24.112,41.342,24.594z M40.596,31.709c0.496,0.05,0.803,0.077,0.918,0.077c0.499,0,0.746,0.249,0.746,0.746
			c0,0.495-0.25,0.746-0.746,0.746c-0.153,0-0.511-0.042-1.051-0.096c-0.44-0.046-0.669-0.281-0.669-0.727
			C39.792,31.909,40.062,31.657,40.596,31.709z M43.256,31.29c-0.115-0.09-0.177-0.283-0.191-0.573
			c-0.013-0.281,0.018-0.479,0.095-0.574c0.345-0.43,0.685-0.885,0.841-0.956c0.333-0.155,1.162,0.433,1.129,0.784
			c-0.039,0.427-0.664,1.005-1.032,1.167C43.657,31.329,43.371,31.379,43.256,31.29z"/>
		<path stroke="#000000" stroke-width="0.5" stroke-miterlimit="10" d="M44.098,30.657c-0.079,0.096-0.192,0.155-0.344,0.155
			c-0.218,0-0.419-0.093-0.604-0.277c-0.185-0.186-0.281-0.464-0.2-0.624c0.171-0.34,0.726-0.857,1.186-1.396
			c0.086-0.101,0.186-0.152,0.286-0.152c0.409,0,0.63,0.284,0.689,0.821c0.01,0.101-0.038,0.361-0.191,0.575
			C44.832,29.882,44.48,30.189,44.098,30.657z M46.317,26.352c0.077-0.547,0.685-1.265,1.818-2.104
			c0.137-0.103,0.293-0.153,0.458-0.153c0.499,0,0.747,0.256,0.747,0.766c0,0.229-0.104,0.441-0.306,0.593
			c-0.346,0.258-1.039,0.69-1.244,1.11c-0.131,0.268-0.307,0.631-0.727,0.631C46.49,27.195,46.24,26.914,46.317,26.352z
			 M52.421,36.742c-0.088,0.237-0.329,0.673-0.573,1.242c-0.13,0.303-0.344,0.461-0.651,0.461c-0.522,0-0.784-0.237-0.784-0.707
			c0-0.103,0.024-0.218,0.077-0.328c0.104-0.214,0.294-0.607,0.517-1.166c0.129-0.326,0.356-0.499,0.688-0.499
			c0.511,0,0.765,0.238,0.765,0.709C52.459,36.544,52.453,36.654,52.421,36.742z M50.718,22.508
			c0.652-0.909,1.652-1.377,3.004-1.377c0.484,0,0.728,0.249,0.728,0.746c0,0.497-0.242,0.747-0.728,0.747
			c-0.842,0-1.445,0.249-1.799,0.746c-0.154,0.215-0.344,0.324-0.574,0.324c-0.522,0-0.784-0.249-0.784-0.745
			C50.565,22.794,50.618,22.647,50.718,22.508z M54.183,32.952c-0.205,0.227-0.354,0.53-0.449,0.9
			c-0.097,0.369-0.33,0.555-0.699,0.555c-0.511,0-0.766-0.236-0.766-0.708c0-0.077,0.004-0.147,0.018-0.211
			c0.137-0.601,0.44-1.122,0.804-1.53c0.154-0.172,0.333-0.268,0.536-0.268c0.51,0,0.766,0.255,0.766,0.767
			C54.392,32.635,54.32,32.801,54.183,32.952z M56.23,28.115c-0.167,0.501-0.433,1.636-1.053,2.523
			c-0.112,0.161-0.338,0.25-0.556,0.25c-0.509,0-0.765-0.25-0.765-0.745c0-0.179,0.07-0.348,0.21-0.508
			c0.139-0.159,0.287-0.494,0.44-1.004c0.191-0.638,0.317-1.025,0.382-1.167c0.127-0.28,0.345-0.421,0.65-0.421
			c0.512,0,0.766,0.243,0.766,0.728C56.306,27.884,56.264,28.006,56.23,28.115z M56.611,22.565c0.179,0.522,0.268,1.339,0.268,2.449
			c0,0.498-0.242,0.746-0.727,0.746c-0.497,0-0.746-0.249-0.746-0.746c0-0.931-0.061-1.589-0.191-1.951
			c-0.036-0.101-0.057-0.196-0.057-0.288c0-0.471,0.261-0.707,0.784-0.707C56.273,22.068,56.498,22.234,56.611,22.565z
			 M56.937,27.407c0.269-0.294,0.699-0.755,1.281-1.379c0.154-0.165,0.333-0.249,0.536-0.249c0.509,0,0.765,0.254,0.765,0.766
			c0,0.178-0.069,0.347-0.21,0.498c-0.238,0.256-0.668,0.739-1.281,1.377c-0.16,0.166-0.345,0.251-0.536,0.251
			c-0.51,0-0.765-0.258-0.765-0.768C56.727,27.724,56.797,27.559,56.937,27.407z M60.707,23.732
			c0.443-0.294,1.085-0.729,1.914-1.265c0.137-0.088,0.288-0.132,0.439-0.132c0.485,0,0.729,0.256,0.729,0.765
			c0,0.255-0.113,0.472-0.327,0.612c-0.414,0.271-1.075,0.696-1.913,1.244c-0.138,0.088-0.287,0.134-0.44,0.134
			c-0.498,0-0.747-0.255-0.747-0.767C60.361,24.081,60.477,23.885,60.707,23.732z M65.355,35.745
			c0.242,0.728,0.603,1.093,1.081,1.093c0.479,0,0.719,0.248,0.719,0.747c0,0.496-0.25,0.744-0.748,0.744
			c-1.174,0-2.036-0.728-2.468-2.123c-0.027-0.088-0.039-0.172-0.039-0.25c0-0.485,0.255-0.727,0.766-0.727
			C65.012,35.229,65.24,35.403,65.355,35.745z M66.37,31.48c-0.434,0.409-0.705,0.869-0.746,1.378
			c-0.036,0.456-0.281,0.688-0.727,0.688c-0.549,0-0.807-0.272-0.765-0.805c0.035-0.416,0.233-0.932,0.574-1.53
			c0.397-0.696,0.777-1.052,1.148-1.052c0.511,0,0.767,0.256,0.767,0.767C66.619,31.129,66.535,31.324,66.37,31.48z M65.319,21.303
			c0.297-0.458,0.733-0.688,1.282-0.688c0.573,0,1.034,0.144,1.377,0.401c0.137,0.103,0.449,0.434,0.918,0.995
			c0.128,0.153,0.191,0.318,0.191,0.498c0,0.499-0.255,0.746-0.766,0.746c-0.217,0-0.407-0.097-0.566-0.288
			c-0.159-0.191-0.312-0.419-0.468-0.593c-0.147-0.164-0.589-0.323-0.727-0.25c-0.128,0.069-0.352,0.345-0.593,0.345
			c-0.522,0-0.784-0.249-0.784-0.747C65.184,21.583,65.229,21.44,65.319,21.303z M67.996,27.75c-0.152,0.217-0.35,0.325-0.593,0.325
			c-0.511,0-0.766-0.248-0.766-0.745c0-0.153,0.043-0.306,0.134-0.441c0.215-0.314,0.448-0.81,0.612-1.454
			c0.095-0.36,0.32-0.554,0.689-0.554c0.511,0,0.766,0.243,0.766,0.728C68.839,26.232,68.558,26.948,67.996,27.75z M68.656,36.092
			c0.225-0.167,0.583-0.436,1.062-0.746c0.122-0.076,0.255-0.116,0.382-0.116c0.498,0,0.746,0.257,0.746,0.767
			c0,0.268-0.147,0.467-0.363,0.611c-0.225,0.151-0.459,0.361-0.688,0.534c-0.302,0.23-0.55,0.345-0.727,0.345
			c-0.498,0-0.747-0.26-0.747-0.784C68.322,36.461,68.434,36.258,68.656,36.092z M71.403,33.892c0.149-0.387,0.48-0.876,1.015-1.339
			c0.147-0.128,0.318-0.19,0.497-0.19c0.51,0,0.766,0.256,0.766,0.766c0,0.204-0.091,0.383-0.269,0.533
			c-0.178,0.154-0.445,0.414-0.612,0.729c-0.146,0.276-0.357,0.497-0.688,0.497c-0.511,0-0.766-0.242-0.766-0.728
			C71.346,34.07,71.369,33.978,71.403,33.892z M74.407,31.29c-0.115-0.103-0.179-0.293-0.192-0.573
			c-0.013-0.281,0.018-0.478,0.096-0.573c0.345-0.431,0.686-0.886,0.842-0.957c0.333-0.154,1.162,0.433,1.13,0.784
			c-0.04,0.427-0.666,1.001-1.034,1.167C74.803,31.338,74.521,31.392,74.407,31.29z"/>
		<path stroke="#000000" stroke-width="0.5" stroke-miterlimit="10" d="M75.745,30.657c-0.077,0.096-0.19,0.155-0.343,0.155
			c-0.217,0-0.418-0.093-0.603-0.277c-0.186-0.186-0.281-0.464-0.201-0.624c0.171-0.34,0.726-0.857,1.186-1.396
			c0.087-0.101,0.185-0.152,0.288-0.152c0.408,0,0.63,0.284,0.688,0.821c0.01,0.101-0.038,0.361-0.192,0.575
			C76.48,29.882,76.129,30.189,75.745,30.657z M77.965,26.352c0.076-0.547,0.684-1.265,1.818-2.104
			c0.137-0.103,0.293-0.153,0.458-0.153c0.498,0,0.748,0.256,0.748,0.766c0,0.229-0.104,0.441-0.306,0.593
			c-0.346,0.258-1.039,0.69-1.245,1.11c-0.131,0.268-0.305,0.631-0.727,0.631C78.138,27.195,77.888,26.914,77.965,26.352z
			 M84.069,36.742c-0.089,0.237-0.329,0.673-0.574,1.242c-0.129,0.303-0.344,0.461-0.65,0.461c-0.524,0-0.784-0.237-0.784-0.707
			c0-0.103,0.023-0.218,0.076-0.328c0.103-0.214,0.295-0.607,0.516-1.166c0.129-0.326,0.356-0.499,0.688-0.499
			c0.51,0,0.766,0.238,0.766,0.709C84.108,36.544,84.103,36.654,84.069,36.742z M82.367,22.508c0.652-0.909,1.652-1.377,3.005-1.377
			c0.484,0,0.727,0.249,0.727,0.746c0,0.497-0.242,0.747-0.727,0.747c-0.843,0-1.444,0.249-1.798,0.746
			c-0.154,0.215-0.344,0.324-0.574,0.324c-0.523,0-0.784-0.249-0.784-0.745C82.213,22.794,82.265,22.647,82.367,22.508z
			 M85.83,32.952c-0.206,0.227-0.354,0.53-0.45,0.9c-0.096,0.369-0.33,0.555-0.699,0.555c-0.511,0-0.766-0.236-0.766-0.708
			c0-0.077,0.005-0.147,0.019-0.211c0.138-0.601,0.439-1.122,0.804-1.53c0.154-0.171,0.333-0.265,0.536-0.265
			c0.51,0,0.766,0.254,0.766,0.764C86.04,32.635,85.968,32.801,85.83,32.952z M87.878,28.115c-0.167,0.501-0.433,1.636-1.054,2.523
			c-0.112,0.161-0.337,0.25-0.555,0.25c-0.51,0-0.765-0.25-0.765-0.745c0-0.179,0.069-0.348,0.209-0.508
			c0.141-0.159,0.288-0.494,0.44-1.004c0.192-0.638,0.318-1.025,0.383-1.167c0.128-0.28,0.343-0.421,0.649-0.421
			c0.512,0,0.767,0.243,0.767,0.728C87.954,27.884,87.912,28.006,87.878,28.115z M88.259,22.565
			c0.178,0.522,0.268,1.339,0.268,2.449c0,0.498-0.241,0.746-0.727,0.746c-0.498,0-0.745-0.249-0.745-0.746
			c0-0.931-0.062-1.589-0.192-1.951c-0.037-0.101-0.057-0.196-0.057-0.288c0-0.471,0.262-0.707,0.784-0.707
			C87.921,22.068,88.145,22.234,88.259,22.565z M88.585,27.407c0.268-0.294,0.7-0.755,1.281-1.379
			c0.154-0.165,0.332-0.249,0.536-0.249c0.51,0,0.765,0.254,0.765,0.766c0,0.178-0.069,0.347-0.21,0.498
			c-0.237,0.256-0.668,0.739-1.282,1.377c-0.159,0.166-0.344,0.251-0.535,0.251c-0.511,0-0.766-0.258-0.766-0.767
			C88.375,27.724,88.445,27.559,88.585,27.407z M92.354,23.732c0.444-0.294,1.086-0.729,1.913-1.265
			c0.138-0.088,0.287-0.132,0.441-0.132c0.483,0,0.727,0.256,0.727,0.765c0,0.255-0.111,0.472-0.325,0.612
			c-0.414,0.271-1.076,0.696-1.914,1.244c-0.138,0.088-0.286,0.134-0.439,0.134c-0.498,0-0.747-0.255-0.747-0.767
			C92.01,24.081,92.125,23.885,92.354,23.732z M97.004,35.745c0.242,0.728,0.603,1.093,1.081,1.093c0.478,0,0.718,0.248,0.718,0.745
			s-0.25,0.746-0.747,0.746c-1.174,0-2.036-0.729-2.468-2.124c-0.026-0.088-0.038-0.171-0.038-0.25c0-0.485,0.255-0.727,0.766-0.727
			C96.66,35.229,96.889,35.403,97.004,35.745z M98.018,31.48c-0.434,0.409-0.706,0.869-0.747,1.378
			c-0.036,0.456-0.28,0.688-0.727,0.688c-0.549,0-0.808-0.272-0.766-0.805c0.034-0.416,0.234-0.932,0.574-1.53
			c0.396-0.696,0.777-1.052,1.148-1.052c0.51,0,0.766,0.256,0.766,0.767C98.267,31.129,98.183,31.324,98.018,31.48z M96.966,21.303
			c0.298-0.458,0.733-0.688,1.281-0.688c0.574,0,1.034,0.144,1.377,0.401c0.137,0.103,0.449,0.434,0.919,0.995
			c0.127,0.153,0.191,0.318,0.191,0.498c0,0.499-0.256,0.746-0.766,0.746c-0.217,0-0.406-0.097-0.563-0.288
			c-0.159-0.191-0.314-0.419-0.469-0.593c-0.148-0.164-0.588-0.323-0.727-0.25c-0.128,0.069-0.35,0.345-0.591,0.345
			c-0.523,0-0.786-0.249-0.786-0.747C96.832,21.583,96.876,21.44,96.966,21.303z M99.644,27.75c-0.151,0.217-0.35,0.325-0.592,0.325
			c-0.511,0-0.766-0.248-0.766-0.745c0-0.153,0.043-0.306,0.133-0.441c0.215-0.314,0.448-0.81,0.612-1.454
			c0.094-0.36,0.318-0.554,0.688-0.554c0.511,0,0.766,0.243,0.766,0.728C100.487,26.232,100.205,26.948,99.644,27.75z
			 M100.304,36.092c0.223-0.167,0.584-0.436,1.063-0.746c0.121-0.076,0.255-0.116,0.383-0.116c0.498,0,0.745,0.257,0.745,0.767
			c0,0.268-0.147,0.467-0.362,0.611c-0.226,0.151-0.46,0.361-0.689,0.534c-0.302,0.23-0.549,0.345-0.727,0.345
			c-0.497,0-0.747-0.26-0.747-0.784C99.97,36.461,100.081,36.258,100.304,36.092z M103.05,33.892
			c0.149-0.387,0.48-0.876,1.014-1.339c0.146-0.128,0.318-0.19,0.497-0.19c0.511,0,0.766,0.256,0.766,0.766
			c0,0.204-0.089,0.383-0.27,0.533c-0.178,0.154-0.446,0.414-0.612,0.729c-0.146,0.276-0.357,0.497-0.688,0.497
			c-0.511,0-0.766-0.242-0.766-0.728C102.992,34.07,103.017,33.978,103.05,33.892z M106.054,31.29
			c-0.115-0.103-0.179-0.294-0.191-0.573c-0.012-0.281,0.018-0.478,0.097-0.573c0.345-0.431,0.686-0.886,0.843-0.957
			c0.332-0.154,1.162,0.433,1.129,0.784c-0.04,0.427-0.666,1.001-1.033,1.167C106.451,31.338,106.168,31.392,106.054,31.29z"/>
		<path stroke="#000000" stroke-width="0.5" stroke-miterlimit="10" d="M108.35,28.573c-0.231,0.292-0.382,0.591-0.403,0.88
			c-0.032,0.451-0.268,0.688-0.727,0.688c-0.536,0-0.781-0.27-0.746-0.805c0.041-0.597,0.276-1.167,0.707-1.703
			c0.153-0.189,0.338-0.286,0.556-0.286c0.523,0,0.785,0.247,0.785,0.745C108.523,28.26,108.466,28.426,108.35,28.573z
			 M108.159,32.915c0.063,0.14,0.23,0.343,0.23,0.534c0,0.473-0.27,0.708-0.805,0.708c-0.586,0-0.918-0.472-0.937-1.358
			c-0.004-0.198,0.002-0.525-0.02-0.938c-0.026-0.512,0.21-0.784,0.747-0.784c0.459,0,0.75,0.277,0.745,0.708
			C108.118,32.021,108.02,32.604,108.159,32.915z M109,36.53c0.276,0.522,0.571,0.823,0.862,0.881
			c0.4,0.083,0.612,0.313,0.612,0.707c0,0.612-0.304,0.865-0.899,0.746c-0.75-0.148-1.359-0.774-1.875-1.646
			c-0.066-0.11-0.115-0.234-0.115-0.362c0-0.484,0.26-0.728,0.784-0.728C108.649,36.131,108.859,36.266,109,36.53z M108.503,29.281
			c0.166,0,0.393-0.044,0.678-0.125c0.288-0.083,0.501-0.125,0.643-0.125c0.484,0,0.727,0.255,0.727,0.766
			c0,0.384-0.193,0.617-0.574,0.708c-0.739,0.175-1.232,0.268-1.474,0.268c-0.498,0-0.747-0.249-0.747-0.746
			C107.757,29.53,108.006,29.281,108.503,29.281z M110.953,24.86c-0.025,0.021-0.375,0.324-1.014,0.898
			c-0.153,0.139-0.319,0.212-0.498,0.212c-0.498,0-0.746-0.261-0.746-0.784c0-0.205,0.084-0.383,0.249-0.536
			c0.243-0.225,0.623-0.595,1.129-0.994c0.13-0.104,0.287-0.153,0.44-0.153c0.498,0,0.747,0.26,0.747,0.785
			C111.258,24.516,111.131,24.704,110.953,24.86z M112.37,28.094c0.315-0.202,0.912-0.489,1.549-0.919
			c0.139-0.093,0.288-0.152,0.439-0.152c0.497,0,0.746,0.261,0.746,0.784c0,0.244-0.119,0.461-0.345,0.593
			c-0.314,0.187-0.885,0.465-1.492,0.882c-0.152,0.102-0.305,0.172-0.459,0.172c-0.498,0-0.746-0.262-0.746-0.784
			C112.062,28.438,112.169,28.221,112.37,28.094z M114.5,21.779c-0.389,0.089-0.718,0.256-0.965,0.499
			c-0.154,0.148-0.326,0.23-0.516,0.23c-0.511,0-0.766-0.255-0.766-0.766c0-0.191,0.076-0.365,0.229-0.516
			c0.619-0.612,1.256-0.919,1.894-0.919c0.472,0,0.708,0.254,0.708,0.766C115.085,21.456,114.891,21.692,114.5,21.779z
			 M113.191,37.449c0.892-0.37,1.396-0.611,1.492-0.728c0.141-0.168,0.318-0.268,0.535-0.268c0.522,0,0.786,0.236,0.786,0.708
			c0,0.319-0.215,0.609-0.642,0.87c-0.429,0.26-0.967,0.546-1.598,0.795c-0.098,0.04-0.203,0.057-0.306,0.057
			c-0.484,0-0.727-0.26-0.727-0.785C112.732,37.793,112.885,37.578,113.191,37.449z M115.984,25.8
			c0.268-0.448,0.536-0.829,0.804-1.091c0.154-0.153,0.344-0.229,0.535-0.229c0.511,0,0.765,0.256,0.765,0.766
			c0,0.189-0.089,0.363-0.249,0.516c-0.19,0.184-0.392,0.46-0.593,0.805c-0.14,0.24-0.346,0.363-0.613,0.363
			c-0.511,0-0.765-0.243-0.765-0.728C115.869,26.06,115.907,25.925,115.984,25.8z M117.323,22.106c0-0.395-0.068-0.689-0.191-0.879
			c-0.09-0.138-0.135-0.28-0.135-0.421c0-0.498,0.262-0.747,0.785-0.747c0.242,0,0.44,0.117,0.593,0.344
			c0.292,0.434,0.441,1.001,0.441,1.703c0,0.499-0.249,0.746-0.747,0.746C117.572,22.852,117.323,22.603,117.323,22.106z
			 M118.355,33.508c0.138-0.088,0.281-0.134,0.421-0.134c0.497,0,0.746,0.26,0.746,0.784c0,0.243-0.118,0.442-0.354,0.603
			c-0.236,0.158-0.512,0.451-0.814,0.871c-0.153,0.215-0.35,0.325-0.592,0.325c-0.511,0-0.766-0.248-0.766-0.745
			C116.997,34.689,117.455,34.101,118.355,33.508z M119.753,31.576c0.164-0.102,0.278-0.186,0.325-0.249
			c0.156-0.213,0.35-0.343,0.592-0.343c0.523,0,0.785,0.248,0.785,0.745c0,0.151-0.063,0.293-0.154,0.42
			c-0.17,0.234-0.427,0.491-0.784,0.708c-0.127,0.076-0.255,0.115-0.382,0.115c-0.499,0-0.747-0.262-0.747-0.785
			C119.389,31.934,119.51,31.728,119.753,31.576z M121.187,30.142c0.337-0.432,0.667-0.886,0.822-0.957
			c0.333-0.153,1.159,0.431,1.129,0.784c-0.05,0.564-0.756,1.188-1.032,1.167c-0.225-0.017-0.452-0.188-0.669-0.499
			C121.238,30.359,121.148,30.189,121.187,30.142z"/>
		<path stroke="#000000" stroke-width="0.5" stroke-miterlimit="10" d="M123.367,33.165c0,0.61,0.101,1.114,0.308,1.493
			c0.062,0.113,0.096,0.234,0.096,0.361c0,0.486-0.261,0.728-0.785,0.728c-0.281,0-0.491-0.136-0.632-0.401
			c-0.315-0.599-0.478-1.325-0.478-2.18c0-0.499,0.249-0.746,0.745-0.746C123.12,32.419,123.367,32.668,123.367,33.165z
			 M123.884,28.151c-0.14,0.19-0.21,0.545-0.21,1.062c0,0.516-0.249,0.775-0.746,0.775c-0.498,0-0.747-0.251-0.747-0.748
			c0-0.853,0.171-1.512,0.498-1.971c0.153-0.215,0.351-0.325,0.593-0.325c0.51,0,0.765,0.256,0.765,0.766
			C124.037,27.864,123.985,28.012,123.884,28.151z M125.108,37.049c0.076,0.072,0.141,0.13,0.191,0.154
			c0.302,0.124,0.498,0.342,0.498,0.686c0,0.498-0.244,0.746-0.727,0.746c-0.306,0-0.637-0.183-0.994-0.517
			c-0.136-0.126-0.264-0.216-0.364-0.268c-0.266-0.139-0.4-0.35-0.4-0.632c0-0.523,0.248-0.784,0.747-0.784
			C124.324,36.436,124.687,36.639,125.108,37.049z M126.543,24.134c-0.024,0.01-0.332,0.381-0.919,1.071
			c-0.162,0.191-0.35,0.289-0.554,0.289c-0.523,0-0.785-0.256-0.785-0.767c0-0.166,0.072-0.327,0.191-0.479
			c0.218-0.279,0.44-0.587,0.669-0.88c0.229-0.294,0.534-0.5,0.898-0.634c0.1-0.034,0.198-0.056,0.287-0.056
			c0.485,0,0.726,0.26,0.726,0.784C127.059,23.797,126.854,24.004,126.543,24.134z M127.691,21.626
			c0.471-0.405,0.924-0.612,1.357-0.612c0.497,0,0.747,0.249,0.747,0.747c0,0.499-0.248,0.747-0.746,0.747
			c-0.064,0-0.182,0.071-0.354,0.219c-0.171,0.147-0.341,0.222-0.507,0.222c-0.51,0-0.765-0.257-0.765-0.766
			C127.423,21.965,127.513,21.779,127.691,21.626z M128.992,36.857c0.162-0.033,0.408-0.184,0.727-0.432
			c0.318-0.251,0.586-0.373,0.804-0.373c0.484,0,0.727,0.256,0.727,0.767c0,0.307-0.201,0.516-0.459,0.669
			c-0.098,0.059-0.249,0.186-0.44,0.328c-0.471,0.343-0.88,0.516-1.225,0.516c-0.498,0-0.746-0.25-0.746-0.747
			C128.38,37.175,128.593,36.94,128.992,36.857z M132.574,22.814v0.037c0,0.011-0.337-0.169-0.549-0.315
			c-0.209-0.146-0.345-0.334-0.345-0.565c0-0.523,0.235-0.785,0.731-0.785c0.152,0,0.293,0.057,0.431,0.154
			c0.207,0.141,0.445,0.271,0.628,0.402c0.201,0.143,0.361,0.394,0.419,0.648c0.017,0.074,0.018,0.149,0.018,0.212
			c0,0.486-0.196,0.728-0.706,0.728C132.845,23.328,132.574,22.814,132.574,22.814z M132.492,34.293
			c0.334-0.434,0.841-0.845,1.435-1.243c0.125-0.087,0.268-0.135,0.422-0.135c0.497,0,0.745,0.255,0.745,0.766
			c0,0.255-0.116,0.463-0.344,0.612c-0.468,0.306-0.835,0.618-1.091,0.937c-0.153,0.19-0.345,0.288-0.574,0.288
			c-0.511,0-0.766-0.248-0.766-0.746C132.319,34.605,132.375,34.441,132.492,34.293z M135.074,25.8c0,0.496-0.248,0.744-0.746,0.744
			c-0.498,0-0.747-0.249-0.747-0.744c0-0.244,0.116-0.663,0.326-1.244c0.117-0.327,0.337-0.498,0.669-0.498
			c0.522,0,0.784,0.243,0.784,0.728c0,0.114-0.048,0.279-0.143,0.496C135.123,25.498,135.074,25.671,135.074,25.8z M136.911,22.258
			c-0.114,0.088-0.228,0.207-0.308,0.344c-0.145,0.252-0.356,0.401-0.65,0.401c-0.498,0-0.747-0.235-0.747-0.707
			c0-0.382,0.267-0.783,0.785-1.205c0.14-0.114,0.293-0.171,0.46-0.171c0.498,0,0.746,0.255,0.746,0.766
			C137.198,21.915,137.102,22.108,136.911,22.258z M136.452,30.142c0.013-0.166,0.125-0.337,0.324-0.518
			c0.167-0.149,0.361-0.387,0.499-0.439c0.37-0.145,1.159,0.431,1.127,0.784c-0.05,0.564-0.764,1.179-1.032,1.167
			c-0.219-0.011-0.498,0.02-0.687-0.019C136.499,31.08,136.404,30.713,136.452,30.142z"/>
		<path stroke="#000000" stroke-width="0.5" stroke-miterlimit="10" d="M137.811,30.657c-0.078,0.096-0.191,0.155-0.344,0.155
			c-0.218,0-0.418-0.095-0.603-0.277c-0.186-0.186-0.281-0.464-0.202-0.624c0.172-0.34,0.727-0.857,1.187-1.396
			c0.086-0.101,0.186-0.152,0.288-0.152c0.408,0,0.628,0.284,0.687,0.821c0.011,0.101-0.039,0.361-0.191,0.575
			C138.542,29.882,138.192,30.189,137.811,30.657z M140.183,31.997c-0.06,0.09-0.158,0.628-0.25,1.588
			c-0.041,0.443-0.28,0.669-0.727,0.669c-0.549,0-0.78-0.289-0.747-0.823c0.024-0.368,0.036-0.765,0.068-1.147
			c0.032-0.382,0.17-0.745,0.392-1.089c0.154-0.238,0.357-0.364,0.612-0.364c0.522,0,0.784,0.251,0.784,0.746
			C140.314,31.716,140.272,31.862,140.183,31.997z M139.053,27.291c0.203-0.312,0.598-0.818,1.032-1.491
			c0.155-0.239,0.356-0.365,0.612-0.365c0.523,0,0.785,0.241,0.785,0.728c0,0.14-0.037,0.288-0.115,0.401
			c-0.208,0.301-0.608,0.786-0.995,1.415c-0.157,0.256-0.371,0.402-0.65,0.402c-0.51,0-0.765-0.242-0.765-0.727
			C138.957,27.526,138.986,27.394,139.053,27.291z M140.334,19.632c-0.498,0-0.746-0.189-0.746-0.687s0.249-0.715,0.746-0.715
			c1.083,0,1.708,0.049,1.855,0.091c0.447,0.128,0.708,0.301,0.708,0.543c0,0.205-0.144,0.409-0.431,0.606
			c-0.288,0.198-0.539,0.226-0.736,0.22c-0.062-0.002-0.191-0.059-0.383-0.059C140.942,19.632,140.74,19.632,140.334,19.632z
			 M141.061,36.588c0.283,0.487,0.626,0.818,1.033,0.959c0.343,0.115,0.517,0.343,0.517,0.688c0,0.508-0.242,0.765-0.727,0.765
			c-0.076,0-0.17-0.011-0.267-0.038c-0.745-0.218-1.379-0.822-1.856-1.646c-0.074-0.125-0.115-0.254-0.115-0.38
			c0-0.485,0.262-0.729,0.785-0.729C140.698,36.208,140.914,36.335,141.061,36.588z M143.855,22.106
			c-0.261,0.449-0.481,1.034-0.727,1.53c-0.351,0.707-0.707,1.071-1.014,1.071c-0.511,0-0.766-0.248-0.766-0.745
			c0-0.114,0.025-0.229,0.076-0.345c0.229-0.509,0.619-1.291,1.186-2.296c0.136-0.24,0.337-0.364,0.593-0.364
			c0.523,0,0.786,0.25,0.786,0.747C143.988,21.845,143.927,21.983,143.855,22.106z M146.073,17.418
			c-0.228,0.365-0.541,1.039-0.994,1.799c-0.144,0.241-0.357,0.363-0.613,0.363c-0.522,0-0.785-0.249-0.785-0.746
			c0-0.141,0.06-0.285,0.135-0.421c0.216-0.393,0.544-1.102,1.051-1.875c0.141-0.214,0.344-0.325,0.574-0.325
			c0.522,0,0.784,0.249,0.784,0.747C146.225,17.125,146.159,17.281,146.073,17.418z M145.25,36.896
			c0.355-0.066,0.825-0.293,1.377-0.595c0.121-0.064,0.256-0.096,0.383-0.096c0.485,0,0.727,0.257,0.727,0.766
			c0,0.281-0.132,0.49-0.383,0.632c-0.698,0.395-1.322,0.652-1.837,0.746c-0.582,0.104-0.88-0.135-0.88-0.746
			C144.638,37.207,144.844,36.969,145.25,36.896z M146.609,18.184c0.102,0,0.229-0.007,0.382-0.019
			c0.154-0.012,0.288-0.02,0.402-0.02c0.484,0,0.726,0.249,0.726,0.747c0,0.497-0.242,0.746-0.726,0.746
			c-0.114,0-0.249,0.007-0.402,0.02c-0.154,0.013-0.281,0.019-0.382,0.019c-0.498,0-0.746-0.249-0.746-0.746
			C145.863,18.433,146.111,18.184,146.609,18.184z M148.483,12.674c-0.139,0.106-0.328,0.386-0.564,0.813
			c-0.236,0.428-0.446,0.737-0.621,0.871c-0.138,0.105-0.308,0.154-0.459,0.154c-0.511,0-0.764-0.255-0.764-0.766
			c0-0.166,0.167-0.369,0.305-0.574c0.202-0.301,0.592-1.144,1.225-1.704c0.12-0.105,0.306-0.153,0.459-0.153
			c0.498,0,0.747,0.261,0.747,0.784C148.809,12.328,148.688,12.519,148.483,12.674z M150.587,8.235
			c-0.236,0.301-0.464,0.696-0.707,1.052c-0.33,0.485-0.618,0.727-0.861,0.727c-0.522,0-0.786-0.242-0.786-0.727
			c0-0.115,0.025-0.231,0.078-0.344c0.26-0.572,0.663-1.152,1.186-1.722c0.152-0.166,0.332-0.25,0.535-0.25
			c0.511,0,0.765,0.256,0.765,0.766C150.797,7.916,150.705,8.083,150.587,8.235z M150.778,18.221
			c0.425,0.064,0.689,0.288,0.689,0.747c0,0.497-0.249,0.746-0.747,0.746c-0.051,0-0.144-0.026-0.249-0.039
			c-0.067-0.008-0.171,0.006-0.287,0.019c-0.115,0.014-0.21,0.019-0.288,0.019c-0.497,0-0.745-0.249-0.745-0.746
			c0-0.497,0.248-0.747,0.745-0.747c0.077,0,0.171-0.006,0.288-0.019c0.115-0.012,0.21-0.019,0.287-0.019
			C150.562,18.184,150.67,18.205,150.778,18.221z M149.229,34.601c0.049-0.268,0.466-0.785,1.243-1.551
			c0.025-0.024,0.057-0.052,0.077-0.077c0.147-0.187,0.351-0.345,0.631-0.345c0.497,0,0.746,0.216,0.746,0.65
			c0,0.292-0.17,0.659-0.497,0.937c-0.155,0.131-0.589,0.375-0.727,0.633c-0.139,0.262-0.312,0.632-0.707,0.632
			C149.383,35.479,149.124,35.181,149.229,34.601z M152.998,31.29c-0.115-0.09-0.178-0.282-0.191-0.573
			c-0.013-0.281,0.018-0.478,0.097-0.573c0.344-0.431,0.685-0.886,0.842-0.957c0.332-0.154,1.161,0.433,1.129,0.784
			c-0.041,0.427-0.666,1.005-1.033,1.167C153.398,31.329,153.112,31.379,152.998,31.29z"/>
		<path stroke="#000000" stroke-width="0.5" stroke-miterlimit="10" d="M177.253,30.657c-0.078,0.096-0.191,0.155-0.345,0.155
			c-0.218,0-0.419-0.095-0.603-0.277c-0.186-0.186-0.282-0.464-0.203-0.624c0.174-0.34,0.729-0.857,1.188-1.396
			c0.085-0.101,0.186-0.152,0.287-0.152c0.409,0,0.631,0.284,0.688,0.821c0.012,0.101-0.037,0.361-0.189,0.575
			C177.987,29.882,177.636,30.189,177.253,30.657z M179.625,31.997c-0.059,0.09-0.158,0.628-0.251,1.588
			c-0.042,0.443-0.28,0.669-0.726,0.669c-0.551,0-0.779-0.289-0.746-0.823c0.023-0.368,0.035-0.765,0.066-1.147
			c0.031-0.382,0.17-0.745,0.393-1.089c0.154-0.238,0.357-0.364,0.611-0.364c0.523,0,0.784,0.251,0.784,0.746
			C179.758,31.716,179.713,31.862,179.625,31.997z M178.496,27.291c0.203-0.312,0.596-0.818,1.033-1.491
			c0.153-0.239,0.355-0.365,0.611-0.365c0.522,0,0.784,0.241,0.784,0.728c0,0.14-0.036,0.288-0.116,0.401
			c-0.208,0.301-0.607,0.786-0.996,1.415c-0.154,0.256-0.367,0.402-0.647,0.402c-0.512,0-0.767-0.242-0.767-0.727
			C178.402,27.526,178.429,27.394,178.496,27.291z M179.777,19.632c-0.498,0-0.744-0.189-0.744-0.687s0.248-0.715,0.744-0.715
			c1.083,0,1.708,0.049,1.855,0.091c0.448,0.128,0.707,0.301,0.707,0.543c0,0.205-0.143,0.409-0.43,0.606
			c-0.289,0.198-0.538,0.226-0.736,0.22c-0.061-0.002-0.189-0.059-0.383-0.059C180.384,19.632,180.183,19.632,179.777,19.632z
			 M180.505,36.588c0.283,0.487,0.625,0.818,1.032,0.959c0.341,0.115,0.516,0.343,0.516,0.688c0,0.508-0.241,0.765-0.727,0.765
			c-0.077,0-0.17-0.011-0.266-0.038c-0.745-0.218-1.381-0.822-1.857-1.646c-0.073-0.125-0.114-0.254-0.114-0.38
			c0-0.485,0.26-0.729,0.783-0.729C180.141,36.208,180.357,36.335,180.505,36.588z M183.298,22.106
			c-0.262,0.449-0.483,1.034-0.728,1.53c-0.352,0.707-0.706,1.071-1.014,1.071c-0.51,0-0.766-0.248-0.766-0.745
			c0-0.114,0.024-0.229,0.076-0.345c0.23-0.509,0.62-1.291,1.188-2.296c0.137-0.24,0.336-0.364,0.594-0.364
			c0.523,0,0.784,0.25,0.784,0.747C183.431,21.845,183.369,21.983,183.298,22.106z M185.517,17.418
			c-0.228,0.365-0.54,1.039-0.996,1.799c-0.143,0.241-0.357,0.363-0.611,0.363c-0.524,0-0.784-0.249-0.784-0.746
			c0-0.141,0.057-0.285,0.134-0.421c0.217-0.393,0.546-1.102,1.053-1.875c0.139-0.214,0.345-0.325,0.573-0.325
			c0.524,0,0.785,0.249,0.785,0.747C185.67,17.125,185.603,17.281,185.517,17.418z M184.694,36.896
			c0.355-0.066,0.824-0.293,1.379-0.595c0.12-0.064,0.253-0.096,0.38-0.096c0.486,0,0.729,0.257,0.729,0.766
			c0,0.281-0.136,0.49-0.384,0.632c-0.698,0.395-1.32,0.652-1.836,0.746c-0.582,0.104-0.881-0.135-0.881-0.746
			C184.081,37.207,184.288,36.969,184.694,36.896z M186.051,18.184c0.102,0,0.229-0.007,0.381-0.019
			c0.153-0.012,0.288-0.02,0.403-0.02c0.482,0,0.727,0.249,0.727,0.747c0,0.497-0.244,0.746-0.727,0.746
			c-0.115,0-0.25,0.007-0.403,0.02c-0.152,0.013-0.279,0.019-0.381,0.019c-0.499,0-0.746-0.249-0.746-0.746
			C185.305,18.433,185.554,18.184,186.051,18.184z M187.926,12.674c-0.139,0.106-0.328,0.386-0.563,0.813
			c-0.238,0.428-0.448,0.737-0.624,0.871c-0.136,0.105-0.306,0.154-0.458,0.154c-0.511,0-0.766-0.255-0.766-0.766
			c0-0.166,0.167-0.369,0.304-0.574c0.203-0.301,0.592-1.144,1.225-1.704c0.12-0.105,0.307-0.153,0.46-0.153
			c0.497,0,0.747,0.261,0.747,0.784C188.25,12.328,188.128,12.519,187.926,12.674z M190.031,8.235
			c-0.237,0.3-0.465,0.695-0.707,1.051c-0.331,0.484-0.619,0.728-0.862,0.728c-0.522,0-0.783-0.241-0.783-0.728
			c0-0.115,0.025-0.23,0.076-0.343c0.26-0.571,0.663-1.151,1.187-1.722c0.152-0.166,0.333-0.249,0.536-0.249
			c0.51,0,0.765,0.256,0.765,0.766C190.241,7.916,190.148,8.083,190.031,8.235z M190.222,18.221
			c0.426,0.064,0.688,0.288,0.688,0.747c0,0.497-0.248,0.746-0.745,0.746c-0.05,0-0.145-0.026-0.25-0.039
			c-0.067-0.008-0.173,0.006-0.287,0.019c-0.116,0.014-0.211,0.019-0.286,0.019c-0.5,0-0.747-0.249-0.747-0.746
			c0-0.497,0.249-0.747,0.747-0.747c0.075,0,0.17-0.006,0.286-0.019c0.114-0.012,0.212-0.019,0.287-0.019
			C190.005,18.184,190.116,18.205,190.222,18.221z M188.671,34.601c0.05-0.268,0.465-0.785,1.241-1.551
			c0.026-0.024,0.06-0.052,0.08-0.077c0.145-0.187,0.349-0.345,0.629-0.345c0.498,0,0.746,0.216,0.746,0.65
			c0,0.292-0.169,0.659-0.497,0.937c-0.154,0.131-0.589,0.375-0.728,0.633c-0.139,0.262-0.312,0.632-0.706,0.632
			C188.827,35.479,188.565,35.181,188.671,34.601z M192.441,31.29c-0.114-0.09-0.178-0.282-0.19-0.573
			c-0.014-0.281,0.018-0.478,0.094-0.573c0.344-0.431,0.686-0.886,0.841-0.957c0.334-0.154,1.164,0.433,1.131,0.784
			c-0.042,0.427-0.665,1.005-1.033,1.167C192.841,31.329,192.556,31.379,192.441,31.29z"/>
		<path stroke="#000000" stroke-width="0.5" stroke-miterlimit="10" d="M191.158,37.661c0.3-0.661,0.482-1.11,0.537-1.32
			c0.093-0.365,0.336-0.556,0.707-0.556c0.508,0,0.765,0.236,0.765,0.706c0,0.245-0.213,0.858-0.65,1.801
			c-0.138,0.291-0.356,0.438-0.649,0.438c-0.522,0-0.784-0.241-0.784-0.727C191.083,37.89,191.106,37.774,191.158,37.661z
			 M193.741,30.657c-0.078,0.096-0.188,0.155-0.344,0.155c-0.217,0-0.42-0.095-0.603-0.277c-0.186-0.186-0.28-0.464-0.199-0.624
			c0.163-0.328,0.711-0.845,1.185-1.396c0.087-0.101,0.186-0.152,0.288-0.152c0.407,0,0.63,0.284,0.688,0.821
			c0.01,0.101-0.038,0.361-0.19,0.575C194.474,29.882,194.125,30.189,193.741,30.657z M193.971,31.442
			c0.151-0.218,0.35-0.326,0.593-0.326c0.511,0,0.765,0.243,0.765,0.728c0,0.152-0.044,0.303-0.134,0.439
			c-0.535,0.811-0.886,1.43-0.977,1.836c-0.09,0.41-0.331,0.612-0.728,0.612c-0.509,0-0.764-0.242-0.764-0.727
			C192.727,33.483,193.141,32.624,193.971,31.442z M195.329,28.514c0.247-0.455,0.641-1.344,1.282-2.2
			c0.131-0.176,0.329-0.268,0.534-0.268c0.522,0,0.784,0.256,0.784,0.766c0,0.18-0.085,0.339-0.212,0.479
			c-0.181,0.197-0.374,0.583-0.593,1.09c-0.252,0.585-0.444,0.977-0.564,1.166c-0.122,0.191-0.296,0.288-0.525,0.288
			c-0.563,0-0.844-0.294-0.844-0.879C195.194,28.802,195.255,28.651,195.329,28.514z M197.491,24.058
			c0.234-0.488,0.806-1.375,1.108-2.392c0.102-0.339,0.314-0.574,0.709-0.574c0.511,0,0.767,0.236,0.767,0.707
			c0,0.306-0.174,0.78-0.499,1.417c-0.462,0.906-0.7,1.383-0.707,1.394c-0.15,0.229-0.344,0.48-0.65,0.48
			c-0.523,0-0.782-0.244-0.782-0.728C197.432,24.262,197.447,24.146,197.491,24.058z M198.215,27.043
			c0.252-0.257,0.687-0.684,1.111-1.264c0.155-0.214,0.351-0.345,0.593-0.345c0.523,0,0.785,0.241,0.785,0.728
			c0,0.14-0.047,0.282-0.137,0.422c-0.164,0.254-0.578,0.776-1.241,1.473c-0.157,0.165-0.351,0.249-0.556,0.249
			c-0.512,0-0.765-0.249-0.765-0.746C198.006,27.366,198.077,27.185,198.215,27.043z M200.074,18.719
			c0.277-0.433,0.557-1.046,0.859-1.759c0.129-0.302,0.363-0.459,0.669-0.459c0.523,0,0.784,0.242,0.784,0.726
			c0,0.104-0.032,0.207-0.077,0.307c-0.351,0.782-0.662,1.504-0.995,2.009c-0.15,0.229-0.355,0.344-0.609,0.344
			c-0.511,0-0.767-0.25-0.767-0.746C199.938,18.999,199.983,18.859,200.074,18.719z M201.183,21.111
			c0.331-0.325,0.976-0.996,1.797-1.416c0.087-0.043,0.197-0.058,0.288-0.058c0.484,0,0.727,0.256,0.727,0.766
			c0,0.332-0.418,0.559-0.497,0.669c-0.003,0.004-0.448,0.413-1.339,1.168c-0.151,0.126-0.312,0.191-0.479,0.191
			c-0.51,0-0.766-0.255-0.766-0.766C200.915,21.448,201.025,21.264,201.183,21.111z M202.158,23.482
			c0.955-0.721,1.757-1.217,2.258-1.511c0.111-0.065,0.236-0.115,0.363-0.115c0.483,0,0.727,0.261,0.727,0.785
			c0,0.28-0.138,0.491-0.401,0.631c-0.47,0.253-1.161,0.767-2.046,1.396c-0.147,0.103-0.308,0.152-0.461,0.152
			c-0.498,0-0.744-0.255-0.744-0.765C201.853,23.827,201.954,23.636,202.158,23.482z M202.541,13.534
			c0.219-0.449,0.729-1.215,1.224-2.2c0.143-0.286,0.361-0.44,0.667-0.44c0.512,0,0.767,0.242,0.767,0.727
			c0,0.102-0.021,0.223-0.076,0.326c-0.235,0.431-0.755,1.179-1.186,2.123c-0.135,0.298-0.351,0.478-0.67,0.478
			c-0.524,0-0.785-0.241-0.785-0.727C202.481,13.732,202.497,13.623,202.541,13.534z M206.29,15.811
			c0.139-0.28,0.358-0.42,0.65-0.42c0.51,0,0.766,0.249,0.766,0.747c0,0.115-0.023,0.234-0.077,0.344
			c-0.164,0.338-0.463,0.669-0.844,0.976c-0.432,0.352-0.706,0.631-0.823,0.803c-0.144,0.216-0.347,0.327-0.592,0.327
			c-0.522,0-0.783-0.25-0.783-0.747c0-0.269,0.243-0.614,0.726-1.033C205.875,16.321,206.199,15.989,206.29,15.811z M206.766,34.601
			c-0.077,0.239-0.115,0.375-0.115,0.399c0,0.294,0.124,0.613,0.346,0.957c0.091,0.139,0.136,0.281,0.136,0.42
			c0,0.499-0.26,0.746-0.785,0.746c-0.242,0-0.44-0.115-0.595-0.344c-0.394-0.598-0.594-1.192-0.594-1.779
			c0-0.891,0.339-1.339,1.015-1.339c0.433,0,0.65,0.204,0.65,0.611C206.824,34.375,206.805,34.486,206.766,34.601z M205.275,7.89
			c0.28-0.937,0.798-1.833,1.512-2.621c0.162-0.178,0.351-0.268,0.555-0.268c0.512,0,0.766,0.255,0.766,0.766
			c0,0.178-0.063,0.35-0.19,0.498c-0.564,0.649-0.989,1.356-1.226,2.086c-0.107,0.342-0.344,0.516-0.688,0.516
			c-0.51,0-0.768-0.241-0.768-0.727C205.236,8.063,205.249,7.979,205.275,7.89z M208.738,28.514
			c-0.163,0.191-0.376,0.737-0.594,1.607c-0.092,0.375-0.32,0.573-0.688,0.573c-0.523,0-0.783-0.242-0.783-0.728
			c0-0.062,0.017-0.136,0.04-0.211c0.101-0.36,0.189-0.767,0.305-1.156s0.314-0.741,0.592-1.063
			c0.154-0.176,0.338-0.268,0.556-0.268c0.513,0,0.764,0.25,0.764,0.746C208.928,28.195,208.866,28.364,208.738,28.514z
			 M208.183,20.995c1.242,0.563,1.971,1.385,1.971,2.546c0,0.229-0.022,0.476-0.077,0.727c-0.084,0.392-0.325,0.595-0.707,0.595
			c-0.511,0-0.766-0.243-0.766-0.728c0-0.062,0.01-0.158,0.027-0.287c0.02-0.129,0.028-0.224,0.028-0.287
			c0-0.511-0.357-0.902-1.052-1.188c-0.304-0.123-0.46-0.351-0.46-0.669c0-0.523,0.243-0.785,0.729-0.785
			C207.978,20.919,208.081,20.951,208.183,20.995z M208.032,13.611c0.33-0.458,0.728-0.945,1.147-1.454
			c0.153-0.186,0.337-0.288,0.553-0.288c0.511,0,0.766,0.25,0.766,0.747c0,0.178-0.07,0.339-0.189,0.478
			c-0.411,0.475-0.759,0.96-1.052,1.377c-0.153,0.217-0.352,0.326-0.594,0.326c-0.524,0-0.784-0.25-0.784-0.746
			C207.878,13.898,207.926,13.751,208.032,13.611z M209.198,37.086c0.394-0.318,0.631-0.504,0.707-0.556
			c0.252-0.165,0.547-0.263,0.859-0.305c0.567-0.078,0.862,0.158,0.862,0.746c0,0.42-0.227,0.675-0.651,0.728
			c-0.124,0.015-0.409,0.216-0.842,0.555c-0.147,0.116-0.312,0.172-0.479,0.172c-0.494,0-0.745-0.262-0.745-0.784
			C208.909,37.425,209.006,37.239,209.198,37.086z M210.307,2.343c0.292-0.072,0.573-0.115,0.841-0.115
			c0.766,0,1.396,0.239,1.895,0.717c0.497,0.479,0.746,1.087,0.746,1.827c0,0.383-0.072,0.772-0.21,1.167
			c-0.117,0.33-0.345,0.498-0.689,0.498c-0.512,0-0.765-0.242-0.765-0.727c0-0.089,0.026-0.233,0.086-0.431
			c0.057-0.198,0.086-0.36,0.086-0.489c0-0.713-0.374-1.07-1.127-1.07c-0.075,0-0.195,0.016-0.355,0.048
			c-0.158,0.032-0.276,0.048-0.354,0.048c-0.484,0-0.727-0.255-0.727-0.765C209.731,2.667,209.93,2.435,210.307,2.343z
			 M212.831,8.388c-0.106,0.395-0.451,1.142-0.633,2.009c-0.082,0.394-0.306,0.632-0.727,0.632c-0.587,0-0.885-0.369-0.745-0.862
			c0.111-0.398,0.452-1.138,0.63-1.99c0.084-0.404,0.308-0.651,0.728-0.651C212.658,7.527,212.959,7.902,212.831,8.388z
			 M212.851,34.083c0.169-0.203,0.521-0.477,0.727-0.785c0.149-0.223,0.36-0.402,0.668-0.402c0.498,0,0.747,0.23,0.747,0.688
			c0,0.321-0.197,0.668-0.593,1.034c-0.482,0.448-0.791,0.67-0.919,0.67c-0.524,0-0.785-0.25-0.785-0.746
			C212.696,34.39,212.745,34.208,212.851,34.083z M216.197,31.29c-0.115-0.09-0.178-0.282-0.19-0.573
			c-0.013-0.281,0.019-0.478,0.095-0.573c0.346-0.431,0.688-0.886,0.844-0.957c0.332-0.154,1.162,0.433,1.129,0.784
			c-0.043,0.427-0.664,1.005-1.034,1.167C216.598,31.329,216.311,31.378,216.197,31.29z"/>
		<path stroke="#000000" stroke-width="0.5" stroke-miterlimit="10" d="M218.436,28.573c-0.229,0.292-0.38,0.591-0.401,0.88
			c-0.031,0.451-0.269,0.688-0.728,0.688c-0.535,0-0.781-0.27-0.745-0.805c0.042-0.597,0.275-1.167,0.707-1.703
			c0.153-0.189,0.337-0.286,0.553-0.286c0.524,0,0.787,0.247,0.787,0.745C218.607,28.26,218.552,28.426,218.436,28.573z
			 M218.245,32.915c0.062,0.14,0.229,0.343,0.229,0.534c0,0.473-0.268,0.708-0.805,0.708c-0.587,0-0.918-0.472-0.936-1.358
			c-0.007-0.198,0.001-0.525-0.021-0.938c-0.025-0.512,0.211-0.784,0.746-0.784c0.458,0,0.75,0.277,0.746,0.708
			C218.206,32.021,218.105,32.604,218.245,32.915z M219.083,36.53c0.277,0.522,0.572,0.823,0.862,0.881
			c0.4,0.083,0.61,0.313,0.61,0.707c0,0.612-0.303,0.865-0.898,0.746c-0.75-0.148-1.355-0.774-1.874-1.646
			c-0.067-0.11-0.114-0.235-0.114-0.362c0-0.484,0.26-0.728,0.783-0.728C218.735,36.131,218.943,36.266,219.083,36.53z
			 M218.589,29.281c0.165,0,0.394-0.044,0.68-0.125c0.287-0.083,0.499-0.125,0.641-0.125c0.484,0,0.728,0.255,0.728,0.766
			c0,0.384-0.193,0.617-0.575,0.708c-0.738,0.175-1.229,0.268-1.473,0.268c-0.497,0-0.746-0.249-0.746-0.746
			C217.841,29.53,218.093,29.281,218.589,29.281z M221.038,24.86c-0.023,0.021-0.375,0.324-1.014,0.898
			c-0.154,0.139-0.318,0.212-0.497,0.212c-0.499,0-0.746-0.261-0.746-0.784c0-0.205,0.085-0.383,0.248-0.536
			c0.242-0.225,0.621-0.595,1.129-0.994c0.131-0.104,0.288-0.153,0.44-0.153c0.497,0,0.745,0.26,0.745,0.785
			C221.343,24.516,221.215,24.704,221.038,24.86z M222.454,28.094c0.315-0.202,0.912-0.489,1.55-0.919
			c0.138-0.093,0.29-0.152,0.441-0.152c0.498,0,0.744,0.262,0.744,0.784c0,0.241-0.119,0.461-0.343,0.593
			c-0.317,0.187-0.887,0.465-1.495,0.882c-0.15,0.102-0.306,0.172-0.459,0.172c-0.496,0-0.745-0.262-0.745-0.784
			C222.147,28.438,222.254,28.221,222.454,28.094z M224.587,21.779c-0.391,0.089-0.72,0.256-0.967,0.499
			c-0.155,0.148-0.326,0.23-0.518,0.23c-0.511,0-0.766-0.255-0.766-0.766c0-0.191,0.076-0.365,0.23-0.516
			c0.618-0.612,1.256-0.919,1.893-0.919c0.471,0,0.708,0.254,0.708,0.766C225.168,21.456,224.975,21.692,224.587,21.779z
			 M223.277,37.449c0.891-0.368,1.395-0.611,1.491-0.728c0.142-0.168,0.319-0.268,0.535-0.268c0.523,0,0.784,0.236,0.784,0.708
			c0,0.319-0.213,0.609-0.641,0.87c-0.427,0.26-0.967,0.546-1.599,0.795c-0.098,0.04-0.205,0.057-0.306,0.057
			c-0.484,0-0.728-0.26-0.728-0.785C222.817,37.793,222.969,37.577,223.277,37.449z M226.07,25.8
			c0.269-0.448,0.533-0.829,0.803-1.091c0.156-0.153,0.346-0.229,0.536-0.229c0.511,0,0.768,0.256,0.768,0.766
			c0,0.189-0.092,0.363-0.253,0.516c-0.189,0.184-0.391,0.46-0.592,0.805c-0.141,0.24-0.345,0.363-0.614,0.363
			c-0.509,0-0.765-0.243-0.765-0.728C225.953,26.06,225.991,25.925,226.07,25.8z M227.408,22.106c0-0.395-0.065-0.689-0.189-0.879
			c-0.089-0.138-0.135-0.28-0.135-0.421c0-0.498,0.259-0.747,0.784-0.747c0.242,0,0.44,0.117,0.593,0.344
			c0.293,0.434,0.44,1.001,0.44,1.703c0,0.499-0.25,0.746-0.747,0.746C227.658,22.852,227.408,22.603,227.408,22.106z
			 M228.441,33.508c0.137-0.088,0.283-0.134,0.421-0.134c0.498,0,0.746,0.26,0.746,0.784c0,0.242-0.119,0.442-0.354,0.603
			c-0.234,0.158-0.512,0.451-0.812,0.871c-0.154,0.215-0.35,0.325-0.59,0.325c-0.513,0-0.768-0.248-0.768-0.745
			C227.083,34.689,227.541,34.101,228.441,33.508z M229.838,31.576c0.164-0.102,0.277-0.186,0.325-0.249
			c0.154-0.213,0.352-0.343,0.595-0.343c0.522,0,0.784,0.248,0.784,0.745c0,0.151-0.062,0.293-0.153,0.42
			c-0.171,0.234-0.429,0.491-0.784,0.708c-0.127,0.076-0.257,0.115-0.383,0.115c-0.498,0-0.748-0.262-0.748-0.785
			C229.472,31.934,229.596,31.728,229.838,31.576z M231.274,30.142c0.338-0.432,0.666-0.886,0.823-0.957
			c0.333-0.153,1.16,0.431,1.128,0.784c-0.05,0.564-0.757,1.188-1.033,1.167c-0.225-0.017-0.452-0.188-0.671-0.499
			C231.326,30.359,231.236,30.189,231.274,30.142z"/>
		<path stroke="#000000" stroke-width="0.5" stroke-miterlimit="10" d="M253.469,32.935c0.023-0.201,0.107-0.544,0.25-1.012
			c0.126-0.422,0.19-0.754,0.19-0.996c0-0.498,0.249-0.746,0.746-0.746s0.745,0.25,0.745,0.746c0,0.28-0.058,0.651-0.191,1.09
			c-0.144,0.481-0.229,0.842-0.248,1.052c-0.036,0.435-0.292,0.67-0.728,0.67C253.673,33.736,253.413,33.462,253.469,32.935z
			 M254.885,36.188c0.18,0.254,0.518,0.707,0.918,0.918c0.28,0.147,0.555,0.338,0.555,0.669c0,0.511-0.268,0.767-0.804,0.767
			c-0.396,0-0.819-0.224-1.243-0.67c-0.51-0.537-0.767-0.957-0.767-1.225c0-0.511,0.257-0.767,0.767-0.767
			C254.542,35.881,254.743,35.983,254.885,36.188z M256.569,27.137c0.149-0.229,0.408-0.503,0.766-0.821
			c0.359-0.319,0.588-0.557,0.689-0.707c0.153-0.23,0.35-0.346,0.593-0.346c0.522,0,0.785,0.25,0.785,0.745
			c0,0.152-0.051,0.294-0.135,0.422c-0.13,0.194-0.371,0.462-0.727,0.774c-0.356,0.312-0.602,0.564-0.728,0.756
			c-0.153,0.228-0.351,0.344-0.593,0.344c-0.523,0-0.785-0.249-0.785-0.745C256.435,27.416,256.478,27.275,256.569,27.137z
			 M258.731,37.031c0.174-0.056,0.413-0.128,0.697-0.23c0.289-0.103,0.522-0.195,0.683-0.25c0.084-0.028,0.17-0.038,0.248-0.038
			c0.484,0,0.727,0.262,0.727,0.783c0,0.345-0.182,0.577-0.535,0.688c-0.164,0.052-0.395,0.129-0.68,0.23
			c-0.287,0.102-0.525,0.176-0.698,0.229c-0.075,0.023-0.16,0.039-0.248,0.039c-0.474,0-0.71-0.256-0.71-0.766
			C258.214,37.372,258.39,37.134,258.731,37.031z M261.583,23.083c0.296-0.229,0.959-0.569,1.473-1.072
			c0.153-0.15,0.338-0.268,0.555-0.268c0.51,0,0.766,0.255,0.766,0.766c0,0.165-0.064,0.362-0.189,0.477
			c-0.273,0.251-0.962,0.634-1.589,1.188c-0.153,0.135-0.32,0.229-0.498,0.229c-0.512,0-0.765-0.261-0.765-0.784
			C261.335,23.426,261.42,23.207,261.583,23.083z M262.692,35.479c0.229-0.185,0.344-0.274,0.572-0.46
			c0.103-0.089,0.203-0.156,0.298-0.2c0.094-0.046,0.199-0.065,0.315-0.065c0.482,0,0.727,0.259,0.727,0.783
			c0,0.281-0.346,0.511-0.421,0.63c-0.003,0.006-0.007,0.026-0.021,0.041c-0.092,0.068-0.137,0.102-0.228,0.172
			c-0.122,0.098-0.184,0.148-0.307,0.248c-0.153,0.129-0.312,0.191-0.478,0.191c-0.511,0-0.765-0.26-0.765-0.784
			C262.386,35.818,262.487,35.632,262.692,35.479z M265.275,33.298c0.172-0.415,0.579-1.153,0.959-2.104
			c0.12-0.304,0.329-0.478,0.649-0.478c0.521,0,0.784,0.241,0.784,0.726c0,0.101-0.016,0.211-0.057,0.306
			c-0.178,0.41-0.508,1.15-0.939,2.124c-0.136,0.303-0.365,0.459-0.671,0.459c-0.523,0-0.784-0.235-0.784-0.709
			C265.216,33.521,265.231,33.402,265.275,33.298z M267.476,36.934c0.243,0.279,0.475,0.43,0.687,0.458
			c0.417,0.058,0.634,0.306,0.634,0.727c0,0.587-0.287,0.835-0.86,0.746c-0.573-0.091-1.098-0.413-1.57-0.938
			c-0.137-0.153-0.21-0.318-0.21-0.496c0-0.511,0.255-0.767,0.765-0.767C267.139,36.665,267.322,36.757,267.476,36.934z
			 M266.671,21.188c0.357-0.29,0.996-0.498,1.895-0.631c0.571-0.084,0.861,0.159,0.861,0.746c0,0.42-0.237,0.687-0.65,0.727
			c-0.266,0.024-0.754,0.086-1.148,0.307c-0.145,0.081-0.312,0.172-0.479,0.172c-0.51,0-0.766-0.256-0.766-0.766
			C266.385,21.525,266.483,21.34,266.671,21.188z M267.877,27.654c0.245-0.379,0.687-1.031,0.976-1.819
			c0.121-0.33,0.336-0.555,0.707-0.555c0.512,0,0.766,0.237,0.766,0.708c0,0.076-0.003,0.157-0.02,0.229
			c-0.066,0.305-0.501,1.054-1.147,2.18c-0.143,0.25-0.345,0.384-0.613,0.384c-0.523,0-0.782-0.25-0.782-0.746
			C267.763,27.909,267.8,27.773,267.877,27.654z M271.169,36.685c0.226-0.121,0.614-0.328,1.109-0.611
			c0.127-0.072,0.256-0.116,0.382-0.116c0.485,0,0.729,0.262,0.729,0.785c0,0.28-0.157,0.485-0.404,0.63
			c-0.187,0.112-0.59,0.393-1.148,0.651c-0.117,0.056-0.249,0.077-0.362,0.077c-0.485,0-0.727-0.262-0.727-0.784
			C270.749,37.034,270.896,36.828,271.169,36.685z M270.919,21.589c0.208-0.361,0.626-0.986,0.939-1.761
			c0.127-0.315,0.337-0.516,0.668-0.516c0.524,0,0.785,0.242,0.785,0.727c0,0.088-0.023,0.181-0.057,0.268
			c-0.085,0.227-0.426,0.913-1.034,2.009c-0.142,0.254-0.343,0.385-0.611,0.385c-0.524,0-0.784-0.244-0.784-0.729
			C270.824,21.845,270.853,21.706,270.919,21.589z M273.677,16.021c0.154-0.824,0.586-1.601,1.3-2.315
			c0.154-0.154,0.325-0.23,0.517-0.23c0.51,0,0.768,0.255,0.768,0.765c0,0.191-0.078,0.363-0.23,0.516
			c-0.498,0.499-0.8,1.01-0.899,1.531c-0.078,0.406-0.312,0.612-0.707,0.612C273.81,16.901,273.566,16.605,273.677,16.021z
			 M276.296,33.949c-0.146,0.18-0.458,0.601-0.919,0.917c-0.097,0.068-0.237,0.095-0.363,0.095c-0.497,0-0.747-0.254-0.747-0.765
			c0-0.279,0.22-0.479,0.402-0.632c0.139-0.115,0.332-0.414,0.572-0.67c0.146-0.153,0.328-0.229,0.518-0.229
			c0.511,0,0.766,0.256,0.766,0.765C276.527,33.622,276.419,33.798,276.296,33.949z M276.985,30.908
			c0.085-0.153,0.35-0.424,0.632-0.767c0.354-0.434,0.666-0.886,0.822-0.957c0.334-0.153,1.189,0.506,1.128,0.784
			c-0.048,0.222-0.757,0.74-1.032,1.167c-0.072,0.11-0.224,0.396-0.441,0.535c-0.322,0.207-0.722,0.267-0.861,0.267
			c-0.242,0-0.361-0.146-0.361-0.438C276.872,31.346,276.886,31.086,276.985,30.908z M277.004,9.899
			c0.21-0.395,0.648-1.065,1.11-1.952c0.143-0.273,0.356-0.42,0.649-0.42c0.524,0,0.785,0.242,0.785,0.727
			c0,0.115-0.028,0.249-0.097,0.364c-0.224,0.386-0.678,1.039-1.07,1.875c-0.137,0.288-0.352,0.459-0.671,0.459
			c-0.522,0-0.785-0.241-0.785-0.727C276.926,10.123,276.948,10.003,277.004,9.899z"/>
		<path stroke="#000000" stroke-width="0.5" stroke-miterlimit="10" d="M279.322,29.835c-0.091,0.128-0.115,0.709-0.252,1.245
			c-0.094,0.362-0.332,0.554-0.688,0.554c-0.524,0-0.785-0.236-0.785-0.707c0-0.078,0.021-0.158,0.038-0.23
			c0.085-0.347,0.139-0.773,0.222-1.177c0.083-0.4,0.322-0.715,0.696-0.945c0.14-0.087,0.273-0.134,0.401-0.134
			c0.499,0,0.746,0.26,0.746,0.782C279.703,29.492,279.409,29.705,279.322,29.835z M279.816,35.249
			c-0.002,0.009,0.422,0.344,0.422,0.61c0,0.511-0.268,0.767-0.805,0.767c-0.358,0-0.658-0.237-0.9-0.708
			c-0.332-0.648-0.497-1.309-0.497-1.971c0-0.981,0.32-1.473,0.958-1.473c0.509,0,0.766,0.223,0.766,0.669
			c0,0.154-0.051,0.306-0.155,0.458c-0.052,0.078-0.077,0.193-0.077,0.346c0,0.421,0.352,1.292,0.347,1.301
			C279.872,35.253,279.816,35.249,279.816,35.249z M279.683,26.773c0.426-0.694,1.157-1.426,2.162-2.142
			c0.139-0.101,0.288-0.153,0.442-0.153c0.497,0,0.744,0.261,0.744,0.784c0,0.243-0.108,0.441-0.325,0.593
			c-0.51,0.358-0.843,0.593-0.978,0.708c-0.279,0.242-0.534,0.586-0.765,0.975c-0.15,0.256-0.363,0.385-0.631,0.385
			c-0.524,0-0.784-0.251-0.784-0.746C279.551,27.049,279.597,26.914,279.683,26.773z M281.884,37.354
			c0.327,0.172,1.244,0.267,1.244,0.267s0.23-0.037,1.07-0.114c0.549-0.052,0.824,0.197,0.824,0.746c0,0.446-0.235,0.7-0.689,0.746
			c-0.868,0.086-1.205,0.115-1.205,0.115s-1.404-0.15-1.951-0.44c-0.266-0.141-0.401-0.351-0.401-0.631
			c0-0.523,0.242-0.785,0.727-0.785C281.627,37.259,281.758,37.289,281.884,37.354z M284.849,22.086
			c0.418-0.497,1.446-0.844,2.697-1.242c0.062-0.019,0.135-0.039,0.213-0.039c0.471,0,0.709,0.256,0.709,0.766
			c0,0.383-0.188,0.619-0.557,0.708c-0.535,0.127-1.371,0.354-1.934,0.785c-0.161,0.123-0.353,0.266-0.556,0.266
			c-0.511,0-0.765-0.248-0.765-0.744C284.658,22.405,284.722,22.239,284.849,22.086z M287.508,35.861
			c0.175-0.055,0.483-0.235,0.901-0.516c0.355-0.239,0.617-0.364,0.783-0.364c0.484,0,0.729,0.261,0.729,0.784
			c0,0.243-0.119,0.44-0.348,0.593c-0.941,0.634-1.568,0.958-1.873,0.958c-0.484,0-0.727-0.256-0.727-0.767
			C286.974,36.194,287.165,35.972,287.508,35.861z M290.992,23.847c-0.221,0.451-0.553,1.154-0.879,2.028
			c-0.12,0.328-0.347,0.516-0.689,0.516c-0.512,0-0.767-0.243-0.767-0.728c0-0.087,0.009-0.196,0.04-0.287
			c0.146-0.419,0.502-1.164,0.918-2.104c0.135-0.304,0.362-0.46,0.668-0.46c0.523,0,0.785,0.237,0.785,0.709
			C291.07,23.636,291.04,23.745,290.992,23.847z M290.341,28.438c0.137,0.379,0.358,0.661,0.65,0.823
			c0.255,0.141,0.383,0.344,0.383,0.61c0,0.525-0.244,0.784-0.729,0.784c-0.138,0-0.273-0.04-0.4-0.115
			c-0.6-0.348-1.031-0.913-1.301-1.606c-0.035-0.086-0.057-0.177-0.057-0.266c0-0.486,0.26-0.728,0.782-0.728
			C290.003,27.941,290.222,28.11,290.341,28.438z M291.337,20.308c0.57,0.077,1.193,0.286,1.855,0.631
			c0.827,0.432,1.244,0.88,1.244,1.34c0,0.497-0.262,0.746-0.786,0.746c-0.28,0-0.487-0.154-0.631-0.42
			c-0.048-0.089-0.263-0.237-0.632-0.421c-0.438-0.22-0.864-0.354-1.242-0.402c-0.432-0.052-0.651-0.293-0.651-0.727
			C290.493,20.479,290.775,20.231,291.337,20.308z M293.603,31.527c-0.211,0.136-0.437,0.418-0.679,0.853
			c-0.243,0.432-0.513,0.748-0.805,0.938c-0.138,0.089-0.282,0.133-0.42,0.133c-0.485,0-0.728-0.26-0.728-0.783
			c0-0.256,0.119-0.473,0.344-0.613c0.086-0.051,0.262-0.296,0.516-0.736c0.256-0.44,0.57-0.784,0.938-1.022
			c0.14-0.09,0.282-0.134,0.422-0.134c0.484,0,0.729,0.261,0.729,0.784C293.921,31.2,293.813,31.395,293.603,31.527z
			 M295.355,24.594c0.038,0.97-0.093,1.946-0.422,2.887c-0.115,0.332-0.345,0.498-0.688,0.498c-0.511,0-0.767-0.235-0.767-0.707
			c0-0.089,0.011-0.181,0.039-0.268c0.24-0.75,0.396-1.556,0.365-2.354c-0.021-0.519,0.22-0.783,0.746-0.783
			C295.099,23.866,295.335,24.112,295.355,24.594z M294.609,31.709c0.495,0.05,0.803,0.077,0.918,0.077
			c0.496,0,0.746,0.249,0.746,0.746c0,0.495-0.25,0.746-0.746,0.746c-0.153,0-0.512-0.042-1.053-0.096
			c-0.438-0.046-0.668-0.281-0.668-0.727C293.804,31.909,294.076,31.657,294.609,31.709z M297.267,31.29
			c-0.115-0.09-0.178-0.282-0.189-0.573c-0.014-0.281,0.016-0.478,0.096-0.573c0.344-0.431,0.686-0.886,0.841-0.957
			c0.333-0.154,1.162,0.433,1.13,0.784c-0.041,0.427-0.666,1.005-1.035,1.167C297.667,31.329,297.382,31.379,297.267,31.29z"/>
		<path stroke="#000000" stroke-width="0.5" stroke-miterlimit="10" d="M298.111,30.657c-0.078,0.096-0.191,0.155-0.346,0.155
			c-0.217,0-0.416-0.095-0.603-0.277c-0.185-0.186-0.28-0.464-0.2-0.624c0.171-0.34,0.729-0.857,1.186-1.396
			c0.088-0.101,0.186-0.152,0.288-0.152c0.409,0,0.631,0.284,0.688,0.821c0.012,0.101-0.039,0.361-0.191,0.575
			C298.842,29.882,298.494,30.189,298.111,30.657z M300.482,31.997c-0.06,0.09-0.157,0.628-0.248,1.588
			c-0.043,0.443-0.283,0.669-0.729,0.669c-0.549,0-0.779-0.289-0.746-0.823c0.023-0.368,0.035-0.765,0.066-1.147
			c0.031-0.382,0.172-0.745,0.393-1.089c0.156-0.238,0.359-0.364,0.613-0.364c0.521,0,0.784,0.251,0.784,0.746
			C300.616,31.716,300.572,31.862,300.482,31.997z M299.353,27.291c0.205-0.312,0.598-0.818,1.032-1.491
			c0.155-0.239,0.357-0.365,0.612-0.365c0.523,0,0.785,0.241,0.785,0.728c0,0.14-0.035,0.288-0.115,0.401
			c-0.209,0.301-0.607,0.786-0.996,1.415c-0.155,0.256-0.367,0.402-0.65,0.402c-0.51,0-0.766-0.242-0.766-0.727
			C299.257,27.526,299.287,27.394,299.353,27.291z M300.634,19.632c-0.496,0-0.744-0.189-0.744-0.687s0.248-0.715,0.744-0.715
			c1.084,0,1.707,0.049,1.857,0.091c0.447,0.128,0.707,0.301,0.707,0.543c0,0.205-0.143,0.409-0.43,0.606
			c-0.288,0.198-0.537,0.226-0.737,0.22c-0.062-0.002-0.193-0.059-0.382-0.059C301.242,19.632,301.042,19.632,300.634,19.632z
			 M301.363,36.588c0.282,0.487,0.625,0.818,1.034,0.959c0.341,0.115,0.518,0.343,0.518,0.688c0,0.508-0.245,0.765-0.729,0.765
			c-0.075,0-0.172-0.011-0.268-0.038c-0.743-0.218-1.377-0.822-1.854-1.646c-0.075-0.125-0.115-0.254-0.115-0.38
			c0-0.485,0.261-0.729,0.784-0.729C300.999,36.208,301.214,36.335,301.363,36.588z M304.157,22.106
			c-0.259,0.449-0.48,1.034-0.727,1.53c-0.353,0.707-0.709,1.071-1.015,1.071c-0.511,0-0.766-0.248-0.766-0.745
			c0-0.114,0.024-0.229,0.076-0.345c0.229-0.509,0.621-1.291,1.188-2.296c0.134-0.24,0.337-0.364,0.593-0.364
			c0.522,0,0.785,0.25,0.785,0.747C304.29,21.845,304.228,21.983,304.157,22.106z M306.375,17.418
			c-0.227,0.365-0.54,1.039-0.996,1.799c-0.143,0.241-0.357,0.363-0.61,0.363c-0.524,0-0.784-0.249-0.784-0.746
			c0-0.141,0.059-0.285,0.135-0.421c0.215-0.393,0.543-1.102,1.052-1.875c0.14-0.214,0.344-0.325,0.575-0.325
			c0.521,0,0.783,0.249,0.783,0.747C306.529,17.125,306.46,17.281,306.375,17.418z M305.552,36.896
			c0.357-0.066,0.826-0.293,1.378-0.595c0.12-0.064,0.255-0.096,0.384-0.096c0.483,0,0.726,0.257,0.726,0.766
			c0,0.281-0.132,0.49-0.384,0.632c-0.699,0.395-1.32,0.652-1.838,0.746c-0.58,0.104-0.877-0.135-0.877-0.746
			C304.941,37.207,305.146,36.969,305.552,36.896z M306.912,18.184c0.102,0,0.229-0.007,0.384-0.019
			c0.152-0.012,0.286-0.02,0.401-0.02c0.484,0,0.729,0.249,0.729,0.747c0,0.497-0.244,0.746-0.729,0.746
			c-0.115,0-0.251,0.007-0.401,0.02c-0.155,0.013-0.282,0.019-0.384,0.019c-0.499,0-0.744-0.249-0.744-0.746
			C306.167,18.433,306.413,18.184,306.912,18.184z M308.787,12.674c-0.139,0.106-0.329,0.386-0.565,0.813
			c-0.235,0.428-0.446,0.737-0.62,0.871c-0.141,0.105-0.307,0.154-0.461,0.154c-0.51,0-0.766-0.255-0.766-0.766
			c0-0.166,0.169-0.369,0.309-0.574c0.199-0.301,0.59-1.144,1.223-1.704c0.12-0.105,0.305-0.153,0.457-0.153
			c0.499,0,0.748,0.261,0.748,0.784C309.113,12.328,308.99,12.519,308.787,12.674z M310.891,8.235
			c-0.235,0.3-0.466,0.695-0.709,1.051c-0.329,0.484-0.618,0.728-0.858,0.728c-0.526,0-0.785-0.242-0.785-0.728
			c0-0.115,0.023-0.23,0.076-0.343c0.26-0.571,0.662-1.151,1.188-1.722c0.15-0.166,0.331-0.249,0.533-0.249
			c0.51,0,0.766,0.255,0.766,0.766C311.101,7.916,311.009,8.083,310.891,8.235z M311.082,18.221
			c0.425,0.064,0.689,0.288,0.689,0.747c0,0.497-0.25,0.746-0.744,0.746c-0.053,0-0.146-0.026-0.251-0.039
			c-0.067-0.008-0.174,0.006-0.287,0.019c-0.116,0.014-0.212,0.019-0.288,0.019c-0.499,0-0.744-0.249-0.744-0.746
			c0-0.497,0.247-0.747,0.744-0.747c0.076,0,0.172-0.006,0.288-0.019c0.113-0.012,0.211-0.019,0.287-0.019
			C310.867,18.184,310.972,18.205,311.082,18.221z M309.531,34.601c0.053-0.268,0.467-0.785,1.245-1.551
			c0.023-0.024,0.058-0.052,0.077-0.077c0.146-0.187,0.348-0.345,0.632-0.345c0.497,0,0.745,0.216,0.745,0.65
			c0,0.292-0.17,0.659-0.499,0.937c-0.153,0.131-0.587,0.375-0.727,0.633c-0.138,0.262-0.312,0.632-0.708,0.632
			C309.685,35.479,309.425,35.181,309.531,34.601z M313.302,31.29c-0.113-0.09-0.178-0.282-0.191-0.573
			c-0.013-0.281,0.021-0.478,0.098-0.573c0.342-0.431,0.683-0.886,0.841-0.957c0.333-0.154,1.16,0.433,1.129,0.784
			c-0.04,0.427-0.665,1.005-1.034,1.167C313.705,31.329,313.417,31.379,313.302,31.29z"/>
		<path stroke="#000000" stroke-width="0.5" stroke-miterlimit="10" d="M313.513,34.235c0.092,0.188,0.327,0.423,0.669,0.67
			c0.214,0.154,0.327,0.352,0.327,0.596c0,0.508-0.251,0.765-0.749,0.765c-0.151,0-0.298-0.054-0.438-0.153
			c-0.537-0.385-0.924-0.789-1.128-1.206c-0.062-0.127-0.095-0.248-0.095-0.363c0-0.484,0.259-0.728,0.783-0.728
			C313.173,33.815,313.38,33.969,313.513,34.235z M314.605,30.657c-0.078,0.096-0.191,0.155-0.347,0.155
			c-0.216,0-0.417-0.095-0.603-0.277c-0.187-0.186-0.282-0.464-0.201-0.624c0.174-0.34,0.726-0.857,1.188-1.396
			c0.085-0.101,0.183-0.152,0.287-0.152c0.408,0,0.629,0.284,0.688,0.821c0.012,0.101-0.037,0.361-0.189,0.575
			C315.337,29.882,314.987,30.189,314.605,30.657z M316.821,36.972c0.368,0.064,0.575,0.324,0.575,0.706
			c0,0.512-0.237,0.766-0.709,0.766c-0.037,0-0.459-0.124-1.242-0.381c-0.344-0.114-0.518-0.344-0.518-0.69
			c0-0.522,0.242-0.784,0.727-0.784c0.129,0,0.328,0.06,0.604,0.182C316.532,36.891,316.727,36.953,316.821,36.972z M316.593,26.678
			c0.26-0.291,0.759-0.761,1.356-1.396c0.153-0.161,0.333-0.249,0.534-0.249c0.513,0,0.768,0.255,0.768,0.766
			c0,0.179-0.07,0.364-0.211,0.498c-0.258,0.244-0.788,0.65-1.225,1.205c-0.157,0.199-0.352,0.345-0.595,0.345
			c-0.522,0-0.785-0.251-0.785-0.746C316.438,26.946,316.49,26.795,316.593,26.678z M321.318,38.157
			c-0.635,0.338-1.237,0.518-1.799,0.518c-0.496,0-0.746-0.25-0.746-0.746c0-0.485,0.252-0.726,0.746-0.726
			c0.307,0,0.684-0.113,1.09-0.346c0.127-0.072,0.257-0.115,0.386-0.115c0.483,0,0.725,0.259,0.725,0.784
			C321.721,37.807,321.583,38.018,321.318,38.157z M319.847,23.35c0.217-0.417,0.582-0.774,1.014-1.071
			c0.137-0.097,0.287-0.154,0.439-0.154c0.483,0,0.727,0.261,0.727,0.785c0,0.243-0.11,0.448-0.326,0.593
			c-0.248,0.168-0.438,0.361-0.553,0.576c-0.139,0.254-0.352,0.381-0.633,0.381c-0.512,0-0.766-0.242-0.766-0.727
			C319.75,23.604,319.781,23.475,319.847,23.35z M323.998,35.116c-0.176,0.348-0.472,0.824-0.766,1.396
			c-0.143,0.274-0.351,0.421-0.631,0.421c-0.526,0-0.785-0.25-0.785-0.746c0-0.116,0.031-0.232,0.096-0.346
			c0.16-0.277,0.421-0.736,0.727-1.356c0.143-0.289,0.359-0.439,0.65-0.439c0.523,0,0.784,0.24,0.784,0.727
			C324.073,34.886,324.054,35.008,323.998,35.116z M322.638,20.537c0.386-0.54,0.715-0.948,0.998-1.167
			c0.146-0.116,0.31-0.171,0.477-0.171c0.498,0,0.746,0.256,0.746,0.766c0,0.229-0.092,0.414-0.277,0.555
			c-0.187,0.139-0.43,0.438-0.736,0.879c-0.152,0.217-0.353,0.326-0.595,0.326c-0.511,0-0.767-0.249-0.767-0.746
			C322.486,20.825,322.541,20.677,322.638,20.537z M324.38,24.516c-0.033,1.054,0.033,1.792,0.229,2.162
			c0.06,0.114,0.096,0.23,0.096,0.345c0,0.485-0.26,0.728-0.783,0.728c-0.293,0-0.512-0.141-0.651-0.42
			c-0.294-0.597-0.418-1.553-0.38-2.851c0.012-0.484,0.26-0.728,0.746-0.728C324.144,23.752,324.395,24.011,324.38,24.516z
			 M325.087,30.484c-0.048,0.928-0.074,1.538-0.074,1.82c0,0.484-0.25,0.727-0.748,0.727s-0.744-0.242-0.744-0.727
			c0-0.308,0.023-0.939,0.076-1.896c0.024-0.472,0.268-0.708,0.727-0.708C324.859,29.701,325.117,29.965,325.087,30.484z
			 M324.468,35.527c0.145-0.146,0.395-0.377,0.64-0.68c0.155-0.193,0.343-0.327,0.573-0.327c0.522,0,0.785,0.251,0.785,0.749
			c0,0.152-0.051,0.312-0.154,0.438c-0.146,0.178-0.428,0.448-0.744,0.806c-0.156,0.172-0.338,0.267-0.555,0.267
			c-0.512,0-0.766-0.255-0.766-0.765C324.248,35.836,324.318,35.674,324.468,35.527z M327.244,33.23
			c0.145-0.173,0.39-0.481,0.713-0.737c0.121-0.091,0.285-0.134,0.424-0.134c0.495,0,0.746,0.26,0.746,0.784
			c0,0.243-0.115,0.44-0.347,0.593c-0.036,0.026-0.181,0.188-0.42,0.479c-0.153,0.19-0.337,0.289-0.554,0.289
			c-0.525,0-0.786-0.256-0.786-0.766C327.02,33.572,327.093,33.403,327.244,33.23z M330.178,31.29
			c-0.114-0.101-0.177-0.294-0.19-0.573c-0.015-0.28,0.017-0.478,0.095-0.573c0.345-0.431,0.687-0.886,0.843-0.957
			c0.332-0.154,1.162,0.433,1.129,0.784c-0.039,0.427-0.667,1.009-1.035,1.167C330.568,31.33,330.281,31.379,330.178,31.29z"/>
	</g>
</g>
</svg>
