<?xml version="1.0" encoding="utf-8"?>
<!-- Generator: Adobe Illustrator 16.0.0, SVG Export Plug-In . SVG Version: 6.00 Build 0)  -->
<!DOCTYPE svg PUBLIC "-//W3C//DTD SVG 1.1//EN" "http://www.w3.org/Graphics/SVG/1.1/DTD/svg11.dtd">
<svg version="1.1" id="Layer_1" xmlns="http://www.w3.org/2000/svg" xmlns:xlink="http://www.w3.org/1999/xlink" x="0px" y="0px"
	 width="332.462px" height="43.75px" viewBox="0 0 332.462 43.75" enable-background="new 0 0 332.462 43.75" xml:space="preserve">
<g>
	<g>
		<path fill="#C1272D" stroke="#C1272D" stroke-width="0.5" stroke-miterlimit="10" d="M3.96,25.849
			c0.016,0.492-0.041,1.347,0.037,2.332c0.008,0.1,0.051,0.261,0.116,0.479c0.065,0.218,0.096,0.383,0.096,0.497
			c0,0.486-0.255,0.728-0.766,0.728c-0.319,0-0.546-0.153-0.67-0.459c-0.168-0.406-0.271-1.027-0.271-1.855c0-0.201,0-0.299,0-0.498
			c0-0.423-0.013-0.788-0.036-1.092c-0.042-0.532,0.219-0.803,0.767-0.803C3.678,25.178,3.947,25.426,3.96,25.849z M6.14,17.333
			c-0.191,0.267-0.558,1.4-1.148,3.31c-0.109,0.354-0.345,0.536-0.688,0.536c-0.523,0-0.785-0.242-0.785-0.727
			c0-0.078,0.016-0.156,0.038-0.231c0.19-0.627,0.355-1.296,0.535-1.932c0.213-0.75,0.495-1.358,0.823-1.818
			c0.154-0.216,0.351-0.326,0.592-0.326c0.523,0,0.785,0.248,0.785,0.746C6.293,17.046,6.241,17.193,6.14,17.333z M5.854,33.597
			c0.196,0.3,0.38,0.643,0.574,0.937c0.252,0.38,0.545,0.584,0.823,0.594c0.467,0.017,0.708,0.261,0.708,0.745
			c0,0.511-0.268,0.767-0.786,0.748c-0.833-0.029-1.837-0.777-2.736-2.164c-0.079-0.119-0.116-0.262-0.116-0.401
			c0-0.522,0.301-0.782,0.899-0.782C5.489,33.272,5.714,33.381,5.854,33.597z M11.326,9.335c-0.539,0.668-1.676,1.785-2.467,3.158
			c-0.14,0.241-0.337,0.42-0.632,0.42c-0.523,0-0.784-0.241-0.784-0.727c0-0.115,0.031-0.236,0.096-0.363
			c0.212-0.42,0.625-0.97,1.224-1.646c0.676-0.764,1.107-1.313,1.301-1.626c0.149-0.24,0.357-0.364,0.613-0.364
			c0.523,0,0.785,0.249,0.785,0.747C11.46,9.075,11.416,9.222,11.326,9.335z M12.091,37.498c0.559-0.246,1.092-0.383,1.589-0.383
			c0.703,0,1.505-0.104,2.392-0.287c0.063-0.013,0.128-0.019,0.191-0.019c0.472,0,0.707,0.254,0.707,0.765
			c0,0.383-0.198,0.62-0.592,0.709c-0.98,0.219-1.882,0.326-2.698,0.326c-0.064,0-0.218,0.05-0.46,0.152
			c-0.242,0.102-0.421,0.134-0.535,0.097c-0.74-0.237-1.13-0.503-1.13-0.821C11.555,37.832,11.739,37.653,12.091,37.498z
			 M17.219,5.242c-0.892,0.276-2.08,0.885-3.482,1.855c-0.127,0.089-0.269,0.135-0.421,0.135c-0.498,0-0.747-0.255-0.747-0.766
			c0-0.241,0.109-0.443,0.325-0.593c0.906-0.628,1.542-1.025,1.855-1.205c0.585-0.336,1.287-0.624,2.047-0.862
			c0.077-0.024,0.161-0.039,0.249-0.039c0.472,0,0.708,0.261,0.708,0.785C17.754,4.896,17.573,5.132,17.219,5.242z M19.248,35.471
			c0.893-0.856,1.558-1.551,1.855-2.084c0.141-0.256,0.351-0.385,0.631-0.385c0.51,0,0.766,0.242,0.766,0.727
			c0,0.129-0.031,0.259-0.096,0.383c-0.355,0.668-1.097,1.503-2.143,2.467c-0.152,0.14-0.319,0.213-0.498,0.213
			c-0.511,0-0.766-0.26-0.766-0.784C18.999,35.815,19.082,35.631,19.248,35.471z M23.59,3.807c-1.031-0.392-1.8-0.362-2.296,0.038
			c-0.158,0.129-0.338,0.191-0.517,0.191c-0.447,0-0.668-0.236-0.668-0.707c0-0.395,0.241-0.705,0.707-0.975
			c0.279-0.163,0.594-0.229,0.938-0.229c0.345,0,0.517,0,0.862,0c0.446,0,0.95,0.088,1.512,0.306c0.332,0.127,0.497,0.34,0.497,0.66
			c0,0.523-0.242,0.78-0.727,0.78C23.795,3.869,23.692,3.846,23.59,3.807z M24.911,6.523c-0.614,0.752-0.918,1.403-0.918,1.913
			c0,0.395,0.167,0.728,0.498,0.995c0.19,0.153,0.287,0.337,0.287,0.555c0,0.522-0.249,0.784-0.746,0.784
			c-0.165,0-0.325-0.066-0.478-0.191C22.864,10.017,22.5,9.304,22.5,8.436c0-0.866,0.429-1.818,1.264-2.85
			c0.153-0.189,0.336-0.287,0.553-0.287c0.523,0,0.785,0.248,0.785,0.746C25.103,6.211,25.036,6.37,24.911,6.523z M23.438,31.033
			c0.259-0.308,0.391-0.461,0.65-0.767c0.356-0.433,0.667-0.885,0.822-0.955c0.332-0.155,1.19,0.506,1.128,0.784
			c-0.049,0.221-0.664,0.722-1.033,1.165c-0.089,0.109-0.242,0.294-0.459,0.536C24.104,31.491,23.882,31.339,23.438,31.033z
			 M29.005,4.477c-0.343,0.025-0.723,0.022-1.09,0.039c-0.533,0.021-0.861,0.125-0.976,0.286c-0.173,0.242-0.376,0.364-0.593,0.364
			c-0.46,0-0.688-0.28-0.688-0.842c0-0.727,0.64-1.208,1.76-1.262c0.303-0.015,0.816,0.001,1.416-0.057
			c0.542-0.054,0.842,0.173,0.842,0.747C29.676,4.184,29.437,4.444,29.005,4.477z M27.973,7.441
			c-0.043,0.952-0.078,1.595-0.134,1.894c-0.138,0.742-0.464,1.305-0.92,1.608c-0.136,0.09-0.285,0.135-0.438,0.135
			c-0.498,0-0.747-0.261-0.747-0.785c0-0.241,0.111-0.439,0.335-0.593c0.222-0.154,0.38-0.938,0.431-2.316
			c0.017-0.467,0.255-0.707,0.727-0.707C27.75,6.677,27.995,6.935,27.973,7.441z"/>
		<path fill="#C1272D" stroke="#C1272D" stroke-width="0.5" stroke-miterlimit="10" d="M25.715,29.961
			c-0.089,0.127-0.113,0.709-0.249,1.242c-0.092,0.365-0.332,0.556-0.688,0.556c-0.523,0-0.785-0.236-0.785-0.707
			c0-0.078,0.02-0.157,0.039-0.23c0.086-0.347,0.137-0.775,0.22-1.177c0.083-0.401,0.324-0.715,0.699-0.945
			c0.139-0.087,0.274-0.135,0.402-0.135c0.497,0,0.747,0.261,0.747,0.782C26.099,29.617,25.802,29.83,25.715,29.961z M26.211,35.375
			c-0.001,0.01,0.422,0.343,0.422,0.611c0,0.512-0.268,0.767-0.805,0.767c-0.357,0-0.658-0.236-0.898-0.709
			c-0.333-0.649-0.497-1.307-0.497-1.972c0-0.981,0.318-1.472,0.956-1.472c0.511,0,0.765,0.223,0.765,0.671
			c0,0.151-0.05,0.303-0.152,0.457c-0.051,0.076-0.077,0.191-0.077,0.345c0,0.42,0.35,1.293,0.344,1.3
			C26.268,35.379,26.211,35.375,26.211,35.375z M26.078,26.898c0.426-0.694,1.158-1.425,2.162-2.143
			c0.14-0.101,0.288-0.153,0.44-0.153c0.498,0,0.747,0.262,0.747,0.784c0,0.243-0.109,0.442-0.327,0.593
			c-0.508,0.359-0.842,0.593-0.976,0.709c-0.28,0.241-0.535,0.584-0.766,0.975c-0.15,0.256-0.363,0.385-0.63,0.385
			c-0.522,0-0.785-0.251-0.785-0.746C25.946,27.175,25.993,27.039,26.078,26.898z M28.279,37.48
			c0.329,0.171,1.244,0.267,1.244,0.267s0.231-0.037,1.071-0.114c0.549-0.052,0.823,0.197,0.823,0.746
			c0,0.447-0.234,0.699-0.688,0.746c-0.868,0.086-1.206,0.115-1.206,0.115s-1.404-0.152-1.952-0.439
			c-0.266-0.143-0.401-0.353-0.401-0.632c0-0.524,0.242-0.784,0.727-0.784C28.024,37.385,28.154,37.416,28.279,37.48z M31.244,22.21
			c0.418-0.495,1.445-0.843,2.698-1.241c0.061-0.019,0.135-0.039,0.211-0.039c0.472,0,0.708,0.256,0.708,0.765
			c0,0.384-0.186,0.621-0.556,0.708c-0.534,0.128-1.371,0.355-1.932,0.785c-0.16,0.124-0.351,0.267-0.553,0.267
			c-0.511,0-0.767-0.248-0.767-0.744C31.053,22.53,31.117,22.364,31.244,22.21z M33.904,35.986c0.175-0.055,0.48-0.235,0.899-0.516
			c0.356-0.239,0.619-0.364,0.785-0.364c0.484,0,0.727,0.263,0.727,0.784c0,0.243-0.117,0.44-0.345,0.593
			c-0.944,0.634-1.569,0.956-1.875,0.956c-0.485,0-0.727-0.254-0.727-0.764C33.369,36.32,33.561,36.097,33.904,35.986z
			 M37.386,23.972c-0.219,0.452-0.554,1.155-0.881,2.028c-0.122,0.328-0.345,0.518-0.688,0.518c-0.51,0-0.766-0.243-0.766-0.729
			c0-0.086,0.007-0.195,0.038-0.285c0.148-0.422,0.503-1.166,0.919-2.105c0.135-0.302,0.364-0.458,0.669-0.458
			c0.523,0,0.784,0.236,0.784,0.709C37.462,23.761,37.437,23.869,37.386,23.972z M36.736,28.563c0.136,0.383,0.357,0.661,0.65,0.823
			c0.253,0.142,0.383,0.346,0.383,0.613c0,0.522-0.243,0.784-0.727,0.784c-0.141,0-0.275-0.04-0.403-0.116
			c-0.599-0.348-1.031-0.913-1.301-1.605c-0.034-0.087-0.058-0.179-0.058-0.269c0-0.484,0.261-0.728,0.785-0.728
			C36.398,28.066,36.62,28.235,36.736,28.563z M37.731,20.433c0.572,0.077,1.193,0.286,1.855,0.631
			c0.828,0.432,1.244,0.879,1.244,1.338c0,0.499-0.261,0.747-0.785,0.747c-0.28,0-0.488-0.153-0.631-0.42
			c-0.047-0.089-0.264-0.237-0.631-0.422c-0.438-0.22-0.863-0.355-1.243-0.401c-0.43-0.054-0.65-0.293-0.65-0.727
			C36.89,20.605,37.17,20.356,37.731,20.433z M39.998,31.653c-0.21,0.135-0.437,0.417-0.679,0.853
			c-0.243,0.432-0.511,0.748-0.804,0.937c-0.14,0.09-0.28,0.134-0.421,0.134c-0.484,0-0.727-0.26-0.727-0.783
			c0-0.255,0.118-0.473,0.344-0.613c0.085-0.051,0.261-0.296,0.518-0.736c0.255-0.44,0.568-0.784,0.938-1.023
			c0.139-0.089,0.28-0.133,0.42-0.133c0.485,0,0.727,0.262,0.727,0.784C40.314,31.325,40.209,31.521,39.998,31.653z M41.749,24.719
			c0.039,0.97-0.092,1.946-0.421,2.889c-0.116,0.33-0.345,0.497-0.688,0.497c-0.51,0-0.766-0.235-0.766-0.707
			c0-0.089,0.011-0.182,0.039-0.267c0.239-0.752,0.395-1.558,0.363-2.355c-0.021-0.52,0.224-0.784,0.747-0.784
			C41.494,23.991,41.73,24.239,41.749,24.719z M41.002,31.834c0.496,0.05,0.803,0.077,0.918,0.077c0.498,0,0.747,0.249,0.747,0.746
			s-0.249,0.746-0.747,0.746c-0.153,0-0.511-0.041-1.052-0.096c-0.439-0.045-0.669-0.28-0.669-0.727
			C40.198,32.034,40.468,31.782,41.002,31.834z M43.663,31.416c-0.115-0.091-0.178-0.284-0.191-0.574
			c-0.013-0.282,0.018-0.479,0.096-0.575c0.345-0.429,0.686-0.884,0.843-0.955c0.333-0.155,1.162,0.433,1.128,0.784
			c-0.04,0.427-0.666,1.005-1.033,1.167C44.062,31.454,43.777,31.504,43.663,31.416z"/>
		<path fill="#C1272D" stroke="#C1272D" stroke-width="0.5" stroke-miterlimit="10" d="M44.505,30.782
			c-0.078,0.097-0.191,0.155-0.344,0.155c-0.217,0-0.418-0.093-0.604-0.276c-0.185-0.187-0.28-0.464-0.2-0.625
			c0.171-0.339,0.726-0.857,1.186-1.395c0.087-0.101,0.186-0.152,0.288-0.152c0.408,0,0.63,0.284,0.688,0.822
			c0.011,0.101-0.037,0.361-0.191,0.574C45.239,30.007,44.888,30.314,44.505,30.782z M46.725,26.479
			c0.075-0.547,0.685-1.265,1.817-2.106c0.138-0.101,0.292-0.152,0.459-0.152c0.498,0,0.747,0.255,0.747,0.766
			c0,0.229-0.104,0.441-0.306,0.594c-0.346,0.257-1.039,0.689-1.244,1.108c-0.131,0.268-0.306,0.633-0.727,0.633
			C46.896,27.32,46.647,27.039,46.725,26.479z M52.827,36.867c-0.088,0.239-0.328,0.674-0.574,1.244
			c-0.129,0.301-0.344,0.461-0.651,0.461c-0.523,0-0.784-0.236-0.784-0.707c0-0.104,0.023-0.22,0.077-0.326
			c0.104-0.217,0.294-0.609,0.516-1.168c0.13-0.327,0.357-0.499,0.689-0.499c0.511,0,0.765,0.236,0.765,0.707
			C52.866,36.668,52.86,36.778,52.827,36.867z M51.125,22.633c0.652-0.909,1.652-1.377,3.005-1.377c0.484,0,0.727,0.249,0.727,0.747
			c0,0.497-0.242,0.745-0.727,0.745c-0.842,0-1.446,0.251-1.799,0.747c-0.154,0.215-0.344,0.324-0.573,0.324
			c-0.523,0-0.784-0.249-0.784-0.745C50.973,22.919,51.023,22.773,51.125,22.633z M54.589,33.079c-0.205,0.227-0.354,0.53-0.45,0.9
			c-0.096,0.368-0.33,0.554-0.699,0.554c-0.511,0-0.766-0.235-0.766-0.709c0-0.075,0.005-0.146,0.019-0.21
			c0.136-0.6,0.439-1.123,0.804-1.53c0.155-0.172,0.333-0.267,0.536-0.267c0.511,0,0.766,0.254,0.766,0.765
			C54.8,32.76,54.728,32.926,54.589,33.079z M56.636,28.239c-0.166,0.503-0.431,1.637-1.052,2.524
			c-0.112,0.16-0.339,0.249-0.556,0.249c-0.51,0-0.766-0.249-0.766-0.744c0-0.18,0.071-0.348,0.21-0.508
			c0.14-0.159,0.288-0.493,0.44-1.003c0.19-0.64,0.318-1.027,0.383-1.168c0.127-0.281,0.345-0.421,0.65-0.421
			c0.51,0,0.766,0.243,0.766,0.727C56.712,28.009,56.671,28.131,56.636,28.239z M57.019,22.69c0.179,0.521,0.268,1.339,0.268,2.449
			c0,0.498-0.241,0.747-0.727,0.747c-0.498,0-0.747-0.251-0.747-0.747c0-0.931-0.062-1.589-0.191-1.951
			c-0.037-0.1-0.056-0.196-0.056-0.288c0-0.47,0.261-0.706,0.784-0.706C56.68,22.193,56.905,22.359,57.019,22.69z M57.344,27.532
			c0.269-0.294,0.7-0.755,1.282-1.379c0.154-0.164,0.332-0.249,0.535-0.249c0.511,0,0.766,0.254,0.766,0.765
			c0,0.178-0.07,0.346-0.21,0.497c-0.238,0.256-0.668,0.74-1.281,1.377c-0.159,0.166-0.344,0.252-0.536,0.252
			c-0.51,0-0.766-0.257-0.766-0.768C57.132,27.849,57.203,27.684,57.344,27.532z M61.112,23.856
			c0.445-0.293,1.086-0.728,1.914-1.263c0.139-0.089,0.288-0.133,0.441-0.133c0.485,0,0.728,0.255,0.728,0.765
			c0,0.255-0.111,0.472-0.326,0.612c-0.413,0.272-1.075,0.696-1.913,1.243c-0.138,0.09-0.287,0.136-0.44,0.136
			c-0.497,0-0.747-0.256-0.747-0.768C60.768,24.206,60.884,24.01,61.112,23.856z M65.763,35.872
			c0.241,0.728,0.601,1.091,1.081,1.091c0.478,0,0.718,0.25,0.718,0.747c0,0.496-0.249,0.746-0.747,0.746
			c-1.173,0-2.035-0.729-2.468-2.125c-0.028-0.087-0.039-0.171-0.039-0.249c0-0.485,0.256-0.727,0.766-0.727
			C65.418,35.356,65.647,35.528,65.763,35.872z M66.777,31.605c-0.434,0.41-0.706,0.869-0.747,1.378
			c-0.037,0.456-0.281,0.688-0.727,0.688c-0.549,0-0.807-0.272-0.766-0.803c0.034-0.418,0.234-0.934,0.574-1.53
			c0.396-0.698,0.777-1.052,1.148-1.052c0.511,0,0.767,0.254,0.767,0.765C67.026,31.254,66.942,31.449,66.777,31.605z
			 M65.725,21.428c0.298-0.456,0.732-0.688,1.281-0.688c0.574,0,1.035,0.144,1.378,0.401c0.136,0.103,0.449,0.434,0.919,0.996
			c0.126,0.151,0.192,0.318,0.192,0.498c0,0.498-0.256,0.745-0.766,0.745c-0.218,0-0.407-0.096-0.565-0.288
			c-0.159-0.191-0.313-0.419-0.469-0.593c-0.148-0.165-0.589-0.324-0.727-0.25c-0.128,0.069-0.352,0.345-0.593,0.345
			c-0.523,0-0.785-0.249-0.785-0.745C65.591,21.708,65.634,21.565,65.725,21.428z M68.403,27.875
			c-0.153,0.217-0.351,0.326-0.593,0.326c-0.511,0-0.766-0.249-0.766-0.745c0-0.153,0.043-0.306,0.134-0.441
			c0.215-0.314,0.447-0.81,0.612-1.455c0.094-0.358,0.319-0.552,0.688-0.552c0.511,0,0.766,0.241,0.766,0.727
			C69.246,26.357,68.965,27.075,68.403,27.875z M69.063,36.217c0.223-0.166,0.582-0.438,1.062-0.746
			c0.121-0.077,0.256-0.114,0.383-0.114c0.498,0,0.747,0.255,0.747,0.765c0,0.269-0.147,0.466-0.364,0.611
			c-0.225,0.152-0.459,0.361-0.688,0.536c-0.302,0.229-0.549,0.344-0.727,0.344c-0.497,0-0.747-0.261-0.747-0.784
			C68.729,36.587,68.84,36.383,69.063,36.217z M71.81,34.017c0.15-0.387,0.48-0.875,1.013-1.339c0.148-0.127,0.318-0.19,0.499-0.19
			c0.51,0,0.766,0.255,0.766,0.765c0,0.204-0.09,0.383-0.268,0.534c-0.178,0.154-0.446,0.414-0.613,0.729
			c-0.146,0.275-0.357,0.496-0.688,0.496c-0.511,0-0.766-0.241-0.766-0.727C71.752,34.196,71.776,34.104,71.81,34.017z
			 M74.813,31.416c-0.115-0.104-0.178-0.294-0.19-0.574c-0.013-0.282,0.019-0.478,0.096-0.573c0.344-0.431,0.686-0.885,0.842-0.957
			c0.332-0.155,1.162,0.433,1.129,0.784c-0.04,0.427-0.666,1.002-1.033,1.167C75.21,31.462,74.927,31.518,74.813,31.416z"/>
		<path fill="#C1272D" stroke="#C1272D" stroke-width="0.5" stroke-miterlimit="10" d="M76.153,30.782
			c-0.077,0.097-0.191,0.155-0.344,0.155c-0.217,0-0.417-0.093-0.602-0.276c-0.186-0.187-0.281-0.464-0.202-0.625
			c0.172-0.339,0.726-0.857,1.187-1.395c0.086-0.101,0.185-0.152,0.286-0.152c0.407,0,0.63,0.284,0.688,0.822
			c0.01,0.101-0.037,0.361-0.191,0.574C76.886,30.007,76.536,30.314,76.153,30.782z M78.373,26.479
			c0.076-0.547,0.685-1.265,1.816-2.106c0.139-0.101,0.293-0.152,0.459-0.152c0.499,0,0.747,0.255,0.747,0.766
			c0,0.229-0.104,0.441-0.307,0.594c-0.346,0.257-1.039,0.689-1.244,1.108c-0.131,0.268-0.307,0.633-0.727,0.633
			C78.545,27.32,78.295,27.039,78.373,26.479z M84.475,36.867c-0.087,0.239-0.328,0.674-0.573,1.244
			c-0.129,0.301-0.344,0.461-0.65,0.461c-0.523,0-0.785-0.236-0.785-0.707c0-0.104,0.024-0.22,0.078-0.326
			c0.103-0.217,0.295-0.609,0.516-1.168c0.129-0.327,0.357-0.499,0.689-0.499c0.509,0,0.766,0.236,0.766,0.707
			C84.514,36.668,84.507,36.778,84.475,36.867z M82.773,22.633c0.652-0.909,1.652-1.377,3.005-1.377
			c0.484,0,0.726,0.249,0.726,0.747c0,0.497-0.243,0.745-0.727,0.745c-0.842,0-1.445,0.251-1.798,0.747
			c-0.154,0.215-0.344,0.324-0.574,0.324c-0.523,0-0.785-0.249-0.785-0.745C82.62,22.919,82.672,22.773,82.773,22.633z
			 M86.237,33.079c-0.205,0.227-0.354,0.53-0.45,0.9c-0.095,0.368-0.329,0.554-0.698,0.554c-0.511,0-0.765-0.235-0.765-0.709
			c0-0.075,0.004-0.146,0.019-0.21c0.136-0.6,0.437-1.123,0.803-1.53c0.154-0.172,0.332-0.267,0.535-0.267
			c0.511,0,0.766,0.256,0.766,0.766C86.447,32.76,86.375,32.926,86.237,33.079z M88.284,28.239
			c-0.166,0.503-0.432,1.637-1.052,2.524c-0.112,0.16-0.337,0.249-0.554,0.249c-0.511,0-0.766-0.249-0.766-0.744
			c0-0.18,0.068-0.348,0.21-0.508c0.14-0.159,0.288-0.493,0.44-1.003c0.19-0.64,0.318-1.027,0.383-1.168
			c0.127-0.281,0.344-0.421,0.649-0.421c0.511,0,0.766,0.243,0.766,0.727C88.36,28.009,88.319,28.131,88.284,28.239z M88.667,22.69
			c0.179,0.521,0.267,1.339,0.267,2.449c0,0.498-0.241,0.747-0.726,0.747c-0.498,0-0.747-0.251-0.747-0.747
			c0-0.931-0.062-1.589-0.191-1.951c-0.036-0.1-0.057-0.196-0.057-0.288c0-0.47,0.262-0.706,0.784-0.706
			C88.328,22.193,88.553,22.359,88.667,22.69z M88.992,27.532c0.268-0.294,0.701-0.755,1.282-1.379
			c0.153-0.164,0.331-0.249,0.536-0.249c0.51,0,0.766,0.254,0.766,0.765c0,0.178-0.07,0.346-0.21,0.497
			c-0.238,0.256-0.669,0.74-1.282,1.377c-0.158,0.166-0.344,0.252-0.534,0.252c-0.511,0-0.766-0.256-0.766-0.766
			C88.782,27.849,88.851,27.684,88.992,27.532z M92.76,23.856c0.444-0.293,1.087-0.728,1.914-1.263
			c0.138-0.089,0.287-0.133,0.44-0.133c0.485,0,0.727,0.255,0.727,0.765c0,0.255-0.11,0.472-0.324,0.612
			c-0.414,0.272-1.076,0.696-1.915,1.243c-0.138,0.09-0.285,0.136-0.439,0.136c-0.497,0-0.747-0.256-0.747-0.768
			C92.417,24.206,92.531,24.01,92.76,23.856z M97.412,35.872c0.241,0.728,0.604,1.091,1.081,1.091c0.478,0,0.718,0.25,0.718,0.747
			c0,0.496-0.249,0.746-0.746,0.746c-1.174,0-2.036-0.729-2.469-2.125c-0.027-0.087-0.04-0.171-0.04-0.249
			c0-0.485,0.255-0.727,0.766-0.727C97.066,35.356,97.295,35.528,97.412,35.872z M98.425,31.605
			c-0.434,0.41-0.707,0.869-0.746,1.378c-0.037,0.456-0.281,0.688-0.727,0.688c-0.549,0-0.809-0.272-0.766-0.803
			c0.033-0.418,0.232-0.934,0.573-1.53c0.397-0.698,0.778-1.052,1.148-1.052c0.511,0,0.766,0.254,0.766,0.765
			C98.673,31.254,98.59,31.449,98.425,31.605z M97.373,21.428c0.297-0.456,0.733-0.688,1.281-0.688c0.574,0,1.035,0.144,1.377,0.401
			c0.137,0.103,0.449,0.434,0.919,0.996c0.127,0.151,0.192,0.318,0.192,0.498c0,0.498-0.257,0.745-0.767,0.745
			c-0.217,0-0.405-0.096-0.564-0.288c-0.16-0.191-0.314-0.419-0.469-0.593c-0.148-0.165-0.588-0.324-0.727-0.25
			c-0.128,0.069-0.351,0.345-0.593,0.345c-0.523,0-0.786-0.249-0.786-0.745C97.239,21.708,97.282,21.565,97.373,21.428z
			 M100.051,27.875c-0.152,0.217-0.351,0.326-0.593,0.326c-0.511,0-0.766-0.249-0.766-0.745c0-0.153,0.042-0.306,0.135-0.441
			c0.215-0.314,0.447-0.81,0.612-1.455c0.094-0.358,0.317-0.552,0.688-0.552c0.511,0,0.766,0.241,0.766,0.727
			C100.893,26.357,100.612,27.075,100.051,27.875z M100.712,36.217c0.223-0.166,0.583-0.438,1.062-0.746
			c0.122-0.077,0.255-0.114,0.383-0.114c0.498,0,0.746,0.255,0.746,0.765c0,0.269-0.148,0.466-0.364,0.611
			c-0.224,0.152-0.46,0.361-0.688,0.536c-0.302,0.229-0.55,0.344-0.727,0.344c-0.498,0-0.747-0.261-0.747-0.784
			C100.376,36.587,100.488,36.383,100.712,36.217z M103.458,34.017c0.149-0.387,0.48-0.875,1.013-1.339
			c0.147-0.127,0.318-0.19,0.498-0.19c0.51,0,0.766,0.255,0.766,0.765c0,0.204-0.09,0.383-0.268,0.534
			c-0.178,0.154-0.446,0.414-0.613,0.729c-0.147,0.275-0.357,0.496-0.688,0.496c-0.511,0-0.766-0.241-0.766-0.727
			C103.399,34.196,103.423,34.104,103.458,34.017z M106.462,31.416c-0.115-0.104-0.179-0.295-0.192-0.574
			c-0.013-0.282,0.019-0.478,0.096-0.573c0.344-0.431,0.687-0.885,0.843-0.957c0.332-0.155,1.161,0.433,1.128,0.784
			c-0.04,0.427-0.666,1.002-1.033,1.167C106.858,31.462,106.576,31.518,106.462,31.416z"/>
		<path fill="#C1272D" stroke="#C1272D" stroke-width="0.5" stroke-miterlimit="10" d="M108.758,28.698
			c-0.23,0.293-0.382,0.591-0.403,0.881c-0.032,0.452-0.269,0.688-0.727,0.688c-0.536,0-0.782-0.269-0.746-0.803
			c0.04-0.599,0.276-1.169,0.707-1.703c0.154-0.189,0.337-0.288,0.555-0.288c0.523,0,0.786,0.249,0.786,0.745
			C108.929,28.385,108.873,28.551,108.758,28.698z M108.566,33.04c0.063,0.142,0.229,0.345,0.229,0.536
			c0,0.472-0.268,0.707-0.805,0.707c-0.587,0-0.919-0.472-0.938-1.359c-0.004-0.198,0.002-0.524-0.019-0.938
			c-0.026-0.512,0.21-0.784,0.746-0.784c0.46,0,0.75,0.278,0.746,0.709C108.526,32.146,108.427,32.73,108.566,33.04z
			 M109.408,36.657c0.276,0.521,0.57,0.823,0.862,0.88c0.4,0.081,0.612,0.313,0.612,0.707c0,0.611-0.305,0.865-0.899,0.746
			c-0.75-0.147-1.357-0.775-1.876-1.645c-0.067-0.112-0.114-0.235-0.114-0.364c0-0.483,0.261-0.726,0.785-0.726
			C109.058,36.256,109.267,36.39,109.408,36.657z M108.909,29.407c0.167,0,0.393-0.045,0.679-0.126
			c0.287-0.083,0.501-0.123,0.642-0.123c0.483,0,0.727,0.254,0.727,0.765c0,0.385-0.193,0.618-0.574,0.709
			c-0.738,0.176-1.231,0.269-1.474,0.269c-0.497,0-0.747-0.251-0.747-0.746C108.164,29.655,108.413,29.407,108.909,29.407z
			 M111.359,24.987c-0.025,0.021-0.375,0.322-1.014,0.899c-0.153,0.138-0.319,0.21-0.498,0.21c-0.498,0-0.747-0.259-0.747-0.784
			c0-0.203,0.084-0.383,0.248-0.535c0.241-0.225,0.622-0.595,1.128-0.994c0.132-0.104,0.288-0.153,0.441-0.153
			c0.498,0,0.746,0.26,0.746,0.784C111.666,24.641,111.538,24.831,111.359,24.987z M112.774,28.219
			c0.316-0.2,0.914-0.487,1.55-0.917c0.139-0.094,0.288-0.152,0.44-0.152c0.497,0,0.746,0.26,0.746,0.784
			c0,0.241-0.12,0.46-0.344,0.591c-0.316,0.188-0.885,0.465-1.493,0.883c-0.151,0.103-0.307,0.172-0.459,0.172
			c-0.498,0-0.747-0.262-0.747-0.784C112.469,28.563,112.576,28.346,112.774,28.219z M114.908,21.904
			c-0.39,0.091-0.718,0.256-0.965,0.498c-0.154,0.149-0.326,0.23-0.516,0.23c-0.511,0-0.766-0.255-0.766-0.766
			c0-0.192,0.076-0.366,0.229-0.517c0.619-0.612,1.257-0.918,1.894-0.918c0.472,0,0.708,0.254,0.708,0.766
			C115.492,21.581,115.298,21.817,114.908,21.904z M113.598,37.574c0.891-0.368,1.396-0.609,1.492-0.726
			c0.142-0.168,0.318-0.27,0.536-0.27c0.522,0,0.785,0.238,0.785,0.709c0,0.319-0.214,0.608-0.641,0.871
			c-0.428,0.26-0.969,0.544-1.598,0.794c-0.098,0.041-0.203,0.059-0.305,0.059c-0.485,0-0.727-0.259-0.727-0.785
			C113.139,37.918,113.292,37.703,113.598,37.574z M116.39,25.925c0.269-0.448,0.536-0.828,0.803-1.092
			c0.156-0.153,0.345-0.229,0.536-0.229c0.511,0,0.765,0.255,0.765,0.767c0,0.189-0.088,0.363-0.249,0.516
			c-0.191,0.185-0.392,0.461-0.593,0.805c-0.14,0.239-0.345,0.363-0.612,0.363c-0.51,0-0.765-0.243-0.765-0.727
			C116.276,26.185,116.313,26.052,116.39,25.925z M117.729,22.231c0-0.396-0.067-0.69-0.191-0.88
			c-0.09-0.139-0.134-0.28-0.134-0.421c0-0.498,0.261-0.747,0.785-0.747c0.241,0,0.439,0.117,0.593,0.344
			c0.291,0.434,0.44,1.001,0.44,1.702c0,0.497-0.249,0.746-0.747,0.746C117.978,22.978,117.729,22.728,117.729,22.231z
			 M118.763,33.633c0.137-0.088,0.281-0.132,0.421-0.132c0.498,0,0.746,0.258,0.746,0.784c0,0.241-0.118,0.44-0.354,0.601
			c-0.237,0.16-0.513,0.451-0.813,0.871c-0.155,0.215-0.351,0.325-0.592,0.325c-0.511,0-0.766-0.248-0.766-0.745
			C117.406,34.813,117.861,34.227,118.763,33.633z M120.159,31.701c0.164-0.102,0.278-0.186,0.326-0.248
			c0.155-0.215,0.35-0.345,0.593-0.345c0.522,0,0.785,0.249,0.785,0.744c0,0.154-0.063,0.294-0.154,0.422
			c-0.17,0.233-0.428,0.492-0.785,0.709c-0.127,0.075-0.255,0.114-0.383,0.114c-0.497,0-0.746-0.262-0.746-0.785
			C119.796,32.059,119.917,31.853,120.159,31.701z M121.593,30.267c0.338-0.431,0.667-0.885,0.823-0.955
			c0.332-0.155,1.159,0.429,1.128,0.784c-0.05,0.563-0.756,1.186-1.032,1.165c-0.226-0.017-0.452-0.188-0.669-0.497
			C121.646,30.486,121.554,30.314,121.593,30.267z"/>
		<path fill="#C1272D" stroke="#C1272D" stroke-width="0.5" stroke-miterlimit="10" d="M123.774,33.291
			c0,0.611,0.101,1.113,0.306,1.491c0.062,0.114,0.097,0.235,0.097,0.362c0,0.485-0.262,0.727-0.784,0.727
			c-0.281,0-0.491-0.135-0.632-0.399c-0.316-0.6-0.478-1.326-0.478-2.18c0-0.497,0.249-0.745,0.746-0.745
			C123.525,32.545,123.774,32.793,123.774,33.291z M124.29,28.276c-0.139,0.191-0.21,0.545-0.21,1.062
			c0,0.516-0.25,0.775-0.747,0.775s-0.747-0.252-0.747-0.748c0-0.853,0.17-1.511,0.498-1.969c0.155-0.216,0.351-0.326,0.593-0.326
			c0.51,0,0.765,0.255,0.765,0.765C124.444,27.989,124.394,28.138,124.29,28.276z M125.515,37.175
			c0.077,0.073,0.142,0.13,0.19,0.152c0.304,0.127,0.498,0.345,0.498,0.69c0,0.497-0.243,0.744-0.727,0.744
			c-0.306,0-0.638-0.185-0.995-0.518c-0.138-0.126-0.263-0.216-0.364-0.265c-0.266-0.139-0.402-0.354-0.402-0.634
			c0-0.524,0.249-0.784,0.747-0.784C124.731,36.562,125.094,36.764,125.515,37.175z M126.95,24.26
			c-0.025,0.009-0.332,0.38-0.919,1.07c-0.163,0.191-0.351,0.289-0.553,0.289c-0.523,0-0.785-0.256-0.785-0.769
			c0-0.164,0.072-0.325,0.191-0.477c0.218-0.279,0.44-0.588,0.669-0.88c0.229-0.293,0.535-0.501,0.898-0.633
			c0.1-0.035,0.197-0.057,0.287-0.057c0.484,0,0.726,0.26,0.726,0.785C127.466,23.921,127.26,24.129,126.95,24.26z M128.098,21.754
			c0.471-0.407,0.924-0.613,1.356-0.613c0.499,0,0.746,0.249,0.746,0.747c0,0.497-0.248,0.745-0.746,0.745
			c-0.064,0-0.181,0.073-0.354,0.22c-0.172,0.147-0.342,0.22-0.507,0.22c-0.511,0-0.766-0.255-0.766-0.767
			C127.829,22.091,127.919,21.904,128.098,21.754z M129.397,36.981c0.163-0.033,0.408-0.183,0.727-0.432
			c0.319-0.248,0.587-0.372,0.805-0.372c0.484,0,0.727,0.258,0.727,0.767c0,0.307-0.2,0.516-0.458,0.67
			c-0.098,0.058-0.249,0.186-0.44,0.326c-0.472,0.345-0.88,0.516-1.224,0.516c-0.498,0-0.746-0.249-0.746-0.746
			C128.786,37.3,128.999,37.065,129.397,36.981z M132.981,22.939v0.038c0,0.01-0.338-0.169-0.549-0.315s-0.345-0.335-0.345-0.566
			c0-0.522,0.235-0.784,0.73-0.784c0.154,0,0.293,0.057,0.432,0.154c0.207,0.141,0.444,0.269,0.627,0.401
			c0.201,0.144,0.361,0.395,0.419,0.649c0.017,0.072,0.018,0.148,0.018,0.211c0,0.486-0.195,0.728-0.706,0.728
			C133.253,23.455,132.981,22.939,132.981,22.939z M132.898,34.418c0.334-0.432,0.841-0.844,1.435-1.243
			c0.125-0.087,0.268-0.135,0.421-0.135c0.497,0,0.746,0.256,0.746,0.767c0,0.254-0.115,0.461-0.344,0.61
			c-0.468,0.308-0.836,0.617-1.091,0.938c-0.154,0.189-0.345,0.286-0.574,0.286c-0.511,0-0.765-0.249-0.765-0.746
			C132.726,34.73,132.784,34.566,132.898,34.418z M135.481,25.925c0,0.497-0.248,0.744-0.746,0.744
			c-0.497,0-0.746-0.249-0.746-0.744c0-0.243,0.117-0.663,0.325-1.245c0.116-0.327,0.336-0.497,0.669-0.497
			c0.522,0,0.784,0.241,0.784,0.727c0,0.115-0.048,0.28-0.143,0.498C135.529,25.624,135.481,25.796,135.481,25.925z M137.317,22.383
			c-0.114,0.091-0.228,0.209-0.308,0.345c-0.146,0.252-0.356,0.401-0.65,0.401c-0.497,0-0.747-0.235-0.747-0.707
			c0-0.383,0.266-0.785,0.785-1.205c0.14-0.114,0.294-0.172,0.46-0.172c0.498,0,0.746,0.255,0.746,0.766
			C137.604,22.041,137.508,22.234,137.317,22.383z M136.858,30.267c0.014-0.166,0.126-0.336,0.325-0.518
			c0.166-0.148,0.362-0.387,0.499-0.438c0.371-0.146,1.16,0.429,1.129,0.784c-0.051,0.563-0.765,1.179-1.033,1.165
			c-0.219-0.009-0.499,0.021-0.688-0.019C136.906,31.204,136.811,30.838,136.858,30.267z"/>
		<path fill="#C1272D" stroke="#C1272D" stroke-width="0.5" stroke-miterlimit="10" d="M138.216,30.782
			c-0.078,0.097-0.191,0.155-0.344,0.155c-0.218,0-0.419-0.093-0.604-0.276c-0.186-0.187-0.28-0.464-0.201-0.625
			c0.172-0.339,0.727-0.857,1.186-1.395c0.087-0.101,0.186-0.152,0.289-0.152c0.409,0,0.629,0.284,0.688,0.822
			c0.01,0.101-0.039,0.361-0.191,0.574C138.95,30.007,138.6,30.314,138.216,30.782z M140.588,32.123
			c-0.061,0.089-0.157,0.628-0.249,1.588c-0.042,0.441-0.28,0.668-0.727,0.668c-0.549,0-0.78-0.289-0.747-0.823
			c0.025-0.368,0.036-0.764,0.069-1.147c0.031-0.383,0.168-0.745,0.392-1.09c0.155-0.237,0.357-0.363,0.612-0.363
			c0.521,0,0.785,0.249,0.785,0.746C140.722,31.841,140.679,31.988,140.588,32.123z M139.46,27.416
			c0.203-0.312,0.597-0.819,1.032-1.491c0.155-0.239,0.356-0.365,0.612-0.365c0.522,0,0.785,0.241,0.785,0.727
			c0,0.14-0.037,0.286-0.115,0.399c-0.208,0.303-0.607,0.787-0.994,1.417c-0.157,0.256-0.371,0.402-0.651,0.402
			c-0.511,0-0.765-0.241-0.765-0.727C139.364,27.651,139.393,27.52,139.46,27.416z M140.742,19.757
			c-0.497,0-0.746-0.189-0.746-0.687c0-0.498,0.249-0.716,0.746-0.716c1.083,0,1.708,0.049,1.855,0.092
			c0.447,0.128,0.707,0.3,0.707,0.543c0,0.205-0.143,0.409-0.431,0.606c-0.287,0.198-0.538,0.226-0.735,0.22
			c-0.062-0.002-0.191-0.059-0.384-0.059C141.35,19.757,141.146,19.757,140.742,19.757z M141.468,36.714
			c0.284,0.487,0.626,0.817,1.033,0.957c0.343,0.117,0.517,0.345,0.517,0.688c0,0.51-0.243,0.767-0.727,0.767
			c-0.076,0-0.171-0.012-0.268-0.039c-0.745-0.219-1.378-0.823-1.855-1.646c-0.074-0.125-0.114-0.254-0.114-0.383
			c0-0.482,0.261-0.726,0.784-0.726C141.105,36.331,141.32,36.462,141.468,36.714z M144.26,22.231
			c-0.26,0.448-0.481,1.034-0.727,1.529c-0.351,0.708-0.707,1.072-1.014,1.072c-0.51,0-0.766-0.251-0.766-0.746
			c0-0.114,0.026-0.229,0.076-0.345c0.229-0.508,0.62-1.293,1.187-2.295c0.137-0.241,0.337-0.364,0.593-0.364
			c0.521,0,0.785,0.25,0.785,0.747C144.396,21.969,144.333,22.107,144.26,22.231z M146.479,17.544
			c-0.228,0.365-0.541,1.039-0.995,1.799c-0.144,0.24-0.357,0.363-0.612,0.363c-0.522,0-0.785-0.249-0.785-0.747
			c0-0.14,0.059-0.285,0.135-0.42c0.216-0.393,0.546-1.102,1.052-1.875c0.141-0.214,0.345-0.325,0.575-0.325
			c0.523,0,0.784,0.249,0.784,0.747C146.633,17.25,146.565,17.407,146.479,17.544z M145.657,37.02
			c0.354-0.064,0.825-0.291,1.377-0.593c0.12-0.066,0.256-0.096,0.383-0.096c0.483,0,0.727,0.255,0.727,0.765
			c0,0.283-0.132,0.491-0.383,0.632c-0.697,0.396-1.321,0.652-1.836,0.746c-0.582,0.104-0.88-0.135-0.88-0.746
			C145.044,37.333,145.251,37.094,145.657,37.02z M147.016,18.31c0.101,0,0.23-0.007,0.383-0.019
			c0.154-0.013,0.287-0.019,0.401-0.019c0.485,0,0.727,0.249,0.727,0.747c0,0.497-0.242,0.746-0.727,0.746
			c-0.115,0-0.249,0.006-0.401,0.02c-0.154,0.014-0.281,0.019-0.383,0.019c-0.498,0-0.746-0.249-0.746-0.746
			C146.27,18.558,146.519,18.31,147.016,18.31z M148.89,12.799c-0.139,0.106-0.328,0.387-0.564,0.814
			c-0.236,0.428-0.445,0.737-0.622,0.871c-0.138,0.104-0.306,0.154-0.459,0.154c-0.511,0-0.766-0.255-0.766-0.766
			c0-0.166,0.167-0.369,0.306-0.574c0.202-0.301,0.591-1.144,1.225-1.704c0.119-0.105,0.305-0.154,0.458-0.154
			c0.497,0,0.746,0.262,0.746,0.785C149.216,12.455,149.094,12.645,148.89,12.799z M150.994,8.361
			c-0.236,0.301-0.465,0.696-0.707,1.052c-0.33,0.485-0.619,0.727-0.861,0.727c-0.522,0-0.785-0.242-0.785-0.727
			c0-0.114,0.025-0.231,0.077-0.344c0.26-0.572,0.663-1.151,1.186-1.722c0.152-0.166,0.332-0.25,0.535-0.25
			c0.511,0,0.766,0.255,0.766,0.766C151.204,8.041,151.113,8.209,150.994,8.361z M151.185,18.348
			c0.425,0.064,0.688,0.287,0.688,0.747c0,0.497-0.249,0.746-0.746,0.746c-0.052,0-0.145-0.027-0.249-0.039
			c-0.068-0.007-0.171,0.007-0.287,0.019c-0.116,0.013-0.21,0.019-0.286,0.019c-0.499,0-0.746-0.249-0.746-0.746
			c0-0.497,0.248-0.747,0.746-0.747c0.077,0,0.171-0.006,0.286-0.019c0.115-0.012,0.21-0.019,0.287-0.019
			C150.968,18.31,151.076,18.331,151.185,18.348z M149.636,34.726c0.049-0.268,0.465-0.785,1.243-1.551
			c0.025-0.024,0.058-0.053,0.077-0.077c0.146-0.187,0.351-0.345,0.631-0.345c0.498,0,0.746,0.216,0.746,0.649
			c0,0.293-0.17,0.661-0.498,0.937c-0.155,0.132-0.589,0.375-0.727,0.634c-0.139,0.26-0.312,0.63-0.707,0.63
			C149.789,35.604,149.53,35.306,149.636,34.726z M153.403,31.416c-0.114-0.091-0.177-0.282-0.19-0.574
			c-0.013-0.282,0.018-0.478,0.096-0.573c0.344-0.431,0.686-0.885,0.84-0.957c0.332-0.155,1.162,0.433,1.129,0.784
			c-0.041,0.427-0.665,1.005-1.033,1.167C153.806,31.454,153.518,31.504,153.403,31.416z"/>
		<path fill="#C1272D" stroke="#C1272D" stroke-width="0.5" stroke-miterlimit="10" d="M177.659,30.782
			c-0.077,0.097-0.191,0.155-0.344,0.155c-0.218,0-0.417-0.093-0.603-0.276c-0.188-0.187-0.282-0.464-0.203-0.625
			c0.173-0.339,0.728-0.857,1.187-1.395c0.087-0.101,0.186-0.152,0.289-0.152c0.407,0,0.63,0.284,0.687,0.822
			c0.012,0.101-0.036,0.361-0.189,0.574C178.395,30.007,178.042,30.314,177.659,30.782z M180.03,32.123
			c-0.06,0.089-0.157,0.628-0.249,1.588c-0.043,0.441-0.282,0.668-0.727,0.668c-0.549,0-0.778-0.289-0.745-0.823
			c0.023-0.368,0.034-0.764,0.066-1.147c0.031-0.383,0.17-0.745,0.393-1.09c0.155-0.237,0.356-0.363,0.612-0.363
			c0.522,0,0.783,0.249,0.783,0.746C180.166,31.841,180.121,31.988,180.03,32.123z M178.902,27.416
			c0.202-0.312,0.597-0.819,1.033-1.491c0.154-0.239,0.357-0.365,0.611-0.365c0.523,0,0.784,0.241,0.784,0.727
			c0,0.14-0.036,0.286-0.115,0.399c-0.207,0.303-0.608,0.787-0.995,1.417c-0.155,0.256-0.37,0.402-0.649,0.402
			c-0.511,0-0.765-0.241-0.765-0.727C178.809,27.651,178.836,27.52,178.902,27.416z M180.184,19.757
			c-0.498,0-0.743-0.189-0.743-0.687c0-0.498,0.248-0.716,0.743-0.716c1.083,0,1.708,0.049,1.856,0.092
			c0.448,0.128,0.706,0.3,0.706,0.543c0,0.205-0.143,0.409-0.43,0.606c-0.286,0.198-0.536,0.226-0.734,0.22
			c-0.062-0.002-0.191-0.059-0.385-0.059C180.792,19.757,180.589,19.757,180.184,19.757z M180.911,36.714
			c0.284,0.487,0.626,0.817,1.033,0.957c0.343,0.117,0.518,0.345,0.518,0.688c0,0.51-0.245,0.767-0.728,0.767
			c-0.077,0-0.171-0.012-0.267-0.039c-0.746-0.219-1.381-0.823-1.856-1.646c-0.073-0.125-0.116-0.254-0.116-0.383
			c0-0.482,0.262-0.726,0.785-0.726C180.547,36.331,180.764,36.462,180.911,36.714z M183.705,22.231
			c-0.26,0.448-0.482,1.034-0.728,1.529c-0.352,0.708-0.707,1.072-1.014,1.072c-0.51,0-0.765-0.251-0.765-0.746
			c0-0.114,0.023-0.229,0.075-0.345c0.229-0.508,0.62-1.293,1.188-2.295c0.135-0.241,0.335-0.364,0.593-0.364
			c0.521,0,0.783,0.25,0.783,0.747C183.838,21.969,183.775,22.107,183.705,22.231z M185.923,17.544
			c-0.228,0.365-0.541,1.039-0.995,1.799c-0.144,0.24-0.359,0.363-0.613,0.363c-0.521,0-0.784-0.249-0.784-0.747
			c0-0.14,0.059-0.285,0.136-0.42c0.216-0.393,0.546-1.102,1.054-1.875c0.139-0.214,0.343-0.325,0.572-0.325
			c0.522,0,0.784,0.249,0.784,0.747C186.077,17.25,186.008,17.407,185.923,17.544z M185.1,37.02
			c0.355-0.064,0.825-0.291,1.379-0.593c0.12-0.066,0.254-0.096,0.382-0.096c0.484,0,0.727,0.255,0.727,0.765
			c0,0.283-0.133,0.491-0.383,0.632c-0.697,0.396-1.32,0.652-1.836,0.746c-0.581,0.104-0.881-0.135-0.881-0.746
			C184.487,37.333,184.694,37.094,185.1,37.02z M186.458,18.31c0.102,0,0.229-0.007,0.381-0.019
			c0.154-0.013,0.288-0.019,0.403-0.019c0.483,0,0.726,0.249,0.726,0.747c0,0.497-0.242,0.746-0.726,0.746
			c-0.115,0-0.251,0.006-0.403,0.02c-0.152,0.014-0.279,0.019-0.381,0.019c-0.498,0-0.746-0.249-0.746-0.746
			C185.712,18.558,185.962,18.31,186.458,18.31z M188.333,12.799c-0.139,0.106-0.329,0.387-0.564,0.814
			c-0.236,0.428-0.446,0.737-0.622,0.871c-0.138,0.104-0.306,0.154-0.458,0.154c-0.511,0-0.766-0.255-0.766-0.766
			c0-0.166,0.167-0.369,0.305-0.574c0.201-0.301,0.593-1.144,1.224-1.704c0.12-0.105,0.306-0.154,0.46-0.154
			c0.497,0,0.744,0.262,0.744,0.785C188.659,12.455,188.537,12.645,188.333,12.799z M190.438,8.36
			c-0.235,0.301-0.465,0.696-0.707,1.052c-0.331,0.484-0.618,0.727-0.861,0.727c-0.523,0-0.784-0.241-0.784-0.727
			c0-0.115,0.025-0.231,0.076-0.344c0.26-0.572,0.663-1.152,1.186-1.722c0.153-0.166,0.334-0.25,0.537-0.25
			c0.51,0,0.766,0.256,0.766,0.766C190.647,8.041,190.556,8.209,190.438,8.36z M190.629,18.348c0.426,0.064,0.688,0.287,0.688,0.747
			c0,0.497-0.248,0.746-0.744,0.746c-0.052,0-0.146-0.027-0.25-0.039c-0.067-0.007-0.172,0.007-0.288,0.019
			c-0.113,0.013-0.21,0.019-0.285,0.019c-0.499,0-0.746-0.249-0.746-0.746c0-0.497,0.249-0.747,0.746-0.747
			c0.075,0,0.172-0.006,0.285-0.019c0.116-0.012,0.212-0.019,0.288-0.019C190.411,18.31,190.52,18.331,190.629,18.348z
			 M189.078,34.726c0.05-0.268,0.466-0.785,1.243-1.551c0.024-0.024,0.058-0.053,0.078-0.077c0.146-0.187,0.35-0.345,0.63-0.345
			c0.497,0,0.746,0.216,0.746,0.649c0,0.293-0.17,0.661-0.498,0.937c-0.154,0.132-0.589,0.375-0.728,0.634
			c-0.138,0.26-0.312,0.63-0.706,0.63C189.231,35.604,188.974,35.306,189.078,34.726z M192.847,31.416
			c-0.114-0.091-0.179-0.282-0.19-0.574c-0.013-0.282,0.017-0.478,0.095-0.573c0.344-0.431,0.685-0.885,0.841-0.957
			c0.334-0.155,1.163,0.433,1.13,0.784c-0.04,0.427-0.664,1.005-1.032,1.167C193.248,31.454,192.962,31.504,192.847,31.416z"/>
		<path fill="#C1272D" stroke="#C1272D" stroke-width="0.5" stroke-miterlimit="10" d="M191.564,37.786
			c0.301-0.661,0.483-1.109,0.538-1.32c0.092-0.365,0.336-0.557,0.705-0.557c0.512,0,0.767,0.237,0.767,0.709
			c0,0.243-0.212,0.858-0.65,1.799c-0.139,0.293-0.356,0.44-0.65,0.44c-0.522,0-0.784-0.243-0.784-0.726
			C191.489,38.016,191.513,37.9,191.564,37.786z M194.148,30.782c-0.077,0.097-0.189,0.155-0.345,0.155
			c-0.217,0-0.418-0.093-0.602-0.276c-0.187-0.187-0.281-0.464-0.202-0.625c0.167-0.327,0.714-0.843,1.187-1.395
			c0.087-0.101,0.186-0.152,0.288-0.152c0.407,0,0.628,0.284,0.688,0.822c0.01,0.101-0.04,0.361-0.19,0.574
			C194.881,30.007,194.531,30.314,194.148,30.782z M194.377,31.567c0.152-0.217,0.351-0.326,0.593-0.326
			c0.51,0,0.766,0.243,0.766,0.729c0,0.153-0.044,0.303-0.134,0.438c-0.536,0.812-0.886,1.43-0.975,1.838
			c-0.091,0.409-0.334,0.61-0.729,0.61c-0.51,0-0.765-0.241-0.765-0.727C193.134,33.609,193.546,32.749,194.377,31.567z
			 M195.735,28.641c0.247-0.457,0.64-1.346,1.282-2.2c0.131-0.177,0.332-0.27,0.534-0.27c0.522,0,0.784,0.256,0.784,0.767
			c0,0.178-0.084,0.338-0.212,0.479c-0.179,0.197-0.374,0.584-0.593,1.09c-0.251,0.586-0.444,0.977-0.565,1.165
			c-0.12,0.191-0.295,0.29-0.524,0.29c-0.562,0-0.844-0.294-0.844-0.881C195.602,28.928,195.663,28.777,195.735,28.641z
			 M197.897,24.183c0.235-0.488,0.807-1.374,1.109-2.391c0.101-0.34,0.313-0.574,0.709-0.574c0.511,0,0.766,0.236,0.766,0.707
			c0,0.306-0.174,0.78-0.497,1.416c-0.464,0.907-0.702,1.385-0.708,1.396c-0.153,0.229-0.346,0.479-0.651,0.479
			c-0.522,0-0.782-0.243-0.782-0.728C197.841,24.387,197.854,24.271,197.897,24.183z M198.623,27.168
			c0.251-0.256,0.686-0.684,1.11-1.264c0.155-0.212,0.351-0.345,0.593-0.345c0.524,0,0.785,0.241,0.785,0.728
			c0,0.14-0.046,0.282-0.137,0.42c-0.163,0.254-0.578,0.777-1.241,1.473c-0.158,0.166-0.352,0.249-0.556,0.249
			c-0.511,0-0.765-0.249-0.765-0.744C198.414,27.491,198.483,27.31,198.623,27.168z M200.479,18.844
			c0.278-0.433,0.558-1.046,0.86-1.759c0.129-0.302,0.362-0.459,0.67-0.459c0.523,0,0.784,0.242,0.784,0.727
			c0,0.103-0.033,0.207-0.077,0.307c-0.352,0.782-0.663,1.504-0.996,2.009c-0.149,0.229-0.355,0.344-0.609,0.344
			c-0.511,0-0.768-0.25-0.768-0.746C200.343,19.124,200.39,18.984,200.479,18.844z M201.59,21.236
			c0.331-0.325,0.976-0.997,1.797-1.416c0.088-0.043,0.197-0.058,0.289-0.058c0.483,0,0.727,0.255,0.727,0.766
			c0,0.332-0.418,0.558-0.498,0.669c-0.003,0.004-0.447,0.413-1.34,1.168c-0.15,0.126-0.312,0.19-0.478,0.19
			c-0.51,0-0.765-0.256-0.765-0.767C201.321,21.574,201.434,21.39,201.59,21.236z M202.564,23.608
			c0.956-0.721,1.757-1.217,2.258-1.511c0.112-0.066,0.235-0.116,0.364-0.116c0.482,0,0.727,0.261,0.727,0.785
			c0,0.281-0.136,0.491-0.4,0.631c-0.47,0.253-1.162,0.767-2.048,1.397c-0.145,0.102-0.306,0.152-0.459,0.152
			c-0.499,0-0.745-0.255-0.745-0.765C202.26,23.952,202.361,23.761,202.564,23.608z M202.947,13.66
			c0.22-0.449,0.729-1.215,1.225-2.2c0.141-0.286,0.362-0.44,0.668-0.44c0.511,0,0.766,0.242,0.766,0.727
			c0,0.102-0.02,0.223-0.075,0.325c-0.235,0.431-0.756,1.178-1.187,2.123c-0.135,0.298-0.351,0.479-0.669,0.479
			c-0.525,0-0.785-0.241-0.785-0.727C202.89,13.857,202.903,13.749,202.947,13.66z M206.696,15.937c0.14-0.28,0.358-0.42,0.65-0.42
			c0.51,0,0.766,0.249,0.766,0.747c0,0.115-0.023,0.234-0.076,0.344c-0.162,0.338-0.463,0.669-0.843,0.976
			c-0.431,0.352-0.707,0.63-0.823,0.803c-0.145,0.216-0.35,0.326-0.593,0.326c-0.521,0-0.782-0.249-0.782-0.747
			c0-0.268,0.241-0.614,0.726-1.032C206.279,16.447,206.606,16.115,206.696,15.937z M207.174,34.726
			c-0.077,0.239-0.114,0.375-0.114,0.399c0,0.294,0.121,0.615,0.345,0.957c0.09,0.139,0.136,0.28,0.136,0.42
			c0,0.499-0.262,0.746-0.785,0.746c-0.243,0-0.44-0.116-0.595-0.345c-0.395-0.597-0.594-1.191-0.594-1.778
			c0-0.894,0.338-1.341,1.015-1.341c0.432,0,0.649,0.204,0.649,0.613C207.23,34.5,207.212,34.611,207.174,34.726z M205.682,8.017
			c0.281-0.938,0.798-1.833,1.512-2.622c0.162-0.178,0.352-0.267,0.555-0.267c0.51,0,0.766,0.255,0.766,0.766
			c0,0.178-0.062,0.35-0.189,0.498c-0.564,0.648-0.989,1.356-1.225,2.085c-0.108,0.342-0.345,0.516-0.688,0.516
			c-0.511,0-0.766-0.242-0.766-0.727C205.644,8.188,205.656,8.104,205.682,8.017z M209.144,28.641
			c-0.162,0.189-0.375,0.735-0.593,1.607c-0.094,0.374-0.319,0.573-0.688,0.573c-0.524,0-0.783-0.241-0.783-0.727
			c0-0.063,0.018-0.138,0.037-0.213c0.103-0.359,0.191-0.767,0.306-1.156c0.116-0.389,0.316-0.742,0.595-1.062
			c0.153-0.175,0.336-0.268,0.555-0.268c0.51,0,0.765,0.249,0.765,0.744C209.336,28.32,209.272,28.489,209.144,28.641z
			 M208.589,21.121c1.244,0.563,1.972,1.384,1.972,2.546c0,0.229-0.022,0.475-0.077,0.727c-0.084,0.392-0.325,0.594-0.707,0.594
			c-0.512,0-0.766-0.243-0.766-0.728c0-0.062,0.009-0.158,0.028-0.287c0.02-0.126,0.027-0.223,0.027-0.287
			c0-0.51-0.358-0.902-1.052-1.187c-0.306-0.123-0.458-0.352-0.458-0.67c0-0.523,0.241-0.784,0.727-0.784
			C208.386,21.045,208.488,21.076,208.589,21.121z M208.436,13.737c0.333-0.458,0.729-0.945,1.15-1.454
			c0.153-0.186,0.336-0.288,0.554-0.288c0.509,0,0.766,0.25,0.766,0.747c0,0.178-0.07,0.339-0.189,0.478
			c-0.412,0.475-0.762,0.96-1.053,1.377c-0.154,0.217-0.352,0.326-0.594,0.326c-0.524,0-0.784-0.25-0.784-0.746
			C208.284,14.023,208.334,13.876,208.436,13.737z M209.604,37.213c0.394-0.318,0.631-0.505,0.708-0.556
			c0.253-0.166,0.548-0.264,0.86-0.306c0.565-0.079,0.86,0.158,0.86,0.745c0,0.422-0.226,0.676-0.651,0.728
			c-0.122,0.015-0.409,0.216-0.84,0.555c-0.147,0.116-0.313,0.173-0.479,0.173c-0.498,0-0.745-0.264-0.745-0.784
			C209.315,37.55,209.412,37.364,209.604,37.213z M210.713,2.468c0.293-0.072,0.572-0.115,0.842-0.115
			c0.766,0,1.396,0.238,1.895,0.717c0.497,0.478,0.746,1.087,0.746,1.826c0,0.383-0.073,0.773-0.212,1.167
			c-0.116,0.33-0.345,0.498-0.688,0.498c-0.51,0-0.767-0.242-0.767-0.727c0-0.09,0.029-0.233,0.087-0.431
			c0.059-0.198,0.086-0.36,0.086-0.488c0-0.713-0.373-1.071-1.126-1.071c-0.077,0-0.195,0.017-0.355,0.048
			c-0.158,0.032-0.276,0.048-0.354,0.048c-0.485,0-0.727-0.255-0.727-0.765C210.139,2.792,210.337,2.56,210.713,2.468z
			 M213.237,8.513c-0.106,0.395-0.451,1.142-0.632,2.01c-0.082,0.394-0.306,0.632-0.727,0.632c-0.588,0-0.885-0.369-0.746-0.862
			c0.112-0.399,0.453-1.138,0.632-1.991c0.084-0.403,0.306-0.651,0.727-0.651C213.066,7.652,213.368,8.027,213.237,8.513z
			 M213.258,34.208c0.17-0.203,0.521-0.476,0.728-0.785c0.149-0.223,0.362-0.401,0.668-0.401c0.498,0,0.746,0.23,0.746,0.688
			c0,0.32-0.197,0.668-0.592,1.035c-0.481,0.446-0.793,0.669-0.919,0.669c-0.524,0-0.785-0.25-0.785-0.746
			C213.104,34.516,213.152,34.333,213.258,34.208z M216.604,31.416c-0.116-0.091-0.178-0.282-0.191-0.574
			c-0.012-0.282,0.018-0.478,0.097-0.573c0.345-0.431,0.686-0.885,0.842-0.957c0.333-0.155,1.162,0.433,1.13,0.784
			c-0.044,0.427-0.667,1.005-1.034,1.167C217.005,31.454,216.719,31.503,216.604,31.416z"/>
		<path fill="#C1272D" stroke="#C1272D" stroke-width="0.5" stroke-miterlimit="10" d="M218.843,28.698
			c-0.229,0.293-0.381,0.591-0.4,0.881c-0.032,0.452-0.269,0.688-0.727,0.688c-0.535,0-0.782-0.269-0.745-0.803
			c0.04-0.599,0.275-1.169,0.707-1.703c0.153-0.189,0.337-0.288,0.554-0.288c0.525,0,0.786,0.249,0.786,0.745
			C219.015,28.385,218.96,28.551,218.843,28.698z M218.651,33.04c0.062,0.14,0.229,0.345,0.229,0.536
			c0,0.472-0.268,0.707-0.805,0.707c-0.588,0-0.918-0.472-0.938-1.359c-0.004-0.198,0.002-0.524-0.019-0.938
			c-0.025-0.512,0.21-0.784,0.745-0.784c0.46,0,0.75,0.278,0.746,0.709C218.61,32.146,218.512,32.73,218.651,33.04z M219.491,36.657
			c0.278,0.521,0.571,0.823,0.862,0.88c0.399,0.081,0.611,0.313,0.611,0.707c0,0.611-0.304,0.865-0.899,0.746
			c-0.75-0.147-1.356-0.775-1.874-1.645c-0.066-0.112-0.114-0.237-0.114-0.364c0-0.483,0.259-0.726,0.782-0.726
			C219.14,36.256,219.352,36.39,219.491,36.657z M218.997,29.407c0.165,0,0.392-0.045,0.679-0.126
			c0.287-0.083,0.499-0.123,0.639-0.123c0.486,0,0.728,0.254,0.728,0.765c0,0.385-0.192,0.618-0.573,0.709
			c-0.738,0.176-1.231,0.269-1.473,0.269c-0.498,0-0.746-0.251-0.746-0.746C218.249,29.655,218.499,29.407,218.997,29.407z
			 M221.443,24.987c-0.024,0.021-0.374,0.322-1.015,0.899c-0.153,0.138-0.317,0.21-0.495,0.21c-0.499,0-0.746-0.259-0.746-0.784
			c0-0.203,0.084-0.383,0.248-0.535c0.242-0.225,0.621-0.595,1.129-0.994c0.13-0.104,0.287-0.153,0.44-0.153
			c0.499,0,0.743,0.26,0.743,0.784C221.75,24.641,221.624,24.831,221.443,24.987z M222.859,28.219
			c0.315-0.2,0.913-0.487,1.551-0.917c0.138-0.094,0.288-0.152,0.44-0.152c0.499,0,0.744,0.261,0.744,0.784
			c0,0.241-0.119,0.46-0.342,0.591c-0.318,0.188-0.887,0.465-1.495,0.883c-0.151,0.103-0.306,0.172-0.46,0.172
			c-0.497,0-0.746-0.262-0.746-0.784C222.554,28.563,222.66,28.346,222.859,28.219z M224.994,21.904
			c-0.391,0.091-0.72,0.256-0.966,0.498c-0.155,0.149-0.325,0.23-0.518,0.23c-0.51,0-0.766-0.255-0.766-0.766
			c0-0.192,0.075-0.366,0.229-0.517c0.619-0.612,1.255-0.918,1.894-0.918c0.473,0,0.709,0.254,0.709,0.766
			C225.576,21.581,225.383,21.817,224.994,21.904z M223.683,37.574c0.891-0.368,1.394-0.609,1.491-0.726
			c0.143-0.168,0.319-0.27,0.534-0.27c0.524,0,0.785,0.238,0.785,0.709c0,0.319-0.212,0.608-0.64,0.871
			c-0.429,0.26-0.968,0.544-1.599,0.794c-0.099,0.041-0.204,0.059-0.306,0.059c-0.485,0-0.727-0.261-0.727-0.785
			C223.224,37.918,223.377,37.701,223.683,37.574z M226.476,25.925c0.268-0.448,0.534-0.828,0.804-1.092
			c0.154-0.153,0.346-0.229,0.536-0.229c0.51,0,0.766,0.255,0.766,0.767c0,0.189-0.09,0.363-0.25,0.516
			c-0.192,0.185-0.391,0.461-0.594,0.805c-0.141,0.239-0.346,0.363-0.612,0.363c-0.51,0-0.765-0.243-0.765-0.727
			C226.36,26.185,226.398,26.052,226.476,25.925z M227.815,22.231c0-0.396-0.066-0.69-0.19-0.88
			c-0.088-0.139-0.135-0.28-0.135-0.421c0-0.498,0.261-0.747,0.783-0.747c0.243,0,0.441,0.117,0.594,0.344
			c0.292,0.434,0.441,1.001,0.441,1.702c0,0.497-0.251,0.746-0.746,0.746C228.065,22.977,227.815,22.728,227.815,22.231z
			 M228.848,33.633c0.138-0.088,0.282-0.132,0.422-0.132c0.497,0,0.744,0.258,0.744,0.784c0,0.241-0.118,0.44-0.354,0.601
			s-0.513,0.451-0.812,0.871c-0.154,0.215-0.35,0.325-0.591,0.325c-0.512,0-0.767-0.248-0.767-0.745
			C227.489,34.813,227.945,34.227,228.848,33.633z M230.243,31.701c0.165-0.102,0.28-0.186,0.325-0.248
			c0.156-0.215,0.352-0.345,0.595-0.345c0.524,0,0.784,0.249,0.784,0.744c0,0.154-0.06,0.294-0.152,0.422
			c-0.17,0.233-0.428,0.492-0.783,0.709c-0.127,0.075-0.257,0.114-0.384,0.114c-0.498,0-0.747-0.262-0.747-0.785
			C229.881,32.059,230.002,31.853,230.243,31.701z M231.682,30.267c0.338-0.431,0.665-0.885,0.822-0.955
			c0.332-0.155,1.16,0.429,1.13,0.784c-0.051,0.563-0.759,1.186-1.034,1.165c-0.225-0.017-0.451-0.188-0.67-0.497
			C231.732,30.486,231.643,30.314,231.682,30.267z"/>
		<path fill="#C1272D" stroke="#C1272D" stroke-width="0.5" stroke-miterlimit="10" d="M253.878,33.061
			c0.022-0.201,0.105-0.545,0.248-1.013c0.126-0.421,0.192-0.754,0.192-0.996c0-0.498,0.248-0.746,0.744-0.746
			c0.497,0,0.745,0.25,0.745,0.746c0,0.281-0.059,0.651-0.19,1.09c-0.145,0.48-0.23,0.842-0.249,1.054
			c-0.037,0.435-0.294,0.668-0.728,0.668C254.08,33.863,253.817,33.587,253.878,33.061z M255.292,36.314
			c0.181,0.255,0.518,0.705,0.918,0.917c0.279,0.147,0.555,0.337,0.555,0.669c0,0.512-0.267,0.766-0.802,0.766
			c-0.398,0-0.82-0.223-1.246-0.669c-0.51-0.537-0.766-0.957-0.766-1.225c0-0.51,0.256-0.766,0.766-0.766
			C254.948,36.007,255.149,36.11,255.292,36.314z M256.976,27.264c0.149-0.229,0.409-0.503,0.766-0.821
			c0.357-0.321,0.587-0.557,0.688-0.709c0.154-0.23,0.352-0.347,0.593-0.347c0.523,0,0.784,0.251,0.784,0.746
			c0,0.154-0.05,0.294-0.133,0.422c-0.13,0.194-0.37,0.462-0.726,0.774c-0.358,0.313-0.602,0.564-0.729,0.758
			c-0.152,0.228-0.35,0.342-0.592,0.342c-0.523,0-0.786-0.249-0.786-0.744C256.841,27.543,256.887,27.401,256.976,27.264z
			 M259.138,37.154c0.174-0.054,0.412-0.127,0.697-0.229c0.29-0.104,0.52-0.195,0.682-0.25c0.085-0.028,0.172-0.039,0.248-0.039
			c0.485,0,0.728,0.263,0.728,0.784c0,0.344-0.18,0.577-0.534,0.688c-0.164,0.052-0.394,0.127-0.681,0.229s-0.525,0.176-0.698,0.229
			c-0.074,0.022-0.16,0.039-0.248,0.039c-0.474,0-0.709-0.257-0.709-0.766C258.622,37.498,258.798,37.259,259.138,37.154z
			 M261.99,23.208c0.295-0.229,0.959-0.569,1.473-1.073c0.155-0.149,0.337-0.268,0.556-0.268c0.511,0,0.765,0.257,0.765,0.767
			c0,0.165-0.063,0.362-0.189,0.477c-0.274,0.251-0.962,0.634-1.588,1.188c-0.153,0.135-0.32,0.229-0.5,0.229
			c-0.511,0-0.764-0.26-0.764-0.783C261.742,23.551,261.827,23.333,261.99,23.208z M263.099,35.604
			c0.23-0.185,0.344-0.274,0.572-0.459c0.104-0.09,0.202-0.156,0.297-0.202c0.094-0.046,0.2-0.066,0.316-0.066
			c0.483,0,0.728,0.262,0.728,0.784c0,0.283-0.346,0.513-0.422,0.633c-0.002,0.008-0.007,0.025-0.019,0.041
			c-0.09,0.067-0.138,0.102-0.229,0.171c-0.121,0.099-0.185,0.151-0.304,0.25c-0.155,0.129-0.315,0.191-0.479,0.191
			c-0.511,0-0.766-0.262-0.766-0.785C262.793,35.942,262.894,35.757,263.099,35.604z M265.681,33.423
			c0.173-0.416,0.581-1.152,0.959-2.104c0.12-0.304,0.33-0.477,0.648-0.477c0.522,0,0.786,0.241,0.786,0.726
			c0,0.101-0.017,0.212-0.059,0.306c-0.176,0.408-0.509,1.15-0.938,2.123c-0.137,0.304-0.366,0.46-0.671,0.46
			c-0.522,0-0.783-0.235-0.783-0.709C265.625,33.646,265.638,33.528,265.681,33.423z M267.882,37.059
			c0.242,0.279,0.476,0.431,0.688,0.46c0.418,0.056,0.634,0.306,0.634,0.726c0,0.588-0.289,0.836-0.86,0.746
			c-0.574-0.091-1.098-0.413-1.57-0.939c-0.139-0.152-0.212-0.316-0.212-0.494c0-0.512,0.256-0.766,0.766-0.766
			C267.546,36.791,267.729,36.88,267.882,37.059z M267.079,21.314c0.356-0.29,0.996-0.498,1.895-0.631
			c0.57-0.085,0.86,0.159,0.86,0.746c0,0.422-0.236,0.687-0.649,0.728c-0.265,0.022-0.756,0.085-1.148,0.305
			c-0.145,0.083-0.314,0.173-0.479,0.173c-0.511,0-0.767-0.256-0.767-0.767C266.793,21.649,266.891,21.466,267.079,21.314z
			 M268.284,27.779c0.245-0.378,0.687-1.03,0.976-1.818c0.12-0.329,0.337-0.554,0.708-0.554c0.51,0,0.765,0.237,0.765,0.707
			c0,0.077-0.003,0.158-0.018,0.23c-0.068,0.303-0.503,1.053-1.148,2.179c-0.145,0.25-0.347,0.383-0.613,0.383
			c-0.525,0-0.783-0.249-0.783-0.743C268.172,28.035,268.207,27.9,268.284,27.779z M271.574,36.81
			c0.229-0.119,0.616-0.327,1.111-0.613c0.127-0.071,0.255-0.114,0.382-0.114c0.485,0,0.729,0.264,0.729,0.785
			c0,0.279-0.156,0.484-0.403,0.631c-0.188,0.111-0.589,0.393-1.149,0.65c-0.117,0.056-0.247,0.075-0.362,0.075
			c-0.484,0-0.728-0.259-0.728-0.784C271.155,37.159,271.305,36.951,271.574,36.81z M271.327,21.715
			c0.208-0.361,0.626-0.986,0.939-1.76c0.127-0.316,0.336-0.516,0.668-0.516c0.523,0,0.785,0.242,0.785,0.727
			c0,0.089-0.024,0.182-0.057,0.268c-0.086,0.227-0.427,0.913-1.036,2.007c-0.139,0.255-0.343,0.384-0.61,0.384
			c-0.524,0-0.784-0.242-0.784-0.728C271.232,21.969,271.26,21.831,271.327,21.715z M274.082,16.147
			c0.155-0.824,0.587-1.601,1.301-2.316c0.154-0.154,0.326-0.23,0.518-0.23c0.511,0,0.766,0.255,0.766,0.766
			c0,0.191-0.077,0.363-0.23,0.516c-0.498,0.499-0.8,1.01-0.899,1.531c-0.077,0.406-0.312,0.612-0.707,0.612
			C274.218,17.027,273.972,16.731,274.082,16.147z M276.703,34.073c-0.145,0.181-0.458,0.603-0.917,0.919
			c-0.098,0.068-0.237,0.095-0.365,0.095c-0.498,0-0.746-0.255-0.746-0.765c0-0.28,0.217-0.479,0.402-0.632
			c0.138-0.116,0.33-0.414,0.571-0.671c0.146-0.152,0.327-0.228,0.519-0.228c0.509,0,0.765,0.256,0.765,0.765
			C276.932,33.749,276.825,33.924,276.703,34.073z M277.393,31.033c0.085-0.155,0.35-0.424,0.632-0.767
			c0.355-0.433,0.666-0.885,0.823-0.955c0.331-0.155,1.188,0.506,1.127,0.784c-0.048,0.221-0.759,0.74-1.033,1.165
			c-0.071,0.111-0.223,0.396-0.44,0.536c-0.322,0.208-0.723,0.267-0.86,0.267c-0.243,0-0.364-0.145-0.364-0.438
			C277.278,31.471,277.294,31.212,277.393,31.033z M277.412,10.025c0.211-0.395,0.646-1.065,1.109-1.952
			c0.142-0.273,0.356-0.421,0.649-0.421c0.523,0,0.785,0.243,0.785,0.727c0,0.115-0.028,0.249-0.097,0.364
			c-0.224,0.386-0.68,1.039-1.071,1.874c-0.134,0.288-0.352,0.459-0.67,0.459c-0.523,0-0.785-0.241-0.785-0.727
			C277.334,10.249,277.355,10.129,277.412,10.025z"/>
		<path fill="#C1272D" stroke="#C1272D" stroke-width="0.5" stroke-miterlimit="10" d="M279.726,29.961
			c-0.087,0.127-0.112,0.709-0.247,1.242c-0.095,0.365-0.333,0.556-0.689,0.556c-0.523,0-0.784-0.236-0.784-0.707
			c0-0.078,0.02-0.157,0.038-0.23c0.085-0.347,0.138-0.775,0.223-1.177c0.081-0.402,0.322-0.715,0.694-0.945
			c0.138-0.087,0.274-0.135,0.403-0.135c0.496,0,0.745,0.261,0.745,0.782C280.108,29.617,279.815,29.83,279.726,29.961z
			 M280.225,35.375c-0.002,0.01,0.421,0.343,0.421,0.611c0,0.511-0.268,0.767-0.806,0.767c-0.357,0-0.657-0.236-0.897-0.709
			c-0.333-0.649-0.498-1.307-0.498-1.972c0-0.981,0.317-1.472,0.955-1.472c0.511,0,0.767,0.223,0.767,0.671
			c0,0.151-0.052,0.303-0.153,0.457c-0.052,0.076-0.077,0.191-0.077,0.345c0,0.42,0.351,1.293,0.345,1.3
			C280.279,35.379,280.225,35.375,280.225,35.375z M280.09,26.898c0.426-0.692,1.157-1.425,2.162-2.143
			c0.141-0.101,0.289-0.153,0.442-0.153c0.497,0,0.744,0.262,0.744,0.784c0,0.243-0.107,0.442-0.324,0.593
			c-0.51,0.359-0.844,0.593-0.979,0.709c-0.279,0.241-0.532,0.584-0.766,0.975c-0.149,0.256-0.361,0.385-0.63,0.385
			c-0.523,0-0.786-0.251-0.786-0.746C279.956,27.175,280.004,27.039,280.09,26.898z M282.291,37.48
			c0.329,0.171,1.245,0.267,1.245,0.267s0.229-0.037,1.071-0.114c0.548-0.052,0.823,0.197,0.823,0.746
			c0,0.445-0.235,0.699-0.688,0.746c-0.869,0.084-1.205,0.115-1.205,0.115s-1.404-0.152-1.952-0.439
			c-0.267-0.143-0.401-0.353-0.401-0.632c0-0.524,0.242-0.784,0.728-0.784C282.035,37.385,282.166,37.416,282.291,37.48z
			 M285.256,22.21c0.419-0.495,1.447-0.842,2.698-1.241c0.059-0.019,0.136-0.039,0.211-0.039c0.472,0,0.71,0.256,0.71,0.765
			c0,0.384-0.187,0.621-0.557,0.708c-0.534,0.128-1.372,0.355-1.933,0.785c-0.161,0.124-0.352,0.267-0.557,0.267
			c-0.511,0-0.765-0.248-0.765-0.744C285.064,22.53,285.127,22.364,285.256,22.21z M287.916,35.986
			c0.174-0.055,0.479-0.235,0.898-0.516c0.357-0.239,0.619-0.364,0.784-0.364c0.484,0,0.729,0.263,0.729,0.784
			c0,0.243-0.118,0.44-0.347,0.593c-0.942,0.634-1.569,0.956-1.873,0.956c-0.485,0-0.727-0.254-0.727-0.764
			C287.381,36.32,287.572,36.097,287.916,35.986z M291.399,23.972c-0.22,0.452-0.553,1.155-0.881,2.028
			c-0.12,0.328-0.344,0.518-0.688,0.518c-0.511,0-0.767-0.243-0.767-0.729c0-0.086,0.01-0.195,0.039-0.285
			c0.148-0.422,0.503-1.166,0.919-2.105c0.136-0.302,0.364-0.458,0.67-0.458c0.522,0,0.785,0.236,0.785,0.709
			C291.477,23.761,291.447,23.871,291.399,23.972z M290.749,28.563c0.136,0.383,0.357,0.661,0.649,0.823
			c0.254,0.142,0.383,0.346,0.383,0.613c0,0.522-0.244,0.784-0.728,0.784c-0.139,0-0.275-0.04-0.4-0.116
			c-0.6-0.348-1.033-0.913-1.302-1.605c-0.034-0.087-0.058-0.179-0.058-0.269c0-0.484,0.261-0.728,0.783-0.728
			C290.41,28.066,290.631,28.235,290.749,28.563z M291.743,20.433c0.572,0.077,1.194,0.286,1.856,0.631
			c0.828,0.432,1.243,0.879,1.243,1.338c0,0.497-0.261,0.746-0.784,0.746c-0.281,0-0.489-0.153-0.632-0.421
			c-0.047-0.087-0.262-0.235-0.632-0.42c-0.437-0.22-0.863-0.355-1.243-0.403c-0.43-0.053-0.649-0.292-0.649-0.726
			C290.9,20.605,291.183,20.356,291.743,20.433z M294.01,31.653c-0.209,0.135-0.437,0.417-0.678,0.853
			c-0.242,0.432-0.514,0.748-0.805,0.937c-0.139,0.09-0.283,0.134-0.42,0.134c-0.486,0-0.728-0.26-0.728-0.783
			c0-0.255,0.117-0.473,0.342-0.613c0.086-0.051,0.262-0.296,0.518-0.736s0.57-0.784,0.938-1.023
			c0.14-0.089,0.282-0.133,0.423-0.133c0.483,0,0.727,0.262,0.727,0.784C294.325,31.325,294.221,31.521,294.01,31.653z
			 M295.762,24.719c0.038,0.97-0.092,1.946-0.421,2.889c-0.116,0.33-0.345,0.497-0.688,0.497c-0.511,0-0.767-0.235-0.767-0.707
			c0-0.089,0.011-0.182,0.039-0.267c0.238-0.752,0.396-1.558,0.364-2.355c-0.021-0.52,0.222-0.784,0.744-0.784
			C295.505,23.991,295.741,24.239,295.762,24.719z M295.016,31.834c0.496,0.05,0.804,0.077,0.918,0.077
			c0.498,0,0.746,0.249,0.746,0.746s-0.25,0.746-0.746,0.746c-0.154,0-0.511-0.041-1.051-0.096c-0.44-0.045-0.671-0.28-0.671-0.727
			C294.211,32.034,294.481,31.782,295.016,31.834z M297.675,31.416c-0.116-0.091-0.179-0.282-0.191-0.574
			c-0.014-0.282,0.018-0.478,0.097-0.573c0.345-0.431,0.687-0.885,0.842-0.957c0.333-0.155,1.162,0.433,1.129,0.784
			c-0.041,0.427-0.666,1.005-1.034,1.167C298.076,31.454,297.789,31.504,297.675,31.416z"/>
		<path fill="#C1272D" stroke="#C1272D" stroke-width="0.5" stroke-miterlimit="10" d="M298.517,30.782
			c-0.077,0.097-0.191,0.155-0.345,0.155c-0.216,0-0.416-0.093-0.602-0.276c-0.187-0.187-0.283-0.464-0.202-0.625
			c0.171-0.339,0.727-0.857,1.187-1.395c0.086-0.101,0.186-0.152,0.288-0.152c0.407,0,0.63,0.284,0.688,0.822
			c0.011,0.101-0.039,0.361-0.19,0.574C299.25,30.007,298.899,30.314,298.517,30.782z M300.89,32.123
			c-0.059,0.089-0.158,0.628-0.25,1.588c-0.041,0.441-0.281,0.668-0.728,0.668c-0.547,0-0.777-0.289-0.746-0.823
			c0.022-0.368,0.035-0.764,0.067-1.147c0.032-0.383,0.172-0.745,0.394-1.09c0.154-0.237,0.357-0.363,0.612-0.363
			c0.521,0,0.784,0.249,0.784,0.746C301.024,31.841,300.98,31.988,300.89,32.123z M299.76,27.416
			c0.204-0.312,0.598-0.819,1.034-1.491c0.154-0.239,0.357-0.365,0.612-0.365c0.521,0,0.784,0.241,0.784,0.727
			c0,0.14-0.035,0.286-0.116,0.399c-0.208,0.303-0.607,0.787-0.994,1.417c-0.157,0.256-0.369,0.402-0.648,0.402
			c-0.513,0-0.767-0.241-0.767-0.727C299.664,27.651,299.693,27.52,299.76,27.416z M301.041,19.757
			c-0.497,0-0.746-0.189-0.746-0.687c0-0.498,0.251-0.716,0.746-0.716c1.084,0,1.708,0.049,1.856,0.092
			c0.448,0.128,0.709,0.3,0.709,0.543c0,0.205-0.144,0.409-0.43,0.606c-0.288,0.198-0.54,0.226-0.738,0.22
			c-0.062-0.002-0.192-0.059-0.384-0.059C301.65,19.757,301.448,19.757,301.041,19.757z M301.769,36.714
			c0.284,0.487,0.628,0.817,1.036,0.957c0.342,0.117,0.516,0.345,0.516,0.688c0,0.51-0.242,0.767-0.727,0.767
			c-0.077,0-0.174-0.012-0.27-0.039c-0.744-0.219-1.377-0.823-1.854-1.646c-0.075-0.125-0.116-0.254-0.116-0.383
			c0-0.482,0.26-0.726,0.784-0.726C301.406,36.331,301.621,36.462,301.769,36.714z M304.563,22.231
			c-0.259,0.448-0.48,1.034-0.728,1.529c-0.352,0.708-0.709,1.072-1.014,1.072c-0.512,0-0.767-0.251-0.767-0.746
			c0-0.114,0.026-0.229,0.077-0.345c0.228-0.508,0.619-1.293,1.187-2.295c0.137-0.241,0.338-0.364,0.594-0.364
			c0.524,0,0.784,0.25,0.784,0.747C304.695,21.969,304.636,22.107,304.563,22.231z M306.78,17.544
			c-0.225,0.365-0.539,1.039-0.993,1.799c-0.144,0.24-0.358,0.363-0.611,0.363c-0.525,0-0.783-0.249-0.783-0.747
			c0-0.14,0.057-0.285,0.134-0.42c0.216-0.393,0.544-1.102,1.052-1.875c0.14-0.214,0.345-0.325,0.572-0.325
			c0.525,0,0.784,0.249,0.784,0.747C306.935,17.25,306.869,17.407,306.78,17.544z M305.959,37.02
			c0.357-0.064,0.825-0.291,1.38-0.593c0.121-0.066,0.255-0.096,0.383-0.096c0.484,0,0.726,0.255,0.726,0.765
			c0,0.283-0.133,0.491-0.382,0.632c-0.699,0.396-1.323,0.652-1.838,0.746c-0.581,0.104-0.88-0.135-0.88-0.746
			C305.348,37.333,305.553,37.094,305.959,37.02z M307.319,18.31c0.101,0,0.228-0.007,0.383-0.019
			c0.152-0.013,0.285-0.019,0.401-0.019c0.483,0,0.728,0.249,0.728,0.747c0,0.497-0.244,0.746-0.728,0.746
			c-0.116,0-0.25,0.006-0.401,0.02c-0.155,0.014-0.282,0.019-0.383,0.019c-0.5,0-0.746-0.249-0.746-0.746
			C306.573,18.558,306.819,18.31,307.319,18.31z M309.194,12.799c-0.14,0.106-0.329,0.387-0.566,0.814
			c-0.236,0.428-0.446,0.737-0.62,0.871c-0.14,0.104-0.307,0.154-0.46,0.154c-0.51,0-0.767-0.255-0.767-0.766
			c0-0.166,0.17-0.369,0.307-0.574c0.202-0.301,0.593-1.144,1.224-1.704c0.121-0.105,0.307-0.154,0.459-0.154
			c0.499,0,0.748,0.262,0.748,0.785C309.52,12.455,309.396,12.645,309.194,12.799z M311.298,8.36
			c-0.235,0.301-0.466,0.696-0.707,1.052c-0.331,0.484-0.618,0.727-0.862,0.727c-0.523,0-0.784-0.242-0.784-0.727
			c0-0.115,0.023-0.231,0.077-0.344c0.261-0.572,0.662-1.152,1.187-1.722c0.153-0.166,0.332-0.25,0.535-0.25
			c0.509,0,0.767,0.256,0.767,0.766C311.51,8.041,311.415,8.209,311.298,8.36z M311.489,18.348c0.425,0.064,0.688,0.287,0.688,0.747
			c0,0.497-0.249,0.746-0.746,0.746c-0.052,0-0.145-0.027-0.25-0.039c-0.066-0.007-0.172,0.007-0.286,0.019
			c-0.115,0.013-0.21,0.019-0.287,0.019c-0.498,0-0.746-0.249-0.746-0.746c0-0.497,0.249-0.747,0.746-0.747
			c0.077,0,0.172-0.006,0.287-0.019c0.115-0.012,0.211-0.019,0.286-0.019C311.272,18.31,311.38,18.331,311.489,18.348z
			 M309.938,34.726c0.051-0.268,0.466-0.785,1.243-1.551c0.025-0.024,0.059-0.053,0.079-0.077c0.146-0.187,0.349-0.345,0.63-0.345
			c0.497,0,0.746,0.216,0.746,0.649c0,0.293-0.17,0.661-0.498,0.937c-0.154,0.132-0.589,0.375-0.727,0.634
			c-0.14,0.26-0.314,0.63-0.709,0.63C310.093,35.604,309.832,35.306,309.938,34.726z M313.71,31.416
			c-0.116-0.091-0.179-0.282-0.191-0.574c-0.013-0.282,0.02-0.478,0.097-0.573c0.344-0.431,0.685-0.885,0.842-0.957
			c0.332-0.155,1.161,0.433,1.13,0.784c-0.042,0.427-0.666,1.005-1.036,1.167C314.109,31.454,313.823,31.504,313.71,31.416z"/>
		<path fill="#C1272D" stroke="#C1272D" stroke-width="0.5" stroke-miterlimit="10" d="M313.919,34.36
			c0.091,0.188,0.327,0.421,0.669,0.671c0.214,0.154,0.324,0.352,0.324,0.593c0,0.51-0.247,0.765-0.745,0.765
			c-0.152,0-0.298-0.053-0.438-0.154c-0.537-0.382-0.924-0.788-1.128-1.203c-0.063-0.128-0.097-0.25-0.097-0.363
			c0-0.485,0.26-0.728,0.783-0.728C313.58,33.94,313.787,34.094,313.919,34.36z M315.012,30.782
			c-0.077,0.097-0.191,0.155-0.345,0.155c-0.219,0-0.419-0.093-0.604-0.276c-0.184-0.187-0.28-0.464-0.201-0.625
			c0.173-0.339,0.727-0.857,1.188-1.395c0.086-0.101,0.185-0.152,0.286-0.152c0.409,0,0.63,0.284,0.689,0.822
			c0.011,0.101-0.038,0.361-0.191,0.574C315.745,30.007,315.393,30.314,315.012,30.782z M317.229,37.097
			c0.368,0.064,0.574,0.324,0.574,0.707c0,0.511-0.236,0.767-0.708,0.767c-0.039,0-0.46-0.123-1.244-0.383
			c-0.343-0.112-0.518-0.345-0.518-0.689c0-0.522,0.242-0.784,0.728-0.784c0.128,0,0.329,0.059,0.604,0.181
			C316.939,37.016,317.135,37.08,317.229,37.097z M317,26.803c0.262-0.291,0.76-0.759,1.357-1.396
			c0.155-0.162,0.331-0.249,0.535-0.249c0.512,0,0.766,0.255,0.766,0.768c0,0.178-0.069,0.362-0.209,0.496
			c-0.258,0.245-0.788,0.651-1.227,1.206c-0.155,0.199-0.349,0.345-0.593,0.345c-0.524,0-0.785-0.251-0.785-0.746
			C316.846,27.071,316.897,26.919,317,26.803z M321.726,38.283c-0.635,0.337-1.239,0.518-1.799,0.518
			c-0.498,0-0.746-0.251-0.746-0.748c0-0.484,0.248-0.727,0.746-0.727c0.306,0,0.683-0.11,1.09-0.344
			c0.126-0.071,0.256-0.113,0.384-0.113c0.485,0,0.727,0.26,0.727,0.784C322.128,37.933,321.991,38.143,321.726,38.283z
			 M320.253,23.476c0.219-0.417,0.583-0.774,1.015-1.073c0.138-0.097,0.285-0.153,0.44-0.153c0.483,0,0.727,0.262,0.727,0.784
			c0,0.243-0.111,0.449-0.328,0.593c-0.246,0.168-0.438,0.361-0.554,0.576c-0.137,0.255-0.352,0.38-0.632,0.38
			c-0.511,0-0.765-0.241-0.765-0.727C320.157,23.73,320.189,23.599,320.253,23.476z M324.404,35.241
			c-0.175,0.35-0.471,0.824-0.766,1.397c-0.141,0.274-0.35,0.419-0.632,0.419c-0.523,0-0.784-0.249-0.784-0.744
			c0-0.118,0.032-0.231,0.097-0.346c0.161-0.277,0.421-0.738,0.727-1.358c0.141-0.287,0.355-0.438,0.65-0.438
			c0.522,0,0.783,0.241,0.783,0.726C324.481,35.011,324.459,35.134,324.404,35.241z M323.046,20.663
			c0.384-0.54,0.716-0.948,0.997-1.168c0.148-0.116,0.312-0.171,0.476-0.171c0.5,0,0.748,0.255,0.748,0.766
			c0,0.229-0.093,0.414-0.278,0.555c-0.186,0.139-0.429,0.438-0.736,0.879c-0.151,0.217-0.352,0.326-0.595,0.326
			c-0.511,0-0.767-0.25-0.767-0.747C322.893,20.95,322.947,20.803,323.046,20.663z M324.788,24.641
			c-0.032,1.054,0.033,1.792,0.229,2.161c0.06,0.114,0.095,0.23,0.095,0.347c0,0.485-0.26,0.727-0.782,0.727
			c-0.294,0-0.512-0.141-0.65-0.42c-0.294-0.597-0.419-1.553-0.383-2.852c0.015-0.483,0.26-0.727,0.746-0.727
			C324.551,23.877,324.803,24.137,324.788,24.641z M325.496,30.611c-0.049,0.928-0.077,1.537-0.077,1.817
			c0,0.484-0.25,0.728-0.745,0.728c-0.498,0-0.746-0.243-0.746-0.728c0-0.306,0.023-0.938,0.076-1.895
			c0.025-0.472,0.269-0.707,0.727-0.707C325.267,29.827,325.521,30.09,325.496,30.611z M324.875,35.651
			c0.146-0.146,0.396-0.375,0.64-0.678c0.155-0.193,0.345-0.326,0.574-0.326c0.522,0,0.784,0.249,0.784,0.746
			c0,0.154-0.049,0.315-0.153,0.44c-0.146,0.177-0.429,0.447-0.746,0.805c-0.155,0.172-0.338,0.267-0.555,0.267
			c-0.51,0-0.766-0.254-0.766-0.764C324.652,35.961,324.726,35.801,324.875,35.651z M327.649,33.356
			c0.146-0.173,0.392-0.48,0.716-0.738c0.118-0.092,0.283-0.132,0.423-0.132c0.496,0,0.743,0.259,0.743,0.784
			c0,0.243-0.113,0.438-0.344,0.593c-0.038,0.025-0.184,0.186-0.42,0.477c-0.155,0.19-0.339,0.289-0.555,0.289
			c-0.523,0-0.786-0.255-0.786-0.765C327.427,33.697,327.501,33.528,327.649,33.356z M330.585,31.416
			c-0.114-0.102-0.177-0.295-0.19-0.574c-0.013-0.282,0.019-0.478,0.097-0.573c0.344-0.431,0.685-0.885,0.84-0.957
			c0.335-0.155,1.163,0.433,1.13,0.784c-0.04,0.427-0.667,1.009-1.035,1.167C330.975,31.456,330.687,31.504,330.585,31.416z"/>
	</g>
</g>
</svg>
